<svg width="48" height="48" viewBox="0 0 48 48" fill="none" xmlns="http://www.w3.org/2000/svg">
<path d="M0 23.04C0 12.1788 0 6.74826 3.37413 3.37413C6.74826 0 12.1788 0 23.04 0H24.96C35.8212 0 41.2517 0 44.6259 3.37413C48 6.74826 48 12.1788 48 23.04V24.96C48 35.8212 48 41.2517 44.6259 44.6259C41.2517 48 35.8212 48 24.96 48H23.04C12.1788 48 6.74826 48 3.37413 44.6259C0 41.2517 0 35.8212 0 24.96V23.04Z" fill="#FC3F1D"/>
<path d="M32.6667 39.0356H27.4089V13.0311H25.0667C20.7733 13.0311 18.5245 15.1778 18.5245 18.3822C18.5245 22.0178 20.0756 23.7022 23.2845 25.8489L25.9289 27.6311L18.3289 39.0311H12.6756L19.5156 28.8534C15.5822 26.0445 13.3689 23.3022 13.3689 18.6756C13.3689 12.8934 17.4 8.96002 25.0311 8.96002H32.6311V39.0267H32.6667V39.0356Z" fill="white"/>
</svg>
