<svg width="48" height="48" viewBox="0 0 48 48" fill="none" xmlns="http://www.w3.org/2000/svg">
<path d="M0 23.04C0 12.1788 0 6.74826 3.37413 3.37413C6.74826 0 12.1788 0 23.04 0H24.96C35.8212 0 41.2517 0 44.6259 3.37413C48 6.74826 48 12.1788 48 23.04V24.96C48 35.8212 48 41.2517 44.6259 44.6259C41.2517 48 35.8212 48 24.96 48H23.04C12.1788 48 6.74826 48 3.37413 44.6259C0 41.2517 0 35.8212 0 24.96V23.04Z" fill="#FF8800"/>
<path d="M24.0465 24.4733C28.0504 24.4733 31.3144 21.2092 31.3144 17.2054C31.3144 13.2015 28.0504 9.9375 24.0465 9.9375C19.9992 9.9375 16.7351 13.2015 16.7351 17.2054C16.7351 21.2092 19.9992 24.4733 24.0465 24.4733ZM24.0465 14.2025C25.7003 14.2025 27.0494 15.5516 27.0494 17.2054C27.0494 18.8591 25.7003 20.2083 24.0465 20.2083C22.3928 20.2083 21.0436 18.8591 21.0436 17.2054C21.0001 15.5516 22.3492 14.2025 24.0465 14.2025Z" fill="white"/>
<path d="M26.9624 30.4356C28.4421 30.0874 29.8782 29.5216 31.184 28.6948C32.1847 28.0855 32.4894 26.7364 31.8367 25.7354C31.2275 24.7344 29.8782 24.4298 28.8773 25.0826C25.9179 26.954 22.0446 26.954 19.0852 25.0826C18.0843 24.4733 16.7787 24.7344 16.1259 25.7354C15.5601 26.7364 15.8647 28.042 16.8657 28.6512C18.1713 29.4781 19.6075 30.0439 21.0871 30.3921L17.0398 34.4395C16.2129 35.2664 16.2129 36.6155 17.0398 37.4424C17.475 37.8774 17.9972 38.0516 18.563 38.0516C19.1287 38.0516 19.651 37.834 20.0862 37.4424L24.09 33.4385L28.0939 37.4424C28.9208 38.2693 30.2699 38.2693 31.0968 37.4424C31.9236 36.6155 31.9236 35.2664 31.0968 34.4395L26.9624 30.4356Z" fill="white"/>
</svg>
