<svg width="32" height="69" viewBox="0 0 32 69" fill="none" xmlns="http://www.w3.org/2000/svg">
<path d="M0.71875 69V59.3906L7.79688 57.8906V11.9062L0.71875 10.4062V0.75H31.2812V10.4062L24.2031 11.9062V57.8906L31.2812 59.3906V69H0.71875Z" fill="url(#paint0_linear_352:87)"/>
<path d="M0.71875 69H-1.28125V71H0.71875V69ZM0.71875 59.3906L0.304117 57.4341L-1.28125 57.77V59.3906H0.71875ZM7.79688 57.8906L8.21151 59.8472L9.79688 59.5112V57.8906H7.79688ZM7.79688 11.9062H9.79688V10.2857L8.21151 9.9497L7.79688 11.9062ZM0.71875 10.4062H-1.28125V12.0268L0.304117 12.3628L0.71875 10.4062ZM0.71875 0.75V-1.25H-1.28125V0.75H0.71875ZM31.2812 0.75H33.2812V-1.25H31.2812V0.75ZM31.2812 10.4062L31.6959 12.3628L33.2812 12.0268V10.4062H31.2812ZM24.2031 11.9062L23.7885 9.9497L22.2031 10.2857V11.9062H24.2031ZM24.2031 57.8906H22.2031V59.5112L23.7885 59.8472L24.2031 57.8906ZM31.2812 59.3906H33.2812V57.77L31.6959 57.4341L31.2812 59.3906ZM31.2812 69V71H33.2812V69H31.2812ZM2.71875 69V59.3906H-1.28125V69H2.71875ZM1.13338 61.3472L8.21151 59.8472L7.38224 55.9341L0.304117 57.4341L1.13338 61.3472ZM9.79688 57.8906V11.9062H5.79688V57.8906H9.79688ZM8.21151 9.9497L1.13338 8.4497L0.304117 12.3628L7.38224 13.8628L8.21151 9.9497ZM2.71875 10.4062V0.75H-1.28125V10.4062H2.71875ZM0.71875 2.75H31.2812V-1.25H0.71875V2.75ZM29.2812 0.75V10.4062H33.2812V0.75H29.2812ZM30.8666 8.4497L23.7885 9.9497L24.6178 13.8628L31.6959 12.3628L30.8666 8.4497ZM22.2031 11.9062V57.8906H26.2031V11.9062H22.2031ZM23.7885 59.8472L30.8666 61.3472L31.6959 57.4341L24.6178 55.9341L23.7885 59.8472ZM29.2812 59.3906V69H33.2812V59.3906H29.2812ZM31.2812 67H0.71875V71H31.2812V67Z" fill="#142C00"/>
<defs>
<linearGradient id="paint0_linear_352:87" x1="16" y1="-16" x2="16" y2="80" gradientUnits="userSpaceOnUse">
<stop stop-color="#7BC838"/>
<stop offset="1" stop-color="#3A6F0C"/>
</linearGradient>
</defs>
</svg>
