<svg width="66" height="69" viewBox="0 0 66 69" fill="none" xmlns="http://www.w3.org/2000/svg">
<path d="M0.5625 69V59.3906L7.64062 57.8906V11.9062L0.5625 10.4062V0.75H31.125V10.4062L24.0469 11.9062V57.8906L31.125 59.3906V69H0.5625ZM34.875 69V59.3906L41.9531 57.8906V11.9062L34.875 10.4062V0.75H65.4375V10.4062L58.3594 11.9062V57.8906L65.4375 59.3906V69H34.875Z" fill="url(#paint0_linear_352:88)"/>
<path d="M0.5625 69H-1.4375V71H0.5625V69ZM0.5625 59.3906L0.147867 57.4341L-1.4375 57.77V59.3906H0.5625ZM7.64062 57.8906L8.05526 59.8472L9.64062 59.5112V57.8906H7.64062ZM7.64062 11.9062H9.64062V10.2857L8.05526 9.9497L7.64062 11.9062ZM0.5625 10.4062H-1.4375V12.0268L0.147867 12.3628L0.5625 10.4062ZM0.5625 0.75V-1.25H-1.4375V0.75H0.5625ZM31.125 0.75H33.125V-1.25H31.125V0.75ZM31.125 10.4062L31.5396 12.3628L33.125 12.0268V10.4062H31.125ZM24.0469 11.9062L23.6322 9.9497L22.0469 10.2857V11.9062H24.0469ZM24.0469 57.8906H22.0469V59.5112L23.6322 59.8472L24.0469 57.8906ZM31.125 59.3906H33.125V57.77L31.5396 57.4341L31.125 59.3906ZM31.125 69V71H33.125V69H31.125ZM2.5625 69V59.3906H-1.4375V69H2.5625ZM0.977133 61.3472L8.05526 59.8472L7.22599 55.9341L0.147867 57.4341L0.977133 61.3472ZM9.64062 57.8906V11.9062H5.64062V57.8906H9.64062ZM8.05526 9.9497L0.977133 8.4497L0.147867 12.3628L7.22599 13.8628L8.05526 9.9497ZM2.5625 10.4062V0.75H-1.4375V10.4062H2.5625ZM0.5625 2.75H31.125V-1.25H0.5625V2.75ZM29.125 0.75V10.4062H33.125V0.75H29.125ZM30.7104 8.4497L23.6322 9.9497L24.4615 13.8628L31.5396 12.3628L30.7104 8.4497ZM22.0469 11.9062V57.8906H26.0469V11.9062H22.0469ZM23.6322 59.8472L30.7104 61.3472L31.5396 57.4341L24.4615 55.9341L23.6322 59.8472ZM29.125 59.3906V69H33.125V59.3906H29.125ZM31.125 67H0.5625V71H31.125V67ZM34.875 69H32.875V71H34.875V69ZM34.875 59.3906L34.4604 57.4341L32.875 57.77V59.3906H34.875ZM41.9531 57.8906L42.3678 59.8472L43.9531 59.5112V57.8906H41.9531ZM41.9531 11.9062H43.9531V10.2857L42.3678 9.9497L41.9531 11.9062ZM34.875 10.4062H32.875V12.0268L34.4604 12.3628L34.875 10.4062ZM34.875 0.75V-1.25H32.875V0.75H34.875ZM65.4375 0.75H67.4375V-1.25H65.4375V0.75ZM65.4375 10.4062L65.8521 12.3628L67.4375 12.0268V10.4062H65.4375ZM58.3594 11.9062L57.9447 9.9497L56.3594 10.2857V11.9062H58.3594ZM58.3594 57.8906H56.3594V59.5112L57.9447 59.8472L58.3594 57.8906ZM65.4375 59.3906H67.4375V57.77L65.8521 57.4341L65.4375 59.3906ZM65.4375 69V71H67.4375V69H65.4375ZM36.875 69V59.3906H32.875V69H36.875ZM35.2896 61.3472L42.3678 59.8472L41.5385 55.9341L34.4604 57.4341L35.2896 61.3472ZM43.9531 57.8906V11.9062H39.9531V57.8906H43.9531ZM42.3678 9.9497L35.2896 8.4497L34.4604 12.3628L41.5385 13.8628L42.3678 9.9497ZM36.875 10.4062V0.75H32.875V10.4062H36.875ZM34.875 2.75H65.4375V-1.25H34.875V2.75ZM63.4375 0.75V10.4062H67.4375V0.75H63.4375ZM65.0229 8.4497L57.9447 9.9497L58.774 13.8628L65.8521 12.3628L65.0229 8.4497ZM56.3594 11.9062V57.8906H60.3594V11.9062H56.3594ZM57.9447 59.8472L65.0229 61.3472L65.8521 57.4341L58.774 55.9341L57.9447 59.8472ZM63.4375 59.3906V69H67.4375V59.3906H63.4375ZM65.4375 67H34.875V71H65.4375V67Z" fill="#0C1944"/>
<defs>
<linearGradient id="paint0_linear_352:88" x1="33" y1="-16" x2="33" y2="80" gradientUnits="userSpaceOnUse">
<stop stop-color="#557CFD"/>
<stop offset="1" stop-color="#0E277B"/>
</linearGradient>
</defs>
</svg>
