<svg width="105" height="69" viewBox="0 0 105 69" fill="none" xmlns="http://www.w3.org/2000/svg">
<path d="M0.34375 69V59.3906L7.42188 57.8906V11.9062L0.34375 10.4062V0.75H30.9062V10.4062L23.8281 11.9062V57.8906L30.9062 59.3906V69H0.34375ZM61.3281 69L39.9531 11.1562L33.4844 10.4062V0.75H64.0938V10.4062L58 11.3438L70.2344 49.6875L70.8906 52.3594H71.1719L71.7812 49.8281L83.6406 11.3438L76.3281 10.4062V0.75H104.922V10.4062L98.2656 11.1562L79.1406 69H61.3281Z" fill="url(#paint0_linear_352:90)"/>
<path d="M0.34375 69H-1.65625V71H0.34375V69ZM0.34375 59.3906L-0.0708827 57.4341L-1.65625 57.77V59.3906H0.34375ZM7.42188 57.8906L7.83651 59.8472L9.42188 59.5112V57.8906H7.42188ZM7.42188 11.9062H9.42188V10.2857L7.83651 9.9497L7.42188 11.9062ZM0.34375 10.4062H-1.65625V12.0268L-0.0708827 12.3628L0.34375 10.4062ZM0.34375 0.75V-1.25H-1.65625V0.75H0.34375ZM30.9062 0.75H32.9062V-1.25H30.9062V0.75ZM30.9062 10.4062L31.3209 12.3628L32.9062 12.0268V10.4062H30.9062ZM23.8281 11.9062L23.4135 9.9497L21.8281 10.2857V11.9062H23.8281ZM23.8281 57.8906H21.8281V59.5112L23.4135 59.8472L23.8281 57.8906ZM30.9062 59.3906H32.9062V57.77L31.3209 57.4341L30.9062 59.3906ZM30.9062 69V71H32.9062V69H30.9062ZM2.34375 69V59.3906H-1.65625V69H2.34375ZM0.758383 61.3472L7.83651 59.8472L7.00724 55.9341L-0.0708827 57.4341L0.758383 61.3472ZM9.42188 57.8906V11.9062H5.42188V57.8906H9.42188ZM7.83651 9.9497L0.758383 8.4497L-0.0708827 12.3628L7.00724 13.8628L7.83651 9.9497ZM2.34375 10.4062V0.75H-1.65625V10.4062H2.34375ZM0.34375 2.75H30.9062V-1.25H0.34375V2.75ZM28.9062 0.75V10.4062H32.9062V0.75H28.9062ZM30.4916 8.4497L23.4135 9.9497L24.2428 13.8628L31.3209 12.3628L30.4916 8.4497ZM21.8281 11.9062V57.8906H25.8281V11.9062H21.8281ZM23.4135 59.8472L30.4916 61.3472L31.3209 57.4341L24.2428 55.9341L23.4135 59.8472ZM28.9062 59.3906V69H32.9062V59.3906H28.9062ZM30.9062 67H0.34375V71H30.9062V67ZM61.3281 69L59.4521 69.6932L59.935 71H61.3281V69ZM39.9531 11.1562L41.8291 10.463L41.4034 9.311L40.1835 9.16956L39.9531 11.1562ZM33.4844 10.4062H31.4844V12.1878L33.254 12.3929L33.4844 10.4062ZM33.4844 0.75V-1.25H31.4844V0.75H33.4844ZM64.0938 0.75H66.0938V-1.25H64.0938V0.75ZM64.0938 10.4062L64.3979 12.383L66.0938 12.1221V10.4062H64.0938ZM58 11.3438L57.6959 9.36701L55.3835 9.72277L56.0946 11.9517L58 11.3438ZM70.2344 49.6875L72.1766 49.2105L72.1604 49.1444L72.1397 49.0796L70.2344 49.6875ZM70.8906 52.3594L68.9484 52.8364L69.3224 54.3594H70.8906V52.3594ZM71.1719 52.3594V54.3594H72.7475L73.1163 52.8275L71.1719 52.3594ZM71.7812 49.8281L69.8699 49.2391L69.8515 49.2991L69.8368 49.36L71.7812 49.8281ZM83.6406 11.3438L85.5519 11.9327L86.2516 9.66213L83.895 9.35999L83.6406 11.3438ZM76.3281 10.4062H74.3281V12.1662L76.0738 12.39L76.3281 10.4062ZM76.3281 0.75V-1.25H74.3281V0.75H76.3281ZM104.922 0.75H106.922V-1.25H104.922V0.75ZM104.922 10.4062L105.146 12.3937L106.922 12.1936V10.4062H104.922ZM98.2656 11.1562L98.0417 9.16883L96.7688 9.31225L96.3667 10.5284L98.2656 11.1562ZM79.1406 69V71H80.5858L81.0395 69.6278L79.1406 69ZM63.2041 68.3068L41.8291 10.463L38.0771 11.8495L59.4521 69.6932L63.2041 68.3068ZM40.1835 9.16956L33.7147 8.41956L33.254 12.3929L39.7228 13.1429L40.1835 9.16956ZM35.4844 10.4062V0.75H31.4844V10.4062H35.4844ZM33.4844 2.75H64.0938V-1.25H33.4844V2.75ZM62.0938 0.75V10.4062H66.0938V0.75H62.0938ZM63.7896 8.42951L57.6959 9.36701L58.3041 13.3205L64.3979 12.383L63.7896 8.42951ZM56.0946 11.9517L68.329 50.2954L72.1397 49.0796L59.9054 10.7358L56.0946 11.9517ZM68.2921 50.1645L68.9484 52.8364L72.8329 51.8823L72.1766 49.2105L68.2921 50.1645ZM70.8906 54.3594H71.1719V50.3594H70.8906V54.3594ZM73.1163 52.8275L73.7257 50.2962L69.8368 49.36L69.2274 51.8913L73.1163 52.8275ZM73.6926 50.4171L85.5519 11.9327L81.7293 10.7548L69.8699 49.2391L73.6926 50.4171ZM83.895 9.35999L76.5825 8.42249L76.0738 12.39L83.3863 13.3275L83.895 9.35999ZM78.3281 10.4062V0.75H74.3281V10.4062H78.3281ZM76.3281 2.75H104.922V-1.25H76.3281V2.75ZM102.922 0.75V10.4062H106.922V0.75H102.922ZM104.698 8.41883L98.0417 9.16883L98.4896 13.1437L105.146 12.3937L104.698 8.41883ZM96.3667 10.5284L77.2417 68.3722L81.0395 69.6278L100.165 11.7841L96.3667 10.5284ZM79.1406 67H61.3281V71H79.1406V67Z" fill="#2E2006"/>
<defs>
<linearGradient id="paint0_linear_352:90" x1="52" y1="-16" x2="52" y2="80" gradientUnits="userSpaceOnUse">
<stop stop-color="#FFAC0F"/>
<stop offset="1" stop-color="#724E0C"/>
</linearGradient>
</defs>
</svg>
