<svg xmlns="http://www.w3.org/2000/svg" viewBox="0 0 64 64" width="64" height="64" preserveAspectRatio="xMidYMid meet"
    style="width: 100%; height: 100%; transform: translate3d(0px, 0px, 0px);">
    <defs>
        <clipPath id="__lottie_element_1248">
            <rect width="64" height="64" x="0" y="0" />
        </clipPath>
        <clipPath id="__lottie_element_1250">
            <path d="M0,0 L512,0 L512,512 L0,512z" />
        </clipPath>
        <radialGradient id="__lottie_element_1257" spreadMethod="pad" gradientUnits="userSpaceOnUse" cx="-2" cy="-24.5"
            r="62.41100311279297" fx="-2" fy="-24.5">
            <stop offset="0%" stop-color="rgb(254,238,150)" />
            <stop offset="72%" stop-color="rgb(254,182,86)" />
            <stop offset="100%" stop-color="rgb(255,125,23)" />
        </radialGradient>
        <radialGradient id="__lottie_element_1278" spreadMethod="pad" gradientUnits="userSpaceOnUse"
            cx="-19.66699981689453" cy="0.4740000069141388" r="15.756937430671877" fx="-19.50220408082062"
            fy="0.3624321211471204">
            <stop offset="0%" stop-color="rgb(0,219,255)" />
            <stop offset="50%" stop-color="rgb(0,201,254)" />
            <stop offset="100%" stop-color="rgb(0,183,253)" />
        </radialGradient>
        <radialGradient id="__lottie_element_1282" spreadMethod="pad" gradientUnits="userSpaceOnUse"
            cx="-19.66699981689453" cy="0.4740000069141388" r="15.756937430671877" fx="-19.50220408082062"
            fy="0.3624321211471204">
            <stop offset="0%" stop-color="rgb(0,219,255)" />
            <stop offset="50%" stop-color="rgb(0,201,254)" />
            <stop offset="100%" stop-color="rgb(0,183,253)" />
        </radialGradient>
        <radialGradient id="__lottie_element_1351" spreadMethod="pad" gradientUnits="userSpaceOnUse"
            cx="-19.66699981689453" cy="0.4740000069141388" r="15.756937430671877" fx="-19.50220408082062"
            fy="0.3624321211471204">
            <stop offset="0%" stop-color="rgb(0,219,255)" />
            <stop offset="50%" stop-color="rgb(0,201,254)" />
            <stop offset="100%" stop-color="rgb(0,183,253)" />
        </radialGradient>
    </defs>
    <g clip-path="url(#__lottie_element_1248)">
        <g clip-path="url(#__lottie_element_1250)" transform="matrix(0.125,0,0,0.125,0,0)" opacity="1"
            style="display: block;">
            <g transform="matrix(6.118711471557617,-0.0000016559181403863477,0.0000015916639313218184,5.881288528442383,255.9999542236328,259.79876708984375)"
                opacity="1" style="display: block;">
                <g opacity="1" transform="matrix(1,0,0,1,0,0)">
                    <path fill="url(#__lottie_element_1257)" fill-opacity="1"
                        d=" M32,0 C32,17.67300033569336 17.67300033569336,32 0,32 C-17.67300033569336,32 -32,17.67300033569336 -32,0 C-32,-17.67300033569336 -17.67300033569336,-32 0,-32 C17.67300033569336,-32 32,-17.67300033569336 32,0z" />
                </g>
            </g>
            <g transform="matrix(6.118217468261719,-0.000001655784444665187,0.0000015915353515083552,5.8808135986328125,255.99740600585938,314.5264587402344)"
                opacity="1" style="display: block;">
                <g opacity="1" transform="matrix(1,0,0,1,0,0)">
                    <path fill="rgb(91,49,40)" fill-opacity="1"
                        d=" M-10.629204750061035,11.895332336425781 C-10.228204727172852,10.358331680297852 -7,4.136000156402588 -0.03500000014901161,4.136000156402588 C6.084000110626221,4.136000156402588 9.45814323425293,9.316361427307129 10.271142959594727,12.000361442565918 C10.472143173217773,12.662362098693848 10.064143180847168,13.404361724853516 9.403142929077148,13.608362197875977 C8.770143508911133,13.817361831665039 8.227143287658691,13.785362243652344 7.727143287658691,13.183362007141113 C7.328143119812012,12.679361343383789 4.0920000076293945,9.135000228881836 -0.08500000089406967,9.04699993133545 C-4.0329999923706055,8.96399974822998 -7.20920467376709,12.31733226776123 -7.869204521179199,13.142332077026367 C-8.359204292297363,13.754332542419434 -9.305206298828125,13.857330322265625 -9.87420654296875,13.46133041381836 C-10.307207107543945,13.159330368041992 -10.754204750061035,12.37633228302002 -10.629204750061035,11.895332336425781z" />
                </g>
            </g>
            <g transform="matrix(-6.118217468261719,0.000001655784444665187,0.0000015915353515083552,5.8808135986328125,255.99996948242188,329.2255554199219)"
                opacity="1" style="display: block;">
                <g opacity="1"
                    transform="matrix(1.2170000076293945,0,0,1.1430000066757202,-2.1700000762939453,1.564133644104004)">
                    <g opacity="1" transform="matrix(1,0,0,1,0,0)">
                        <path fill="rgb(91,49,40)" fill-opacity="1"
                            d=" M6,-11 C6,-7.133999824523926 7.790999889373779,-4.916999816894531 10,-4.916999816894531 C12.208999633789062,-4.916999816894531 14,-7.133999824523926 14,-11 C14,-14.866000175476074 12.208999633789062,-16.95800018310547 10,-16.95800018310547 C7.790999889373779,-16.95800018310547 6,-14.866000175476074 6,-11z" />
                    </g>
                </g>
                <g opacity="1" transform="matrix(1,0,0,1,0,0.05200004577636719)">
                    <g opacity="1" transform="matrix(1,0,0,1,1,0)">
                        <path fill="rgb(255,255,255)" fill-opacity="1"
                            d=" M8,-12.958000183105469 C8,-11.852999687194824 8.895000457763672,-10.958000183105469 10,-10.958000183105469 C11.104999542236328,-10.958000183105469 12,-11.852999687194824 12,-12.958000183105469 C12,-14.062999725341797 11.104999542236328,-14.958000183105469 10,-14.958000183105469 C8.895000457763672,-14.958000183105469 8,-14.062999725341797 8,-12.958000183105469z" />
                    </g>
                </g>
            </g>
            <g transform="matrix(6.118217468261719,-0.000001655784444665187,0.0000015915353515083552,5.8808135986328125,256.50982666015625,329.2255554199219)"
                opacity="1" style="display: block;">
                <g opacity="1"
                    transform="matrix(1.2170000076293945,0,0,1.1430000066757202,-2.1700000762939453,1.564133644104004)">
                    <g opacity="1" transform="matrix(1,0,0,1,0,0)">
                        <path fill="rgb(91,49,40)" fill-opacity="1"
                            d=" M6,-11 C6,-7.133999824523926 7.790999889373779,-4.916999816894531 10,-4.916999816894531 C12.208999633789062,-4.916999816894531 14,-7.133999824523926 14,-11 C14,-14.866000175476074 12.208999633789062,-16.95800018310547 10,-16.95800018310547 C7.790999889373779,-16.95800018310547 6,-14.866000175476074 6,-11z" />
                    </g>
                </g>
                <g opacity="1" transform="matrix(1,0,0,1,-2,0.05200004577636719)">
                    <g opacity="1" transform="matrix(1,0,0,1,1,0)">
                        <path fill="rgb(255,255,255)" fill-opacity="1"
                            d=" M8,-12.958000183105469 C8,-11.852999687194824 8.895000457763672,-10.958000183105469 10,-10.958000183105469 C11.104999542236328,-10.958000183105469 12,-11.852999687194824 12,-12.958000183105469 C12,-14.062999725341797 11.104999542236328,-14.958000183105469 10,-14.958000183105469 C8.895000457763672,-14.958000183105469 8,-14.062999725341797 8,-12.958000183105469z" />
                    </g>
                </g>
            </g>
            <g transform="matrix(6.409852981567383,-0.0000017347103948850418,0.000001667398805693665,6.1611328125,253.8250274658203,317.1842041015625)"
                opacity="1" style="display: block;">
                <g opacity="1" transform="matrix(1,0,0,1,0,0)">
                    <path fill="rgb(91,49,40)" fill-opacity="1"
                        d=" M-7.001999855041504,-19.333999633789062 C-7.611999988555908,-18.54800033569336 -8.142000198364258,-17.937999725341797 -8.831999778747559,-17.399999618530273 C-9.508999824523926,-16.878999710083008 -10.243000030517578,-16.43600082397461 -11.020999908447266,-16.089000701904297 C-11.795999526977539,-15.739999771118164 -12.607000350952148,-15.468000411987305 -13.439000129699707,-15.321000099182129 C-14.265999794006348,-15.145000457763672 -15.170000076293945,-15.199000358581543 -16,-15.208000183105469 C-16.437000274658203,-15.213000297546387 -16.78700065612793,-15.569999694824219 -16.781999588012695,-16.006999969482422 C-16.777999877929688,-16.417999267578125 -16.454999923706055,-16.83099937438965 -16.054000854492188,-16.865999221801758 C-16.054000854492188,-16.865999221801758 -15.994000434875488,-16.871000289916992 -15.994000434875488,-16.871000289916992 C-15.281000137329102,-16.93000030517578 -14.699000358581543,-17.09000015258789 -14.026000022888184,-17.299999237060547 C-13.347000122070312,-17.481000900268555 -12.70199966430664,-17.766000747680664 -12.095999717712402,-18.106000900268555 C-11.48799991607666,-18.444000244140625 -10.92300033569336,-18.85700035095215 -10.413999557495117,-19.32699966430664 C-9.916999816894531,-19.775999069213867 -9.413999557495117,-20.357999801635742 -9.118000030517578,-20.825000762939453 C-9.118000030517578,-20.825000762939453 -9.086000442504883,-20.874000549316406 -9.086000442504883,-20.874000549316406 C-8.729999542236328,-21.434999465942383 -7.86899995803833,-21.44300079345703 -7.308000087738037,-21.086999893188477 C-6.747000217437744,-20.731000900268555 -6.579999923706055,-19.988000869750977 -6.935999870300293,-19.427000045776367 C-6.955999851226807,-19.395000457763672 -6.979000091552734,-19.363000869750977 -7.001999855041504,-19.333999633789062z" />
                </g>
            </g>
            <g transform="matrix(-6.409852981567383,0.0000017347103948850418,0.000001667398805693665,6.1611328125,251.864990234375,317.1842041015625)"
                opacity="1" style="display: block;">
                <g opacity="1" transform="matrix(1,0,0,1,0,0)">
                    <path fill="rgb(91,49,40)" fill-opacity="1"
                        d=" M-7.001999855041504,-19.333999633789062 C-7.611999988555908,-18.54800033569336 -8.142000198364258,-17.937999725341797 -8.831999778747559,-17.399999618530273 C-9.508999824523926,-16.878999710083008 -10.243000030517578,-16.43600082397461 -11.020999908447266,-16.089000701904297 C-11.795999526977539,-15.739999771118164 -12.607000350952148,-15.468000411987305 -13.439000129699707,-15.321000099182129 C-14.265999794006348,-15.145000457763672 -15.170000076293945,-15.199000358581543 -16,-15.208000183105469 C-16.437000274658203,-15.213000297546387 -16.78700065612793,-15.569999694824219 -16.781999588012695,-16.006999969482422 C-16.777999877929688,-16.417999267578125 -16.454999923706055,-16.83099937438965 -16.054000854492188,-16.865999221801758 C-16.054000854492188,-16.865999221801758 -15.994000434875488,-16.871000289916992 -15.994000434875488,-16.871000289916992 C-15.281000137329102,-16.93000030517578 -14.699000358581543,-17.09000015258789 -14.026000022888184,-17.299999237060547 C-13.347000122070312,-17.481000900268555 -12.70199966430664,-17.766000747680664 -12.095999717712402,-18.106000900268555 C-11.48799991607666,-18.444000244140625 -10.92300033569336,-18.85700035095215 -10.413999557495117,-19.32699966430664 C-9.916999816894531,-19.775999069213867 -9.413999557495117,-20.357999801635742 -9.118000030517578,-20.825000762939453 C-9.118000030517578,-20.825000762939453 -9.086000442504883,-20.874000549316406 -9.086000442504883,-20.874000549316406 C-8.729999542236328,-21.434999465942383 -7.86899995803833,-21.44300079345703 -7.308000087738037,-21.086999893188477 C-6.747000217437744,-20.731000900268555 -6.579999923706055,-19.988000869750977 -6.935999870300293,-19.427000045776367 C-6.955999851226807,-19.395000457763672 -6.979000091552734,-19.363000869750977 -7.001999855041504,-19.333999633789062z" />
                </g>
            </g>
            <g transform="matrix(1.7856498956680298,0,0,1.7164782285690308,195.34690856933594,413.8529357910156)"
                opacity="1" style="display: none;">
                <g opacity="1" transform="matrix(1,0,0,1,0,0)">
                    <path fill="url(#__lottie_element_1278)" fill-opacity="1"
                        d=" M-19.637887954711914,6.927114486694336 C-19.637887954711914,10.309218406677246 -17.395729064941406,13.05105209350586 -14.081729888916016,13.05105209350586 C-10.767729759216309,13.05105209350586 -8.525572776794434,10.309218406677246 -8.525572776794434,6.927114486694336 C-8.525572776794434,4.878705024719238 -9.007417678833008,1.5806350708007812 -10.574996948242188,-2.135702610015869 C-11.403240203857422,-4.434731483459473 -13.232662200927734,-5.826208591461182 -13.627172470092773,-5.851980209350586 C-13.951836585998535,-5.873169898986816 -15.646546363830566,-4.622707843780518 -16.849336624145508,-2.484506607055664 C-18.5947208404541,0.710685670375824 -19.637887954711914,4.649087905883789 -19.637887954711914,6.927114486694336z" />
                </g>
                <g opacity="1" transform="matrix(1,0,0,1,0,0)">
                    <path fill="rgb(255,255,255)" fill-opacity="1"
                        d=" M-14.081729888916016,6.122381687164307 C-14.081729888916016,7.7621378898620605 -13.25316333770752,9.091832160949707 -12.230059623718262,9.091832160949707 C-11.206954956054688,9.091832160949707 -10.377816200256348,7.7621378898620605 -10.377816200256348,6.122381687164307 C-10.377816200256348,4.4826250076293945 -11.206954956054688,3.15350341796875 -12.230059623718262,3.15350341796875 C-13.25316333770752,3.15350341796875 -14.081729888916016,4.4826250076293945 -14.081729888916016,6.122381687164307z" />
                </g>
            </g>
            <g style="display: none;"
                transform="matrix(5.995532035827637,0,0,5.995532035827637,255.9442138671875,255.46539306640625)"
                opacity="1">
                <g opacity="1" transform="matrix(1,0,0,1,0,0)">
                    <path fill="url(#__lottie_element_1351)" fill-opacity="1"
                        d=" M-19.97647476196289,9.754162788391113 C-19.97647476196289,13.167532920837402 -17.301631927490234,15.934530258178711 -14.001479148864746,15.934530258178711 C-10.701325416564941,15.934530258178711 -8.026528358459473,13.167532920837402 -8.026528358459473,9.754162788391113 C-8.026528358459473,7.686403274536133 -9.877299308776855,4.20615816116333 -11.42707347869873,1.575577735900879 C-12.650527954101562,-0.5026368498802185 -13.57988166809082,-2 -14.000134468078613,-2 C-14.34570026397705,-2 -15.530092239379883,-0.07658495754003525 -16.572389602661133,1.5750399827957153 C-18.27047348022461,4.265256881713867 -19.97647476196289,7.45462703704834 -19.97647476196289,9.754162788391113z" />
                </g>
                <g opacity="1" transform="matrix(1,0,0,1,0,0)">
                    <path fill="rgb(255,255,255)" fill-opacity="1"
                        d=" M-14.001479148864746,8.942058563232422 C-14.001479148864746,10.59726619720459 -13.11024284362793,11.93883228302002 -12.009858131408691,11.93883228302002 C-10.90947437286377,11.93883228302002 -10.018193244934082,10.59726619720459 -10.018193244934082,8.942058563232422 C-10.018193244934082,7.286851406097412 -10.90947437286377,5.945285320281982 -12.009858131408691,5.945285320281982 C-13.11024284362793,5.945285320281982 -14.001479148864746,7.286851406097412 -14.001479148864746,8.942058563232422z" />
                </g>
            </g>
            <g transform="matrix(0.6968995332717896,0,0,0.7548331618309021,185.11524963378906,395.7034912109375)"
                opacity="1" style="display: none;">
                <g opacity="1" transform="matrix(1,0,0,1,0,0)">
                    <path fill="url(#__lottie_element_1282)" fill-opacity="1"
                        d=" M-19.871047973632812,5.7354607582092285 C-19.871047973632812,8.976068496704102 -17.42237663269043,11.60305404663086 -14.108377456665039,11.60305404663086 C-10.794377326965332,11.60305404663086 -8.345705032348633,8.976068496704102 -8.345705032348633,5.7354607582092285 C-8.345705032348633,3.7728545665740967 -8.650348663330078,1.6571120023727417 -10.366084098815918,-1.4495422840118408 C-11.173276901245117,-3.1436843872070312 -13.393342971801758,-4.045922756195068 -13.800643920898438,-4.0597028732299805 C-14.135701179504395,-4.071033477783203 -16.011077880859375,-3.4563686847686768 -17.287944793701172,-1.659781813621521 C-19.072235107421875,0.9262599349021912 -19.871047973632812,3.552830219268799 -19.871047973632812,5.7354607582092285z" />
                </g>
                <g opacity="1" transform="matrix(1,0,0,1,0,0)">
                    <path fill="rgb(255,255,255)" fill-opacity="1"
                        d=" M-14.108377456665039,4.964569568634033 C-14.108377456665039,6.535576820373535 -13.248899459838867,7.809578895568848 -12.187690734863281,7.809578895568848 C-11.126481056213379,7.809578895568848 -10.266697883605957,6.535576820373535 -10.266697883605957,4.964569568634033 C-10.266697883605957,3.393562078475952 -11.126481056213379,2.119866132736206 -12.187690734863281,2.119866132736206 C-13.248899459838867,2.119866132736206 -14.108377456665039,3.393562078475952 -14.108377456665039,4.964569568634033z" />
                </g>
            </g>
        </g>
    </g>
</svg>