<svg width="142" height="91" viewBox="0 0 142 91" fill="none" xmlns="http://www.w3.org/2000/svg">
<path d="M1.4328 54.8023L1.25671 55.1374L1.34661 55.505L5.44129 72.2515L5.51826 72.5664L5.76527 72.7762L21.3916 86.05L21.7668 86.3686L22.2482 86.2657L46.3459 81.1119L46.8437 81.0054L47.0505 80.5403L54.6723 63.3995L54.826 63.0538L54.7124 62.693L47.0774 38.4352L46.9222 37.9422L46.4302 37.7836L27.8426 31.7935L27.4588 31.6698L27.0966 31.8469L9.0881 40.6516L8.79428 40.7952L8.64213 41.0847L1.4328 54.8023Z" fill="url(#paint0_radial_345:65)" stroke="#220607" stroke-width="2"/>
<path d="M22.039 85.2878L46.1368 80.134L53.7585 62.9932L46.1235 38.7354C45.0694 41.421 45.7191 43.8039 47.275 47.6259C49.3825 53.0285 50.2938 56.0468 49.6457 61.3863C47.9826 62.1163 45.4496 60.0476 43.9013 58.3327C42.9809 61.786 42.8581 64.0363 43.606 68.8547C41.8614 70.0969 40.5884 70.3027 37.4492 69.2243C38.5429 71.6196 39.4906 72.3899 41.402 73.3123C36.827 72.5044 34.658 73.0013 31.3171 75.1534C31.1272 78.4084 29.9842 79.029 27.5739 79.7034C24.1822 78.7594 22.2875 77.3161 18.9111 74.3533C20.1033 77.6931 21.3833 79.5128 26.8167 82.5294C23.1386 82.1596 15.7313 79.2107 12.5591 77.2351L22.039 85.2878Z" fill="#9D0A1A"/>
<path d="M22.039 85.2878L46.1368 80.134L46.4832 79.3549C41.7213 80.0757 39.035 80.3935 34.0755 79.9311L35.2452 73.6819C40.8818 75.968 42.891 77.1828 46.4808 79.3534L46.4832 79.3549L47.5225 77.0175C41.7677 73.6059 38.0773 71.7113 29.8332 68.4456L26.7672 71.4102L32.1668 73.8666L31.5943 79.7711C28.4739 82.9841 26.1124 83.7257 22.039 85.2878Z" fill="#ED122A"/>
<path d="M39.0313 59.5518L52.3727 66.1097L53.0656 64.5514C46.4898 61.3976 42.7232 59.6898 39.1724 53.8964L39.0313 59.5518Z" fill="#ED122A"/>
<path d="M39.3942 45.0094L39.2833 49.4529C40.633 46.1706 41.6917 44.5175 45.1139 42.5034C46.4192 43.9265 46.7324 43.1615 48.4564 46.1475L46.1235 38.7354L44.3532 38.1649C43.9296 39.4876 43.1973 40.2942 40.7486 41.8386C39.0208 43.0762 37.5451 43.1868 34.5853 43.0082L39.3942 45.0094Z" fill="#ED122A"/>
<path d="M13.7108 68.0214L6.75302 71.3009L2.84864 55.3326L9.89385 41.9273L26.7686 33.677L25.286 39.2099L25.1727 39.6327L25.5769 39.8009L27.1799 40.468L34.3932 43.4698L38.8858 45.3394L38.7835 49.4404L38.6726 53.884L38.6323 55.4998L38.5366 59.3347L29.4856 68.0862L26.6144 70.8624L14.0354 67.9863L13.867 67.9478L13.7108 68.0214Z" fill="#DB8C9A" stroke="#FFBBC1"/>
<path d="M39.1724 53.8964L39.2833 49.4529L39.3942 45.0094L34.5853 43.0082L27.372 40.0063C24.1101 44.1977 22.514 47.1133 23.9817 58.3104C24.0582 58.8943 24.143 59.5007 24.2364 60.1309C29.3372 63.706 31.7239 63.4356 35.3545 60.0821L39.1321 55.5123L39.1724 53.8964Z" fill="#C75E68"/>
<path d="M24.2364 60.1309C24.143 59.5007 24.0582 58.8943 23.9817 58.3104C21.5587 58.4459 20.0837 58.8141 17.1376 60.2481C16.2172 60.4879 15.111 63.0739 13.2343 67.2793L13.9239 68.4737C15.2038 65.5472 15.5155 63.4633 18.172 62.0397C20.5429 60.7418 21.8387 60.294 24.2364 60.1309Z" fill="#C75E68"/>
<path d="M2.31799 55.2675L6.41267 72.014L13.9239 68.4737C11.8094 64.9753 10.5473 62.9192 8.11972 57.4918C7.85471 56.8993 7.57582 56.2667 7.28041 55.5876C5.20795 54.4011 4.15736 54.6403 2.31799 55.2675Z" fill="#FFCDD2"/>
<path d="M12.4457 43.8464C12.7812 44.3553 13.0766 44.8062 13.3449 45.282C13.5146 45.5828 13.6735 45.8935 13.8249 46.2352C16.7304 43.9685 18.5898 43.3901 21.8094 42.3886L21.9334 42.35C18.3916 41.8186 16.353 42.1765 12.4457 43.8464Z" fill="#FFCDD2"/>
<path d="M7.28041 55.5876C7.57582 56.2667 7.85471 56.8993 8.11972 57.4918C10.8901 52.9308 12.8913 50.2375 13.8249 46.2352C13.6735 45.8935 13.5146 45.5828 13.3449 45.282C11.3416 50.1672 9.82825 51.9857 7.28041 55.5876Z" fill="#FFCDD2"/>
<path d="M140.62 49.8023L140.796 50.1374L140.706 50.505L136.612 67.2515L136.535 67.5664L136.288 67.7762L120.661 81.05L120.286 81.3686L119.805 81.2657L95.707 76.1119L95.2092 76.0054L95.0024 75.5403L87.3806 58.3995L87.2269 58.0538L87.3405 57.693L94.9755 33.4352L95.1307 32.9422L95.6226 32.7836L114.21 26.7935L114.594 26.6698L114.956 26.8469L132.965 35.6516L133.259 35.7952L133.411 36.0847L140.62 49.8023Z" fill="url(#paint1_radial_345:65)" stroke="#220607" stroke-width="2"/>
<path d="M120.014 80.2878L95.9161 75.134L88.2943 57.9932L95.9294 33.7354C96.9834 36.421 96.3337 38.8039 94.7778 42.6259C92.6703 48.0285 91.7591 51.0468 92.4071 56.3863C94.0702 57.1163 96.6032 55.0476 98.1515 53.3327C99.0719 56.786 99.1947 59.0363 98.4468 63.8547C100.191 65.0969 101.465 65.3027 104.604 64.2243C103.51 66.6196 102.562 67.3899 100.651 68.3123C105.226 67.5044 107.395 68.0013 110.736 70.1534C110.926 73.4084 112.069 74.029 114.479 74.7034C117.871 73.7594 119.765 72.3161 123.142 69.3533C121.95 72.6931 120.67 74.5128 115.236 77.5294C118.914 77.1596 126.322 74.2107 129.494 72.2351L120.014 80.2878Z" fill="#9D0A1A"/>
<path d="M120.014 80.2878L95.9161 75.134L95.5697 74.3549C100.332 75.0757 103.018 75.3935 107.977 74.9311L106.808 68.6819C101.171 70.968 99.1618 72.1828 95.5721 74.3534L95.5697 74.3549L94.5303 72.0175C100.285 68.6059 103.976 66.7113 112.22 63.4456L115.286 66.4102L109.886 68.8666L110.459 74.7711C113.579 77.9841 115.94 78.7257 120.014 80.2878Z" fill="#ED122A"/>
<path d="M103.022 54.5518L89.6801 61.1097L88.9872 59.5514C95.5631 56.3976 99.3296 54.6898 102.88 48.8964L103.022 54.5518Z" fill="#ED122A"/>
<path d="M102.659 40.0094L102.77 44.4529C101.42 41.1706 100.361 39.5175 96.939 37.5034C95.6336 38.9265 95.3204 38.1615 93.5964 41.1475L95.9294 33.7354L97.6996 33.1649C98.1233 34.4876 98.8555 35.2942 101.304 36.8386C103.032 38.0762 104.508 38.1868 107.468 38.0082L102.659 40.0094Z" fill="#ED122A"/>
<path d="M128.342 63.0214L135.3 66.3009L139.204 50.3326L132.159 36.9273L115.284 28.677L116.767 34.2099L116.88 34.6327L116.476 34.8009L114.873 35.468L107.66 38.4698L103.167 40.3394L103.269 44.4404L103.38 48.884L103.421 50.4998L103.516 54.3347L112.567 63.0862L115.438 65.8624L128.017 62.9863L128.186 62.9478L128.342 63.0214Z" fill="#DB8C9A" stroke="#FFBBC1"/>
<path d="M102.88 48.8964L102.77 44.4529L102.659 40.0094L107.468 38.0082L114.681 35.0063C117.943 39.1977 119.539 42.1133 118.071 53.3104C117.995 53.8943 117.91 54.5007 117.816 55.1309C112.716 58.706 110.329 58.4356 106.698 55.0821L102.921 50.5123L102.88 48.8964Z" fill="#C75E68"/>
<path d="M117.816 55.1309C117.91 54.5007 117.995 53.8943 118.071 53.3104C120.494 53.4459 121.969 53.8141 124.915 55.2481C125.836 55.4879 126.942 58.0739 128.819 62.2793L128.129 63.4737C126.849 60.5472 126.537 58.4633 123.881 57.0397C121.51 55.7418 120.214 55.294 117.816 55.1309Z" fill="#C75E68"/>
<path d="M139.735 50.2675L135.64 67.014L128.129 63.4737C130.243 59.9753 131.506 57.9192 133.933 52.4918C134.198 51.8993 134.477 51.2667 134.772 50.5876C136.845 49.4011 137.895 49.6403 139.735 50.2675Z" fill="#FFCDD2"/>
<path d="M129.607 38.8464C129.272 39.3553 128.976 39.8062 128.708 40.282C128.538 40.5828 128.379 40.8935 128.228 41.2352C125.322 38.9685 123.463 38.3901 120.243 37.3886L120.119 37.35C123.661 36.8186 125.7 37.1765 129.607 38.8464Z" fill="#FFCDD2"/>
<path d="M134.772 50.5876C134.477 51.2667 134.198 51.8993 133.933 52.4918C131.163 47.9308 129.162 45.2375 128.228 41.2352C128.379 40.8935 128.538 40.5828 128.708 40.282C130.711 45.1672 132.225 46.9857 134.772 50.5876Z" fill="#FFCDD2"/>
<path d="M36.412 15.7761L36.0919 15.9783L35.9859 16.3416L28.04 43.5849L27.9493 43.896L28.0583 44.2012L39.4096 75.985L39.5752 76.4486L40.0435 76.6001L78.6381 89.0866L79.1224 89.2433L79.5341 88.9439L104.507 70.7817L104.813 70.5592L104.895 70.1899L113.976 29.325L114.088 28.8205L113.742 28.4372L92.174 4.59936L91.9035 4.30038L91.5012 4.27264L58.5823 2.00237L58.256 1.97987L57.9795 2.15451L36.412 15.7761Z" fill="url(#paint2_radial_345:65)" stroke="#220607" stroke-width="2"/>
<path d="M40.3514 75.6486L78.9459 88.1351L103.919 69.973L113 29.1081C109.287 32.069 108.252 36.0006 107.324 42.7297C105.882 52.1661 104.697 57.2189 99.3784 64.2973C96.4067 63.9691 94.4985 58.9352 93.7027 55.2162C89.5484 59.3816 87.5212 62.4884 84.6216 69.973C81.1121 70.3078 79.128 69.5534 75.5405 65.4324C75.1282 69.7473 75.8452 71.6254 77.8108 74.5135C71.9538 69.5963 68.4529 68.5195 61.9189 68.8378C58.9692 73.3217 56.829 73.2657 52.8378 72.2432C48.7797 68.1059 47.2667 64.4891 44.8919 57.4865C43.8427 63.2288 44.1697 66.8763 49.4324 75.6486C44.4936 72.0942 36.361 61.7938 33.4649 56.3666L40.3514 75.6486Z" fill="#9D0A1A"/>
<path d="M40.3514 75.6486L78.9459 88.1351L80.0811 87.3096C72.6995 84.4179 68.6084 82.66 61.9189 77.9189L68.7297 69.973C74.8835 77.8712 76.7479 81.2567 80.0788 87.3055L80.0811 87.3096L83.4865 84.8329C78.0905 75.233 74.389 69.4948 65.3243 58.0541L58.5135 59.7568L64.1892 67.7027L58.5135 75.6486C51.4208 77.6608 47.4439 76.7744 40.3514 75.6486Z" fill="#ED122A"/>
<path d="M85.7568 52.9459L99.3784 73.2752L101.649 71.6241C94.8701 61.7159 90.9063 56.1812 90.6126 45L85.7568 52.9459Z" fill="#ED122A"/>
<path d="M98.2432 32.5135L94.4279 38.7568C99.0535 35.1884 101.923 33.7032 108.459 33.6486C109.149 36.7517 110.225 35.9189 110.225 41.5946L113 29.1081L110.946 26.8378C109.253 28.3747 107.546 28.9219 102.784 29.1081C99.3021 29.4503 97.1073 28.3934 93.035 25.7027L98.2432 32.5135Z" fill="#ED122A"/>
<path d="M90.645 45.9059C91.114 56.2349 94.87 61.7216 101.181 70.9406M95.5179 37.9321C99.5413 34.9577 102.452 33.6988 108.459 33.6486M42.6631 44.5017L29.6513 43.4174L37.373 16.9433L58.6423 3.51007L90.3021 5.6935L83.1329 12.8627L82.8234 13.1722L83.0893 13.5199L84.8254 15.7902L92.6378 26.0064L97.638 32.5451L94.0013 38.496L90.186 44.7393L88.7986 47.0095L85.4369 52.5105L65.2031 57.569L58.6552 59.206L42.9618 44.6336L42.8353 44.5161L42.6631 44.5017Z" fill="#DB8C9A" stroke="#FFBBC1"/>
<path d="M90.6126 45L94.4279 38.7568L98.2432 32.5135L93.035 25.7027L85.2226 15.4865C77.1229 18.7768 72.4478 21.6195 65.3243 38.7897C64.9529 39.685 64.5748 40.6193 64.1892 41.5946C68.5182 50.8892 72.1432 52.4681 80.0788 50.6757L89.2252 47.2703L90.6126 45Z" fill="#C75E68"/>
<path d="M64.1892 41.5946C64.5748 40.6193 64.9529 39.685 65.3243 38.7897C61.7588 36.9887 59.353 36.2995 53.973 35.9189C52.4634 35.5033 48.7581 38.2793 42.6216 42.7297V45C46.8548 41.8816 49.0143 39.1673 53.973 39.3243C58.4211 39.4255 60.6369 39.8536 64.1892 41.5946Z" fill="#C75E68"/>
<path d="M36.9459 16.6216L29 43.8649L42.6216 45C42.4866 38.2725 42.3796 34.3026 43.386 24.5676C43.4958 23.5048 43.6189 22.3734 43.7568 21.1622C41.7789 17.765 40.0843 17.2413 36.9459 16.6216Z" fill="#FFCDD2"/>
<path d="M60.7838 8.67568C60.8432 9.67736 60.8931 10.5632 60.8841 11.4623C60.8784 12.0307 60.8491 12.6045 60.7838 13.2162C66.7914 12.3763 69.9181 13.0821 75.3321 14.3043L75.5405 14.3514C70.929 10.6787 67.7282 9.51098 60.7838 8.67568Z" fill="#FFCDD2"/>
<path d="M43.7568 21.1622C43.6189 22.3734 43.4958 23.5048 43.386 24.5676C51.0893 20.3458 56.1588 18.1534 60.7838 13.2162C60.8491 12.6045 60.8784 12.0307 60.8841 11.4623C54.0075 16.7776 50.3534 18.1245 43.7568 21.1622Z" fill="#FFCDD2"/>
<defs>
<radialGradient id="paint0_radial_345:65" cx="0" cy="0" r="1" gradientUnits="userSpaceOnUse" gradientTransform="translate(22.26 58.0869) rotate(9.05314) scale(47.0644 46.4369)">
<stop offset="0.369792" stop-color="#43090D"/>
<stop offset="1" stop-color="#D81024"/>
</radialGradient>
<radialGradient id="paint1_radial_345:65" cx="0" cy="0" r="1" gradientUnits="userSpaceOnUse" gradientTransform="translate(119.793 53.0869) rotate(170.947) scale(47.0644 46.4369)">
<stop offset="0.369792" stop-color="#43090D"/>
<stop offset="1" stop-color="#D81024"/>
</radialGradient>
<radialGradient id="paint2_radial_345:65" cx="0" cy="0" r="1" gradientUnits="userSpaceOnUse" gradientTransform="translate(63.0541 37.0541) rotate(39.0531) scale(77.4725 76.4395)">
<stop offset="0.369792" stop-color="#43090D"/>
<stop offset="1" stop-color="#D81024"/>
</radialGradient>
</defs>
</svg>
