<svg width="134" height="141" viewBox="0 0 134 141" fill="none" xmlns="http://www.w3.org/2000/svg">
<path d="M52.2028 30.4305L52.2329 30.1539L52.1158 29.9015L49.1405 23.4886L47.2337 23.8839C46.9556 34.7643 45.5785 42.8683 41.9388 49.6202C38.3075 56.3563 32.3595 61.8636 22.7049 67.4125L20.3448 68.7689L23.0217 69.2629L27.1348 70.0219L26.4603 71.3238C33.4405 77.3181 37.722 82.4509 39.483 88.1924C41.2364 93.9089 40.5449 100.414 37.1386 109.276L36.0972 111.986L38.5864 110.492L42.3721 108.222L42.5895 108.091L39.3291 111.924L40.4822 113.492C49.2345 109.769 55.9817 108.128 62.1776 109.075C68.3486 110.018 74.1562 113.56 80.953 120.629L82.9489 122.705L82.6691 119.839L82.2319 115.36L82.1973 115.005L81.9461 114.752C76.0637 108.83 70.9709 105.299 65.0937 104.013C63.2598 103.612 61.3653 103.433 59.3651 103.461C64.531 100.999 68.3518 100.093 71.5305 100.904C74.9823 101.785 78.0044 104.786 81.2246 111.052L82.7884 114.095L82.9875 111.985L84.1442 110.217C86.8136 106.139 89.1885 104.155 91.8011 103.5C94.4469 102.837 97.5826 103.471 101.945 105.256L103.069 103.664L100.643 100.947L100.454 100.736L100.182 100.655C99.5169 100.458 98.8764 100.282 98.2576 100.129L98.0689 99.3438C96.9295 94.6046 97.1127 91.5154 98.427 89.1644C99.7579 86.7836 102.368 84.9346 106.658 82.982L106.27 81.0722L103.674 81.0042L105.172 80.7799L104.918 80.6627L106.169 80.7978L109.012 81.1049L106.98 79.093C99.9134 72.0957 96.3698 66.1319 95.4312 59.8127C94.4891 53.4695 96.1427 46.5894 99.8789 37.6882L98.3055 36.5423L93.1389 40.9771L92.9224 41.1629L92.8365 41.4351C92.7798 41.6149 92.7239 41.7938 92.6686 41.9718C86.0642 45.161 80.8302 46.1227 76.0041 45.1758C70.4079 44.0777 65.1471 40.3753 58.8054 34.0317L57.1506 35.058L59.2689 41.3451L59.2835 41.3884L57.6336 41.705C57.3104 49.6883 56.2098 55.5795 53.4851 60.4415C50.7691 65.2879 46.3727 69.2283 39.2234 73.1669L36.9602 74.4136C36.118 73.4607 35.2142 72.4866 34.2483 71.4853L34.0498 71.2796L33.7726 71.2098L28.3347 69.8417C36.3806 65.0343 41.8118 60.4295 45.4951 54.3712C49.2004 48.2766 51.073 40.8148 52.2028 30.4305ZM43.7169 106.766L42.7072 107.953L42.7969 107.707C45.5725 100.117 46.5652 94.2087 45.229 88.5665C44.118 83.8751 41.4236 79.4838 37.0597 74.5264L39.5072 75.0228L42.0059 75.5295C47.0815 79.2956 50.3144 82.6804 51.9552 86.6017C53.6846 90.735 53.7133 95.6342 51.9322 102.524L51.4298 104.467C49.176 104.962 46.7711 105.631 44.1741 106.461L43.902 106.548L43.7169 106.766ZM46.6734 73.8352L46.4105 73.7927C50.9112 70.9197 54.1546 67.9755 56.5043 64.2512C59.3322 59.7689 60.7997 54.2599 61.7472 46.6244L61.7815 46.348L61.6681 46.0937L59.8496 42.0184C66.2335 47.2411 71.4547 50.2171 76.888 50.8964C81.3276 51.4515 85.7865 50.4588 90.9868 48.1322C90.59 49.8676 90.2901 51.5153 90.093 53.0928L89.1723 54.1165C84.7751 59.0051 81.5751 60.7518 78.7399 60.467C77.3103 60.3234 75.8422 59.6551 74.2304 58.3849C72.614 57.111 70.9034 55.2715 68.9984 52.8686L67.2511 53.7567L68.7094 59.0223L68.7785 59.2716L68.9598 59.4561C72.82 63.386 76.0734 65.6385 79.4835 65.6073C81.8334 65.5858 84.0722 64.4821 86.4543 62.4908C85.6133 66.5907 85.6341 69.8949 86.8412 72.7309C88.4264 76.4551 91.9462 79.1158 97.4195 81.7645L97.6976 81.8991L98.0032 81.8533L101.807 81.2837C98.1445 83.4478 95.7147 85.5147 94.4857 88.1692C93.218 90.9074 93.3197 94.0692 94.2322 98.17L94.3043 98.4943L94.5561 98.7109L95.5869 99.5978C93.4295 99.2921 91.5503 99.3733 89.8241 99.9485C87.2361 100.811 85.1633 102.726 83.0454 105.653C80.3477 100.75 77.6827 97.6265 74.1401 96.3659C70.4703 95.0601 66.138 95.8552 60.4197 98.0495L60.1639 98.1476L59.9938 98.3624L56.5313 102.737L57.2103 103.566C55.7568 103.685 54.2439 103.903 52.6562 104.213L53.5037 103.572L56.1062 101.603L56.3912 101.387L56.475 101.04C57.9064 95.1067 58.1673 90.5326 56.7055 86.3085C55.2487 82.0986 52.1334 78.3913 47.1706 74.0683L46.9553 73.8808L46.6734 73.8352ZM91.1888 69.7916C90.6748 68.2104 90.5516 66.4568 90.7925 64.4515C92.1213 69.0107 94.8158 73.1939 98.9476 77.7567C94.5165 75.2692 92.143 72.7267 91.1888 69.7916ZM111.924 79.8434L111.643 79.8479L111.404 79.9991C106.466 83.1362 103.324 86.0119 101.94 89.5931C100.55 93.1879 101.016 97.2692 102.7 102.589L102.798 102.898L103.059 103.091L105.804 105.123L108.357 107.012L107.347 104.001C105.264 97.7921 105.152 93.6337 106.719 90.3804C108.303 87.0934 111.716 84.4775 117.347 81.6571L116.883 79.7631L111.924 79.8434ZM104.888 107.753L104.707 107.541L104.442 107.453C99.1038 105.679 95.0552 105.1 91.6058 106.339C88.1434 107.582 85.5315 110.566 82.8227 115.242L82.6648 115.514L82.6917 115.828L82.9826 119.222L83.262 122.481L84.8528 119.623C87.9448 114.067 90.8106 111.359 94.0645 110.494C97.3582 109.618 101.343 110.545 106.901 113.053L108.073 111.493L104.888 107.753Z" fill="url(#paint0_linear_354:365)"/>
<path d="M52.2028 30.4305L52.2329 30.1539L52.1158 29.9015L49.1405 23.4886L47.2337 23.8839C46.9556 34.7643 45.5785 42.8683 41.9388 49.6202C38.3075 56.3563 32.3595 61.8636 22.7049 67.4125L20.3448 68.7689L23.0217 69.2629L27.1348 70.0219L26.4603 71.3238C33.4405 77.3181 37.722 82.4509 39.483 88.1924C41.2364 93.9089 40.5449 100.414 37.1386 109.276L36.0972 111.986L38.5864 110.492L42.3721 108.222L42.5895 108.091L39.3291 111.924L40.4822 113.492C49.2345 109.769 55.9817 108.128 62.1776 109.075C68.3486 110.018 74.1562 113.56 80.953 120.629L82.9489 122.705L82.6691 119.839L82.2319 115.36L82.1973 115.005L81.9461 114.752C76.0637 108.83 70.9709 105.299 65.0937 104.013C63.2598 103.612 61.3653 103.433 59.3651 103.461C64.531 100.999 68.3518 100.093 71.5305 100.904C74.9823 101.785 78.0044 104.786 81.2246 111.052L82.7884 114.095L82.9875 111.985L84.1442 110.217C86.8136 106.139 89.1885 104.155 91.8011 103.5C94.4469 102.837 97.5826 103.471 101.945 105.256L103.069 103.664L100.643 100.947L100.454 100.736L100.182 100.655C99.5169 100.458 98.8764 100.282 98.2576 100.129L98.0689 99.3438C96.9295 94.6046 97.1127 91.5154 98.427 89.1644C99.7579 86.7836 102.368 84.9346 106.658 82.982L106.27 81.0722L103.674 81.0042L105.172 80.7799L104.918 80.6627L106.169 80.7978L109.012 81.1049L106.98 79.093C99.9134 72.0957 96.3698 66.1319 95.4312 59.8127C94.4891 53.4695 96.1427 46.5894 99.8789 37.6882L98.3055 36.5423L93.1389 40.9771L92.9224 41.1629L92.8365 41.4351C92.7798 41.6149 92.7239 41.7938 92.6686 41.9718C86.0642 45.161 80.8302 46.1227 76.0041 45.1758C70.4079 44.0777 65.1471 40.3753 58.8054 34.0317L57.1506 35.058L59.2689 41.3451L59.2835 41.3884L57.6336 41.705C57.3104 49.6883 56.2098 55.5795 53.4851 60.4415C50.7691 65.2879 46.3727 69.2283 39.2234 73.1669L36.9602 74.4136C36.118 73.4607 35.2142 72.4866 34.2483 71.4853L34.0498 71.2796L33.7726 71.2098L28.3347 69.8417C36.3806 65.0343 41.8118 60.4295 45.4951 54.3712C49.2004 48.2766 51.073 40.8148 52.2028 30.4305ZM43.7169 106.766L42.7072 107.953L42.7969 107.707C45.5725 100.117 46.5652 94.2087 45.229 88.5665C44.118 83.8751 41.4236 79.4838 37.0597 74.5264L39.5072 75.0228L42.0059 75.5295C47.0815 79.2956 50.3144 82.6804 51.9552 86.6017C53.6846 90.735 53.7133 95.6342 51.9322 102.524L51.4298 104.467C49.176 104.962 46.7711 105.631 44.1741 106.461L43.902 106.548L43.7169 106.766ZM46.6734 73.8352L46.4105 73.7927C50.9112 70.9197 54.1546 67.9755 56.5043 64.2512C59.3322 59.7689 60.7997 54.2599 61.7472 46.6244L61.7815 46.348L61.6681 46.0937L59.8496 42.0184C66.2335 47.2411 71.4547 50.2171 76.888 50.8964C81.3276 51.4515 85.7865 50.4588 90.9868 48.1322C90.59 49.8676 90.2901 51.5153 90.093 53.0928L89.1723 54.1165C84.7751 59.0051 81.5751 60.7518 78.7399 60.467C77.3103 60.3234 75.8422 59.6551 74.2304 58.3849C72.614 57.111 70.9034 55.2715 68.9984 52.8686L67.2511 53.7567L68.7094 59.0223L68.7785 59.2716L68.9598 59.4561C72.82 63.386 76.0734 65.6385 79.4835 65.6073C81.8334 65.5858 84.0722 64.4821 86.4543 62.4908C85.6133 66.5907 85.6341 69.8949 86.8412 72.7309C88.4264 76.4551 91.9462 79.1158 97.4195 81.7645L97.6976 81.8991L98.0032 81.8533L101.807 81.2837C98.1445 83.4478 95.7147 85.5147 94.4857 88.1692C93.218 90.9074 93.3197 94.0692 94.2322 98.17L94.3043 98.4943L94.5561 98.7109L95.5869 99.5978C93.4295 99.2921 91.5503 99.3733 89.8241 99.9485C87.2361 100.811 85.1633 102.726 83.0454 105.653C80.3477 100.75 77.6827 97.6265 74.1401 96.3659C70.4703 95.0601 66.138 95.8552 60.4197 98.0495L60.1639 98.1476L59.9938 98.3624L56.5313 102.737L57.2103 103.566C55.7568 103.685 54.2439 103.903 52.6562 104.213L53.5037 103.572L56.1062 101.603L56.3912 101.387L56.475 101.04C57.9064 95.1067 58.1673 90.5326 56.7055 86.3085C55.2487 82.0986 52.1334 78.3913 47.1706 74.0683L46.9553 73.8808L46.6734 73.8352ZM91.1888 69.7916C90.6748 68.2104 90.5516 66.4568 90.7925 64.4515C92.1213 69.0107 94.8158 73.1939 98.9476 77.7567C94.5165 75.2692 92.143 72.7267 91.1888 69.7916ZM111.924 79.8434L111.643 79.8479L111.404 79.9991C106.466 83.1362 103.324 86.0119 101.94 89.5931C100.55 93.1879 101.016 97.2692 102.7 102.589L102.798 102.898L103.059 103.091L105.804 105.123L108.357 107.012L107.347 104.001C105.264 97.7921 105.152 93.6337 106.719 90.3804C108.303 87.0934 111.716 84.4775 117.347 81.6571L116.883 79.7631L111.924 79.8434ZM104.888 107.753L104.707 107.541L104.442 107.453C99.1038 105.679 95.0552 105.1 91.6058 106.339C88.1434 107.582 85.5315 110.566 82.8227 115.242L82.6648 115.514L82.6917 115.828L82.9826 119.222L83.262 122.481L84.8528 119.623C87.9448 114.067 90.8106 111.359 94.0645 110.494C97.3582 109.618 101.343 110.545 106.901 113.053L108.073 111.493L104.888 107.753Z" fill="url(#paint1_linear_354:365)"/>
<path d="M52.2028 30.4305L52.2329 30.1539L52.1158 29.9015L49.1405 23.4886L47.2337 23.8839C46.9556 34.7643 45.5785 42.8683 41.9388 49.6202C38.3075 56.3563 32.3595 61.8636 22.7049 67.4125L20.3448 68.7689L23.0217 69.2629L27.1348 70.0219L26.4603 71.3238C33.4405 77.3181 37.722 82.4509 39.483 88.1924C41.2364 93.9089 40.5449 100.414 37.1386 109.276L36.0972 111.986L38.5864 110.492L42.3721 108.222L42.5895 108.091L39.3291 111.924L40.4822 113.492C49.2345 109.769 55.9817 108.128 62.1776 109.075C68.3486 110.018 74.1562 113.56 80.953 120.629L82.9489 122.705L82.6691 119.839L82.2319 115.36L82.1973 115.005L81.9461 114.752C76.0637 108.83 70.9709 105.299 65.0937 104.013C63.2598 103.612 61.3653 103.433 59.3651 103.461C64.531 100.999 68.3518 100.093 71.5305 100.904C74.9823 101.785 78.0044 104.786 81.2246 111.052L82.7884 114.095L82.9875 111.985L84.1442 110.217C86.8136 106.139 89.1885 104.155 91.8011 103.5C94.4469 102.837 97.5826 103.471 101.945 105.256L103.069 103.664L100.643 100.947L100.454 100.736L100.182 100.655C99.5169 100.458 98.8764 100.282 98.2576 100.129L98.0689 99.3438C96.9295 94.6046 97.1127 91.5154 98.427 89.1644C99.7579 86.7836 102.368 84.9346 106.658 82.982L106.27 81.0722L103.674 81.0042L105.172 80.7799L104.918 80.6627L106.169 80.7978L109.012 81.1049L106.98 79.093C99.9134 72.0957 96.3698 66.1319 95.4312 59.8127C94.4891 53.4695 96.1427 46.5894 99.8789 37.6882L98.3055 36.5423L93.1389 40.9771L92.9224 41.1629L92.8365 41.4351C92.7798 41.6149 92.7239 41.7938 92.6686 41.9718C86.0642 45.161 80.8302 46.1227 76.0041 45.1758C70.4079 44.0777 65.1471 40.3753 58.8054 34.0317L57.1506 35.058L59.2689 41.3451L59.2835 41.3884L57.6336 41.705C57.3104 49.6883 56.2098 55.5795 53.4851 60.4415C50.7691 65.2879 46.3727 69.2283 39.2234 73.1669L36.9602 74.4136C36.118 73.4607 35.2142 72.4866 34.2483 71.4853L34.0498 71.2796L33.7726 71.2098L28.3347 69.8417C36.3806 65.0343 41.8118 60.4295 45.4951 54.3712C49.2004 48.2766 51.073 40.8148 52.2028 30.4305ZM43.7169 106.766L42.7072 107.953L42.7969 107.707C45.5725 100.117 46.5652 94.2087 45.229 88.5665C44.118 83.8751 41.4236 79.4838 37.0597 74.5264L39.5072 75.0228L42.0059 75.5295C47.0815 79.2956 50.3144 82.6804 51.9552 86.6017C53.6846 90.735 53.7133 95.6342 51.9322 102.524L51.4298 104.467C49.176 104.962 46.7711 105.631 44.1741 106.461L43.902 106.548L43.7169 106.766ZM46.6734 73.8352L46.4105 73.7927C50.9112 70.9197 54.1546 67.9755 56.5043 64.2512C59.3322 59.7689 60.7997 54.2599 61.7472 46.6244L61.7815 46.348L61.6681 46.0937L59.8496 42.0184C66.2335 47.2411 71.4547 50.2171 76.888 50.8964C81.3276 51.4515 85.7865 50.4588 90.9868 48.1322C90.59 49.8676 90.2901 51.5153 90.093 53.0928L89.1723 54.1165C84.7751 59.0051 81.5751 60.7518 78.7399 60.467C77.3103 60.3234 75.8422 59.6551 74.2304 58.3849C72.614 57.111 70.9034 55.2715 68.9984 52.8686L67.2511 53.7567L68.7094 59.0223L68.7785 59.2716L68.9598 59.4561C72.82 63.386 76.0734 65.6385 79.4835 65.6073C81.8334 65.5858 84.0722 64.4821 86.4543 62.4908C85.6133 66.5907 85.6341 69.8949 86.8412 72.7309C88.4264 76.4551 91.9462 79.1158 97.4195 81.7645L97.6976 81.8991L98.0032 81.8533L101.807 81.2837C98.1445 83.4478 95.7147 85.5147 94.4857 88.1692C93.218 90.9074 93.3197 94.0692 94.2322 98.17L94.3043 98.4943L94.5561 98.7109L95.5869 99.5978C93.4295 99.2921 91.5503 99.3733 89.8241 99.9485C87.2361 100.811 85.1633 102.726 83.0454 105.653C80.3477 100.75 77.6827 97.6265 74.1401 96.3659C70.4703 95.0601 66.138 95.8552 60.4197 98.0495L60.1639 98.1476L59.9938 98.3624L56.5313 102.737L57.2103 103.566C55.7568 103.685 54.2439 103.903 52.6562 104.213L53.5037 103.572L56.1062 101.603L56.3912 101.387L56.475 101.04C57.9064 95.1067 58.1673 90.5326 56.7055 86.3085C55.2487 82.0986 52.1334 78.3913 47.1706 74.0683L46.9553 73.8808L46.6734 73.8352ZM91.1888 69.7916C90.6748 68.2104 90.5516 66.4568 90.7925 64.4515C92.1213 69.0107 94.8158 73.1939 98.9476 77.7567C94.5165 75.2692 92.143 72.7267 91.1888 69.7916ZM111.924 79.8434L111.643 79.8479L111.404 79.9991C106.466 83.1362 103.324 86.0119 101.94 89.5931C100.55 93.1879 101.016 97.2692 102.7 102.589L102.798 102.898L103.059 103.091L105.804 105.123L108.357 107.012L107.347 104.001C105.264 97.7921 105.152 93.6337 106.719 90.3804C108.303 87.0934 111.716 84.4775 117.347 81.6571L116.883 79.7631L111.924 79.8434ZM104.888 107.753L104.707 107.541L104.442 107.453C99.1038 105.679 95.0552 105.1 91.6058 106.339C88.1434 107.582 85.5315 110.566 82.8227 115.242L82.6648 115.514L82.6917 115.828L82.9826 119.222L83.262 122.481L84.8528 119.623C87.9448 114.067 90.8106 111.359 94.0645 110.494C97.3582 109.618 101.343 110.545 106.901 113.053L108.073 111.493L104.888 107.753Z" stroke="#393939" stroke-width="2"/>
<path d="M53.6825 25.21L42.3075 4.62291C41.4422 3.05671 39.471 2.48858 37.9048 3.35395C36.3386 4.21932 35.7705 6.1905 36.6358 7.75669L48.0107 28.3437C48.8761 29.9099 50.8473 30.4781 52.4135 29.6127C53.9797 28.7473 54.5478 26.7762 53.6825 25.21ZM17.9777 129.461L41.0337 115.174C42.5547 114.232 43.0237 112.235 42.0812 110.714C41.1387 109.193 39.1416 108.724 37.6206 109.666L14.5646 123.953C13.0435 124.895 12.5745 126.892 13.517 128.413C14.4595 129.934 16.4566 130.403 17.9777 129.461ZM5.88904 66.7502L30.04 73.644C31.7606 74.1351 33.5536 73.1384 34.0448 71.4178C34.5359 69.6971 33.5392 67.9041 31.8186 67.413L7.66765 60.5192C5.947 60.0281 4.15399 61.0248 3.66284 62.7454C3.1717 64.4661 4.16839 66.2591 5.88904 66.7502ZM101.023 19.1637L91.55 45.6469C90.9473 47.3317 91.8246 49.1861 93.5094 49.7888C95.1943 50.3914 97.0486 49.5141 97.6513 47.8293L107.124 21.3461C107.727 19.6613 106.849 17.8069 105.164 17.2042C103.48 16.6016 101.625 17.4789 101.023 19.1637ZM127.835 75.7199L105.88 77.8776C104.099 78.0526 102.797 79.6381 102.972 81.4189C103.147 83.1997 104.733 84.5014 106.514 84.3264L128.468 82.1687C130.249 81.9937 131.551 80.4082 131.376 78.6274C131.201 76.8466 129.615 75.5449 127.835 75.7199ZM119.048 115.474L102.849 100.499C101.535 99.2839 99.4848 99.3644 98.2701 100.678C97.0555 101.992 97.1359 104.042 98.4499 105.257L114.649 120.232C115.963 121.447 118.013 121.366 119.227 120.052C120.442 118.738 120.361 116.688 119.048 115.474ZM85.061 135.401L85.5287 113.345C85.5666 111.556 84.1471 110.075 82.3582 110.037C80.5692 109.999 79.0882 111.419 79.0503 113.208L78.5825 135.263C78.5446 137.052 79.9641 138.533 81.7531 138.571C83.542 138.609 85.023 137.19 85.061 135.401Z" fill="url(#paint2_linear_354:365)" stroke="#393939" stroke-width="2"/>
<path d="M65.3174 43.7903L54.8686 24.8794C53.7475 22.8504 51.1937 22.1143 49.1647 23.2355C47.1356 24.3566 46.3996 26.9103 47.5207 28.9393L57.9695 47.8502C59.0906 49.8793 61.6443 50.6153 63.6734 49.4942C65.7024 48.3731 66.4385 45.8194 65.3174 43.7903ZM41.4807 116.306L61.3178 104.014C63.2883 102.793 63.8959 100.206 62.6749 98.2354C61.4538 96.2649 58.8665 95.6573 56.896 96.8783L37.0589 109.17C35.0884 110.391 34.4808 112.979 35.7018 114.949C36.9229 116.92 39.5101 117.527 41.4807 116.306ZM29.4472 74.7202L44.2911 78.9573C46.5203 79.5936 48.8432 78.3023 49.4795 76.0732C50.1158 73.844 48.8245 71.5211 46.5954 70.8848L31.7515 66.6477C29.5223 66.0114 27.1994 67.3027 26.5631 69.5318C25.9268 71.761 27.2181 74.0839 29.4472 74.7202ZM89.6332 47.4485L84.4502 61.9388C83.6695 64.1216 84.806 66.524 86.9888 67.3047C89.1715 68.0854 91.5739 66.9489 92.3546 64.7661L97.5376 50.2759C98.3184 48.0931 97.1818 45.6907 94.9991 44.91C92.8163 44.1292 90.4139 45.2658 89.6332 47.4485ZM105.154 76.7448L95.8481 77.6594C93.541 77.8862 91.8546 79.9402 92.0813 82.2473C92.308 84.5544 94.3621 86.2408 96.6692 86.0141L105.975 85.0995C108.283 84.8727 109.969 82.8187 109.742 80.5116C109.516 78.2046 107.461 76.5181 105.154 76.7448ZM103.213 99.2036L96.3465 92.8558C94.6442 91.2821 91.9886 91.3864 90.415 93.0886C88.8413 94.7909 88.9456 97.4465 90.6478 99.0201L97.5143 105.368C99.2166 106.942 101.872 106.837 103.446 105.135C105.019 103.433 104.915 100.777 103.213 99.2036ZM86.7395 112.759L86.9378 103.41C86.9869 101.092 85.1479 99.1736 82.8303 99.1244C80.5126 99.0753 78.5939 100.914 78.5448 103.232L78.3465 112.581C78.2974 114.899 80.1364 116.817 82.454 116.866C84.7717 116.916 86.6904 115.077 86.7395 112.759Z" fill="url(#paint3_linear_354:365)" stroke="#393939" stroke-width="2"/>
<path d="M59.5916 52.7779L71.4523 76.1397L49.6626 70.7367C46.9609 70.0668 44.2276 71.7139 43.5577 74.4156C42.8878 77.1173 44.5349 79.8506 47.2366 80.5205L70.5066 86.2904L59.7605 93.4814C57.4472 95.0294 56.8268 98.1597 58.3748 100.473C59.9228 102.786 63.0531 103.407 65.3664 101.859L76.8135 94.1988L76.892 99.8915C76.9304 102.675 79.2178 104.9 82.001 104.862C84.7843 104.823 87.0094 102.536 86.971 99.7525L86.9462 97.9517L87.0517 98.0426C89.1605 99.8595 92.3429 99.6228 94.1598 97.514C95.9766 95.4052 95.7399 92.2229 93.6312 90.406L91.2558 88.3595L96.089 87.7131C98.8479 87.3441 100.785 84.8084 100.416 82.0494C100.047 79.2905 97.5116 77.353 94.7527 77.722L89.3719 78.4417L92.4014 68.9354C93.2466 66.2833 91.7818 63.4482 89.1297 62.603C86.4776 61.7578 83.6425 63.2226 82.7973 65.8747L80.772 72.2298L68.5796 48.2148C67.3195 45.7328 64.286 44.7423 61.804 46.0023C59.322 47.2624 58.3315 50.296 59.5916 52.7779Z" fill="url(#paint4_linear_354:365)" stroke="#393939" stroke-width="2"/>
<path d="M11.3571 67.2704L22.2643 65.7249L24.5169 66.3679L17.6469 69.0657L11.3571 67.2704Z" fill="url(#paint5_linear_354:365)"/>
<path d="M39.9288 76.671L35.6024 68.7858L39.4731 69.8906L41.3803 77.0853L39.9288 76.671Z" fill="url(#paint6_linear_354:365)"/>
<path d="M51.3277 80.5038L68.827 76.5182L70.7727 77.0007L58.196 82.2069L51.3277 80.5038Z" fill="url(#paint7_linear_354:365)"/>
<path d="M35.7606 117.265L18.5844 122.638L24.0397 119.257L35.7606 117.265Z" fill="url(#paint8_linear_354:365)"/>
<path d="M47.5045 103.873L45.1542 112.853L46.0414 112.303L53.4933 100.162L47.5045 103.873Z" fill="url(#paint9_linear_354:365)"/>
<path d="M62.4576 92.8792L76.6969 93.0729L73.4602 95.2388L60.9659 93.8774L62.4576 92.8792Z" fill="url(#paint10_linear_354:365)"/>
<path d="M79.8375 123.267L84.1498 131.216L84.2294 127.465L79.882 121.169L79.8375 123.267Z" fill="url(#paint11_linear_354:365)"/>
<path d="M79.4514 107.66L85.7651 111.554L85.7924 110.267L79.4981 105.456L79.4514 107.66Z" fill="url(#paint12_linear_354:365)"/>
<path d="M77.8262 95.0977L85.9713 99.7656L85.9588 98.8591L77.7724 91.2002L77.8262 95.0977Z" fill="url(#paint13_linear_354:365)"/>
<path d="M45.5993 21.9104L44.4233 10.5186L46.9029 15.0064L46.1846 22.9697L45.5993 21.9104Z" fill="url(#paint14_linear_354:365)"/>
<path d="M50.8763 32.9432L61.9624 39.7844L59.2703 34.9122L49.6363 30.6989L50.8763 32.9432Z" fill="url(#paint15_linear_354:365)"/>
<path d="M69.8913 70.8549L71.7486 56.6645L75.8295 64.7026L71.0206 73.0792L69.8913 70.8549Z" fill="url(#paint16_linear_354:365)"/>
<path d="M99.1676 40.6212L101.594 20.5349L97.717 31.3748L99.1676 40.6212Z" fill="url(#paint17_linear_354:365)"/>
<path d="M86.6589 58.268L96.0336 51.5113L94.0498 57.0575L86.6589 58.268Z" fill="url(#paint18_linear_354:365)"/>
<path d="M89.3238 75.299L83.2482 67.7531L82.7487 69.3205L88.761 77.065L89.3238 75.299Z" fill="url(#paint19_linear_354:365)"/>
<path d="M126.345 76.8705L127.933 76.7145C128.325 76.6759 128.704 76.741 129.041 76.8875L115.966 82.392L112.585 82.7242L126.345 76.8705Z" fill="url(#paint20_linear_354:365)"/>
<path d="M102.012 84.4831L104.766 77.7868L102.056 78.0531L102.012 84.4831Z" fill="url(#paint21_linear_354:365)"/>
<path d="M86.6921 87.9603L93.2876 78.9262L83.9679 88.3246L86.6921 87.9603Z" fill="url(#paint22_linear_354:365)"/>
<path d="M105.208 110.142L118.369 116.207L114.387 112.526L105.208 110.142Z" fill="url(#paint23_linear_354:365)"/>
<path d="M99.1012 96.7629L97.8053 104.274L95.6425 102.274L99.1012 96.7629Z" fill="url(#paint24_linear_354:365)"/>
<path d="M92.9786 91.1629L79.4219 90.1482L82.225 92.5632L92.9786 91.1629Z" fill="url(#paint25_linear_354:365)"/>
<path d="M6.1638 65.7875C4.45016 61.9337 7.55673 62.3111 13.9781 63.5237L7.39345 61.4797C6.20388 61.1401 4.96428 61.8292 4.62472 63.0187C4.28516 64.2083 4.97423 65.4479 6.1638 65.7875Z" fill="url(#paint26_linear_354:365)"/>
<path d="M29.7222 73.7577L35.5976 75.3696C31.1502 73.6162 29.1523 72.4641 27.5253 69.8054C27.0405 71.5035 28.0242 73.273 29.7222 73.7577Z" fill="url(#paint27_linear_354:365)"/>
<path d="M17.4512 128.61C13.3759 126.453 19.4861 122.925 29.7535 115.878L15.0916 124.802C14.04 125.453 13.7158 126.834 14.3674 127.885C15.019 128.937 16.3996 129.261 17.4512 128.61Z" fill="url(#paint28_linear_354:365)"/>
<path d="M40.9545 115.455L55.3467 106.399C42.3847 113.778 36.2831 116.759 37.5862 110.019C36.0851 110.949 35.6223 112.92 36.5524 114.421C37.4825 115.923 39.4534 116.385 40.9545 115.455Z" fill="url(#paint29_linear_354:365)"/>
<path d="M84.0615 135.378L82.1682 130.402C83.1402 135.802 82.7349 137.437 79.5826 135.283C79.5564 136.52 80.5377 137.544 81.7746 137.57C83.0114 137.596 84.0352 136.615 84.0615 135.378Z" fill="url(#paint30_linear_354:365)"/>
<path d="M85.7402 112.737C84.3252 112.739 83.7434 112.42 83.0018 111.283C81.9709 113.146 80.2321 113.387 79.3468 112.601C79.3094 114.367 80.7102 115.828 82.4757 115.866C84.2412 115.903 85.7028 114.502 85.7402 112.737Z" fill="url(#paint31_linear_354:365)"/>
<path d="M102.535 99.937L99.2176 96.8267C103.273 102.414 103.078 104.172 98.1937 104.633C99.4904 105.831 101.513 105.752 102.712 104.455C103.911 103.159 103.831 101.136 102.535 99.937Z" fill="url(#paint32_linear_354:365)"/>
<path d="M118.369 116.207C118.091 119.917 115.364 118.345 109.438 114.044L115.328 119.497C116.236 120.336 117.653 120.281 118.493 119.372C119.333 118.464 119.277 117.047 118.369 116.207Z" fill="url(#paint33_linear_354:365)"/>
<path d="M105.253 77.7391C107.646 80.3864 107.726 81.8192 104.399 84.2263L105.878 84.1033C107.636 83.9306 108.92 82.3659 108.748 80.6085C108.575 78.8511 107.01 77.5664 105.253 77.7391Z" fill="url(#paint34_linear_354:365)"/>
<path d="M127.933 76.714L121.856 77.2683C128.049 77.3415 131.123 77.5433 128.371 81.1724C129.602 81.0514 130.502 79.9552 130.381 78.7241C130.26 77.4929 129.164 76.593 127.933 76.714Z" fill="url(#paint35_linear_354:365)"/>
<path d="M90.5753 47.7844L85.3923 62.2747C89.1531 54.6099 92.8768 43.9813 96.5966 49.9381C97.1913 48.2754 96.3255 46.4454 94.6628 45.8506C93.0001 45.2559 91.17 46.1217 90.5753 47.7844Z" fill="url(#paint36_linear_354:365)"/>
<path d="M101.965 19.4994C105.528 18.2737 105.129 21.8206 101.674 33.002L106.183 21.0081C106.599 19.8433 105.993 18.5613 104.828 18.1447C103.663 17.728 102.381 18.3346 101.965 19.4994Z" fill="url(#paint37_linear_354:365)"/>
<path d="M53.9938 25.3621C49.8367 23.6528 46.9519 26.7195 51.2781 30.6608L48.3965 28.4548C47.5425 26.9092 48.1032 24.9638 49.6488 24.1098C51.1945 23.2558 53.1398 23.8165 53.9938 25.3621Z" fill="url(#paint38_linear_354:365)"/>
<path d="M41.4325 5.10538L44.687 11.1915C40.6694 4.99427 38.8351 3.1237 37.5114 7.27193C36.9131 6.18913 37.3059 4.82635 38.3887 4.22808C39.4715 3.6298 40.8343 4.02259 41.4325 5.10538Z" fill="url(#paint39_linear_354:365)"/>
<path d="M47.4773 79.5491C44.1881 74.1993 46.4301 71.3763 63.2937 75.0667L49.4219 71.7066C47.2562 71.1696 45.0653 72.4899 44.5283 74.6555C43.9913 76.8212 45.3116 79.0121 47.4773 79.5491Z" fill="url(#paint40_linear_354:365)"/>
<path d="M66.1874 63.2499C58.6493 48.4966 61.0338 45.9306 67.6879 48.6667C66.6778 46.6772 64.2462 45.8832 62.2567 46.8932C60.2672 47.9033 59.4732 50.335 60.4832 52.3245L66.1874 63.2499Z" fill="url(#paint41_linear_354:365)"/>
<path d="M83.7501 66.1776C89.2609 62.4974 91.8446 64.7962 89.4836 74.4826L91.4486 68.631C92.1261 66.5051 90.9519 64.2325 88.826 63.555C86.7001 62.8775 84.4276 64.0517 83.7501 66.1776Z" fill="url(#paint42_linear_354:365)"/>
<path d="M94.8852 78.7124C99.6824 81.5557 99.6875 85.1657 91.7983 87.328L95.9564 86.7211C98.1679 86.4253 99.7209 84.3928 99.4252 82.1812C99.1294 79.9697 97.0968 78.4166 94.8852 78.7124Z" fill="url(#paint43_linear_354:365)"/>
<path d="M92.9784 91.1628L89.7529 88.2901C94.3577 93.7866 94.5535 97.6514 87.7044 97.2843C89.3948 98.7406 91.9458 98.5509 93.4021 96.8605C94.8585 95.1701 94.6688 92.6192 92.9784 91.1628Z" fill="url(#paint44_linear_354:365)"/>
<path d="M85.9711 99.7655L85.7673 94.0386C84.516 102.095 83.3928 105.275 77.8919 99.8769C77.9226 102.108 79.7562 103.892 81.9872 103.861C84.2182 103.83 86.0019 101.997 85.9711 99.7655Z" fill="url(#paint45_linear_354:365)"/>
<path d="M64.8103 101.027C57.85 100.108 58.4489 97.7331 65.341 91.1241L60.3166 94.3117C58.4623 95.5526 57.965 98.0617 59.2059 99.9161C60.4467 101.77 62.9559 102.268 64.8103 101.027Z" fill="url(#paint46_linear_354:365)"/>
<path d="M76.2418 80.3911C77.4654 78.7312 75.1227 71.281 75.1227 71.281C75.1227 71.281 78.9601 77.7245 81.1901 77.5602C83.4202 77.3959 85.8921 71.3843 85.8921 71.3843C85.8921 71.3843 85.352 79.2715 86.359 80.7668C87.3661 82.2621 93.6758 82.6941 93.6758 82.6941C93.6758 82.6941 88.4552 84.8724 87.4223 86.0696C86.3895 87.2667 88.732 94.7174 88.732 94.7174C88.732 94.7174 85.9012 89.7691 84.7861 89.8512C83.6711 89.9333 81.4457 99.29 81.4457 99.29C81.4457 99.29 80.4904 92.4098 79.4834 90.9145C78.4764 89.4192 66.1858 93.0154 66.1858 93.0154C66.1858 93.0154 75.8919 87.8159 75.9999 86.2384C76.1079 84.661 65.6621 79.8252 65.6621 79.8252C65.6621 79.8252 75.0181 82.0509 76.2418 80.3911Z" fill="#3F3F3F"/>
<defs>
<linearGradient id="paint0_linear_354:365" x1="-12.4789" y1="-7.68072" x2="-26.6159" y2="85.3209" gradientUnits="userSpaceOnUse">
<stop stop-color="#C4C4C4"/>
<stop offset="1" stop-color="#242424"/>
</linearGradient>
<linearGradient id="paint1_linear_354:365" x1="-66.8625" y1="-27.6599" x2="150.109" y2="197.924" gradientUnits="userSpaceOnUse">
<stop stop-color="#C4C4C4"/>
<stop offset="1" stop-color="#242424"/>
</linearGradient>
<linearGradient id="paint2_linear_354:365" x1="-48.0759" y1="-30.0718" x2="166.049" y2="167.016" gradientUnits="userSpaceOnUse">
<stop stop-color="#C4C4C4"/>
<stop offset="1" stop-color="#242424"/>
</linearGradient>
<linearGradient id="paint3_linear_354:365" x1="-6.21528" y1="-0.0320177" x2="142.155" y2="125.77" gradientUnits="userSpaceOnUse">
<stop stop-color="#C4C4C4"/>
<stop offset="1" stop-color="#242424"/>
</linearGradient>
<linearGradient id="paint4_linear_354:365" x1="21.5024" y1="31.6335" x2="113.721" y2="118.048" gradientUnits="userSpaceOnUse">
<stop stop-color="#C4C4C4"/>
<stop offset="1" stop-color="#242424"/>
</linearGradient>
<linearGradient id="paint5_linear_354:365" x1="-17.2701" y1="168.445" x2="169.374" y2="41.6482" gradientUnits="userSpaceOnUse">
<stop stop-color="#9B9B9B"/>
<stop offset="1" stop-color="#3D3D3D"/>
</linearGradient>
<linearGradient id="paint6_linear_354:365" x1="-17.2701" y1="168.445" x2="169.374" y2="41.6482" gradientUnits="userSpaceOnUse">
<stop stop-color="#9B9B9B"/>
<stop offset="1" stop-color="#3D3D3D"/>
</linearGradient>
<linearGradient id="paint7_linear_354:365" x1="-17.2701" y1="168.445" x2="169.374" y2="41.6482" gradientUnits="userSpaceOnUse">
<stop stop-color="#9B9B9B"/>
<stop offset="1" stop-color="#3D3D3D"/>
</linearGradient>
<linearGradient id="paint8_linear_354:365" x1="-17.2701" y1="168.445" x2="169.374" y2="41.6482" gradientUnits="userSpaceOnUse">
<stop stop-color="#9B9B9B"/>
<stop offset="1" stop-color="#3D3D3D"/>
</linearGradient>
<linearGradient id="paint9_linear_354:365" x1="-17.2701" y1="168.445" x2="169.374" y2="41.6482" gradientUnits="userSpaceOnUse">
<stop stop-color="#9B9B9B"/>
<stop offset="1" stop-color="#3D3D3D"/>
</linearGradient>
<linearGradient id="paint10_linear_354:365" x1="-17.2701" y1="168.445" x2="169.374" y2="41.6482" gradientUnits="userSpaceOnUse">
<stop stop-color="#9B9B9B"/>
<stop offset="1" stop-color="#3D3D3D"/>
</linearGradient>
<linearGradient id="paint11_linear_354:365" x1="-17.2701" y1="168.445" x2="169.374" y2="41.6482" gradientUnits="userSpaceOnUse">
<stop stop-color="#9B9B9B"/>
<stop offset="1" stop-color="#3D3D3D"/>
</linearGradient>
<linearGradient id="paint12_linear_354:365" x1="-17.2701" y1="168.445" x2="169.374" y2="41.6482" gradientUnits="userSpaceOnUse">
<stop stop-color="#9B9B9B"/>
<stop offset="1" stop-color="#3D3D3D"/>
</linearGradient>
<linearGradient id="paint13_linear_354:365" x1="-17.2701" y1="168.445" x2="169.374" y2="41.6482" gradientUnits="userSpaceOnUse">
<stop stop-color="#9B9B9B"/>
<stop offset="1" stop-color="#3D3D3D"/>
</linearGradient>
<linearGradient id="paint14_linear_354:365" x1="-17.2701" y1="168.445" x2="169.374" y2="41.6482" gradientUnits="userSpaceOnUse">
<stop stop-color="#9B9B9B"/>
<stop offset="1" stop-color="#3D3D3D"/>
</linearGradient>
<linearGradient id="paint15_linear_354:365" x1="-17.2701" y1="168.445" x2="169.374" y2="41.6482" gradientUnits="userSpaceOnUse">
<stop stop-color="#9B9B9B"/>
<stop offset="1" stop-color="#3D3D3D"/>
</linearGradient>
<linearGradient id="paint16_linear_354:365" x1="-17.2701" y1="168.445" x2="169.374" y2="41.6482" gradientUnits="userSpaceOnUse">
<stop stop-color="#9B9B9B"/>
<stop offset="1" stop-color="#3D3D3D"/>
</linearGradient>
<linearGradient id="paint17_linear_354:365" x1="-17.2701" y1="168.445" x2="169.374" y2="41.6482" gradientUnits="userSpaceOnUse">
<stop stop-color="#9B9B9B"/>
<stop offset="1" stop-color="#3D3D3D"/>
</linearGradient>
<linearGradient id="paint18_linear_354:365" x1="-17.2701" y1="168.445" x2="169.374" y2="41.6482" gradientUnits="userSpaceOnUse">
<stop stop-color="#9B9B9B"/>
<stop offset="1" stop-color="#3D3D3D"/>
</linearGradient>
<linearGradient id="paint19_linear_354:365" x1="-17.2701" y1="168.445" x2="169.374" y2="41.6482" gradientUnits="userSpaceOnUse">
<stop stop-color="#9B9B9B"/>
<stop offset="1" stop-color="#3D3D3D"/>
</linearGradient>
<linearGradient id="paint20_linear_354:365" x1="-17.2701" y1="168.445" x2="169.374" y2="41.6482" gradientUnits="userSpaceOnUse">
<stop stop-color="#9B9B9B"/>
<stop offset="1" stop-color="#3D3D3D"/>
</linearGradient>
<linearGradient id="paint21_linear_354:365" x1="-17.2701" y1="168.445" x2="169.374" y2="41.6482" gradientUnits="userSpaceOnUse">
<stop stop-color="#9B9B9B"/>
<stop offset="1" stop-color="#3D3D3D"/>
</linearGradient>
<linearGradient id="paint22_linear_354:365" x1="-17.2701" y1="168.445" x2="169.374" y2="41.6482" gradientUnits="userSpaceOnUse">
<stop stop-color="#9B9B9B"/>
<stop offset="1" stop-color="#3D3D3D"/>
</linearGradient>
<linearGradient id="paint23_linear_354:365" x1="-17.2701" y1="168.445" x2="169.374" y2="41.6482" gradientUnits="userSpaceOnUse">
<stop stop-color="#9B9B9B"/>
<stop offset="1" stop-color="#3D3D3D"/>
</linearGradient>
<linearGradient id="paint24_linear_354:365" x1="-17.2701" y1="168.445" x2="169.374" y2="41.6482" gradientUnits="userSpaceOnUse">
<stop stop-color="#9B9B9B"/>
<stop offset="1" stop-color="#3D3D3D"/>
</linearGradient>
<linearGradient id="paint25_linear_354:365" x1="-17.2701" y1="168.445" x2="169.374" y2="41.6482" gradientUnits="userSpaceOnUse">
<stop stop-color="#9B9B9B"/>
<stop offset="1" stop-color="#3D3D3D"/>
</linearGradient>
<linearGradient id="paint26_linear_354:365" x1="156.43" y1="-2.87002" x2="-45.444" y2="137.367" gradientUnits="userSpaceOnUse">
<stop stop-color="#9B9B9B"/>
<stop offset="1" stop-color="#3D3D3D"/>
</linearGradient>
<linearGradient id="paint27_linear_354:365" x1="156.43" y1="-2.87002" x2="-45.444" y2="137.367" gradientUnits="userSpaceOnUse">
<stop stop-color="#9B9B9B"/>
<stop offset="1" stop-color="#3D3D3D"/>
</linearGradient>
<linearGradient id="paint28_linear_354:365" x1="156.43" y1="-2.87002" x2="-45.444" y2="137.367" gradientUnits="userSpaceOnUse">
<stop stop-color="#9B9B9B"/>
<stop offset="1" stop-color="#3D3D3D"/>
</linearGradient>
<linearGradient id="paint29_linear_354:365" x1="156.43" y1="-2.87002" x2="-45.444" y2="137.367" gradientUnits="userSpaceOnUse">
<stop stop-color="#9B9B9B"/>
<stop offset="1" stop-color="#3D3D3D"/>
</linearGradient>
<linearGradient id="paint30_linear_354:365" x1="156.43" y1="-2.87002" x2="-45.444" y2="137.367" gradientUnits="userSpaceOnUse">
<stop stop-color="#9B9B9B"/>
<stop offset="1" stop-color="#3D3D3D"/>
</linearGradient>
<linearGradient id="paint31_linear_354:365" x1="156.43" y1="-2.87002" x2="-45.444" y2="137.367" gradientUnits="userSpaceOnUse">
<stop stop-color="#9B9B9B"/>
<stop offset="1" stop-color="#3D3D3D"/>
</linearGradient>
<linearGradient id="paint32_linear_354:365" x1="156.43" y1="-2.87002" x2="-45.444" y2="137.367" gradientUnits="userSpaceOnUse">
<stop stop-color="#9B9B9B"/>
<stop offset="1" stop-color="#3D3D3D"/>
</linearGradient>
<linearGradient id="paint33_linear_354:365" x1="156.43" y1="-2.87002" x2="-45.444" y2="137.367" gradientUnits="userSpaceOnUse">
<stop stop-color="#9B9B9B"/>
<stop offset="1" stop-color="#3D3D3D"/>
</linearGradient>
<linearGradient id="paint34_linear_354:365" x1="156.43" y1="-2.87002" x2="-45.444" y2="137.367" gradientUnits="userSpaceOnUse">
<stop stop-color="#9B9B9B"/>
<stop offset="1" stop-color="#3D3D3D"/>
</linearGradient>
<linearGradient id="paint35_linear_354:365" x1="156.43" y1="-2.87002" x2="-45.444" y2="137.367" gradientUnits="userSpaceOnUse">
<stop stop-color="#9B9B9B"/>
<stop offset="1" stop-color="#3D3D3D"/>
</linearGradient>
<linearGradient id="paint36_linear_354:365" x1="156.43" y1="-2.87002" x2="-45.444" y2="137.367" gradientUnits="userSpaceOnUse">
<stop stop-color="#9B9B9B"/>
<stop offset="1" stop-color="#3D3D3D"/>
</linearGradient>
<linearGradient id="paint37_linear_354:365" x1="156.43" y1="-2.87002" x2="-45.444" y2="137.367" gradientUnits="userSpaceOnUse">
<stop stop-color="#9B9B9B"/>
<stop offset="1" stop-color="#3D3D3D"/>
</linearGradient>
<linearGradient id="paint38_linear_354:365" x1="156.43" y1="-2.87002" x2="-45.444" y2="137.367" gradientUnits="userSpaceOnUse">
<stop stop-color="#9B9B9B"/>
<stop offset="1" stop-color="#3D3D3D"/>
</linearGradient>
<linearGradient id="paint39_linear_354:365" x1="156.43" y1="-2.87002" x2="-45.444" y2="137.367" gradientUnits="userSpaceOnUse">
<stop stop-color="#9B9B9B"/>
<stop offset="1" stop-color="#3D3D3D"/>
</linearGradient>
<linearGradient id="paint40_linear_354:365" x1="156.43" y1="-2.87002" x2="-45.444" y2="137.367" gradientUnits="userSpaceOnUse">
<stop stop-color="#9B9B9B"/>
<stop offset="1" stop-color="#3D3D3D"/>
</linearGradient>
<linearGradient id="paint41_linear_354:365" x1="156.43" y1="-2.87002" x2="-45.444" y2="137.367" gradientUnits="userSpaceOnUse">
<stop stop-color="#9B9B9B"/>
<stop offset="1" stop-color="#3D3D3D"/>
</linearGradient>
<linearGradient id="paint42_linear_354:365" x1="156.43" y1="-2.87002" x2="-45.444" y2="137.367" gradientUnits="userSpaceOnUse">
<stop stop-color="#9B9B9B"/>
<stop offset="1" stop-color="#3D3D3D"/>
</linearGradient>
<linearGradient id="paint43_linear_354:365" x1="156.43" y1="-2.87002" x2="-45.444" y2="137.367" gradientUnits="userSpaceOnUse">
<stop stop-color="#9B9B9B"/>
<stop offset="1" stop-color="#3D3D3D"/>
</linearGradient>
<linearGradient id="paint44_linear_354:365" x1="156.43" y1="-2.87002" x2="-45.444" y2="137.367" gradientUnits="userSpaceOnUse">
<stop stop-color="#9B9B9B"/>
<stop offset="1" stop-color="#3D3D3D"/>
</linearGradient>
<linearGradient id="paint45_linear_354:365" x1="156.43" y1="-2.87002" x2="-45.444" y2="137.367" gradientUnits="userSpaceOnUse">
<stop stop-color="#9B9B9B"/>
<stop offset="1" stop-color="#3D3D3D"/>
</linearGradient>
<linearGradient id="paint46_linear_354:365" x1="156.43" y1="-2.87002" x2="-45.444" y2="137.367" gradientUnits="userSpaceOnUse">
<stop stop-color="#9B9B9B"/>
<stop offset="1" stop-color="#3D3D3D"/>
</linearGradient>
</defs>
</svg>
