<svg width="186" height="128" viewBox="0 0 186 128" fill="none" xmlns="http://www.w3.org/2000/svg">
<path d="M70.9181 35.2375C70.9289 39.2376 70.8439 41.5051 71.6345 45.2871C69.7823 51.0607 68.402 53.9247 65.4567 58.4418C65.8932 65.1456 65.9881 67.4931 67.9458 73.7661L74.0072 66.2126C73.7064 59.3624 74.5442 55.2387 76.0982 47.8643C78.0375 40.1599 77.6173 36.7337 74.8605 31.8454L70.9181 35.2375Z" fill="url(#paint0_linear_354:92)" stroke="#2D0F0B" stroke-width="2"/>
<path d="M48.1014 45.304C45.8398 48.4022 40.9789 50.165 34.7888 47.254C34.1782 45.4213 35.3611 44.9491 39.3359 44.7779L39.5548 44.6142C43.2284 41.867 45.3547 40.277 47.8342 36.9308L51.2921 39.7775L48.1014 45.304Z" fill="url(#paint1_linear_354:92)"/>
<path d="M39.3359 44.7779C35.3611 44.9491 34.1782 45.4213 34.7888 47.254C40.9789 50.165 45.8398 48.4022 48.1014 45.304L51.2921 39.7775L47.8342 36.9308C45.3547 40.277 43.2284 41.867 39.5548 44.6142M39.3359 44.7779L39.5548 44.6142M39.3359 44.7779C39.4095 44.7229 39.4824 44.6683 39.5548 44.6142" stroke="#2D0F0B" stroke-width="2"/>
<path d="M51.2931 39.7767C52.1531 39.5012 52.6303 39.2553 53.4603 38.4772C59.7543 31.1504 55.7591 34.9865 58.082 32.9267L56.4321 27.4395C55.8639 28.7141 55.5089 29.3644 54.6241 30.08L47.5985 35.3763L47.8351 36.93C48.6092 38.8176 49.2522 39.5956 51.2931 39.7767Z" fill="#C4C4C4"/>
<path d="M51.2931 39.7767C52.1531 39.5012 52.6303 39.2553 53.4603 38.4772C59.7543 31.1504 55.7591 34.9865 58.082 32.9267L56.4321 27.4395C55.8639 28.7141 55.5089 29.3644 54.6241 30.08L47.5985 35.3763L47.8351 36.93C48.6092 38.8176 49.2522 39.5956 51.2931 39.7767Z" fill="url(#paint2_linear_354:92)"/>
<path d="M51.2931 39.7767C52.1531 39.5012 52.6303 39.2553 53.4603 38.4772C59.7543 31.1504 55.7591 34.9865 58.082 32.9267L56.4321 27.4395C55.8639 28.7141 55.5089 29.3644 54.6241 30.08L47.5985 35.3763L47.8351 36.93C48.6092 38.8176 49.2522 39.5956 51.2931 39.7767Z" stroke="#2D0F0B" stroke-width="2"/>
<path d="M57.4245 33.6806L57.5737 33.8106L57.7611 33.8739L58.4986 34.1235C58.5874 34.3298 58.695 34.5355 58.8373 34.7357C59.0948 35.098 59.4214 35.3816 59.831 35.6555L60.0471 35.8L60.3062 35.821C61.6236 35.9276 62.5071 35.7775 63.1335 35.2849C63.4218 35.0581 63.5969 34.7991 63.6944 34.6549C63.6973 34.6507 63.7 34.6467 63.7027 34.6427C63.7768 34.5332 63.8058 34.4956 63.8159 34.4835C63.8745 34.462 64.146 34.3977 64.9537 34.5353C66.005 34.7144 67.7241 35.1892 70.5913 36.1818L70.8294 36.2642L71.0782 36.224C72.3164 36.0236 73.3576 35.7196 74.1748 35.0285C75.0011 34.3298 75.4626 33.3522 75.8207 32.1248L76.0457 31.3539L75.3416 30.9678C73.8281 30.138 72.7056 29.4859 71.7793 28.9479C71.4979 28.7844 71.2346 28.6314 70.9839 28.4872C69.912 27.8705 69.0619 27.4077 68.0609 27.0043C66.0888 26.2097 63.58 25.6695 57.5251 24.424L57.0549 24.3273L56.6854 24.6337C56.2789 24.9707 55.8579 25.3732 55.6029 25.8915C55.3617 26.3819 55.3036 26.9 55.4058 27.4417C55.1341 28.6803 55.0445 29.7659 55.3447 30.794C55.6676 31.8998 56.3941 32.7826 57.4245 33.6806ZM63.8028 34.4895C63.8026 34.4894 63.8049 34.4879 63.8104 34.4856C63.8058 34.4885 63.8031 34.4897 63.8028 34.4895Z" fill="url(#paint3_linear_354:92)" stroke="#2D0F0B" stroke-width="2"/>
<path d="M60.1623 38.1632C61.363 42.5964 61.9425 45.1366 63.9433 49.0963C63.6049 56.0501 62.9251 59.6368 61.0009 65.522C63.4773 72.8274 64.2801 75.4029 68.3156 81.7784L72.7936 71.5995C70.4242 64.0914 70.1279 59.2689 69.66 50.6281C69.5212 41.5068 68.0369 37.8317 63.5266 33.2293L60.1623 38.1632Z" fill="url(#paint4_linear_354:92)" stroke="#2D0F0B" stroke-width="2"/>
<path d="M37.8478 56.1081C36.2602 60.2163 31.3929 63.6161 23.6623 62.2271C22.4405 60.3759 23.6121 59.5007 27.9697 58.1295L28.1638 57.883C31.4218 53.7443 33.3075 51.3489 35.0631 46.9008L39.7443 49.0304L37.8478 56.1081Z" fill="url(#paint5_linear_354:92)"/>
<path d="M27.9697 58.1295C23.6121 59.5007 22.4405 60.3759 23.6623 62.2271C31.3929 63.6161 36.2602 60.2163 37.8478 56.1081L39.7443 49.0304L35.0631 46.9008C33.3075 51.3489 31.4218 53.7443 28.1638 57.883M27.9697 58.1295L28.1638 57.883M27.9697 58.1295C28.0349 58.0466 28.0996 57.9645 28.1638 57.883" stroke="#2D0F0B" stroke-width="2"/>
<path d="M39.7449 49.0291C40.6168 48.468 41.073 48.0535 41.7624 46.9438C46.5656 36.9472 43.2746 42.3891 45.2388 39.4142L41.7781 33.8187C41.5268 35.4013 41.3264 36.228 40.5577 37.2847L34.3396 45.2466L35.0637 46.8995C36.4832 48.763 37.4276 49.4348 39.7449 49.0291Z" fill="#C4C4C4"/>
<path d="M39.7449 49.0291C40.6168 48.468 41.073 48.0535 41.7624 46.9438C46.5656 36.9472 43.2746 42.3891 45.2388 39.4142L41.7781 33.8187C41.5268 35.4013 41.3264 36.228 40.5577 37.2847L34.3396 45.2466L35.0637 46.8995C36.4832 48.763 37.4276 49.4348 39.7449 49.0291Z" fill="url(#paint6_linear_354:92)"/>
<path d="M39.7449 49.0291C40.6168 48.468 41.073 48.0535 41.7624 46.9438C46.5656 36.9472 43.2746 42.3891 45.2388 39.4142L41.7781 33.8187C41.5268 35.4013 41.3264 36.228 40.5577 37.2847L34.3396 45.2466L35.0637 46.8995C36.4832 48.763 37.4276 49.4348 39.7449 49.0291Z" stroke="#2D0F0B" stroke-width="2"/>
<path d="M44.7989 40.3138L44.9766 40.4008L45.174 40.4135L46.1327 40.4753C46.2979 40.6904 46.4829 40.8964 46.7086 41.0831C47.0836 41.3932 47.512 41.6033 48.0374 41.7819L48.2835 41.8655L48.5393 41.8187C50.0213 41.5474 50.9097 41.1275 51.4237 40.4409C51.662 40.1225 51.7729 39.8016 51.8379 39.6138L51.8427 39.5998C51.917 39.3853 51.9327 39.3597 51.9462 39.342L51.9464 39.3418C51.9478 39.3399 51.9537 39.332 51.9744 39.3173C51.9984 39.3003 52.0498 39.269 52.1476 39.2316C52.3522 39.1533 52.7092 39.0672 53.3245 39.0098C54.5567 38.8949 56.6147 38.9114 60.0909 39.1603L60.3422 39.1783L60.5721 39.075C61.8794 38.4877 62.913 37.8548 63.5903 36.8796C64.2744 35.8945 64.4942 34.7083 64.5264 33.2512L64.5442 32.4483L63.7641 32.2576C61.837 31.7865 60.3959 31.3963 59.2085 31.0748C58.8481 30.9772 58.5111 30.8859 58.1909 30.8006C56.8201 30.4355 55.7479 30.1771 54.5285 30.0286C52.1218 29.7353 49.1951 29.8802 42.1031 30.2986L41.6239 30.3269L41.3463 30.7185C40.9984 31.2091 40.6665 31.7595 40.544 32.3782C40.4272 32.9685 40.5151 33.5369 40.7874 34.0901C40.8521 35.5488 41.072 36.7596 41.6959 37.7866C42.3612 38.8819 43.3999 39.6293 44.7989 40.3138Z" fill="url(#paint7_linear_354:92)" stroke="#2D0F0B" stroke-width="2"/>
<path d="M52.5737 49.9266C54.9442 54.5009 56.1836 57.1477 59.3186 61.0126C60.6013 68.7161 60.709 72.8096 59.9992 79.7187C64.4512 87.1382 65.9438 89.7706 71.8837 95.7999L74.372 83.5766C69.9891 75.9095 68.5174 70.6933 65.9496 61.3323C63.6284 51.3663 61.1273 47.6905 55.0885 43.7179L52.5737 49.9266Z" fill="url(#paint8_linear_354:92)" stroke="#2D0F0B" stroke-width="2"/>
<path d="M32.3794 74.9053C31.616 79.7864 27.0888 84.6708 18.284 84.9866C16.5043 83.2479 17.5806 82.0097 22.0314 79.4703L22.1855 79.1539C24.7729 73.8422 26.2704 70.7679 27.1372 65.4742L32.7752 66.6955L32.3794 74.9053Z" fill="url(#paint9_linear_354:92)"/>
<path d="M22.0314 79.4703C17.5806 82.0097 16.5043 83.2479 18.284 84.9866C27.0888 84.6708 31.616 79.7864 32.3794 74.9053L32.7752 66.6955L27.1372 65.4742C26.2704 70.7679 24.7729 73.8422 22.1855 79.1539M22.0314 79.4703L22.1855 79.1539M22.0314 79.4703C22.0832 79.364 22.1346 79.2585 22.1855 79.1539" stroke="#2D0F0B" stroke-width="2"/>
<path d="M32.7755 66.6945C33.598 65.8721 33.9995 65.3092 34.4914 63.9288C37.3795 51.828 35.0659 58.5762 36.5117 54.8479L31.3873 49.537C31.4881 51.3316 31.465 52.2855 30.8737 53.6266L25.9506 63.8335L27.1375 65.4732C29.1367 67.1785 30.3317 67.6904 32.7755 66.6945Z" fill="#C4C4C4"/>
<path d="M32.7755 66.6945C33.598 65.8721 33.9995 65.3092 34.4914 63.9288C37.3795 51.828 35.0659 58.5762 36.5117 54.8479L31.3873 49.537C31.4881 51.3316 31.465 52.2855 30.8737 53.6266L25.9506 63.8335L27.1375 65.4732C29.1367 67.1785 30.3317 67.6904 32.7755 66.6945Z" fill="url(#paint10_linear_354:92)"/>
<path d="M32.7755 66.6945C33.598 65.8721 33.9995 65.3092 34.4914 63.9288C37.3795 51.828 35.0659 58.5762 36.5117 54.8479L31.3873 49.537C31.4881 51.3316 31.465 52.2855 30.8737 53.6266L25.9506 63.8335L27.1375 65.4732C29.1367 67.1785 30.3317 67.6904 32.7755 66.6945Z" stroke="#2D0F0B" stroke-width="2"/>
<path d="M36.2724 55.819L36.4645 55.8663L36.6601 55.8368L37.7807 55.6684C38.0199 55.8746 38.2765 56.0634 38.5757 56.2182C39.0431 56.46 39.547 56.5856 40.1564 56.6554L40.4147 56.685L40.6547 56.585C42.2066 55.9386 43.0446 55.2825 43.4251 54.4504C43.6027 54.0621 43.6461 53.6999 43.6726 53.4793L43.6743 53.4648C43.7043 53.2155 43.7169 53.164 43.737 53.1208C43.737 53.1206 43.7371 53.1204 43.7373 53.1201C43.7464 53.0996 43.883 52.7946 45.2425 52.3642C46.576 51.9419 48.8444 51.4695 52.7153 50.9156L52.9647 50.8799L53.1675 50.7302C54.4562 49.779 55.4164 48.8557 55.9139 47.657C56.4159 46.4473 56.3796 45.123 56.0701 43.5267L55.9173 42.7383L55.1145 42.7173C52.8883 42.6591 51.2137 42.574 49.8355 42.5038C49.4175 42.4826 49.0267 42.4627 48.6561 42.4454C47.0677 42.3712 45.8378 42.3433 44.4746 42.4696C41.7801 42.7192 38.6193 43.5699 30.9392 45.7165L30.4769 45.8457L30.2886 46.2873C30.0255 46.9042 29.8012 47.5669 29.8136 48.2475C29.8255 48.9008 30.0514 49.4844 30.4769 50.0126C30.8939 51.6008 31.4169 52.8603 32.329 53.8208C33.2956 54.8388 34.5856 55.4037 36.2724 55.819Z" fill="url(#paint11_linear_354:92)" stroke="#2D0F0B" stroke-width="2"/>
<path d="M51.8853 63.6694C54.909 66.6768 56.5542 68.4503 60.0014 70.7054C62.9576 76.4542 64.0761 79.6539 65.261 85.2795C70.6439 90.0042 72.4851 91.7025 78.6899 94.9556L77.5651 84.6917C72.1742 79.7544 69.6971 76.0141 65.3093 69.2832C60.9631 62.0131 58.0635 59.747 52.3001 58.1402L51.8853 63.6694Z" fill="url(#paint12_linear_354:92)" stroke="#2D0F0B" stroke-width="2"/>
<path d="M42.273 88.4587C42.9037 92.4992 40.5682 97.4926 33.7072 99.9647C31.8652 99.0434 32.401 97.7956 35.2684 94.67L35.31 94.3817C36.0085 89.5412 36.4127 86.7396 35.7593 82.3478L40.5122 81.887L42.273 88.4587Z" fill="url(#paint13_linear_354:92)"/>
<path d="M35.2684 94.67C32.401 97.7956 31.8652 99.0434 33.7072 99.9647C40.5682 97.4926 42.9037 92.4992 42.273 88.4587L40.5122 81.887L35.7593 82.3478C36.4127 86.7396 36.0085 89.5412 35.31 94.3817M35.2684 94.67L35.31 94.3817M35.2684 94.67C35.2824 94.5731 35.2963 94.477 35.31 94.3817" stroke="#2D0F0B" stroke-width="2"/>
<path d="M40.5123 81.8864C40.9529 81.0304 41.1273 80.4853 41.1665 79.2729C40.3878 69.0047 40.268 74.9084 40.4663 71.6044L35.0858 68.7116C35.6184 70.1009 35.841 70.8587 35.7135 72.0652L34.4098 81.3543L35.7595 82.3472C37.766 83.1866 38.8373 83.2884 40.5123 81.8864Z" fill="#C4C4C4"/>
<path d="M40.5123 81.8864C40.9529 81.0304 41.1273 80.4853 41.1665 79.2729C40.3878 69.0047 40.268 74.9084 40.4663 71.6044L35.0858 68.7116C35.6184 70.1009 35.841 70.8587 35.7135 72.0652L34.4098 81.3543L35.7595 82.3472C37.766 83.1866 38.8373 83.2884 40.5123 81.8864Z" fill="url(#paint14_linear_354:92)"/>
<path d="M40.5123 81.8864C40.9529 81.0304 41.1273 80.4853 41.1665 79.2729C40.3878 69.0047 40.268 74.9084 40.4663 71.6044L35.0858 68.7116C35.6184 70.1009 35.841 70.8587 35.7135 72.0652L34.4098 81.3543L35.7595 82.3472C37.766 83.1866 38.8373 83.2884 40.5123 81.8864Z" stroke="#2D0F0B" stroke-width="2"/>
<path d="M40.5348 72.6028L40.7322 72.5892L40.9095 72.5015L41.6801 72.1205C41.9074 72.2127 42.1477 72.2894 42.4107 72.3339C42.8676 72.4112 43.3189 72.3799 43.8295 72.2785L44.0845 72.2279L44.2825 72.0595C45.3523 71.15 45.8891 70.3847 45.9869 69.5665C46.0321 69.1886 45.9705 68.8699 45.9354 68.6882C45.9344 68.6832 45.9335 68.6784 45.9326 68.6737C45.9131 68.5723 45.9042 68.525 45.8993 68.4816C45.8967 68.4589 45.8966 68.4471 45.8968 68.4426C45.9144 68.3931 46.0467 68.1323 46.8214 67.5832C47.7537 66.9223 49.4117 65.9823 52.322 64.5689L52.5487 64.4588L52.6961 64.2544C53.4766 63.1725 54.0235 62.1706 54.1171 61.0519C54.2116 59.9215 53.8298 58.8505 53.1768 57.6594L52.7907 56.9552L52.0198 57.1801C50.2525 57.6957 48.9136 58.0507 47.8096 58.3433C47.4744 58.4322 47.1608 58.5154 46.8634 58.5955C45.591 58.9385 44.6049 59.2295 43.5506 59.6782C41.4717 60.5629 39.1792 62.0427 33.6733 65.6699L33.2724 65.934L33.2278 66.412C33.1756 66.9703 33.1629 67.5795 33.3567 68.1487C33.5408 68.6895 33.8818 69.1151 34.3625 69.4403C35.0916 70.5808 35.8367 71.4598 36.8271 72.0025C37.8881 72.5839 39.0863 72.7023 40.5348 72.6028ZM45.8945 68.4513C45.8942 68.4514 45.8946 68.4488 45.8965 68.4433C45.8957 68.4486 45.8947 68.4513 45.8945 68.4513Z" fill="url(#paint15_linear_354:92)" stroke="#2D0F0B" stroke-width="2"/>
<path d="M116.793 42.1242C115.675 45.9647 115.128 48.167 113.321 51.5819C113.5 57.6425 114.033 60.7769 115.612 65.9332C113.335 72.2535 112.593 74.4829 108.974 79.9678L105.243 71.0305C107.43 64.5319 107.767 60.3376 108.318 52.8213C108.589 44.8812 109.942 41.7056 113.945 37.7725L116.793 42.1242Z" fill="url(#paint16_linear_354:92)" stroke="#2D0F0B" stroke-width="2"/>
<path d="M135.928 58.1187C137.242 61.7222 141.424 64.7629 148.179 63.681C149.273 62.0893 148.268 61.3078 144.496 60.0419L144.331 59.8241C141.562 56.1665 139.96 54.0496 138.504 50.1474L134.393 51.9245L135.928 58.1187Z" fill="url(#paint17_linear_354:92)"/>
<path d="M144.496 60.0419C148.268 61.3078 149.273 62.0893 148.179 63.681C141.424 64.7629 137.242 61.7222 135.928 58.1187L134.393 51.9245L138.504 50.1474C139.96 54.0496 141.562 56.1665 144.331 59.8241M144.496 60.0419L144.331 59.8241M144.496 60.0419C144.44 59.9687 144.385 59.8961 144.331 59.8241" stroke="#2D0F0B" stroke-width="2"/>
<path d="M134.393 51.9231C133.643 51.4202 133.252 51.0517 132.67 50.0741C128.653 41.2902 131.429 46.0831 129.767 43.4603L132.873 38.6451C133.066 40.0273 133.227 40.7504 133.879 41.6832L139.162 48.7188L138.504 50.1461C137.237 51.7453 136.404 52.3147 134.393 51.9231Z" fill="#C4C4C4"/>
<path d="M134.393 51.9231C133.643 51.4202 133.252 51.0517 132.67 50.0741C128.653 41.2902 131.429 46.0831 129.767 43.4603L132.873 38.6451C133.066 40.0273 133.227 40.7504 133.879 41.6832L139.162 48.7188L138.504 50.1461C137.237 51.7453 136.404 52.3147 134.393 51.9231Z" fill="url(#paint18_linear_354:92)"/>
<path d="M134.393 51.9231C133.643 51.4202 133.252 51.0517 132.67 50.0741C128.653 41.2902 131.429 46.0831 129.767 43.4603L132.873 38.6451C133.066 40.0273 133.227 40.7504 133.879 41.6832L139.162 48.7188L138.504 50.1461C137.237 51.7453 136.404 52.3147 134.393 51.9231Z" stroke="#2D0F0B" stroke-width="2"/>
<path d="M130.19 44.3665L130.011 44.4501L129.813 44.4591L129.036 44.4944C128.893 44.6681 128.733 44.836 128.541 44.9888C128.193 45.2657 127.8 45.4476 127.331 45.5973L127.083 45.6763L126.828 45.6247C125.533 45.3621 124.726 44.9731 124.26 44.3262C124.046 44.0284 123.95 43.731 123.896 43.5654C123.894 43.5606 123.893 43.556 123.891 43.5514C123.851 43.4256 123.833 43.3815 123.827 43.3671C123.776 43.3302 123.533 43.1932 122.719 43.1016C121.659 42.9824 119.876 42.9622 116.846 43.1215L116.595 43.1348L116.367 43.0272C115.232 42.4916 114.316 41.911 113.722 41.0205C113.122 40.1202 112.95 39.053 112.946 37.7744L112.943 36.9714L113.727 36.7955C115.411 36.4175 116.67 36.102 117.709 35.8417C118.025 35.7626 118.32 35.6886 118.601 35.6194C119.802 35.3239 120.747 35.1147 121.82 35.0045C123.935 34.7874 126.496 34.9636 132.659 35.4445L133.137 35.4819L133.407 35.8787C133.705 36.3151 133.998 36.8185 134.099 37.3871C134.195 37.9252 134.107 38.4391 133.859 38.9313C133.777 40.1967 133.562 41.2645 132.989 42.1692C132.372 43.1423 131.429 43.7892 130.19 44.3665ZM123.838 43.3765C123.838 43.3764 123.836 43.3743 123.832 43.3707C123.835 43.3747 123.837 43.3766 123.838 43.3765Z" fill="url(#paint19_linear_354:92)" stroke="#2D0F0B" stroke-width="2"/>
<path d="M126.317 47.9157C123.935 51.8427 122.675 54.1229 119.655 57.3731C118.053 64.1485 117.713 67.7831 117.931 73.971C113.527 80.3042 112.042 82.5565 106.398 87.5642L104.916 76.543C109.273 69.9854 110.894 65.4338 113.738 57.2609C116.399 48.5352 118.843 45.4153 124.452 42.2429L126.317 47.9157Z" fill="url(#paint20_linear_354:92)" stroke="#2D0F0B" stroke-width="2"/>
<path d="M142.786 71.3407C143.173 75.728 146.908 80.3433 154.721 81.1507C156.408 79.7106 155.525 78.5449 151.717 76.02L151.599 75.7294C149.616 70.85 148.467 68.0259 148.013 63.2655L142.925 64.0147L142.786 71.3407Z" fill="url(#paint21_linear_354:92)"/>
<path d="M151.717 76.02C155.525 78.5449 156.408 79.7106 154.721 81.1507C146.908 80.3433 143.173 75.728 142.786 71.3407L142.925 64.0147L148.013 63.2655C148.467 68.0259 149.616 70.85 151.599 75.7294M151.717 76.02L151.599 75.7294M151.717 76.02C151.678 75.9223 151.638 75.8255 151.599 75.7294" stroke="#2D0F0B" stroke-width="2"/>
<path d="M142.925 64.0131C142.242 63.2324 141.919 62.7077 141.564 61.4505C139.719 50.5144 141.373 56.6551 140.31 53.2525L145.186 48.8349C144.989 50.4252 144.952 51.275 145.398 52.5033L149.166 61.8765L148.013 63.264C146.132 64.6612 145.039 65.045 142.925 64.0131Z" fill="#C4C4C4"/>
<path d="M142.925 64.0131C142.242 63.2324 141.919 62.7077 141.564 61.4505C139.719 50.5144 141.373 56.6551 140.31 53.2525L145.186 48.8349C144.989 50.4252 144.952 51.275 145.398 52.5033L149.166 61.8765L148.013 63.264C146.132 64.6612 145.039 65.045 142.925 64.0131Z" fill="url(#paint22_linear_354:92)"/>
<path d="M142.925 64.0131C142.242 63.2324 141.919 62.7077 141.564 61.4505C139.719 50.5144 141.373 56.6551 140.31 53.2525L145.186 48.8349C144.989 50.4252 144.952 51.275 145.398 52.5033L149.166 61.8765L148.013 63.264C146.132 64.6612 145.039 65.045 142.925 64.0131Z" stroke="#2D0F0B" stroke-width="2"/>
<path d="M140.484 54.2388L140.289 54.2731L140.096 54.2307L139.157 54.0244C138.939 54.1853 138.704 54.332 138.436 54.4488C137.989 54.6429 137.519 54.726 136.965 54.752L136.705 54.7642L136.473 54.6484C135.124 53.9771 134.387 53.3274 134.083 52.5253C133.942 52.1533 133.925 51.8143 133.914 51.6158L133.913 51.6011C133.902 51.3744 133.893 51.3455 133.885 51.3247L133.885 51.3244C133.884 51.3222 133.881 51.3129 133.865 51.2932C133.847 51.2701 133.806 51.2258 133.723 51.1628C133.548 51.0308 133.228 50.8493 132.653 50.6236C131.501 50.1717 129.519 49.6173 126.11 48.8933L125.864 48.841L125.671 48.6781C124.578 47.7516 123.76 46.857 123.38 45.7323C122.995 44.5963 123.113 43.3955 123.485 41.9866L123.691 41.2102L124.493 41.2432C126.475 41.3245 127.968 41.3488 129.198 41.3689C129.572 41.375 129.921 41.3807 130.252 41.3874C131.67 41.4164 132.772 41.4653 133.985 41.6604C136.379 42.0455 139.15 42.9956 145.849 45.3627L146.301 45.5226L146.46 45.9758C146.658 46.5436 146.824 47.1645 146.771 47.7929C146.719 48.3924 146.477 48.9142 146.063 49.3703C145.596 50.754 145.049 51.8564 144.165 52.6703C143.223 53.5384 142.018 53.9688 140.484 54.2388Z" fill="url(#paint23_linear_354:92)" stroke="#2D0F0B" stroke-width="2"/>
<path d="M130.35 61.3203C126.804 65.0587 124.88 67.2585 120.797 70.1034C117.43 77.1499 116.192 81.0533 114.96 87.8885C108.627 93.7839 106.463 95.8997 99.085 100.047L100.081 87.6129C106.417 81.4604 109.276 76.8563 114.337 68.5733C119.329 59.6406 122.75 56.8018 129.654 54.6579L130.35 61.3203Z" fill="url(#paint24_linear_354:92)" stroke="#2D0F0B" stroke-width="2"/>
<path d="M142.832 90.9168C142.213 95.8183 145.21 101.766 153.582 104.509C155.774 103.331 155.083 101.844 151.51 98.1703L151.45 97.8236C150.435 92.0029 149.848 88.634 150.482 83.3074L144.727 82.9187L142.832 90.9168Z" fill="url(#paint25_linear_354:92)"/>
<path d="M151.51 98.1703C155.083 101.844 155.774 103.331 153.582 104.509C145.21 101.766 142.213 95.8183 142.832 90.9168L144.727 82.9187L150.482 83.3074C149.848 88.634 150.435 92.0029 151.45 97.8236M151.51 98.1703L151.45 97.8236M151.51 98.1703C151.49 98.0537 151.47 97.9382 151.45 97.8236" stroke="#2D0F0B" stroke-width="2"/>
<path d="M144.726 82.9174C144.164 81.8992 143.934 81.2471 143.844 79.7845C144.422 67.3572 144.775 74.4823 144.419 70.4994L150.814 66.8162C150.22 68.5127 149.978 69.4356 150.175 70.8881L152.077 82.0595L150.482 83.3061C148.089 84.3906 146.798 84.5513 144.726 82.9174Z" fill="#C4C4C4"/>
<path d="M144.726 82.9174C144.164 81.8992 143.934 81.2471 143.844 79.7845C144.422 67.3572 144.775 74.4823 144.419 70.4994L150.814 66.8162C150.22 68.5127 149.978 69.4356 150.175 70.8881L152.077 82.0595L150.482 83.3061C148.089 84.3906 146.798 84.5513 144.726 82.9174Z" fill="url(#paint26_linear_354:92)"/>
<path d="M144.726 82.9174C144.164 81.8992 143.934 81.2471 143.844 79.7845C144.422 67.3572 144.775 74.4823 144.419 70.4994L150.814 66.8162C150.22 68.5127 149.978 69.4356 150.175 70.8881L152.077 82.0595L150.482 83.3061C148.089 84.3906 146.798 84.5513 144.726 82.9174Z" stroke="#2D0F0B" stroke-width="2"/>
<path d="M144.38 71.4994L144.182 71.4916L144.002 71.4092L142.972 70.9368C142.685 71.0687 142.386 71.179 142.056 71.2448C141.54 71.3477 141.021 71.3287 140.416 71.2269L140.16 71.1837L139.957 71.0212C138.645 69.9701 138.021 69.1075 137.886 68.2026C137.823 67.7803 137.882 67.4202 137.918 67.201L137.92 67.1865C137.96 66.9386 137.962 66.8857 137.955 66.8386C137.955 66.8384 137.955 66.8381 137.955 66.8378C137.952 66.8156 137.905 66.4847 136.718 65.6945C135.554 64.9192 133.505 63.8368 129.939 62.232L129.709 62.1286L129.556 61.9286C128.581 60.6576 127.915 59.5044 127.769 58.2147C127.622 56.9133 128.023 55.6509 128.763 54.2028L129.128 53.4877L129.905 53.69C132.061 54.2509 133.693 54.633 135.037 54.9476C135.445 55.0429 135.826 55.1321 136.186 55.2182C137.733 55.587 138.923 55.901 140.198 56.4C142.717 57.3865 145.519 59.0797 152.303 63.2702L152.712 63.5225L152.77 63.9989C152.852 64.6646 152.884 65.3635 152.684 66.0141C152.491 66.6385 152.112 67.1366 151.557 67.5263C150.716 68.9367 149.865 70.0019 148.722 70.6722C147.512 71.3825 146.116 71.5678 144.38 71.4994Z" fill="url(#paint27_linear_354:92)" stroke="#2D0F0B" stroke-width="2"/>
<path d="M127.203 74.7163C123.465 76.7681 121.392 78.0163 117.455 79.228C113.022 83.9326 111.061 86.6971 108.363 91.7741C101.882 94.8223 99.6424 95.9439 92.7792 97.3504L96.7038 87.8C103.252 84.5498 106.668 81.6423 112.749 76.3907C118.94 70.6095 122.354 69.2356 128.337 69.2886L127.203 74.7163Z" fill="url(#paint28_linear_354:92)" stroke="#2D0F0B" stroke-width="2"/>
<path d="M129.57 101.198C127.845 104.905 128.705 110.35 134.613 114.627C136.638 114.252 136.469 112.904 134.58 109.107L134.62 108.818C135.29 103.974 135.678 101.17 137.522 97.1309L133.083 95.3713L129.57 101.198Z" fill="url(#paint29_linear_354:92)"/>
<path d="M134.58 109.107C136.469 112.904 136.638 114.252 134.613 114.627C128.705 110.35 127.845 104.905 129.57 101.198L133.083 95.3713L137.522 97.1309C135.678 101.17 135.29 103.974 134.62 108.818M134.58 109.107L134.62 108.818M134.58 109.107C134.593 109.01 134.606 108.914 134.62 108.818" stroke="#2D0F0B" stroke-width="2"/>
<path d="M133.083 95.3709C132.897 94.4263 132.88 93.8542 133.179 92.6785C136.772 83.028 135.251 88.7338 135.976 85.5042L141.948 84.2156C141.051 85.4028 140.627 86.0693 140.415 87.2639L139.094 96.5505L137.522 97.1305C135.362 97.3812 134.304 97.1821 133.083 95.3709Z" fill="#C4C4C4"/>
<path d="M133.083 95.3709C132.897 94.4263 132.88 93.8542 133.179 92.6785C136.772 83.028 135.251 88.7338 135.976 85.5042L141.948 84.2156C141.051 85.4028 140.627 86.0693 140.415 87.2639L139.094 96.5505L137.522 97.1305C135.362 97.3812 134.304 97.1821 133.083 95.3709Z" fill="url(#paint30_linear_354:92)"/>
<path d="M133.083 95.3709C132.897 94.4263 132.88 93.8542 133.179 92.6785C136.772 83.028 135.251 88.7338 135.976 85.5042L141.948 84.2156C141.051 85.4028 140.627 86.0693 140.415 87.2639L139.094 96.5505L137.522 97.1305C135.362 97.3812 134.304 97.1821 133.083 95.3709Z" stroke="#2D0F0B" stroke-width="2"/>
<path d="M135.634 86.444L135.448 86.3763L135.302 86.243L134.667 85.6633C134.423 85.6889 134.171 85.6961 133.906 85.6659C133.445 85.6136 133.02 85.4585 132.558 85.2196L132.327 85.1003L132.183 84.8837C131.407 83.7133 131.104 82.8293 131.236 82.016C131.298 81.6404 131.445 81.3512 131.529 81.1863C131.532 81.1819 131.534 81.1775 131.536 81.1732C131.583 81.0812 131.605 81.0382 131.621 80.9979C131.63 80.9767 131.633 80.9655 131.634 80.961C131.631 80.9086 131.576 80.6213 130.984 79.8791C130.271 78.9858 128.939 77.6231 126.534 75.4587L126.347 75.2901L126.262 75.0529C125.812 73.797 125.564 72.6828 125.784 71.5821C126.006 70.4697 126.67 69.5465 127.627 68.5829L128.193 68.0133L128.872 68.443C130.427 69.4281 131.615 70.1401 132.595 70.7272C132.892 70.9055 133.171 71.0723 133.434 71.2317C134.562 71.9138 135.429 72.4667 136.317 73.1899C138.07 74.616 139.862 76.6731 144.148 81.6839L144.46 82.0487L144.37 82.5203C144.266 83.0712 144.109 83.6601 143.765 84.1533C143.438 84.6219 142.993 84.9364 142.441 85.1156C141.424 86.0095 140.465 86.6476 139.363 86.8947C138.182 87.1593 136.998 86.941 135.634 86.444ZM131.634 80.9701C131.634 80.9702 131.635 80.9676 131.635 80.9619C131.634 80.9671 131.634 80.97 131.634 80.9701Z" fill="url(#paint31_linear_354:92)" stroke="#2D0F0B" stroke-width="2"/>
<path d="M64.5 111C55.8106 108.823 57 100 57 100L65 100.5C69 105.5 73 101.5 71.5 96.5C75.4491 98.1684 77 102 76.5 104.5C76 107 71.3365 111.242 64.5 111Z" fill="url(#paint32_linear_354:92)" stroke="#2D0F0B" stroke-width="2"/>
<path d="M65 100.5C65 100.5 64.9244 98.6322 74.5 93.0004C78.7069 86.5387 71 82.5004 71 82.5004C71 82.5004 60.5629 82.1894 57 100C59.9556 103.085 65 100.5 65 100.5Z" fill="url(#paint33_linear_354:92)" stroke="#2D0F0B" stroke-width="2"/>
<path d="M102.023 113.967C110.301 113.41 110.667 105.172 110.667 105.172L103.292 104.313C98.8245 108.214 95.8354 103.91 98.0243 99.5989C94.1503 100.471 92.107 103.709 92.1521 106.07C92.1971 108.431 95.7512 113.064 102.023 113.967Z" fill="url(#paint34_linear_354:92)" stroke="#2D0F0B" stroke-width="2"/>
<path d="M103.293 104.313C103.293 104.313 103.668 102.622 95.865 95.9153C93.0917 89.3339 100.781 86.919 100.781 86.919C100.781 86.919 110.346 88.3503 110.667 105.171C107.466 107.498 103.293 104.313 103.293 104.313Z" fill="url(#paint35_linear_354:92)" stroke="#2D0F0B" stroke-width="2"/>
<path d="M112.339 1.00251L112.301 0.999829L112.263 1.00001C106.405 1.02825 102.067 1.31646 97.1896 2.81788C92.3346 4.31248 86.9997 6.99211 79.0987 11.709L78.9122 11.8203L78.7886 11.999C74.5927 18.069 72.2257 22.9616 72.0562 28.0614C71.8864 33.1674 73.9246 38.2879 78.0567 44.8058L78.107 44.8851L78.1711 44.9536L82.7856 49.8852L82.9991 50.1133L83.3045 50.1793C95.3754 52.7894 103.323 57.701 118.253 66.9485L118.779 66.0984L118.253 66.9485L118.841 67.3125L119.069 67.4539L119.337 67.4619C121.757 67.5344 123.748 67.4242 125.86 66.9288C127.962 66.4354 130.138 65.571 132.943 64.1891L133.018 64.1517L133.087 64.1021C136.477 61.6482 139.121 59.7334 141.27 57.3495C143.438 54.9438 145.071 52.0989 146.566 47.8054C148.354 43.7055 149.421 40.163 149.82 36.3809C150.219 32.5942 149.942 28.6211 149.105 23.6728L149.083 23.5413L149.027 23.4202C147.547 20.2177 146.188 17.7681 144.456 15.4863C142.726 13.206 140.65 11.1273 137.769 8.64029L137.735 8.61156L137.7 8.58586C130.297 3.25473 123.865 1.82072 112.339 1.00251Z" fill="url(#paint36_linear_354:92)" stroke="#32501E" stroke-width="2"/>
<path d="M83.5158 49.2019L78.9013 44.2704C74.7763 37.7637 72.871 32.8319 73.059 28C90.014 43.1676 112 40 127 39C142 38 132.501 63.2921 132.501 63.2921C126.954 66.0248 124.107 66.6043 119.367 66.4623C104.285 56.7594 96.1778 51.6999 83.5158 49.2019Z" fill="url(#paint37_linear_354:92)"/>
<path d="M92.4786 53.5173C93.1279 52.7567 93.1278 52.7566 93.1276 52.7564L93.1271 52.7561L93.1259 52.755L93.122 52.7516L93.1086 52.7404L93.0604 52.7C93.0189 52.6655 92.9589 52.616 92.8819 52.5537C92.728 52.4291 92.5059 52.253 92.2279 52.0427C91.6729 51.6228 90.8899 51.0622 89.9785 50.5006C88.2067 49.409 85.7564 48.1903 83.5105 48.2022C81.16 48.2146 78.9722 48.5643 77.0927 49.5898C75.1888 50.6285 73.6948 52.3092 72.6539 54.8056L72.6182 54.8911L72.5989 54.9817C72.0282 57.6549 71.8118 59.7139 72.0566 61.5959C72.2727 63.2574 72.8396 64.7166 73.734 66.2911C71.7267 68.2519 70.6438 69.6174 69.4823 72.0148L69.4351 72.1122L69.4099 72.2173C69.0281 73.8068 68.8131 75.1356 68.9144 76.4755C69.0168 77.8287 69.4348 79.1153 70.1969 80.6461L71.258 82.7774L72.0371 80.5277C73.9353 75.0461 79.1459 68.5101 83.9997 63.2635C86.408 60.6603 88.6952 58.4092 90.3807 56.8087C91.223 56.0088 91.9142 55.3723 92.394 54.9365C92.6338 54.7186 92.8208 54.5509 92.9473 54.4381C93.0105 54.3817 93.0586 54.3391 93.0907 54.3108L93.1266 54.2791L93.1353 54.2714L93.1373 54.2696L93.1377 54.2693L92.4786 53.5173ZM92.4786 53.5173L93.1279 52.7567L94.0071 53.5073L93.1378 54.2693L92.4786 53.5173ZM102.767 87.0824L103.115 88.8889L104.441 87.6144C107.407 84.7656 109.139 81.5663 110.282 75.7778C112.709 75.2963 114.89 74.417 116.622 73.0289C118.535 71.4959 119.849 69.3816 120.351 66.6427C121.176 62.1387 117.663 58.4219 113.614 56.5396C109.543 54.6473 104.252 54.265 100.812 57.0557C99.3956 58.204 98.4708 59.476 97.9608 60.8877C97.4536 62.2917 97.3822 63.7633 97.5611 65.2753C97.8398 67.6311 98.7609 70.2616 99.7446 73.0711C99.9863 73.7613 100.232 74.4623 100.472 75.1727L102.767 87.0824Z" fill="url(#paint38_linear_354:92)" stroke="#132706" stroke-width="2"/>
<path d="M106.5 68C107.5 68.0237 107.5 68.0234 107.5 68.023L107.5 68.0221L107.5 68.0196L107.5 68.0115L107.5 67.9834C107.501 67.9714 107.501 67.9569 107.501 67.9399C107.501 67.9229 107.501 67.9034 107.502 67.8815C107.502 67.7939 107.502 67.6679 107.5 67.5089C107.496 67.1912 107.483 66.7405 107.449 66.2013C107.382 65.1275 107.229 63.6803 106.884 62.2235C106.543 60.7816 105.994 59.2457 105.084 58.0586C104.148 56.836 102.802 55.9613 100.979 56.0002C99.6171 56.0292 98.7553 55.8767 98.1785 55.6757C97.6204 55.4813 97.2774 55.2243 96.9648 54.943C96.9085 54.8924 96.8443 54.8313 96.7732 54.7636C96.5032 54.5066 96.133 54.1543 95.7147 53.9158C95.0972 53.5637 94.3722 53.4167 93.4094 53.5043C88.5552 53.9459 83.5913 56.876 80.2054 59.7941C78.5066 61.2582 77.1355 62.7782 76.3489 64.0701C75.9637 64.7028 75.6619 65.3718 75.5968 66.0043C75.5698 66.2662 75.5803 66.5533 75.6658 66.8381C74.9877 67.3816 74.262 67.8322 73.5077 68.3007C73.2504 68.4605 72.9897 68.6224 72.7264 68.7907C71.4985 69.5759 70.2119 70.509 69.4823 72.0149L69.4351 72.1122L69.4099 72.2174C69.0281 73.8069 68.8131 75.1357 68.9144 76.4756C69.0168 77.8288 69.4348 79.1154 70.1969 80.6462L70.3517 80.957L70.6657 81.105L84.8642 87.7979L85.0667 87.8933H85.2906H103.749H104.151L104.441 87.6144C107.409 84.7634 109.142 81.5612 110.285 75.7641C110.66 75.6715 110.99 75.5541 111.253 75.3954C111.473 75.2632 111.731 75.052 111.883 74.7194C112.047 74.3582 112.021 73.9971 111.92 73.7086C111.828 73.4462 111.672 73.2365 111.541 73.0855C111.403 72.9277 111.243 72.7809 111.086 72.6481C110.801 72.407 110.446 72.1494 110.102 71.8991C110.073 71.878 110.044 71.8569 110.015 71.8358C109.227 71.263 108.447 70.6783 107.925 70.029C107.424 69.4066 107.272 68.871 107.453 68.3039L107.496 68.1672L107.5 68.0237L106.5 68Z" fill="url(#paint39_linear_354:92)" stroke="#2D0F0B" stroke-width="2"/>
<path d="M70.788 79.248L70.4906 79.3429L70.3 79.5903C68.9914 81.2884 68.3328 83.5182 68.1004 85.8532C67.867 88.1986 68.0552 90.7303 68.5128 93.1143C68.9704 95.4984 69.7049 97.7738 70.5911 99.6078C71.4524 101.39 72.5432 102.938 73.8108 103.624C75.0188 104.278 76.4857 104.438 77.8751 104.26C79.2706 104.08 80.6786 103.549 81.8056 102.71C82.9349 101.87 83.8342 100.676 84.0608 99.1793C84.2568 97.8846 83.9293 96.4984 83.0275 95.0867C83.7627 94.2461 84.2574 93.4189 84.6538 92.4856C84.8277 93.2565 85.0489 93.9585 85.3048 94.5893C85.8143 95.8453 86.4878 96.8759 87.2446 97.5788C86.7985 98.0909 86.4806 98.653 86.2819 99.3106C85.9771 100.319 85.9827 101.468 86.0674 102.808L86.0971 103.278L86.4779 103.554C88.4521 104.988 89.8998 105.721 91.5044 105.933C92.9273 106.121 94.4096 105.881 96.3253 105.571C96.4831 105.546 96.6439 105.52 96.8078 105.493L97.2591 105.421L97.4997 105.032C101.391 98.7474 102.692 94.2202 104.71 87.1686L104.857 86.6538L104.511 86.2458C100.709 81.7733 97.5296 79.5666 94.1964 79.8014C92.5461 79.9176 90.9898 80.6282 89.4416 81.73C88.1775 82.6296 86.8779 83.8197 85.4946 85.235C83.6639 82.1386 81.885 80.053 79.6823 79.0147C77.168 77.8296 74.3405 78.1139 70.788 79.248Z" fill="url(#paint40_linear_354:92)" stroke="#132706" stroke-width="2"/>
<path d="M99.2624 44.3528C99.6855 44.4304 100.152 44.3913 100.567 44.1182C100.961 43.8596 101.175 43.4781 101.298 43.1471C101.53 42.5221 101.573 41.6876 101.586 40.8965C101.592 40.5196 101.592 40.1256 101.592 39.7183C101.591 38.2732 101.589 36.6608 101.885 35.0496C102.194 33.3604 102.776 31.9796 103.263 30.8249C103.365 30.5824 103.463 30.3498 103.553 30.1265C103.68 29.8119 103.799 29.4984 103.883 29.2043C103.965 28.9186 104.034 28.5861 104.018 28.2487C104 27.8866 103.879 27.4846 103.553 27.1578C103.246 26.8503 102.858 26.712 102.508 26.6479C101.707 26.5011 100.953 26.7505 100.32 27.1717C99.693 27.5892 99.1301 28.2074 98.642 28.9305C97.6641 30.3794 96.8761 32.4132 96.4589 34.6889C96.0417 36.9647 96.057 39.1457 96.4574 40.8473C96.6573 41.6965 96.9643 42.4742 97.4027 43.087C97.845 43.7053 98.4616 44.206 99.2624 44.3528ZM105.108 20.4613C105.444 20.7301 105.873 20.9164 106.369 20.8729C106.838 20.8317 107.208 20.5972 107.472 20.3638C107.973 19.9232 108.406 19.2085 108.792 18.518C108.976 18.1891 109.163 17.842 109.355 17.4832C110.039 16.2099 110.801 14.7893 111.825 13.5102C112.898 12.1692 114.064 11.2287 115.039 10.4422C115.244 10.277 115.441 10.1186 115.626 9.96469C115.887 9.74796 116.14 9.52803 116.354 9.30893C116.561 9.0961 116.78 8.83608 116.925 8.53105C117.08 8.2036 117.164 7.79232 117.032 7.34999C116.907 6.93382 116.631 6.62828 116.353 6.40604C115.718 5.89745 114.935 5.75994 114.178 5.83109C113.428 5.90162 112.64 6.17947 111.867 6.58512C110.32 7.39793 108.662 8.8158 107.217 10.6225C105.772 12.4291 104.752 14.3572 104.299 16.0454C104.072 16.8879 103.974 17.7183 104.07 18.4657C104.167 19.2197 104.473 19.9528 105.108 20.4613ZM125.229 26.7726C125.575 27.0273 126.011 27.1958 126.505 27.1319C126.972 27.0715 127.331 26.822 127.587 26.5779C128.068 26.1171 128.471 25.3852 128.829 24.6794C129 24.3432 129.172 23.9887 129.349 23.6223C129.98 22.322 130.683 20.8713 131.653 19.5511C132.67 18.1672 133.797 17.1796 134.739 16.3536C134.937 16.1801 135.127 16.0137 135.306 15.8523C135.558 15.6251 135.801 15.3949 136.006 15.1672C136.204 14.946 136.412 14.6773 136.544 14.3665C136.686 14.033 136.753 13.6186 136.603 13.1821C136.461 12.7714 136.173 12.4774 135.886 12.2668C135.23 11.7848 134.443 11.6795 133.689 11.7818C132.943 11.8831 132.166 12.1931 131.411 12.6302C129.898 13.5059 128.301 14.9907 126.931 16.8553C125.561 18.7198 124.621 20.6882 124.238 22.3936C124.046 23.2448 123.983 24.0784 124.109 24.8213C124.237 25.5707 124.572 26.2905 125.229 26.7726ZM117.808 48.9819C118.203 49.1539 118.665 49.222 119.133 49.051C119.575 48.8889 119.87 48.5664 120.065 48.272C120.434 47.7164 120.665 46.9136 120.859 46.1463C120.951 45.7808 121.04 45.3971 121.133 45.0005C121.461 43.5932 121.828 42.023 122.483 40.5215C123.169 38.9474 124.05 37.7356 124.787 36.7222C124.942 36.5093 125.091 36.3052 125.229 36.1084C125.425 35.8311 125.612 35.5529 125.761 35.2858C125.906 35.0263 126.049 34.7183 126.11 34.386C126.175 34.0293 126.149 33.6104 125.906 33.2178C125.677 32.8485 125.331 32.6254 125.005 32.4831C124.259 32.1576 123.468 32.2286 122.755 32.4944C122.049 32.7579 121.36 33.2315 120.72 33.8243C119.438 35.0121 118.207 36.8126 117.282 38.9333C116.357 41.0541 115.875 43.1811 115.876 44.9292C115.877 45.8016 115.999 46.6288 116.286 47.3254C116.576 48.0283 117.062 48.6564 117.808 48.9819ZM82.0518 31.383C82.4841 31.6131 82.9872 31.7055 83.5 31.5364C83.973 31.3804 84.3112 31.0475 84.5497 30.7327C85.0115 30.1231 85.3718 29.2061 85.7016 28.2698C85.854 27.8371 86.007 27.379 86.1661 26.9029C86.737 25.1938 87.3857 23.2521 88.362 21.4179C89.3875 19.491 90.5968 18.021 91.5868 16.8175C91.7927 16.5672 91.9892 16.3284 92.1725 16.0994C92.6595 15.4911 93.1722 14.8151 93.3582 14.1626C93.4634 13.7933 93.4914 13.3451 93.2848 12.899C93.0843 12.4661 92.7303 12.1824 92.3727 11.992C91.5652 11.5622 90.6655 11.6136 89.8444 11.89C89.026 12.1654 88.1938 12.6905 87.3934 13.3667C85.7881 14.723 84.1475 16.8262 82.8078 19.3433C81.4681 21.8603 80.6397 24.3958 80.4112 26.4849C80.2973 27.5265 80.3266 28.5101 80.5552 29.3428C80.7845 30.1783 81.2443 30.9532 82.0518 31.383ZM144.143 26.1434C143.674 26.0022 143.163 26.01 142.693 26.276C142.259 26.5214 141.993 26.914 141.82 27.2693C141.487 27.9575 141.313 28.9272 141.172 29.9099C141.107 30.364 141.047 30.8432 140.984 31.3412C140.758 33.1289 140.501 35.1599 139.902 37.1496C139.273 39.2398 138.374 40.9178 137.639 42.2915C137.486 42.5773 137.34 42.8499 137.205 43.1103C136.846 43.8021 136.475 44.5652 136.42 45.2415C136.389 45.6243 136.45 46.0692 136.739 46.4663C137.021 46.8518 137.423 47.0608 137.811 47.1776C138.687 47.4412 139.559 47.215 140.311 46.7835C141.059 46.3534 141.773 45.6758 142.426 44.8562C143.735 43.2123 144.933 40.829 145.755 38.0987C146.577 35.3683 146.894 32.7198 146.709 30.6263C146.617 29.5826 146.396 28.6236 146.01 27.8517C145.621 27.0772 145.019 26.407 144.143 26.1434Z" fill="#C4C4C4"/>
<path d="M99.2624 44.3528C99.6855 44.4304 100.152 44.3913 100.567 44.1182C100.961 43.8596 101.175 43.4781 101.298 43.1471C101.53 42.5221 101.573 41.6876 101.586 40.8965C101.592 40.5196 101.592 40.1256 101.592 39.7183C101.591 38.2732 101.589 36.6608 101.885 35.0496C102.194 33.3604 102.776 31.9796 103.263 30.8249C103.365 30.5824 103.463 30.3498 103.553 30.1265C103.68 29.8119 103.799 29.4984 103.883 29.2043C103.965 28.9186 104.034 28.5861 104.018 28.2487C104 27.8866 103.879 27.4846 103.553 27.1578C103.246 26.8503 102.858 26.712 102.508 26.6479C101.707 26.5011 100.953 26.7505 100.32 27.1717C99.693 27.5892 99.1301 28.2074 98.642 28.9305C97.6641 30.3794 96.8761 32.4132 96.4589 34.6889C96.0417 36.9647 96.057 39.1457 96.4574 40.8473C96.6573 41.6965 96.9643 42.4742 97.4027 43.087C97.845 43.7053 98.4616 44.206 99.2624 44.3528ZM105.108 20.4613C105.444 20.7301 105.873 20.9164 106.369 20.8729C106.838 20.8317 107.208 20.5972 107.472 20.3638C107.973 19.9232 108.406 19.2085 108.792 18.518C108.976 18.1891 109.163 17.842 109.355 17.4832C110.039 16.2099 110.801 14.7893 111.825 13.5102C112.898 12.1692 114.064 11.2287 115.039 10.4422C115.244 10.277 115.441 10.1186 115.626 9.96469C115.887 9.74796 116.14 9.52803 116.354 9.30893C116.561 9.0961 116.78 8.83608 116.925 8.53105C117.08 8.2036 117.164 7.79232 117.032 7.34999C116.907 6.93382 116.631 6.62828 116.353 6.40604C115.718 5.89745 114.935 5.75994 114.178 5.83109C113.428 5.90162 112.64 6.17947 111.867 6.58512C110.32 7.39793 108.662 8.8158 107.217 10.6225C105.772 12.4291 104.752 14.3572 104.299 16.0454C104.072 16.8879 103.974 17.7183 104.07 18.4657C104.167 19.2197 104.473 19.9528 105.108 20.4613ZM125.229 26.7726C125.575 27.0273 126.011 27.1958 126.505 27.1319C126.972 27.0715 127.331 26.822 127.587 26.5779C128.068 26.1171 128.471 25.3852 128.829 24.6794C129 24.3432 129.172 23.9887 129.349 23.6223C129.98 22.322 130.683 20.8713 131.653 19.5511C132.67 18.1672 133.797 17.1796 134.739 16.3536C134.937 16.1801 135.127 16.0137 135.306 15.8523C135.558 15.6251 135.801 15.3949 136.006 15.1672C136.204 14.946 136.412 14.6773 136.544 14.3665C136.686 14.033 136.753 13.6186 136.603 13.1821C136.461 12.7714 136.173 12.4774 135.886 12.2668C135.23 11.7848 134.443 11.6795 133.689 11.7818C132.943 11.8831 132.166 12.1931 131.411 12.6302C129.898 13.5059 128.301 14.9907 126.931 16.8553C125.561 18.7198 124.621 20.6882 124.238 22.3936C124.046 23.2448 123.983 24.0784 124.109 24.8213C124.237 25.5707 124.572 26.2905 125.229 26.7726ZM117.808 48.9819C118.203 49.1539 118.665 49.222 119.133 49.051C119.575 48.8889 119.87 48.5664 120.065 48.272C120.434 47.7164 120.665 46.9136 120.859 46.1463C120.951 45.7808 121.04 45.3971 121.133 45.0005C121.461 43.5932 121.828 42.023 122.483 40.5215C123.169 38.9474 124.05 37.7356 124.787 36.7222C124.942 36.5093 125.091 36.3052 125.229 36.1084C125.425 35.8311 125.612 35.5529 125.761 35.2858C125.906 35.0263 126.049 34.7183 126.11 34.386C126.175 34.0293 126.149 33.6104 125.906 33.2178C125.677 32.8485 125.331 32.6254 125.005 32.4831C124.259 32.1576 123.468 32.2286 122.755 32.4944C122.049 32.7579 121.36 33.2315 120.72 33.8243C119.438 35.0121 118.207 36.8126 117.282 38.9333C116.357 41.0541 115.875 43.1811 115.876 44.9292C115.877 45.8016 115.999 46.6288 116.286 47.3254C116.576 48.0283 117.062 48.6564 117.808 48.9819ZM82.0518 31.383C82.4841 31.6131 82.9872 31.7055 83.5 31.5364C83.973 31.3804 84.3112 31.0475 84.5497 30.7327C85.0115 30.1231 85.3718 29.2061 85.7016 28.2698C85.854 27.8371 86.007 27.379 86.1661 26.9029C86.737 25.1938 87.3857 23.2521 88.362 21.4179C89.3875 19.491 90.5968 18.021 91.5868 16.8175C91.7927 16.5672 91.9892 16.3284 92.1725 16.0994C92.6595 15.4911 93.1722 14.8151 93.3582 14.1626C93.4634 13.7933 93.4914 13.3451 93.2848 12.899C93.0843 12.4661 92.7303 12.1824 92.3727 11.992C91.5652 11.5622 90.6655 11.6136 89.8444 11.89C89.026 12.1654 88.1938 12.6905 87.3934 13.3667C85.7881 14.723 84.1475 16.8262 82.8078 19.3433C81.4681 21.8603 80.6397 24.3958 80.4112 26.4849C80.2973 27.5265 80.3266 28.5101 80.5552 29.3428C80.7845 30.1783 81.2443 30.9532 82.0518 31.383ZM144.143 26.1434C143.674 26.0022 143.163 26.01 142.693 26.276C142.259 26.5214 141.993 26.914 141.82 27.2693C141.487 27.9575 141.313 28.9272 141.172 29.9099C141.107 30.364 141.047 30.8432 140.984 31.3412C140.758 33.1289 140.501 35.1599 139.902 37.1496C139.273 39.2398 138.374 40.9178 137.639 42.2915C137.486 42.5773 137.34 42.8499 137.205 43.1103C136.846 43.8021 136.475 44.5652 136.42 45.2415C136.389 45.6243 136.45 46.0692 136.739 46.4663C137.021 46.8518 137.423 47.0608 137.811 47.1776C138.687 47.4412 139.559 47.215 140.311 46.7835C141.059 46.3534 141.773 45.6758 142.426 44.8562C143.735 43.2123 144.933 40.829 145.755 38.0987C146.577 35.3683 146.894 32.7198 146.709 30.6263C146.617 29.5826 146.396 28.6236 146.01 27.8517C145.621 27.0772 145.019 26.407 144.143 26.1434Z" fill="url(#paint41_linear_354:92)"/>
<path d="M99.2624 44.3528C99.6855 44.4304 100.152 44.3913 100.567 44.1182C100.961 43.8596 101.175 43.4781 101.298 43.1471C101.53 42.5221 101.573 41.6876 101.586 40.8965C101.592 40.5196 101.592 40.1256 101.592 39.7183C101.591 38.2732 101.589 36.6608 101.885 35.0496C102.194 33.3604 102.776 31.9796 103.263 30.8249C103.365 30.5824 103.463 30.3498 103.553 30.1265C103.68 29.8119 103.799 29.4984 103.883 29.2043C103.965 28.9186 104.034 28.5861 104.018 28.2487C104 27.8866 103.879 27.4846 103.553 27.1578C103.246 26.8503 102.858 26.712 102.508 26.6479C101.707 26.5011 100.953 26.7505 100.32 27.1717C99.693 27.5892 99.1301 28.2074 98.642 28.9305C97.6641 30.3794 96.8761 32.4132 96.4589 34.6889C96.0417 36.9647 96.057 39.1457 96.4574 40.8473C96.6573 41.6965 96.9643 42.4742 97.4027 43.087C97.845 43.7053 98.4616 44.206 99.2624 44.3528ZM105.108 20.4613C105.444 20.7301 105.873 20.9164 106.369 20.8729C106.838 20.8317 107.208 20.5972 107.472 20.3638C107.973 19.9232 108.406 19.2085 108.792 18.518C108.976 18.1891 109.163 17.842 109.355 17.4832C110.039 16.2099 110.801 14.7893 111.825 13.5102C112.898 12.1692 114.064 11.2287 115.039 10.4422C115.244 10.277 115.441 10.1186 115.626 9.96469C115.887 9.74796 116.14 9.52803 116.354 9.30893C116.561 9.0961 116.78 8.83608 116.925 8.53105C117.08 8.2036 117.164 7.79232 117.032 7.34999C116.907 6.93382 116.631 6.62828 116.353 6.40604C115.718 5.89745 114.935 5.75994 114.178 5.83109C113.428 5.90162 112.64 6.17947 111.867 6.58512C110.32 7.39793 108.662 8.8158 107.217 10.6225C105.772 12.4291 104.752 14.3572 104.299 16.0454C104.072 16.8879 103.974 17.7183 104.07 18.4657C104.167 19.2197 104.473 19.9528 105.108 20.4613ZM125.229 26.7726C125.575 27.0273 126.011 27.1958 126.505 27.1319C126.972 27.0715 127.331 26.822 127.587 26.5779C128.068 26.1171 128.471 25.3852 128.829 24.6794C129 24.3432 129.172 23.9887 129.349 23.6223C129.98 22.322 130.683 20.8713 131.653 19.5511C132.67 18.1672 133.797 17.1796 134.739 16.3536C134.937 16.1801 135.127 16.0137 135.306 15.8523C135.558 15.6251 135.801 15.3949 136.006 15.1672C136.204 14.946 136.412 14.6773 136.544 14.3665C136.686 14.033 136.753 13.6186 136.603 13.1821C136.461 12.7714 136.173 12.4774 135.886 12.2668C135.23 11.7848 134.443 11.6795 133.689 11.7818C132.943 11.8831 132.166 12.1931 131.411 12.6302C129.898 13.5059 128.301 14.9907 126.931 16.8553C125.561 18.7198 124.621 20.6882 124.238 22.3936C124.046 23.2448 123.983 24.0784 124.109 24.8213C124.237 25.5707 124.572 26.2905 125.229 26.7726ZM117.808 48.9819C118.203 49.1539 118.665 49.222 119.133 49.051C119.575 48.8889 119.87 48.5664 120.065 48.272C120.434 47.7164 120.665 46.9136 120.859 46.1463C120.951 45.7808 121.04 45.3971 121.133 45.0005C121.461 43.5932 121.828 42.023 122.483 40.5215C123.169 38.9474 124.05 37.7356 124.787 36.7222C124.942 36.5093 125.091 36.3052 125.229 36.1084C125.425 35.8311 125.612 35.5529 125.761 35.2858C125.906 35.0263 126.049 34.7183 126.11 34.386C126.175 34.0293 126.149 33.6104 125.906 33.2178C125.677 32.8485 125.331 32.6254 125.005 32.4831C124.259 32.1576 123.468 32.2286 122.755 32.4944C122.049 32.7579 121.36 33.2315 120.72 33.8243C119.438 35.0121 118.207 36.8126 117.282 38.9333C116.357 41.0541 115.875 43.1811 115.876 44.9292C115.877 45.8016 115.999 46.6288 116.286 47.3254C116.576 48.0283 117.062 48.6564 117.808 48.9819ZM82.0518 31.383C82.4841 31.6131 82.9872 31.7055 83.5 31.5364C83.973 31.3804 84.3112 31.0475 84.5497 30.7327C85.0115 30.1231 85.3718 29.2061 85.7016 28.2698C85.854 27.8371 86.007 27.379 86.1661 26.9029C86.737 25.1938 87.3857 23.2521 88.362 21.4179C89.3875 19.491 90.5968 18.021 91.5868 16.8175C91.7927 16.5672 91.9892 16.3284 92.1725 16.0994C92.6595 15.4911 93.1722 14.8151 93.3582 14.1626C93.4634 13.7933 93.4914 13.3451 93.2848 12.899C93.0843 12.4661 92.7303 12.1824 92.3727 11.992C91.5652 11.5622 90.6655 11.6136 89.8444 11.89C89.026 12.1654 88.1938 12.6905 87.3934 13.3667C85.7881 14.723 84.1475 16.8262 82.8078 19.3433C81.4681 21.8603 80.6397 24.3958 80.4112 26.4849C80.2973 27.5265 80.3266 28.5101 80.5552 29.3428C80.7845 30.1783 81.2443 30.9532 82.0518 31.383ZM144.143 26.1434C143.674 26.0022 143.163 26.01 142.693 26.276C142.259 26.5214 141.993 26.914 141.82 27.2693C141.487 27.9575 141.313 28.9272 141.172 29.9099C141.107 30.364 141.047 30.8432 140.984 31.3412C140.758 33.1289 140.501 35.1599 139.902 37.1496C139.273 39.2398 138.374 40.9178 137.639 42.2915C137.486 42.5773 137.34 42.8499 137.205 43.1103C136.846 43.8021 136.475 44.5652 136.42 45.2415C136.389 45.6243 136.45 46.0692 136.739 46.4663C137.021 46.8518 137.423 47.0608 137.811 47.1776C138.687 47.4412 139.559 47.215 140.311 46.7835C141.059 46.3534 141.773 45.6758 142.426 44.8562C143.735 43.2123 144.933 40.829 145.755 38.0987C146.577 35.3683 146.894 32.7198 146.709 30.6263C146.617 29.5826 146.396 28.6236 146.01 27.8517C145.621 27.0772 145.019 26.407 144.143 26.1434Z" stroke="#1E3A0C" stroke-width="2"/>
<path d="M96.4999 98.5002C97.0435 93.1735 96.1285 89.8755 91.9999 83.5002C96.8933 84.8763 99.1177 84.9057 100.5 88.5002C102.01 92.426 98.9922 95.9907 96.4999 98.5002Z" fill="#182807"/>
<path d="M70.9999 86.0002C69.3669 89.2091 71.2726 92.871 72.9999 95.0002C73.3229 90.4719 74.2401 87.8162 79.9999 82.5002C76.6117 81.6552 72.7103 82.6393 70.9999 86.0002Z" fill="#182807"/>
<path d="M70.3707 74.3416C71.1733 74.5254 71.9747 74.4537 72.6899 74.18C72.8751 75.8207 74.0722 77.2409 75.773 77.6303C77.0689 77.927 78.362 77.5576 79.2937 76.7471C79.4901 78.3751 80.6829 79.7803 82.3733 80.1673C84.5267 80.6603 86.6721 79.3143 87.1651 77.1609C87.6581 75.0074 86.3121 72.8621 84.1587 72.369C82.8628 72.0723 81.5698 72.4417 80.638 73.2522C80.4417 71.6242 79.2488 70.219 77.5584 69.832C76.7559 69.6483 75.9544 69.72 75.2392 69.9937C75.054 68.3529 73.8569 66.9328 72.1561 66.5434C70.0027 66.0504 67.8573 67.3964 67.3643 69.5498C66.8713 71.7032 68.2173 73.8486 70.3707 74.3416ZM80.4828 70.5016C82.6362 70.9946 84.7816 69.6486 85.2746 67.4951C85.7676 65.3417 84.4216 63.1964 82.2682 62.7033C80.1148 62.2103 77.9694 63.5563 77.4764 65.7097C76.9833 67.8632 78.3293 70.0085 80.4828 70.5016Z" fill="url(#paint42_linear_354:92)" stroke="#0E1D04" stroke-width="2"/>
<path d="M107.498 75.3416C106.695 75.5254 105.894 75.4537 105.179 75.18C104.993 76.8207 103.796 78.2409 102.095 78.6303C100.799 78.927 99.5064 78.5576 98.5747 77.7471C98.3784 79.3751 97.1855 80.7803 95.4951 81.1673C93.3417 81.6603 91.1963 80.3143 90.7033 78.1609C90.2103 76.0074 91.5563 73.8621 93.7097 73.369C95.0056 73.0723 96.2986 73.4417 97.2304 74.2522C97.4267 72.6242 98.6196 71.219 100.31 70.832C101.113 70.6483 101.914 70.72 102.629 70.9937C102.814 69.3529 104.011 67.9328 105.712 67.5434C107.866 67.0504 110.011 68.3964 110.504 70.5498C110.997 72.7032 109.651 74.8486 107.498 75.3416ZM97.3856 71.5016C95.2322 71.9946 93.0869 70.6486 92.5938 68.4951C92.1008 66.3417 93.4468 64.1964 95.6002 63.7033C97.7537 63.2103 99.899 64.5563 100.392 66.7097C100.885 68.8632 99.5391 71.0085 97.3856 71.5016Z" fill="url(#paint43_linear_354:92)" stroke="#0E1D04" stroke-width="2"/>
<defs>
<linearGradient id="paint0_linear_354:92" x1="59.8314" y1="62.3944" x2="92.3333" y2="34.5974" gradientUnits="userSpaceOnUse">
<stop stop-color="#261313"/>
<stop offset="1" stop-color="#683A34"/>
</linearGradient>
<linearGradient id="paint1_linear_354:92" x1="30.9892" y1="67.9731" x2="52.7811" y2="31.6935" gradientUnits="userSpaceOnUse">
<stop stop-color="#97241C"/>
<stop offset="1" stop-color="#301B18"/>
<stop offset="1" stop-color="#030000"/>
</linearGradient>
<linearGradient id="paint2_linear_354:92" x1="42.2635" y1="55.4566" x2="61.7615" y2="23.3384" gradientUnits="userSpaceOnUse">
<stop stop-color="#97241C"/>
<stop offset="1" stop-color="#301B18"/>
<stop offset="1" stop-color="#030000"/>
</linearGradient>
<linearGradient id="paint3_linear_354:92" x1="56.1839" y1="38.1853" x2="79.5115" y2="28.8534" gradientUnits="userSpaceOnUse">
<stop stop-color="#97241C"/>
<stop offset="0.0001" stop-color="#641F1A"/>
<stop offset="1" stop-color="#503A2E"/>
</linearGradient>
<linearGradient id="paint4_linear_354:92" x1="55.9365" y1="71.5776" x2="83.7235" y2="31.089" gradientUnits="userSpaceOnUse">
<stop stop-color="#261313"/>
<stop offset="1" stop-color="#683A34"/>
</linearGradient>
<linearGradient id="paint5_linear_354:92" x1="25.6055" y1="86.3358" x2="38.9932" y2="39.622" gradientUnits="userSpaceOnUse">
<stop stop-color="#97241C"/>
<stop offset="1" stop-color="#301B18"/>
<stop offset="1" stop-color="#030000"/>
</linearGradient>
<linearGradient id="paint6_linear_354:92" x1="34.39" y1="69.1031" x2="46.4702" y2="27.6864" gradientUnits="userSpaceOnUse">
<stop stop-color="#97241C"/>
<stop offset="1" stop-color="#301B18"/>
<stop offset="1" stop-color="#030000"/>
</linearGradient>
<linearGradient id="paint7_linear_354:92" x1="44.6965" y1="45.8119" x2="67.7958" y2="28.5293" gradientUnits="userSpaceOnUse">
<stop stop-color="#97241C"/>
<stop offset="0.0001" stop-color="#641F1A"/>
<stop offset="1" stop-color="#503A2E"/>
</linearGradient>
<linearGradient id="paint8_linear_354:92" x1="55.8875" y1="87.5613" x2="76.7199" y2="36.5686" gradientUnits="userSpaceOnUse">
<stop stop-color="#261313"/>
<stop offset="1" stop-color="#683A34"/>
</linearGradient>
<linearGradient id="paint9_linear_354:92" x1="26.1474" y1="110.953" x2="29.7145" y2="56.5604" gradientUnits="userSpaceOnUse">
<stop stop-color="#97241C"/>
<stop offset="1" stop-color="#301B18"/>
<stop offset="1" stop-color="#030000"/>
</linearGradient>
<linearGradient id="paint10_linear_354:92" x1="31.6791" y1="89.9737" x2="35.0726" y2="41.6987" gradientUnits="userSpaceOnUse">
<stop stop-color="#97241C"/>
<stop offset="1" stop-color="#301B18"/>
<stop offset="1" stop-color="#030000"/>
</linearGradient>
<linearGradient id="paint11_linear_354:92" x1="37.4385" y1="61.9886" x2="58.6508" y2="37.5497" gradientUnits="userSpaceOnUse">
<stop stop-color="#97241C"/>
<stop offset="0.0001" stop-color="#641F1A"/>
<stop offset="1" stop-color="#503A2E"/>
</linearGradient>
<linearGradient id="paint12_linear_354:92" x1="64" y1="92.5" x2="67.5468" y2="47.0427" gradientUnits="userSpaceOnUse">
<stop stop-color="#261313"/>
<stop offset="1" stop-color="#683A34"/>
</linearGradient>
<linearGradient id="paint13_linear_354:92" x1="46.4622" y1="118.448" x2="35.5404" y2="74.6703" gradientUnits="userSpaceOnUse">
<stop stop-color="#97241C"/>
<stop offset="1" stop-color="#301B18"/>
<stop offset="1" stop-color="#030000"/>
</linearGradient>
<linearGradient id="paint14_linear_354:92" x1="45.5258" y1="100.514" x2="36.0118" y2="61.6023" gradientUnits="userSpaceOnUse">
<stop stop-color="#97241C"/>
<stop offset="1" stop-color="#301B18"/>
<stop offset="1" stop-color="#030000"/>
</linearGradient>
<linearGradient id="paint15_linear_354:92" x1="43" y1="77" x2="53.5509" y2="52.379" gradientUnits="userSpaceOnUse">
<stop stop-color="#97241C"/>
<stop offset="0.0001" stop-color="#641F1A"/>
<stop offset="1" stop-color="#503A2E"/>
</linearGradient>
<linearGradient id="paint16_linear_354:92" x1="119.921" y1="71.2897" x2="96.3942" y2="35.5754" gradientUnits="userSpaceOnUse">
<stop stop-color="#261313"/>
<stop offset="1" stop-color="#683A34"/>
</linearGradient>
<linearGradient id="paint17_linear_354:92" x1="146.089" y1="84.6417" x2="135.202" y2="43.7445" gradientUnits="userSpaceOnUse">
<stop stop-color="#97241C"/>
<stop offset="1" stop-color="#301B18"/>
<stop offset="1" stop-color="#030000"/>
</linearGradient>
<linearGradient id="paint18_linear_354:92" x1="138.724" y1="69.491" x2="128.889" y2="33.2279" gradientUnits="userSpaceOnUse">
<stop stop-color="#97241C"/>
<stop offset="1" stop-color="#301B18"/>
<stop offset="1" stop-color="#030000"/>
</linearGradient>
<linearGradient id="paint19_linear_354:92" x1="130.134" y1="49.0387" x2="110.306" y2="33.6084" gradientUnits="userSpaceOnUse">
<stop stop-color="#97241C"/>
<stop offset="0.0001" stop-color="#641F1A"/>
<stop offset="1" stop-color="#503A2E"/>
</linearGradient>
<linearGradient id="paint20_linear_354:92" x1="121.119" y1="81.1927" x2="105.639" y2="34.5901" gradientUnits="userSpaceOnUse">
<stop stop-color="#261313"/>
<stop offset="1" stop-color="#683A34"/>
</linearGradient>
<linearGradient id="paint21_linear_354:92" x1="146.174" y1="103.777" x2="146.254" y2="55.1828" gradientUnits="userSpaceOnUse">
<stop stop-color="#97241C"/>
<stop offset="1" stop-color="#301B18"/>
<stop offset="1" stop-color="#030000"/>
</linearGradient>
<linearGradient id="paint22_linear_354:92" x1="142.508" y1="84.7849" x2="142.376" y2="41.6426" gradientUnits="userSpaceOnUse">
<stop stop-color="#97241C"/>
<stop offset="1" stop-color="#301B18"/>
<stop offset="1" stop-color="#030000"/>
</linearGradient>
<linearGradient id="paint23_linear_354:92" x1="139.059" y1="59.55" x2="121.652" y2="36.5436" gradientUnits="userSpaceOnUse">
<stop stop-color="#97241C"/>
<stop offset="0.0001" stop-color="#641F1A"/>
<stop offset="1" stop-color="#503A2E"/>
</linearGradient>
<linearGradient id="paint24_linear_354:92" x1="116.738" y1="96.5633" x2="110.85" y2="41.7949" gradientUnits="userSpaceOnUse">
<stop stop-color="#261313"/>
<stop offset="1" stop-color="#683A34"/>
</linearGradient>
<linearGradient id="paint25_linear_354:92" x1="138.832" y1="127.28" x2="150.476" y2="74.0285" gradientUnits="userSpaceOnUse">
<stop stop-color="#97241C"/>
<stop offset="1" stop-color="#301B18"/>
<stop offset="1" stop-color="#030000"/>
</linearGradient>
<linearGradient id="paint26_linear_354:92" x1="139.33" y1="105.589" x2="149.445" y2="58.2638" gradientUnits="userSpaceOnUse">
<stop stop-color="#97241C"/>
<stop offset="1" stop-color="#301B18"/>
<stop offset="1" stop-color="#030000"/>
</linearGradient>
<linearGradient id="paint27_linear_354:92" x1="141.55" y1="77.1044" x2="127.94" y2="47.7448" gradientUnits="userSpaceOnUse">
<stop stop-color="#97241C"/>
<stop offset="0.0001" stop-color="#641F1A"/>
<stop offset="1" stop-color="#503A2E"/>
</linearGradient>
<linearGradient id="paint28_linear_354:92" x1="107.574" y1="99.0613" x2="116.762" y2="54.401" gradientUnits="userSpaceOnUse">
<stop stop-color="#261313"/>
<stop offset="1" stop-color="#683A34"/>
</linearGradient>
<linearGradient id="paint29_linear_354:92" x1="117.236" y1="128.853" x2="139.86" y2="89.8147" gradientUnits="userSpaceOnUse">
<stop stop-color="#97241C"/>
<stop offset="1" stop-color="#301B18"/>
<stop offset="1" stop-color="#030000"/>
</linearGradient>
<linearGradient id="paint30_linear_354:92" x1="123.105" y1="111.88" x2="143.028" y2="77.128" gradientUnits="userSpaceOnUse">
<stop stop-color="#97241C"/>
<stop offset="1" stop-color="#301B18"/>
<stop offset="1" stop-color="#030000"/>
</linearGradient>
<linearGradient id="paint31_linear_354:92" x1="132.047" y1="89.9861" x2="128.731" y2="63.4056" gradientUnits="userSpaceOnUse">
<stop stop-color="#97241C"/>
<stop offset="0.0001" stop-color="#641F1A"/>
<stop offset="1" stop-color="#503A2E"/>
</linearGradient>
<linearGradient id="paint32_linear_354:92" x1="75.2867" y1="133.167" x2="75.561" y2="93.4056" gradientUnits="userSpaceOnUse">
<stop stop-color="#97241C"/>
<stop offset="1" stop-color="#301B18"/>
<stop offset="1" stop-color="#030000"/>
</linearGradient>
<linearGradient id="paint33_linear_354:92" x1="66" y1="117.5" x2="49.5771" y2="70.2025" gradientUnits="userSpaceOnUse">
<stop stop-color="#261313"/>
<stop offset="1" stop-color="#683A34"/>
</linearGradient>
<linearGradient id="paint34_linear_354:92" x1="88.5483" y1="132.401" x2="94.8308" y2="96.111" gradientUnits="userSpaceOnUse">
<stop stop-color="#97241C"/>
<stop offset="1" stop-color="#301B18"/>
<stop offset="1" stop-color="#030000"/>
</linearGradient>
<linearGradient id="paint35_linear_354:92" x1="99.5881" y1="119.645" x2="122.329" y2="79.2283" gradientUnits="userSpaceOnUse">
<stop stop-color="#261313"/>
<stop offset="1" stop-color="#683A34"/>
</linearGradient>
<linearGradient id="paint36_linear_354:92" x1="108.5" y1="2" x2="111" y2="56" gradientUnits="userSpaceOnUse">
<stop stop-color="#2B7A01"/>
<stop offset="1" stop-color="#1C290D"/>
</linearGradient>
<linearGradient id="paint37_linear_354:92" x1="32.5" y1="161.5" x2="131" y2="33.5" gradientUnits="userSpaceOnUse">
<stop stop-color="#2B7A01"/>
<stop offset="1" stop-color="#1C290D"/>
</linearGradient>
<linearGradient id="paint38_linear_354:92" x1="100" y1="51.5" x2="90.705" y2="80.9068" gradientUnits="userSpaceOnUse">
<stop stop-color="#2B7A01"/>
<stop offset="1" stop-color="#1C290D"/>
</linearGradient>
<linearGradient id="paint39_linear_354:92" x1="128.5" y1="56.5" x2="92.9028" y2="86.7881" gradientUnits="userSpaceOnUse">
<stop stop-color="#261313"/>
<stop offset="1" stop-color="#683A34"/>
</linearGradient>
<linearGradient id="paint40_linear_354:92" x1="92" y1="109.5" x2="89.8466" y2="75.0096" gradientUnits="userSpaceOnUse">
<stop stop-color="#2B7A01"/>
<stop offset="1" stop-color="#1C290D"/>
</linearGradient>
<linearGradient id="paint41_linear_354:92" x1="129.899" y1="-37.814" x2="112.859" y2="58.4875" gradientUnits="userSpaceOnUse">
<stop stop-color="#3BAB00"/>
<stop offset="1" stop-color="#2D470F"/>
</linearGradient>
<linearGradient id="paint42_linear_354:92" x1="87.9222" y1="48.4105" x2="72.9417" y2="80.2801" gradientUnits="userSpaceOnUse">
<stop stop-color="#3BAB00"/>
<stop offset="1" stop-color="#2D470F"/>
</linearGradient>
<linearGradient id="paint43_linear_354:92" x1="89.9462" y1="49.4105" x2="104.927" y2="81.2801" gradientUnits="userSpaceOnUse">
<stop stop-color="#3BAB00"/>
<stop offset="1" stop-color="#2D470F"/>
</linearGradient>
</defs>
</svg>
