<svg width="416" height="224" viewBox="0 0 416 224" fill="none" xmlns="http://www.w3.org/2000/svg">
<path d="M179.4 51.5001L171.7 39.5001C171.481 39.1701 171.184 38.8993 170.835 38.7121C170.486 38.5248 170.096 38.4268 169.7 38.4268C169.304 38.4268 168.914 38.5248 168.565 38.7121C168.216 38.8993 167.919 39.1701 167.7 39.5001C164.096 44.6128 161.077 50.1139 158.7 55.9001L157.3 59.5001C166.3 60.1001 179.3 51.5001 179.3 51.5001H179.4Z" fill="#FFB66B"/>
<path d="M163.8 53.1002L168.2 44.5002C168.294 44.3938 168.409 44.3086 168.539 44.2502C168.668 44.1918 168.808 44.1616 168.95 44.1616C169.092 44.1616 169.232 44.1918 169.362 44.2502C169.491 44.3086 169.606 44.3938 169.7 44.5002L173.4 50.1002C173.487 50.2254 173.54 50.3705 173.555 50.5219C173.57 50.6732 173.547 50.826 173.487 50.9658C173.427 51.1056 173.332 51.228 173.212 51.3214C173.092 51.4149 172.95 51.4764 172.8 51.5002C170.1 52.0002 167.8 53.0002 165 54.4002C164.822 54.5117 164.611 54.5576 164.403 54.5298C164.195 54.502 164.003 54.4024 163.861 54.2482C163.718 54.0939 163.634 53.8947 163.623 53.6851C163.612 53.4755 163.675 53.2686 163.8 53.1002Z" fill="#EC7F45"/>
<path d="M197.5 31C199.6 31 201.4 29.4 201.4 27.5C201.4 25.5 199.6 24 197.5 24C195.4 24 193.6 25.6 193.6 27.5C193.6 29.4 195.4 31 197.6 31H197.5Z" fill="#528ED6"/>
<path d="M180.2 52.5C185.2 51.9 190.4 51.8 195.4 51C200.4 50.2 207.5 55.2 212.5 54.6C216.5 54.1 218 47.1 222 46.4V45.5C220.7 34.5 211.4 25 195.9 25.7C183.6 26.3 168.4 40.2 167.9 52.7C167.9 53.4 168.3 52.9 168.5 53.7C172.4 53.9 176.3 52.9 180.2 52.5Z" fill="#528ED6"/>
<path d="M308.3 133.4L308.1 133.7C308.1 133.78 308.068 133.856 308.012 133.912C307.956 133.969 307.88 134 307.8 134C307.721 134 307.644 133.969 307.588 133.912C307.532 133.856 307.5 133.78 307.5 133.7C307.2 133 307 132.3 307.1 131.7C306.2 130.3 305.6 128.7 305.3 127.2L304.8 126.5C303.6 125.7 302.2 125.1 301 124.5C300.931 124.461 300.875 124.402 300.839 124.331C300.803 124.259 300.79 124.179 300.8 124.1V123.9C299.2 123.6 297.5 123.4 295.8 123.5C282.9 123.8 276.8 130.3 275.1 144.9C273.5 159.2 285.1 181.9 276.9 185.6C272.8 187.4 261.4 183.5 261.4 183.5L252.1 195.8C259.8 199.1 288.3 206.5 297.1 194.3C302.6 186.6 302.1 180.1 299.3 169.1C297.8 163.1 293.5 155.9 303.3 149.7C304.5 148.9 305.7 147.9 306.7 146.8C306.639 146.779 306.586 146.738 306.55 146.684C306.514 146.629 306.496 146.565 306.5 146.5V146.3L307 145.8C307.7 144.6 308 143.3 308.4 142L308.5 141.8L309 140L309.2 139.9H309.4L309.6 139L309.8 138.2V137.9L308.3 133.4Z" fill="#FFB570"/>
<path d="M295.8 122.7C288.8 122.4 283.8 125.7 280.5 129.7C290.7 130.9 300.2 142 303.3 149.7C315 142.2 310.9 123.3 295.8 122.7ZM298.7 154C292 146.9 281 142.3 275.3 143.5L275.1 144.9C274.9 147 274.9 149.2 275.1 151.4L276.3 159.1C283.4 158.1 290.7 159.1 297.3 161.8C297.3 160.8 296.5 157.5 298.6 154H298.7ZM297.7 193.3C299.392 190.772 300.541 187.92 301.074 184.925C301.608 181.93 301.514 178.857 300.8 175.9C295.2 171 283.1 170.6 278.9 171.7C279.7 175.5 280.1 178.7 279.7 181.3C286.3 182.3 294.2 189.3 297.7 193.3ZM268 200C272.7 200.9 278 201.4 283 201C282.2 195.4 280 190.2 277 185.6C274.7 186.5 272.6 186 269.3 185.6C270.2 188.2 268.9 197.4 268 200Z" fill="#EC7F45"/>
<path d="M216.2 99.2001C219.329 99.2001 222.331 97.9569 224.544 95.744C226.757 93.531 228 90.5297 228 87.4001C228 84.2705 226.757 81.2692 224.544 79.0562C222.331 76.8433 219.329 75.6001 216.2 75.6001C213.07 75.6001 210.069 76.8433 207.856 79.0562C205.643 81.2692 204.4 84.2705 204.4 87.4001C204.4 90.5297 205.643 93.531 207.856 95.744C210.069 97.9569 213.07 99.2001 216.2 99.2001Z" fill="white" stroke="#413B4E" stroke-width="2.2" stroke-miterlimit="10"/>
<path d="M247 118.9C252.182 109.498 254.9 98.9361 254.9 88.2C254.9 77.4639 252.182 66.9025 247 57.5C243 50 234.6 39.3 226.5 31.5C226.169 31.1618 225.763 30.9066 225.315 30.7551C224.867 30.6037 224.39 30.5603 223.922 30.6286C223.454 30.6968 223.008 30.8748 222.622 31.1479C222.236 31.4209 221.92 31.7815 221.7 32.2C217.9 39.5 214.7 47.3 214.7 47.3C201.7 46.1 188.4 47.7 176 52C169.2 54.8 165.6 54 158.5 56C151.8 72 150.5 89.9 155 106.7C156.3 111.7 160 118.3 162.8 122.5C156.253 134.841 153.082 148.693 153.609 162.653C154.136 176.614 158.341 190.187 165.8 202H251.3C253.448 202.003 255.542 201.328 257.284 200.071C259.025 198.814 260.326 197.04 261 195C265.237 182.159 266.176 168.459 263.729 155.16C261.282 141.862 255.529 129.392 247 118.9Z" fill="#FFB570"/>
<path d="M252.9 72.3001L235.3 75.0001C235.079 75.0846 234.835 75.088 234.612 75.0098C234.389 74.9316 234.201 74.7769 234.081 74.5731C233.961 74.3693 233.917 74.1295 233.957 73.8965C233.997 73.6635 234.119 73.4522 234.3 73.3001L247 57.3001C249.5 62.1001 251.5 67.0001 252.9 72.2001V72.3001ZM161 81.0001L152.8 79.0001C153.173 75.2933 153.808 71.6174 154.7 68.0001L162 79.4001C162.105 79.4789 162.193 79.5776 162.26 79.6906C162.327 79.8036 162.371 79.9287 162.39 80.0587C162.408 80.1887 162.401 80.3211 162.369 80.4483C162.336 80.5755 162.279 80.6951 162.2 80.8001C162.121 80.9052 162.022 80.9937 161.909 81.0606C161.796 81.1275 161.671 81.1715 161.541 81.1901C161.411 81.2087 161.279 81.2014 161.152 81.1688C161.024 81.1363 160.905 81.0789 160.8 81.0001H161ZM253.7 101.8L239 91.4001C238.735 91.3338 238.507 91.1649 238.366 90.9305C238.225 90.696 238.183 90.4154 238.25 90.1501C238.316 89.8849 238.485 89.6569 238.719 89.5162C238.954 89.3756 239.235 89.3338 239.5 89.4001L255 87.4001C255.1 91.9001 254.6 96.8001 253.6 101.8H253.7ZM161 101L155 106.7C154.2 103.9 153.7 101.1 153.3 98.3001L160.3 99.1001C160.51 99.1001 160.714 99.1662 160.885 99.2889C161.055 99.4116 161.182 99.5848 161.248 99.7839C161.315 99.983 161.317 100.198 161.254 100.398C161.192 100.599 161.068 100.774 160.9 100.9L161 101ZM220 46.4001L224.4 39.0001C224.481 38.8498 224.599 38.7226 224.743 38.6307C224.886 38.5389 225.051 38.4854 225.222 38.4754C225.392 38.4653 225.562 38.4991 225.716 38.5735C225.87 38.6478 226.002 38.7603 226.1 38.9001L231.7 46.5001C231.829 46.6619 231.905 46.8599 231.917 47.0666C231.929 47.2734 231.876 47.4787 231.767 47.6544C231.657 47.83 231.495 47.9672 231.304 48.047C231.113 48.1269 230.902 48.1454 230.7 48.1001C227.5 47.5001 224.2 47.4001 221 48.1001C220.779 48.1846 220.535 48.188 220.312 48.1098C220.089 48.0316 219.901 47.8769 219.781 47.6731C219.661 47.4693 219.617 47.2295 219.657 46.9965C219.697 46.7635 219.819 46.5522 220 46.4001Z" fill="#EC7F45"/>
<path opacity="0.6" d="M216.2 106.2C218.564 106.2 220.905 105.735 223.089 104.83C225.272 103.925 227.257 102.6 228.928 100.928C230.6 99.2567 231.925 97.2724 232.83 95.0885C233.735 92.9046 234.2 90.564 234.2 88.2002C234.2 85.8364 233.735 83.4958 232.83 81.3119C231.925 79.128 230.6 77.1437 228.928 75.4723C227.257 73.8008 225.272 72.4749 223.089 71.5704C220.905 70.6658 218.564 70.2002 216.2 70.2002C211.426 70.2002 206.848 72.0966 203.472 75.4723C200.097 78.8479 198.2 83.4263 198.2 88.2002C198.2 92.9741 200.097 97.5525 203.472 100.928C206.848 104.304 211.426 106.2 216.2 106.2Z" fill="#FCEAC9"/>
<path d="M216.2 99.5998C219.223 99.5998 222.123 98.3987 224.261 96.2608C226.399 94.1229 227.6 91.2233 227.6 88.1998C227.6 85.1763 226.399 82.2767 224.261 80.1388C222.123 78.0009 219.223 76.7998 216.2 76.7998C213.176 76.7998 210.277 78.0009 208.139 80.1388C206.001 82.2767 204.8 85.1763 204.8 88.1998C204.8 91.2233 206.001 94.1229 208.139 96.2608C210.277 98.3987 213.176 99.5998 216.2 99.5998Z" fill="white" stroke="#303745" stroke-width="2.9" stroke-miterlimit="10"/>
<path d="M214.7 99.6999C215.803 99.6999 216.895 99.4826 217.914 99.0605C218.933 98.6383 219.859 98.0196 220.639 97.2396C221.42 96.4596 222.038 95.5336 222.46 94.5144C222.883 93.4953 223.1 92.403 223.1 91.2999C223.1 90.1968 222.883 89.1045 222.46 88.0854C222.038 87.0662 221.42 86.1402 220.639 85.3602C219.859 84.5802 218.933 83.9615 217.914 83.5393C216.895 83.1172 215.803 82.8999 214.7 82.8999C212.472 82.8999 210.335 83.7849 208.76 85.3602C207.185 86.9355 206.3 89.0721 206.3 91.2999C206.3 93.5277 207.185 95.6643 208.76 97.2396C210.335 98.8149 212.472 99.6999 214.7 99.6999Z" fill="#303745"/>
<path d="M219.5 88C220.097 88 220.669 87.7629 221.091 87.341C221.513 86.919 221.75 86.3467 221.75 85.75C221.75 85.1533 221.513 84.581 221.091 84.159C220.669 83.7371 220.097 83.5 219.5 83.5C218.903 83.5 218.331 83.7371 217.909 84.159C217.487 84.581 217.25 85.1533 217.25 85.75C217.25 86.3467 217.487 86.919 217.909 87.341C218.331 87.7629 218.903 88 219.5 88Z" fill="white"/>
<path d="M176 104.4C177.497 104.4 178.98 104.105 180.363 103.532C181.746 102.959 183.003 102.12 184.061 101.061C185.12 100.003 185.959 98.7458 186.532 97.3627C187.105 95.9796 187.4 94.4972 187.4 93.0001C187.4 91.503 187.105 90.0206 186.532 88.6375C185.959 87.2544 185.12 85.9977 184.061 84.9391C183.003 83.8805 181.746 83.0408 180.363 82.4679C178.98 81.895 177.497 81.6001 176 81.6001C172.977 81.6001 170.077 82.8012 167.939 84.9391C165.801 87.077 164.6 89.9766 164.6 93.0001C164.6 96.0236 165.801 98.9232 167.939 101.061C170.077 103.199 172.977 104.4 176 104.4V104.4Z" fill="white" stroke="#303745" stroke-width="2.9" stroke-miterlimit="10"/>
<path d="M174.8 104.5C175.903 104.5 176.995 104.283 178.014 103.861C179.034 103.439 179.96 102.82 180.74 102.04C181.52 101.26 182.138 100.334 182.56 99.3147C182.983 98.2956 183.2 97.2033 183.2 96.1002C183.2 94.9971 182.983 93.9048 182.56 92.8857C182.138 91.8665 181.52 90.9405 180.74 90.1605C179.96 89.3805 179.034 88.7617 178.014 88.3396C176.995 87.9175 175.903 87.7002 174.8 87.7002C172.572 87.7002 170.436 88.5852 168.86 90.1605C167.285 91.7358 166.4 93.8724 166.4 96.1002C166.4 98.328 167.285 100.465 168.86 102.04C170.436 103.615 172.572 104.5 174.8 104.5Z" fill="#303745"/>
<path d="M179.4 92.6998C179.984 92.6998 180.543 92.468 180.956 92.0554C181.368 91.6429 181.6 91.0833 181.6 90.4998C181.6 89.9163 181.368 89.3567 180.956 88.9442C180.543 88.5316 179.984 88.2998 179.4 88.2998C178.817 88.2998 178.257 88.5316 177.845 88.9442C177.432 89.3567 177.2 89.9163 177.2 90.4998C177.2 91.0833 177.432 91.6429 177.845 92.0554C178.257 92.468 178.817 92.6998 179.4 92.6998Z" fill="white"/>
<path d="M195.1 104.7C195.1 107 195.6 109.3 196.3 111.4L195.1 104.7ZM192 103L195.1 104.7L198.6 101.7L192 103Z" stroke="#B55648" stroke-width="2.9" stroke-miterlimit="10" stroke-linecap="round"/>
<path d="M195.8 112.4C194.1 112.4 192.5 112 191 111.3C190.864 111.196 190.771 111.047 190.738 110.879C190.705 110.712 190.734 110.538 190.82 110.391C190.906 110.243 191.043 110.133 191.205 110.079C191.367 110.025 191.543 110.033 191.7 110.1C194.4 111.1 198.4 112.1 201.9 108C201.958 107.926 202.03 107.865 202.113 107.821C202.195 107.776 202.285 107.748 202.379 107.738C202.472 107.729 202.566 107.739 202.656 107.766C202.745 107.794 202.828 107.839 202.9 107.9C202.965 107.966 203.015 108.044 203.05 108.13C203.084 108.216 203.101 108.308 203.1 108.4C203.101 108.492 203.084 108.584 203.05 108.67C203.015 108.756 202.965 108.834 202.9 108.9C202.056 109.98 200.98 110.856 199.75 111.462C198.521 112.068 197.17 112.389 195.8 112.4Z" fill="#B55648"/>
<path opacity="0.4" d="M248 154.2C247.7 160.5 228.8 178.9 216.8 174.8H216.5C217.2 171.5 218.5 167.4 219.8 161.4C208.1 168.6 209.7 158.6 213.1 170.3C217.9 196.7 165.5 220 167.1 136.2C167.2 135 155.6 140.2 155.1 142C154.5 144 163 193 162.6 195C163.6 197.4 164.8 199.7 166.1 202H214.4C214 196.4 215 191.5 219.4 188.8C216.5 184.2 215.7 181.5 216 177.8C216.5 179.1 216.9 180.2 216.2 180.3C228.2 184.8 247.7 166.1 248.7 154.6L247.9 154.2H248Z" fill="#EC7F45"/>
<path d="M179 51V56.8C178.976 57.0187 179.025 57.2391 179.139 57.4271C179.254 57.615 179.427 57.7601 179.632 57.8399C179.837 57.9196 180.062 57.9295 180.273 57.8681C180.485 57.8066 180.67 57.6772 180.8 57.5L189.8 48.5L191.8 57.3C191.836 57.4791 191.919 57.645 192.043 57.7798C192.166 57.9145 192.323 58.013 192.499 58.0645C192.674 58.116 192.86 58.1186 193.036 58.072C193.213 58.0254 193.373 57.9313 193.5 57.8L203.2 47L205.4 54.8C205.443 55.013 205.554 55.2063 205.716 55.3506C205.878 55.495 206.083 55.5825 206.3 55.6L206.7 55.5C206.9 55.5 207 55.3 207.2 55.2L214.6 47.3C214.6 47.3 200.5 44.4 179 51Z" fill="#EF8848"/>
<path opacity="0.3" d="M214.6 47.3001C214.6 47.3001 177.8 43.2001 165.4 53.0001C154.6 61.5001 163.2 66.3001 169.7 64.0001C177.088 61.7131 184.94 61.3687 192.5 63.0001C205.2 65.3001 212.3 55.5001 214.6 47.3001Z" fill="#D68BFF"/>
<path d="M167 74.0001C168.9 72.0001 171.1 70.3001 173.7 69.2001C174.091 69.0802 174.514 69.1148 174.88 69.297C175.247 69.4791 175.53 69.7948 175.671 70.1791C175.812 70.5634 175.8 70.9872 175.638 71.3631C175.476 71.739 175.176 72.0386 174.8 72.2001H174.2C173 72.2001 171.8 72.3001 170.6 72.7001C169.4 73.0001 168.1 73.4001 167 74.0001ZM217.6 67.2001C214.912 66.6122 212.117 66.7503 209.5 67.6001C209.295 67.7058 209.069 67.7658 208.839 67.776C208.608 67.7862 208.378 67.7464 208.164 67.6594C207.95 67.5723 207.758 67.44 207.6 67.2715C207.442 67.1031 207.323 66.9025 207.25 66.6835C207.177 66.4645 207.152 66.2324 207.177 66.0029C207.202 65.7735 207.277 65.5522 207.396 65.3543C207.514 65.1563 207.675 64.9865 207.865 64.8563C208.056 64.7261 208.272 64.6387 208.5 64.6001H209.2C211.5 64.6001 213.7 65.2001 215.7 66.2001L217.7 67.2001H217.6Z" fill="#B55648"/>
<path d="M226 171C225.313 171.006 224.632 170.87 224 170.6L198.7 160.6C197.916 160.38 197.186 159.997 196.56 159.477C195.933 158.956 195.423 158.309 195.063 157.578C194.704 156.847 194.502 156.049 194.471 155.235C194.44 154.42 194.581 153.609 194.885 152.853C195.189 152.097 195.649 151.414 196.234 150.847C196.82 150.281 197.518 149.844 198.283 149.565C199.049 149.287 199.865 149.173 200.677 149.23C201.49 149.288 202.281 149.516 203 149.9L228.2 159.9C229.509 160.336 230.615 161.232 231.313 162.421C232.012 163.61 232.255 165.012 231.999 166.368C231.743 167.723 231.004 168.939 229.919 169.791C228.834 170.643 227.477 171.072 226.1 171H226Z" fill="#FC5B4F"/>
<path d="M197.4 156L196.6 155.9L185.4 151.4C184.883 151.188 184.471 150.779 184.255 150.263C184.04 149.747 184.038 149.167 184.25 148.65C184.462 148.133 184.871 147.721 185.387 147.505C185.903 147.29 186.483 147.288 187 147.5L198.2 152C198.73 152.106 199.197 152.419 199.497 152.869C199.797 153.319 199.906 153.87 199.8 154.4C199.694 154.93 199.381 155.397 198.931 155.697C198.481 155.997 197.93 156.106 197.4 156Z" fill="white"/>
<path d="M193 151.5L192.3 152.8C192.3 153.1 191.5 153 190.7 152.8L182.4 148.8C181.5 148.5 180.9 147.9 181 147.6L181.3 147.1C181.3 146.8 182.2 146.8 183.1 147.1L191.7 150.4C192.5 150.8 193 151.2 192.9 151.5H193Z" fill="white"/>
<path d="M215.8 174.7C215.5 179.7 216.8 184.7 219.8 188.8" stroke="#EF8848" stroke-width="2.9" stroke-miterlimit="10" stroke-linecap="round"/>
<path d="M221.4 149.2C225 149.4 235 159.2 236.3 168.6C227.4 175.6 213.7 180.1 212 167.7C211.6 164.7 214.6 159.7 217 156.7C218 155.7 211.5 153.3 212.1 152.2C214.1 148.9 221.4 149.2 221.4 149.2Z" fill="#FCEAC9"/>
<path d="M215 173.2C215.6 173.2 218 172.7 219.3 171.6L215 173.2ZM229.2 133.7C229.172 136.555 228.532 139.371 227.325 141.958C226.117 144.546 224.37 146.844 222.2 148.7C221.4 149.6 213.8 148.9 212.2 152.2C211.6 153.2 218.2 155.7 217.1 156.8C205.9 167.8 214.2 181.9 230.8 172.3C244.8 164.1 248.2 154.3 248.2 154.3L229.2 133.7Z" stroke="#EF8848" stroke-width="2.9" stroke-miterlimit="10" stroke-linecap="round"/>
<path d="M328.7 203.2C326.9 198.6 315.2 195 297.9 193L297.2 194C321.3 196.6 327 201.6 327.7 203.6C328.2 204.6 327.9 205.6 327.1 206.6C322.7 212.1 301.5 216.8 273.8 212.4C279 212.1 283.8 211.6 285.1 211C287 210.2 287.2 209.3 287.1 208.7C286.5 206.3 279.2 205.1 268.9 205.8C265.1 206 263.2 206.9 263.1 208.4C263 209.6 264.1 210.7 265.6 211.4H265.4C257.4 211.3 249.1 210.4 246.4 205.4C244.4 201.9 244.4 196.8 244.4 191.4C244.4 182.7 244.3 173.6 236.1 169.7H235.9H235.6L235.4 169.9V170.1C235.387 170.17 235.39 170.242 235.407 170.311C235.424 170.38 235.456 170.444 235.5 170.5L235.7 170.6C243.2 174.3 243.3 183 243.4 191.4C243.4 197 243.4 202.2 245.4 206C248.4 211.4 257.2 212.3 265.4 212.5H268.7C281.4 214.9 294.4 215.6 307.3 214.5C317.5 213.4 325.2 210.7 327.9 207.4C329 206 329.3 204.6 328.7 203.2ZM264.1 208.5C264.1 207.8 265.5 207.1 269.1 206.8L274.5 206.7C282.6 206.7 285.8 208.1 286 208.9C286 209.1 285.8 209.6 284.7 210C283 210.8 275.6 211.4 268.8 211.5C266.1 210.9 264 209.5 264.1 208.5Z" fill="#497FBF"/>
<path d="M264 184.9C264 184.9 262.6 192.9 259.9 197.8" stroke="#EF8848" stroke-width="2.9" stroke-miterlimit="10" stroke-linecap="round"/>
<path d="M214.6 47.2C204.4 44.3 180.2 41.2 166.6 51.3C155.9 59.3 160.8 65 168.6 61.2C175.939 58.4314 183.906 57.7732 191.6 59.3C196.23 60.2587 201.048 59.5878 205.24 57.4009C209.431 55.214 212.738 51.6456 214.6 47.3V47.2Z" fill="#60A4F7"/>
<path d="M235.2 190.8C235.2 190.8 226.6 183.7 218.5 189.1C211.7 193.5 213.5 201 213.7 202H215.1V201.7C215 201.4 213 194.4 219.3 190.2C226.5 185.4 234 191.6 234.3 191.9L234.8 192C234.903 191.99 235.002 191.957 235.091 191.903C235.179 191.85 235.255 191.778 235.313 191.692C235.37 191.606 235.408 191.508 235.423 191.406C235.438 191.303 235.43 191.199 235.4 191.1L235.2 190.8Z" fill="#EF8848"/>
<path opacity="0.4" d="M178.5 143.7C179.5 139.4 173.7 138.3 174.8 134.3C175.5 131.9 179.8 129.5 178 126.2C181.6 128.5 179.8 131.9 179.9 135C179.9 137.4 183.9 139 183.1 142.6C182.7 144.3 181.5 145 179.1 146.4C178.5 146.9 178.6 148.4 177.9 147C177.3 145.9 178.3 144.7 178.5 143.7Z" fill="white"/>
<path d="M149 135H113C100.85 135 91 144.85 91 157V193C91 205.15 100.85 215 113 215H149C161.15 215 171 205.15 171 193V157C171 144.85 161.15 135 149 135Z" fill="url(#paint0_linear)"/>
<path d="M133.05 153.644C133.814 153.766 134.536 154.058 135.184 154.577C136.247 155.427 136.753 156.498 137.144 158.062C137.244 158.463 137.417 158.929 137.633 159.382C138.13 159.593 138.616 159.828 139.089 160.085C139.557 159.97 140.005 159.817 140.364 159.65C142.886 158.476 145.001 158.537 146.734 160.406C146.88 160.564 146.968 160.669 147.158 160.904L148.282 162.292C148.584 162.665 148.713 162.835 148.904 163.152C150.14 165.208 149.658 167.123 148.096 169.198C147.837 169.543 147.573 169.993 147.351 170.467C147.491 170.972 147.607 171.484 147.7 172.001C148.097 172.32 148.52 172.599 148.894 172.789C150.33 173.522 151.26 174.256 151.849 175.482C152.208 176.231 152.33 177 152.278 177.772C152.25 178.179 152.206 178.407 152.088 178.916L151.687 180.655C151.569 181.164 151.509 181.388 151.355 181.767C151.065 182.483 150.618 183.121 149.966 183.636C148.899 184.48 147.742 184.732 146.13 184.761C145.722 184.769 145.235 184.831 144.75 184.938C144.435 185.373 144.099 185.793 143.744 186.197C143.751 186.687 143.799 187.168 143.883 187.561C144.217 189.138 144.232 190.323 143.649 191.553C143.294 192.303 142.773 192.882 142.14 193.327C141.806 193.562 141.602 193.67 141.132 193.899L139.527 194.682C139.058 194.911 138.846 195.005 138.455 195.124C137.716 195.349 136.938 195.403 136.128 195.221C134.801 194.923 133.876 194.182 132.839 192.947C132.565 192.621 132.191 192.266 131.783 191.946C131.523 191.958 131.262 191.964 131 191.964C130.738 191.964 130.477 191.958 130.217 191.946C129.81 192.266 129.435 192.621 129.161 192.947C128.124 194.182 127.2 194.923 125.872 195.221C125.062 195.403 124.285 195.349 123.545 195.124C123.154 195.005 122.942 194.911 122.473 194.682L120.868 193.899C120.727 193.831 120.639 193.787 120.537 193.734C118.195 192.514 117.509 190.436 118.118 187.561C118.201 187.168 118.25 186.687 118.256 186.197C117.901 185.793 117.565 185.373 117.25 184.938C116.766 184.831 116.278 184.769 115.871 184.761C114.259 184.732 113.101 184.48 112.034 183.636C111.383 183.121 110.936 182.483 110.645 181.767C110.491 181.388 110.431 181.164 110.314 180.655L109.912 178.916C109.788 178.377 109.742 178.137 109.718 177.7C109.674 176.882 109.831 176.068 110.246 175.297C110.851 174.173 111.747 173.483 113.107 172.789C113.48 172.599 113.903 172.32 114.301 172.001C114.393 171.484 114.509 170.972 114.649 170.467C114.428 169.993 114.163 169.543 113.904 169.198C112.342 167.123 111.861 165.208 113.096 163.152C113.287 162.835 113.416 162.665 113.718 162.292L114.842 160.904C115.032 160.669 115.12 160.564 115.266 160.406C116.999 158.537 119.114 158.476 121.636 159.65C121.995 159.817 122.444 159.97 122.911 160.085C123.385 159.828 123.87 159.593 124.367 159.382C124.583 158.929 124.757 158.463 124.857 158.062C125.248 156.498 125.754 155.427 126.816 154.577C127.464 154.058 128.187 153.766 128.95 153.644C129.273 153.592 129.486 153.577 129.825 153.573L131.893 153.571C132.415 153.571 132.647 153.579 133.05 153.644ZM132.046 157.143L130.107 157.143C129.214 157.143 128.768 157.143 128.322 158.928C128.074 159.92 127.551 161.186 126.829 162.269C125.682 162.645 124.603 163.171 123.615 163.825C122.335 163.699 121.044 163.313 120.129 162.887C118.46 162.111 118.179 162.458 117.617 163.151L116.494 164.539C115.932 165.233 115.651 165.58 116.758 167.051C117.381 167.879 118.045 169.104 118.431 170.365C118.036 171.435 117.774 172.57 117.665 173.749C116.769 174.703 115.645 175.503 114.73 175.971C113.091 176.807 113.191 177.242 113.392 178.112L113.794 179.852C113.994 180.722 114.095 181.157 115.935 181.19C116.953 181.209 118.298 181.432 119.512 181.888C120.128 182.914 120.879 183.851 121.739 184.674C121.907 185.956 121.822 187.31 121.612 188.302C121.23 190.102 121.631 190.298 122.434 190.689L124.039 191.472C124.841 191.864 125.242 192.059 126.426 190.65C127.09 189.86 128.13 188.94 129.267 188.282C129.834 188.355 130.413 188.393 131 188.393C131.588 188.393 132.166 188.355 132.734 188.282C133.871 188.94 134.91 189.86 135.574 190.65C136.758 192.059 137.159 191.864 137.962 191.472L139.567 190.689C140.369 190.298 140.77 190.102 140.389 188.302C140.179 187.31 140.093 185.956 140.262 184.674C141.122 183.851 141.872 182.914 142.489 181.888C143.703 181.432 145.048 181.209 146.065 181.19C147.905 181.157 148.006 180.722 148.207 179.852L148.608 178.112C148.809 177.242 148.91 176.807 147.27 175.971C146.355 175.503 145.231 174.703 144.335 173.749C144.226 172.57 143.964 171.435 143.569 170.365C143.955 169.104 144.62 167.879 145.243 167.051C146.349 165.58 146.068 165.233 145.507 164.539L144.383 163.151C143.821 162.458 143.54 162.111 141.871 162.887C140.957 163.313 139.665 163.699 138.385 163.825C137.398 163.171 136.319 162.645 135.171 162.269C134.449 161.186 133.927 159.92 133.679 158.928C133.259 157.248 132.838 157.149 132.046 157.143ZM131 166.964C135.438 166.964 139.036 170.562 139.036 175C139.036 179.438 135.438 183.036 131 183.036C126.562 183.036 122.964 179.438 122.964 175C122.964 170.562 126.562 166.964 131 166.964ZM131 170.536C128.535 170.536 126.536 172.534 126.536 175C126.536 177.465 128.535 179.464 131 179.464C133.466 179.464 135.464 177.465 135.464 175C135.464 172.534 133.466 170.536 131 170.536Z" fill="white"/>
<path d="M213 168.4C214.4 168.4 215.8 167.9 217 167" stroke="#EF8848" stroke-width="2.9" stroke-miterlimit="10" stroke-linecap="round"/>
<defs>
<linearGradient id="paint0_linear" x1="171" y1="215" x2="91" y2="135" gradientUnits="userSpaceOnUse">
<stop stop-color="#4B4B4B"/>
<stop offset="1" stop-color="#878787"/>
</linearGradient>
</defs>
</svg>
