<svg width="200" height="200" viewBox="0 0 200 200" fill="none" xmlns="http://www.w3.org/2000/svg">
    <path d="M200 100L199.902 125.058L199.605 135.402L199.111 143.288L198.417 149.869L197.522 155.589L196.425 160.673L195.122 165.252L193.611 169.408L191.887 173.2L189.945 176.667L187.779 179.839L185.38 182.738L182.738 185.38L179.839 187.779L176.667 189.945L173.2 191.887L169.408 193.611L165.252 195.122L160.673 196.425L155.589 197.522L149.869 198.417L143.288 199.111L135.402 199.605L125.058 199.902L100.012 200L74.942 199.902L64.5975 199.605L56.7125 199.111L50.131 198.417L44.4105 197.522L39.3265 196.425L34.748 195.122L30.5915 193.611L26.8 191.887L23.333 189.945L20.161 187.779L17.2625 185.38L14.6205 182.738L12.221 179.839L10.0545 176.667L8.1125 173.2L6.3885 169.408L4.8775 165.252L3.575 160.673L2.478 155.589L1.5835 149.869L0.8895 143.288L0.395 135.402L0.0984998 125.058L0 100.018L0.0984998 74.942L0.395 64.5975L0.8895 56.7125L1.5835 50.131L2.478 44.4105L3.575 39.3265L4.8775 34.748L6.3885 30.5915L8.1125 26.8L10.0545 23.333L12.221 20.161L14.6205 17.2625L17.2625 14.6205L20.161 12.221L23.333 10.0545L26.8 8.1125L30.5915 6.3885L34.748 4.8775L39.3265 3.575L44.4105 2.478L50.131 1.5835L56.7125 0.8895L64.5975 0.395L74.942 0.0984998L99.9785 0L125.058 0.0984998L135.402 0.395L143.288 0.8895L149.869 1.5835L155.589 2.478L160.673 3.575L165.252 4.8775L169.408 6.3885L173.2 8.1125L176.667 10.0545L179.839 12.221L182.738 14.6205L185.38 17.2625L187.779 20.161L189.945 23.333L191.887 26.8L193.611 30.5915L195.122 34.748L196.425 39.3265L197.522 44.4105L198.417 50.131L199.111 56.7125L199.605 64.5975L199.902 74.942L200 99.975V100Z" fill="black"/>
</svg>
