<svg width="100" height="69" viewBox="0 0 100 69" fill="none" xmlns="http://www.w3.org/2000/svg">
<path d="M0.40625 69V59.3906L7.48438 57.8906V11.9062L0.40625 10.4062V0.75H30.9688V10.4062L23.8906 11.9062V57.8906L30.9688 59.3906V69H0.40625ZM34.7188 69V59.3906L41.7969 57.8906V11.9062L34.7188 10.4062V0.75H65.2812V10.4062L58.2031 11.9062V57.8906L65.2812 59.3906V69H34.7188ZM69.0312 69V59.3906L76.1094 57.8906V11.9062L69.0312 10.4062V0.75H99.5938V10.4062L92.5156 11.9062V57.8906L99.5938 59.3906V69H69.0312Z" fill="url(#paint0_linear_352:89)"/>
<path d="M0.40625 69H-1.59375V71H0.40625V69ZM0.40625 59.3906L-0.00838267 57.4341L-1.59375 57.77V59.3906H0.40625ZM7.48438 57.8906L7.89901 59.8472L9.48438 59.5112V57.8906H7.48438ZM7.48438 11.9062H9.48438V10.2857L7.89901 9.9497L7.48438 11.9062ZM0.40625 10.4062H-1.59375V12.0268L-0.00838267 12.3628L0.40625 10.4062ZM0.40625 0.75V-1.25H-1.59375V0.75H0.40625ZM30.9688 0.75H32.9688V-1.25H30.9688V0.75ZM30.9688 10.4062L31.3834 12.3628L32.9688 12.0268V10.4062H30.9688ZM23.8906 11.9062L23.476 9.9497L21.8906 10.2857V11.9062H23.8906ZM23.8906 57.8906H21.8906V59.5112L23.476 59.8472L23.8906 57.8906ZM30.9688 59.3906H32.9688V57.77L31.3834 57.4341L30.9688 59.3906ZM30.9688 69V71H32.9688V69H30.9688ZM2.40625 69V59.3906H-1.59375V69H2.40625ZM0.820883 61.3472L7.89901 59.8472L7.06974 55.9341L-0.00838267 57.4341L0.820883 61.3472ZM9.48438 57.8906V11.9062H5.48438V57.8906H9.48438ZM7.89901 9.9497L0.820883 8.4497L-0.00838267 12.3628L7.06974 13.8628L7.89901 9.9497ZM2.40625 10.4062V0.75H-1.59375V10.4062H2.40625ZM0.40625 2.75H30.9688V-1.25H0.40625V2.75ZM28.9688 0.75V10.4062H32.9688V0.75H28.9688ZM30.5541 8.4497L23.476 9.9497L24.3053 13.8628L31.3834 12.3628L30.5541 8.4497ZM21.8906 11.9062V57.8906H25.8906V11.9062H21.8906ZM23.476 59.8472L30.5541 61.3472L31.3834 57.4341L24.3053 55.9341L23.476 59.8472ZM28.9688 59.3906V69H32.9688V59.3906H28.9688ZM30.9688 67H0.40625V71H30.9688V67ZM34.7188 69H32.7188V71H34.7188V69ZM34.7188 59.3906L34.3041 57.4341L32.7188 57.77V59.3906H34.7188ZM41.7969 57.8906L42.2115 59.8472L43.7969 59.5112V57.8906H41.7969ZM41.7969 11.9062H43.7969V10.2857L42.2115 9.9497L41.7969 11.9062ZM34.7188 10.4062H32.7188V12.0268L34.3041 12.3628L34.7188 10.4062ZM34.7188 0.75V-1.25H32.7188V0.75H34.7188ZM65.2812 0.75H67.2812V-1.25H65.2812V0.75ZM65.2812 10.4062L65.6959 12.3628L67.2812 12.0268V10.4062H65.2812ZM58.2031 11.9062L57.7885 9.9497L56.2031 10.2857V11.9062H58.2031ZM58.2031 57.8906H56.2031V59.5112L57.7885 59.8472L58.2031 57.8906ZM65.2812 59.3906H67.2812V57.77L65.6959 57.4341L65.2812 59.3906ZM65.2812 69V71H67.2812V69H65.2812ZM36.7188 69V59.3906H32.7188V69H36.7188ZM35.1334 61.3472L42.2115 59.8472L41.3822 55.9341L34.3041 57.4341L35.1334 61.3472ZM43.7969 57.8906V11.9062H39.7969V57.8906H43.7969ZM42.2115 9.9497L35.1334 8.4497L34.3041 12.3628L41.3822 13.8628L42.2115 9.9497ZM36.7188 10.4062V0.75H32.7188V10.4062H36.7188ZM34.7188 2.75H65.2812V-1.25H34.7188V2.75ZM63.2812 0.75V10.4062H67.2812V0.75H63.2812ZM64.8666 8.4497L57.7885 9.9497L58.6178 13.8628L65.6959 12.3628L64.8666 8.4497ZM56.2031 11.9062V57.8906H60.2031V11.9062H56.2031ZM57.7885 59.8472L64.8666 61.3472L65.6959 57.4341L58.6178 55.9341L57.7885 59.8472ZM63.2812 59.3906V69H67.2812V59.3906H63.2812ZM65.2812 67H34.7188V71H65.2812V67ZM69.0312 69H67.0312V71H69.0312V69ZM69.0312 59.3906L68.6166 57.4341L67.0312 57.77V59.3906H69.0312ZM76.1094 57.8906L76.524 59.8472L78.1094 59.5112V57.8906H76.1094ZM76.1094 11.9062H78.1094V10.2857L76.524 9.9497L76.1094 11.9062ZM69.0312 10.4062H67.0312V12.0268L68.6166 12.3628L69.0312 10.4062ZM69.0312 0.75V-1.25H67.0312V0.75H69.0312ZM99.5938 0.75H101.594V-1.25H99.5938V0.75ZM99.5938 10.4062L100.008 12.3628L101.594 12.0268V10.4062H99.5938ZM92.5156 11.9062L92.101 9.9497L90.5156 10.2857V11.9062H92.5156ZM92.5156 57.8906H90.5156V59.5112L92.101 59.8472L92.5156 57.8906ZM99.5938 59.3906H101.594V57.77L100.008 57.4341L99.5938 59.3906ZM99.5938 69V71H101.594V69H99.5938ZM71.0312 69V59.3906H67.0312V69H71.0312ZM69.4459 61.3472L76.524 59.8472L75.6947 55.9341L68.6166 57.4341L69.4459 61.3472ZM78.1094 57.8906V11.9062H74.1094V57.8906H78.1094ZM76.524 9.9497L69.4459 8.4497L68.6166 12.3628L75.6947 13.8628L76.524 9.9497ZM71.0312 10.4062V0.75H67.0312V10.4062H71.0312ZM69.0312 2.75H99.5938V-1.25H69.0312V2.75ZM97.5938 0.75V10.4062H101.594V0.75H97.5938ZM99.1791 8.4497L92.101 9.9497L92.9303 13.8628L100.008 12.3628L99.1791 8.4497ZM90.5156 11.9062V57.8906H94.5156V11.9062H90.5156ZM92.101 59.8472L99.1791 61.3472L100.008 57.4341L92.9303 55.9341L92.101 59.8472ZM97.5938 59.3906V69H101.594V59.3906H97.5938ZM99.5938 67H69.0312V71H99.5938V67Z" fill="#37092C"/>
<defs>
<linearGradient id="paint0_linear_352:89" x1="50" y1="-16" x2="50" y2="80" gradientUnits="userSpaceOnUse">
<stop stop-color="#B14296"/>
<stop offset="1" stop-color="#760E5D"/>
</linearGradient>
</defs>
</svg>
