<svg width="118" height="94" viewBox="0 0 118 94" fill="none" xmlns="http://www.w3.org/2000/svg">
<path d="M60.0454 5.59814C60.7614 5.62814 61.4754 5.70014 62.1884 5.78314C62.9734 6.63814 63.7864 7.47015 64.5494 8.34415C65.6094 10.1851 66.5674 12.0841 67.5374 13.9741C68.7044 16.4941 70.0404 18.9301 71.2834 21.4121C71.5604 21.8891 71.9534 22.2841 72.2784 22.7281C72.5574 23.0451 72.7634 23.4411 73.0974 23.7011C74.8154 23.7011 76.5364 23.6361 78.2554 23.6401C79.6864 24.8821 81.1254 26.1151 82.5864 27.3221C83.0724 27.8001 83.4994 28.3341 83.9914 28.8081C86.3134 31.1891 88.9974 33.1711 91.6874 35.1121C92.1834 35.4531 92.8164 35.4741 93.3474 35.7391C93.8074 36.2831 94.2374 36.8581 94.6584 37.4341C94.7984 37.8961 94.7684 38.3941 94.8344 38.8711C98.2974 41.0111 101.979 42.8582 105.912 43.9572C106.365 44.0912 106.861 44.1422 107.246 44.4422C108.833 45.5362 110.451 46.5832 112.055 47.6512C113.67 48.8952 115.247 50.1902 116.845 51.4562C117.065 52.3042 117.263 53.1572 117.5 54.0002V54.0392C117.094 55.0532 116.688 56.0692 116.29 57.0872C116.161 57.4322 115.937 57.7742 116.016 58.1592C116.454 61.4376 116.67 64.7407 116.885 68.0398L116.902 68.3042C116.955 69.1072 117.421 69.8822 117.186 70.6942C116.685 73.4442 115.617 76.1292 113.85 78.3162C113.28 77.6032 112.725 76.8802 112.141 76.1792C110.807 78.5662 108.209 79.8702 106.747 82.1572C106.213 82.9842 105.937 84.0122 106.164 84.9882C106.305 85.5532 106.433 86.1222 106.544 86.6952C104.994 87.1872 103.467 87.7492 101.961 88.3592C100.898 88.6622 99.8144 88.8912 98.7434 89.1642C98.2104 89.2982 97.7064 88.9822 97.1944 88.8802C94.2244 88.0482 91.2594 87.1912 88.2684 86.4402C87.6744 86.4452 87.1034 86.6802 86.5164 86.7632C84.8594 85.4262 83.2194 84.0682 81.5414 82.7582C81.0624 82.3412 80.4794 82.0312 80.0604 81.5562C78.4734 77.8222 75.8354 74.6902 73.3404 71.5392L42.0332 11.4121C43.8542 9.96014 45.8842 8.78014 48.0162 7.84814L60.0454 5.59814Z" fill="#4B1E11"/>
<path d="M52.683 0.5H53.181C54.363 0.731 55.246 1.608 56.126 2.363C56.732 2.386 57.346 2.58 57.781 3.018C58.195 3.357 58.352 3.901 58.749 4.255C59.201 4.683 59.605 5.157 60.045 5.598C61.291 6.949 62.483 8.353 63.555 9.848C63.845 10.261 64.157 10.666 64.364 11.131C64.862 12.278 65.294 13.467 65.985 14.517C67.155 16.376 68.175 18.374 68.595 20.547C68.707 21.268 68.748 22.001 68.688 22.729C68.581 23.953 68.126 25.127 67.452 26.149C67.621 26.322 67.792 26.494 67.964 26.666C68.55 27.27 69.191 27.821 69.769 28.434C70.805 29.654 71.808 30.916 72.587 32.32C73.149 33.305 73.553 34.373 73.868 35.461C74.057 36.199 74.262 36.94 74.351 37.699C74.257 38.788 74.164 39.881 74.194 40.976C74.219 42.728 74.409 44.473 74.674 46.204C74.75 46.776 74.914 47.339 74.886 47.921C74.908 47.932 74.95 47.953 74.971 47.963C75.199 49.242 75.475 50.511 75.721 51.787C75.8 52.419 76.004 53.025 76.131 53.648C76.888 57.205 76.531 60.909 75.617 64.401C75.197 66.002 74.682 67.578 74.079 69.12C73.93 69.55 73.743 69.965 73.586 70.393C73.438 70.767 73.697 71.244 73.34 71.539C72.741 72.201 72.223 72.951 71.489 73.476C66.298 77.548 60.222 80.224 54.368 83.171C51.194 84.784 48.042 86.469 45.131 88.53C43.045 89.986 41.108 91.653 39.358 93.5H39.322C39.329 93.488 39.343 93.463 39.35 93.45C36.306 91.966 33.537 89.975 30.475 88.521C28.052 87.34 25.353 86.49 22.629 86.797C22.109 86.265 21.806 85.553 21.237 85.067C20.94 84.8 20.524 84.761 20.145 84.819C18.182 83.36 16.131 82.012 14.259 80.433C13.959 80.2 13.716 79.857 13.328 79.767C11.757 79.351 10.294 78.579 9.001 77.604C7.923 76.784 6.947 75.774 6.37 74.534C6.083 73.933 5.956 73.27 5.93 72.607C5.204 72.305 4.704 71.666 4.248 71.054C3.881 70.507 3.46 69.947 3.391 69.271C3.459 69.262 3.595 69.246 3.663 69.238C3.766 68.196 4.043 67.182 4.358 66.188C4.438 65.933 4.528 65.676 4.527 65.407C4.525 64.62 4.529 63.832 4.509 63.045C4.071 62.975 3.68 62.67 3.563 62.233C3.291 61.267 3.527 60.186 4.101 59.373C3.995 58.989 3.895 58.604 3.78 58.223C3.714 57.862 3.284 57.782 3.123 57.479C2.747 56.927 2.837 56.226 2.954 55.608C2.363 54.754 2.131 53.717 1.996 52.704C1.786 50.979 1.847 49.233 1.998 47.506C2.175 45.668 2.443 43.831 2.928 42.047C3.024 41.43 2.989 40.797 3.136 40.186C3.294 39.317 3.727 38.411 4.585 38.049C4.283 36.865 4.875 35.611 4.461 34.447C3.885 34.074 3.142 34.032 2.603 33.59C2.382 33.422 2.451 33.104 2.625 32.93C2.997 32.523 3.407 32.127 3.607 31.6C3.934 30.828 3.751 29.949 3.389 29.225C2.691 27.698 1.369 26.346 1.43 24.563C0.665 23.935 0.607 22.858 0.5 21.948V20.966C0.58 20.262 0.655 19.528 1.003 18.896C1.15 18.614 1.51 18.455 1.501 18.1C1.624 17.189 1.821 16.288 2.082 15.406C2.594 13.704 3.369 12.011 4.692 10.784C5.71 9.833 7.119 9.325 8.51 9.424C9.409 9.501 10.363 9.63 11.102 10.192C12.463 11.193 13.033 12.86 14.067 14.14C14.566 14.762 15.264 15.297 16.087 15.351C16.361 15.385 16.666 15.319 16.911 15.481C17.446 15.792 17.929 16.193 18.325 16.67C18.64 16.503 18.963 16.351 19.272 16.174C19.604 15.987 19.862 15.702 20.157 15.467C21.384 14.462 22.822 13.753 24.299 13.198C26.276 12.451 28.331 11.923 30.281 11.104C30.575 10.992 30.855 10.786 31.185 10.816C34.801 11.014 38.416 11.222 42.033 11.412C43.094 11.488 44.156 11.541 45.219 11.596C45.98 11.637 46.741 11.678 47.502 11.721C47.646 11.204 47.746 10.677 47.813 10.145C47.911 9.383 47.956 8.614 48.016 7.848L48.0203 7.79523C48.1248 6.49792 48.232 5.16858 48.747 3.958C49.173 2.928 50.002 2.072 51.022 1.62C51.34 1.494 51.516 1.185 51.764 0.969C52.02 0.731 52.349 0.591 52.683 0.5Z" fill="#1E1414"/>
<path d="M53.0242 2.51318C53.8392 2.94518 54.5122 3.59118 55.1822 4.21518C55.5202 4.54418 56.0462 4.27918 56.4302 4.47818C56.6632 4.72518 56.7102 5.10218 56.9762 5.32918C58.4882 6.79018 59.8972 8.35618 61.1882 10.0162C61.6612 10.6792 62.2152 11.2952 62.5702 12.0342C62.9812 13.0342 63.3852 14.0442 63.9192 14.9862C64.7062 16.2382 65.4612 17.5202 66.0192 18.8932C66.4502 19.9692 66.7712 21.1252 66.7012 22.2942C66.6822 23.3882 66.2462 24.4392 65.5922 25.3042C63.5992 24.3792 61.5962 23.4472 59.7642 22.2252C57.9342 20.9952 56.2542 19.4302 55.2582 17.4352C55.1782 17.2562 55.0382 17.1162 54.8622 17.0332C52.8232 15.9462 50.9722 14.5472 49.1812 13.0972C49.3422 12.5372 49.5302 11.9832 49.6342 11.4082C50.0322 9.52818 49.9192 7.58218 50.2972 5.70018C50.4152 5.07718 50.6442 4.45818 51.0712 3.97818C51.3892 3.62518 51.8321 3.42518 52.2661 3.25418C52.6231 3.13918 52.7972 2.78218 53.0242 2.51318Z" fill="#222221"/>
<path d="M45.2192 11.596C46.0522 11.059 46.9192 10.573 47.8132 10.145C47.7462 10.677 47.6462 11.204 47.5022 11.721C46.7412 11.678 45.9802 11.637 45.2192 11.596Z" fill="#DAB36F"/>
<path d="M68.5952 20.5474C68.8942 21.1524 69.2282 21.7404 69.5212 22.3484C69.2442 22.4784 68.9672 22.6064 68.6882 22.7294C68.7482 22.0014 68.7072 21.2684 68.5952 20.5474Z" fill="#DAB36F"/>
<path d="M7.26389 11.5622C7.98389 11.2862 8.77189 11.4062 9.49289 11.6102C10.0609 11.7812 10.4429 12.2702 10.7399 12.7562C11.5659 13.9532 12.2049 15.3182 13.3389 16.2702C13.9809 16.8052 14.7639 17.1782 15.5939 17.2992C15.9309 17.3482 16.2739 17.4342 16.5389 17.6612C16.3819 17.7532 16.2239 17.8442 16.0659 17.9352C16.0609 17.9842 16.0509 18.0812 16.0459 18.1292C15.8639 18.4292 15.6979 18.7392 15.5619 19.0632C13.9079 22.6382 11.8979 26.1032 9.16689 28.9702C9.08989 29.0582 8.98289 29.1122 8.86489 29.1172C8.54189 28.8572 8.13289 28.6192 7.70189 28.7212C7.24889 28.8442 6.97289 29.2732 6.77289 29.6682C6.28689 30.6752 6.00889 31.7662 5.58689 32.8002C5.52089 32.7162 5.34589 32.6462 5.41989 32.5152C5.57689 31.9842 5.78189 31.4572 5.79689 30.8962C5.81689 29.9012 5.49389 28.9312 5.03489 28.0592C4.57889 27.1072 3.87089 26.2832 3.54089 25.2712C3.32889 24.6722 3.57189 24.0462 3.57389 23.4352C3.32889 23.1882 2.94389 23.1452 2.69589 22.9022C2.37989 21.9962 2.46689 20.9962 2.65789 20.0702C2.86089 19.9662 3.06389 19.8602 3.26789 19.7572C3.40689 19.2832 3.40589 18.7862 3.48789 18.3022C3.74989 16.6482 4.16689 14.9832 5.03089 13.5332C5.52489 12.6522 6.26689 11.8522 7.26389 11.5622Z" fill="#1B1B1B"/>
<path d="M26.5002 14.5412C28.1262 14.0252 29.7492 13.4952 31.3272 12.8452C36.0812 13.0712 40.8352 13.3622 45.5882 13.6192C45.9352 13.6482 46.2822 13.6732 46.6292 13.6972C46.6872 14.0082 46.8072 14.3022 46.9572 14.5802C47.3502 15.7882 47.4002 17.1662 46.8352 18.3302C46.2562 19.5482 45.1162 20.3432 43.9832 20.9992C44.6302 22.2952 45.8792 23.1882 47.2012 23.7052C48.3942 24.1762 49.6512 24.4492 50.9032 24.7132C51.8352 24.9422 52.8352 25.0152 53.6632 25.5462C54.9572 26.2892 55.7502 27.6612 56.1332 29.0672C56.6602 31.1182 56.4872 33.3332 55.7072 35.2972C55.2962 36.2252 54.7852 37.1342 54.0252 37.8222C53.3712 38.4792 52.5182 38.9062 51.6282 39.1372C50.9932 39.2672 50.3412 39.1882 49.6982 39.2032C47.5522 39.2482 45.4022 39.4792 43.3192 40.0122C41.3362 40.5782 39.3652 41.4222 37.8722 42.8832C37.2402 43.5302 36.6172 44.2202 36.2612 45.0632C35.9112 45.6972 35.7002 46.3912 35.4902 47.0802C34.7582 46.6562 34.0152 46.2522 33.2842 45.8272C31.7202 45.0502 30.0902 44.4162 28.5042 43.6852C27.3442 43.1652 26.1662 42.6772 25.0622 42.0432C23.6202 41.2352 22.2192 40.3252 21.0272 39.1702C20.1772 38.3122 19.2862 37.3752 19.0542 36.1422C18.6862 34.1302 19.4912 32.1792 19.6762 30.1962C19.8162 29.0562 19.6522 27.8522 19.0422 26.8632C19.7782 25.6772 20.3902 24.3882 20.6132 22.9992C20.8222 21.9252 20.8462 20.8192 20.6632 19.7392C20.5782 19.1212 20.3962 18.5232 20.2672 17.9142C20.7832 17.6752 21.1352 17.2142 21.5862 16.8842C23.0362 15.7622 24.7782 15.1172 26.5002 14.5412Z" fill="#E3E2E1"/>
<path d="M48.9759 13.7992C49.0409 13.5642 49.1099 13.3302 49.1809 13.0972C50.9719 14.5472 52.8229 15.9462 54.8619 17.0332C55.0379 17.1162 55.1779 17.2562 55.2579 17.4352C56.2539 19.4302 57.9339 20.9952 59.7639 22.2252C61.5959 23.4472 63.5989 24.3792 65.5919 25.3042C65.3549 25.6752 65.1059 26.0382 64.8629 26.4052C64.9499 26.5112 65.0379 26.6172 65.1249 26.7262L65.0309 26.7072C63.0789 26.4442 61.2249 25.6282 59.6479 24.4592C58.9849 23.9792 58.3829 23.4232 57.7789 22.8722C57.2549 22.3732 56.6419 21.9812 56.0739 21.5352C55.7209 20.1292 54.8059 18.9032 53.6219 18.0812C52.4749 17.2462 51.1329 16.7602 49.8279 16.2362C48.8829 15.6652 47.9649 15.0382 46.9569 14.5802C46.8069 14.3022 46.6869 14.0082 46.6289 13.6972C46.2819 13.6732 45.9349 13.6482 45.5879 13.6192C46.7189 13.6282 47.8439 13.7792 48.9759 13.7992Z" fill="#696764"/>
<path d="M46.9572 14.5801C47.9652 15.0381 48.8832 15.6651 49.8282 16.2361C49.7472 16.7301 49.6572 17.2611 49.8892 17.7301C50.2372 18.4851 50.9872 18.9321 51.6912 19.3101C53.1402 20.0731 54.7772 20.5021 56.0742 21.5351C56.6422 21.9811 57.2552 22.3731 57.7792 22.8721C57.9962 23.5661 58.3352 24.2111 58.6342 24.8711C60.6002 29.1231 62.9102 33.2591 65.9322 36.8581C66.3982 37.4741 66.6752 38.2341 66.7202 39.0051C66.7472 39.5701 66.6232 40.1901 66.1982 40.5941C65.8312 40.9491 65.2982 41.0681 64.8022 41.0141C63.9082 40.9281 62.9942 40.9831 62.1322 41.2441C60.6812 41.6661 59.4632 42.6521 58.5082 43.7971C57.0182 45.6021 55.9832 47.7161 54.8342 49.7391C53.9072 48.1641 52.6192 46.8321 51.1952 45.6991C49.8892 44.6831 48.4392 43.7961 46.8252 43.3751C45.7012 43.0791 44.4202 43.0711 43.4102 43.7131C42.4332 44.3171 41.8852 45.3981 41.5632 46.4651C41.5582 46.4841 41.5482 46.5231 41.5432 46.5431C41.2312 46.7721 40.9342 47.0231 40.6602 47.2971C40.4012 47.3371 40.1432 47.3921 39.9012 47.4921C38.8272 47.9201 37.7652 48.4291 36.8782 49.1831C36.3252 49.6811 35.8432 50.3311 35.7602 51.0921C35.6902 51.6531 35.8812 52.1991 36.0632 52.7201C36.1942 53.0871 36.2552 53.5441 36.6192 53.7631C37.1472 54.0441 37.7712 53.9641 38.3312 53.8461C39.3902 53.6111 40.4222 53.2221 41.5152 53.1721C41.5322 53.1851 41.5652 53.2111 41.5822 53.2241C41.4272 54.5301 41.9382 55.8041 42.6132 56.8951C42.9512 57.4711 43.3492 58.0091 43.6982 58.5791C43.1452 59.2301 42.7822 60.0391 42.7182 60.8951C42.5612 62.4321 43.0302 63.9571 42.8632 65.4941C42.8152 65.9801 42.6692 66.4491 42.4972 66.9041C42.0242 67.1081 41.5302 67.2571 41.0562 67.4591C40.7782 67.5451 40.5032 67.6371 40.2282 67.7311C38.0922 67.7791 36.0092 68.3351 33.9892 68.9931C33.7992 69.0591 33.6162 69.1411 33.4302 69.2181C32.6822 69.3071 31.9352 69.4181 31.2092 69.6201C30.2342 69.7721 29.2082 69.3701 28.5462 68.6481C27.8302 67.8641 27.4862 66.8241 27.2642 65.8061C26.6402 62.8831 26.9482 59.8661 26.5152 56.9221C26.5312 56.7051 26.5652 56.4901 26.5962 56.2761C27.0132 54.9901 26.8242 53.5841 26.3652 52.3361C25.7222 50.6471 24.5992 49.1281 23.1252 48.0731C22.0812 47.3441 20.7792 46.8451 19.4922 47.0951C18.2202 47.3291 17.2092 48.2831 16.5672 49.3631C16.3682 49.7171 16.1882 50.0811 16.0122 50.4461C15.4782 50.5561 14.9372 50.4081 14.3982 50.4341C12.3442 50.3651 10.3182 50.8771 8.41116 51.6021C7.62116 51.9151 6.84816 52.2721 6.06616 52.6051C6.32216 50.3451 6.59016 48.0741 6.49316 45.7951C6.41816 43.7891 6.11216 41.7701 5.38916 39.8901C5.90716 39.7391 6.40516 39.5311 6.91216 39.3521C6.78616 38.6961 6.62116 38.0481 6.50516 37.3911C6.50716 36.8041 6.57116 36.2171 6.61716 35.6321C7.90616 34.5001 9.06716 33.1901 9.87916 31.6711C10.0642 31.3301 10.4302 31.1581 10.7222 30.9241C12.1702 29.8241 13.5082 28.5681 14.6332 27.1371C15.8492 25.5861 16.8132 23.7771 17.0972 21.8071C17.2262 20.9311 17.2072 20.0341 17.0472 19.1631C16.9772 18.7821 16.8222 18.4141 16.8382 18.0201C17.1682 18.4181 17.4982 18.8161 17.8252 19.2171C18.6412 18.7861 19.4462 18.3351 20.2672 17.9141C20.3962 18.5231 20.5782 19.1211 20.6632 19.7391C20.8462 20.8191 20.8222 21.9251 20.6132 22.9991C20.3902 24.3881 19.7782 25.6771 19.0422 26.8631C19.6522 27.8521 19.8162 29.0561 19.6762 30.1961C19.4912 32.1791 18.6862 34.1301 19.0542 36.1421C19.2862 37.3751 20.1772 38.3121 21.0272 39.1701C22.2192 40.3251 23.6202 41.2351 25.0622 42.0431C26.1662 42.6771 27.3442 43.1651 28.5042 43.6851C30.0902 44.4161 31.7202 45.0501 33.2842 45.8271C34.0152 46.2521 34.7582 46.6561 35.4902 47.0801C35.7002 46.3911 35.9112 45.6971 36.2612 45.0631C36.6172 44.2201 37.2402 43.5301 37.8722 42.8831C39.3652 41.4221 41.3362 40.5781 43.3192 40.0121C45.4022 39.4791 47.5522 39.2481 49.6982 39.2031C50.3412 39.1881 50.9932 39.2671 51.6282 39.1371C52.5182 38.9061 53.3712 38.4791 54.0252 37.8221C54.7852 37.1341 55.2962 36.2251 55.7072 35.2971C56.4872 33.3331 56.6602 31.1181 56.1332 29.0671C55.7502 27.6611 54.9572 26.2891 53.6632 25.5461C52.8352 25.0151 51.8352 24.9421 50.9032 24.7131C49.6512 24.4491 48.3942 24.1761 47.2012 23.7051C45.8792 23.1881 44.6302 22.2951 43.9832 20.9991C45.1162 20.3431 46.2562 19.5481 46.8352 18.3301C47.4002 17.1661 47.3502 15.7881 46.9572 14.5801Z" fill="#D2D1CF"/>
<path d="M49.8278 16.2358C51.1328 16.7598 52.4748 17.2458 53.6218 18.0808C54.8058 18.9028 55.7208 20.1288 56.0738 21.5348C54.7768 20.5018 53.1398 20.0728 51.6908 19.3098C50.9868 18.9318 50.2368 18.4848 49.8888 17.7298C49.6568 17.2608 49.7468 16.7298 49.8278 16.2358Z" fill="#9E9D9B"/>
<path d="M16.0658 17.9351C16.2238 17.8441 16.3818 17.7531 16.5388 17.6611C16.6388 17.7721 16.7358 17.8861 16.8368 17.9971L16.8378 18.0201C16.8218 18.4141 16.9768 18.7821 17.0468 19.1631C17.2068 20.0341 17.2258 20.9311 17.0968 21.8071C16.8128 23.7771 15.8488 25.5861 14.6328 27.1371C13.5078 28.5681 12.1698 29.8241 10.7218 30.9241C10.4298 31.1581 10.0638 31.3301 9.87878 31.6711C9.06678 33.1901 7.90578 34.5001 6.61678 35.6321C6.65178 34.9501 6.48178 34.2791 6.41578 33.6031C6.43478 33.3581 6.21678 33.2381 6.05078 33.1121C6.66878 32.2761 7.54678 31.5491 8.60278 31.3921C9.05978 31.3101 9.52478 31.3731 9.98078 31.4341C9.63078 30.6971 9.32078 29.9411 8.96178 29.2091C9.65778 29.2111 10.3718 29.1891 11.0298 28.9351C12.3898 28.4611 13.4038 27.3251 14.0858 26.0941C15.0718 24.3121 15.5648 22.3071 15.8628 20.3061C15.9588 19.5841 16.0458 18.8591 16.0458 18.1291C16.0508 18.0811 16.0608 17.9841 16.0658 17.9351Z" fill="#92918F"/>
<path d="M15.5622 19.0629C15.6982 18.7389 15.8642 18.4289 16.0462 18.1289C16.0462 18.8589 15.9592 19.5839 15.8632 20.3059C15.5652 22.3069 15.0722 24.3119 14.0862 26.0939C13.4042 27.3249 12.3902 28.4609 11.0302 28.9349C10.3722 29.1889 9.65823 29.2109 8.96223 29.2089C8.93823 29.1859 8.88923 29.1399 8.86523 29.1169C8.98323 29.1119 9.09023 29.0579 9.16723 28.9699C11.8982 26.1029 13.9082 22.6379 15.5622 19.0629Z" fill="#464543"/>
<path d="M68.6881 22.7291C68.9671 22.6061 69.2441 22.4781 69.5211 22.3481C69.9711 23.1631 70.6431 23.8271 71.1881 24.5781C70.0681 25.2011 68.9961 25.9081 67.9641 26.6661C67.7921 26.4941 67.6211 26.3221 67.4521 26.1491C68.1261 25.1271 68.5811 23.9531 68.6881 22.7291Z" fill="#A55B39"/>
<path d="M57.7791 22.8721C58.3831 23.4231 58.9851 23.9791 59.6481 24.4591C61.2251 25.6281 63.0791 26.4441 65.0311 26.7071C64.7571 27.3381 64.4721 27.9961 64.5031 28.6991C64.5311 30.0141 65.2831 31.2001 66.2121 32.0841C66.9271 32.7531 67.7281 33.3641 68.6551 33.7061C68.7351 33.8961 68.8311 34.0791 68.9171 34.2681C69.6161 35.9491 69.7911 37.7961 69.7421 39.6011C69.7221 41.0371 69.5781 42.4681 69.5291 43.9031C69.5141 44.5041 69.5371 45.1061 69.5111 45.7081C68.9771 45.2231 68.3551 44.7321 67.5971 44.7281C66.3371 44.7271 65.3631 45.7701 64.1061 45.8011C63.4621 45.8361 62.8801 45.5151 62.3591 45.1741C61.9461 45.5981 61.6441 46.1111 61.2821 46.5771C60.4751 47.6291 59.6731 48.6921 58.7291 49.6271C58.4021 49.9541 58.0631 50.2681 57.7451 50.6031C58.4001 52.2201 59.6921 53.4511 60.6141 54.9081C60.4691 55.4741 60.1001 56.0451 59.4921 56.1741C58.4491 56.3961 57.4091 56.0321 56.3761 55.9191C56.2951 55.7281 56.2011 55.5451 56.1171 55.3571C55.7241 53.6611 55.2061 51.9941 54.5581 50.3781C54.6461 50.1631 54.7321 49.9481 54.8341 49.7391C55.9831 47.7161 57.0181 45.6021 58.5081 43.7971C59.4631 42.6521 60.6811 41.6661 62.1321 41.2441C62.9941 40.9831 63.9081 40.9281 64.8021 41.0141C65.2981 41.0681 65.8311 40.9491 66.1981 40.5941C66.6231 40.1901 66.7471 39.5701 66.7201 39.0051C66.6751 38.2341 66.3981 37.4741 65.9321 36.8581C62.9101 33.2591 60.6001 29.1231 58.6341 24.8711C58.3351 24.2111 57.9961 23.5661 57.7791 22.8721Z" fill="#B5B1AA"/>
<path d="M67.9639 26.6661C68.9959 25.9081 70.0679 25.2011 71.1879 24.5781C71.4919 24.9641 71.7969 25.3491 72.0959 25.7391C73.7979 25.6971 75.5009 25.6711 77.2039 25.6441C77.3549 25.6461 77.5289 25.6321 77.6429 25.7561C78.5579 26.5441 79.4739 27.3321 80.4009 28.1061C80.7569 28.4111 81.1409 28.6871 81.4619 29.0331C83.6659 31.5261 86.2679 33.6281 88.9469 35.5881C85.9509 36.0271 82.9549 36.4881 79.9899 37.1021C79.2489 36.8451 78.4839 36.6731 77.7299 36.4621C76.4429 36.1241 75.1629 35.7631 73.8679 35.4611C73.5529 34.3731 73.1489 33.3051 72.5869 32.3201C71.8079 30.9161 70.8049 29.6541 69.7689 28.4341C69.1909 27.8211 68.5499 27.2701 67.9639 26.6661Z" fill="#D86464"/>
<path d="M65.0308 26.707L65.1248 26.726C65.2568 26.805 65.3638 26.919 65.4768 27.025C66.4458 28.015 67.4788 28.94 68.4368 29.941C68.1648 31.195 68.4328 32.467 68.6548 33.706C67.7278 33.364 66.9268 32.753 66.2118 32.084C65.2828 31.2 64.5308 30.014 64.5028 28.699C64.4718 27.996 64.7568 27.338 65.0308 26.707Z" fill="#9A958D"/>
<path d="M6.77291 29.6679C6.97291 29.2729 7.24891 28.8439 7.70191 28.7209C8.13291 28.6189 8.54191 28.8569 8.86491 29.1169C8.88891 29.1399 8.93791 29.1859 8.96191 29.2089C9.32091 29.9409 9.63091 30.6969 9.98091 31.4339C9.52491 31.3729 9.05991 31.3099 8.60291 31.3919C7.54691 31.5489 6.66891 32.2759 6.05091 33.1119L6.03791 33.1279C5.89091 33.0139 5.74191 32.9019 5.58691 32.7999C6.00891 31.7659 6.28691 30.6749 6.77291 29.6679Z" fill="#4C4C4B"/>
<path d="M68.4371 29.9409C69.4571 31.1899 70.4761 32.4649 71.1681 33.9319C71.7061 35.0309 72.0321 36.2199 72.2821 37.4139C72.3871 37.8419 72.2881 38.2789 72.2571 38.7099C72.0701 37.2309 71.3581 35.7509 70.1141 34.8809C69.7501 34.6139 69.3381 34.4239 68.9171 34.2679C68.8311 34.0789 68.7351 33.8959 68.6551 33.7059C68.4331 32.4669 68.1651 31.1949 68.4371 29.9409Z" fill="#766F64"/>
<path d="M72.537 45.6772C72.603 45.9072 72.648 46.1432 72.68 46.3802C72.987 48.5322 73.481 50.6502 73.864 52.7892C74.131 53.8062 74.361 54.8362 74.457 55.8862C74.432 56.0852 74.474 56.3532 74.264 56.4682C73.562 56.9222 72.802 57.2832 72.062 57.6722C71.852 57.7682 71.782 58.0032 71.683 58.1932C70.908 59.8692 69.412 61.1542 67.698 61.8062C66.082 62.4262 64.306 62.6043 62.594 62.3783C60.839 62.1603 59.115 61.5583 57.662 60.5393C57.33 60.3053 56.995 60.0612 56.747 59.7352C56.336 59.1092 56.021 58.4233 55.563 57.8273C55.665 56.9883 55.92 56.1762 56.117 55.3572C56.201 55.5452 56.295 55.7282 56.376 55.9192C56.612 56.6332 56.871 57.3603 57.362 57.9453C57.979 58.7413 58.918 59.2423 59.904 59.4083C61.319 59.6483 62.764 59.3973 64.139 59.0453C66.252 58.4913 68.26 57.6192 70.31 56.8802C70.536 54.9772 69.941 53.1112 69.376 51.3192C68.361 50.8152 67.198 50.7732 66.156 50.3492C65.718 50.1702 65.277 49.8682 65.132 49.3942C64.994 48.9992 65.089 48.5812 65.177 48.1872C66.15 47.6342 67.295 47.4322 68.404 47.5302C69.899 47.6582 71.305 48.2252 72.682 48.7862C72.516 47.7612 72.401 46.7122 72.537 45.6772Z" fill="#766F64"/>
<path d="M68.917 34.2681C69.338 34.4241 69.75 34.6141 70.114 34.8811C71.358 35.7511 72.07 37.2311 72.257 38.7101C72.115 40.7101 72.217 42.7201 72.451 44.7101C72.482 45.0321 72.54 45.3521 72.537 45.6771C72.401 46.7121 72.516 47.7611 72.682 48.7861C71.305 48.2251 69.899 47.6581 68.404 47.5301C67.295 47.4321 66.15 47.6341 65.177 48.1871C65.089 48.5811 64.994 48.9991 65.132 49.3941C65.277 49.8681 65.718 50.1701 66.156 50.3491C67.198 50.7731 68.361 50.8151 69.376 51.3191C69.941 53.1111 70.536 54.9771 70.31 56.8801C68.26 57.6191 66.252 58.4911 64.139 59.0451C62.764 59.3971 61.319 59.6481 59.904 59.4081C58.918 59.2421 57.979 58.7411 57.362 57.9451C56.871 57.3601 56.612 56.6331 56.376 55.9191C57.409 56.0321 58.449 56.3961 59.492 56.1741C60.1 56.0451 60.469 55.4741 60.614 54.9081C59.692 53.4511 58.4 52.2201 57.745 50.6031C58.063 50.2681 58.402 49.9541 58.729 49.6271C59.673 48.6921 60.475 47.6291 61.282 46.5771C61.644 46.1111 61.946 45.5981 62.359 45.1741C62.88 45.5151 63.462 45.8361 64.106 45.8011C65.363 45.7701 66.337 44.7271 67.597 44.7281C68.355 44.7321 68.977 45.2231 69.511 45.7081C69.537 45.1061 69.514 44.5041 69.529 43.9031C69.578 42.4681 69.722 41.0371 69.742 39.6011C69.791 37.7961 69.616 35.9491 68.917 34.2681Z" fill="#A29B8F"/>
<path d="M73.8682 35.4609C75.1632 35.7629 76.4432 36.1239 77.7302 36.4619C78.4842 36.6729 79.2492 36.8449 79.9902 37.1019C78.0702 38.4109 76.1422 39.7089 74.1942 40.9759C74.1642 39.8809 74.2572 38.7879 74.3512 37.6989C74.2622 36.9399 74.0572 36.1989 73.8682 35.4609Z" fill="#F08884"/>
<path d="M88.9468 35.5879C89.5548 36.0369 90.1609 36.4899 90.7829 36.9209C91.1639 37.1939 91.6528 37.2199 92.0618 37.4359C92.3328 37.6249 92.5388 37.8989 92.7038 38.1829C92.8418 38.5089 92.8158 38.8749 92.8608 39.2209C87.0068 40.4579 81.6158 43.1479 76.2558 45.7109C75.7188 45.8459 75.1928 46.0149 74.6738 46.2039C74.4088 44.4729 74.2188 42.7279 74.1938 40.9759C76.1418 39.7089 78.0699 38.4109 79.9899 37.1019C82.9549 36.4879 85.9508 36.0269 88.9468 35.5879Z" fill="#622C1C"/>
<path d="M76.2562 45.7112C81.6162 43.1482 87.0072 40.4582 92.8612 39.2212C92.8872 39.4982 92.9152 39.7752 92.9442 40.0532C96.7782 42.4812 100.852 44.6082 105.237 45.8432C105.615 45.9572 106.025 46.0072 106.352 46.2472C107.636 47.1352 108.938 47.9962 110.242 48.8542C110.925 49.2582 111.527 49.7762 112.15 50.2642C113.034 50.9672 113.912 51.6792 114.8 52.3782C114.939 52.4922 115.098 52.6122 115.123 52.8062C115.21 53.1662 115.331 53.5222 115.377 53.8912C115.278 54.2862 115.085 54.6512 114.957 55.0372C114.932 55.0512 114.882 55.0782 114.858 55.0922C114.127 54.0012 112.962 53.2452 111.691 52.9442C109.538 52.4272 107.305 52.7602 105.147 53.0662C102.42 53.4552 99.6642 54.0752 96.9002 53.7152C96.5582 54.6602 96.2232 55.6082 95.8712 56.5502C93.4962 57.3222 91.0052 57.9642 88.9502 59.4452C87.6802 60.3432 86.7092 61.6192 86.1142 63.0502C85.0492 62.9882 83.9752 62.7782 83.0252 62.2742C81.6382 61.5652 80.5402 60.4002 79.6742 59.1242C78.4012 57.2622 77.5142 55.1812 76.5302 53.1632C76.2722 52.6982 76.1232 52.1562 75.7212 51.7872C75.4752 50.5112 75.1992 49.2422 74.9712 47.9632C74.9712 47.5652 75.2402 47.2602 75.4432 46.9442C75.7142 46.5342 75.9802 46.1192 76.2562 45.7112Z" fill="#F2D896"/>
<path d="M5.05921 40.7891C5.12221 40.4771 5.15521 40.1281 5.38921 39.8901C6.11221 41.7701 6.41821 43.7891 6.49321 45.7951C6.59021 48.0741 6.32221 50.3451 6.06621 52.6051C6.84821 52.2721 7.62121 51.9151 8.41121 51.6021C10.3182 50.8771 12.3442 50.3651 14.3982 50.4341C14.9372 50.4081 15.4782 50.5561 16.0122 50.4461C15.2052 52.0761 14.0582 53.5021 12.9182 54.9071C11.3782 55.3231 10.1392 56.3801 8.81821 57.2201C7.93921 57.8001 6.97421 58.2921 5.91721 58.4311C5.73421 57.8021 5.57321 57.1681 5.37921 56.5431C5.20421 56.4681 5.03221 56.3911 4.85921 56.3131C4.94521 55.9271 5.03221 55.5421 5.14121 55.1621C4.85321 54.7151 4.43021 54.3481 4.28121 53.8221C3.85921 52.4961 3.85121 51.0821 3.87021 49.7041C3.95121 47.3811 4.22721 45.0561 4.79821 42.8011C5.05721 42.1591 4.92821 41.4561 5.05921 40.7891Z" fill="#B7B4AF"/>
<path d="M43.41 43.713C44.42 43.071 45.701 43.079 46.825 43.375C48.439 43.796 49.889 44.683 51.195 45.699C52.619 46.832 53.907 48.164 54.834 49.739C54.732 49.948 54.646 50.163 54.558 50.378C51.994 48.396 49.805 45.921 46.973 44.294C45.102 44.839 43.376 45.768 41.563 46.465C41.885 45.398 42.433 44.317 43.41 43.713Z" fill="#807F7D"/>
<path d="M41.5628 46.4649C43.3758 45.7679 45.1018 44.8389 46.9728 44.2939C49.8048 45.9209 51.9938 48.3959 54.5578 50.3779C55.2058 51.9939 55.7238 53.6609 56.1168 55.3569C55.9198 56.1759 55.6648 56.9879 55.5628 57.8269C55.5278 58.6499 55.3088 59.5069 54.7128 60.1069C53.7538 61.1089 52.3218 61.4209 50.9938 61.5629C50.1908 61.6409 49.3828 61.6379 48.5778 61.6129C47.5218 61.0639 46.4638 60.5139 45.3668 60.0499C44.8718 58.3979 44.3838 56.7099 43.4608 55.2349C42.9728 54.4499 42.3358 53.7599 41.5818 53.2239C41.5648 53.2109 41.5318 53.1849 41.5148 53.1719C41.2588 52.9539 41.0258 52.7089 40.7568 52.5069C40.9108 50.5059 41.2578 48.5269 41.5428 46.5429C41.5478 46.5229 41.5578 46.4839 41.5628 46.4649ZM44.8828 51.8139C44.7028 52.9239 45.3708 54.0769 46.4008 54.5069C47.1698 54.8289 48.0998 54.7569 48.7928 54.2849C49.5858 53.7759 50.0298 52.7999 49.9128 51.8669C49.9458 51.5099 49.9228 51.1389 49.7868 50.8049C49.4608 50.0019 48.5498 49.5029 47.6968 49.6559C46.3748 49.4579 45.0378 50.4909 44.8828 51.8139Z" fill="#272625"/>
<path d="M74.6738 46.2039C75.1928 46.0149 75.7188 45.8459 76.2558 45.7109C75.9798 46.1189 75.7138 46.5339 75.4428 46.9439C75.2398 47.2599 74.9708 47.5649 74.9708 47.9629C74.9498 47.9529 74.9078 47.9319 74.8858 47.9209C74.9138 47.3389 74.7498 46.7759 74.6738 46.2039Z" fill="#766334"/>
<path d="M40.6602 47.297C40.9342 47.023 41.2312 46.772 41.5432 46.543C41.2582 48.527 40.9112 50.506 40.7572 52.507C40.2192 52.184 39.6642 51.814 39.3852 51.229C39.0502 50.554 39.1882 49.753 39.4912 49.093C39.7832 48.436 40.2342 47.87 40.6602 47.297Z" fill="#848482"/>
<path d="M19.4919 47.095C20.7789 46.845 22.0809 47.344 23.1249 48.073C24.5989 49.128 25.7219 50.647 26.3649 52.336C26.8239 53.584 27.0129 54.99 26.5959 56.276C26.0319 54.525 25.1499 52.863 23.9159 51.49C22.8099 50.262 21.3589 49.248 19.6959 48.99C18.6409 48.809 17.5609 48.995 16.5669 49.363C17.2089 48.283 18.2199 47.329 19.4919 47.095Z" fill="#8C8C8D"/>
<path d="M39.9009 47.4919C40.1429 47.3919 40.4009 47.3369 40.6599 47.2969C40.2339 47.8699 39.7829 48.4359 39.4909 49.0929C39.1879 49.7529 39.0499 50.5539 39.3849 51.2289C39.6639 51.8139 40.2189 52.1839 40.7569 52.5069C41.0259 52.7089 41.2589 52.9539 41.5149 53.1719C40.4219 53.2219 39.3899 53.6109 38.3309 53.8459C37.7709 53.9639 37.1469 54.0439 36.6189 53.7629C36.2549 53.5439 36.1939 53.0869 36.0629 52.7199C35.8809 52.1989 35.6899 51.6529 35.7599 51.0919C35.8429 50.3309 36.3249 49.6809 36.8779 49.1829C37.7649 48.4289 38.8269 47.9199 39.9009 47.4919Z" fill="#B7B6B4"/>
<path d="M16.5669 49.3629C17.5609 48.9949 18.6409 48.8089 19.6959 48.9899C21.3589 49.2479 22.8099 50.2619 23.9159 51.4899C25.1499 52.8629 26.0319 54.5249 26.5959 56.2759C26.5649 56.4899 26.5309 56.7049 26.5149 56.9219C25.7979 57.4829 25.4089 58.3619 25.2779 59.2449C25.0139 60.8519 25.3579 62.5139 24.9199 64.0979C24.7319 64.8169 24.2609 65.4419 23.6369 65.8419C22.9879 65.8189 22.3299 65.7799 21.7099 65.5719C20.3279 65.1439 19.1949 64.1859 18.2059 63.1619C16.9489 61.9309 15.3049 61.2219 13.8779 60.2199C12.9799 59.6019 12.0069 58.8649 11.7389 57.7489C11.5209 56.6549 12.2169 55.6689 12.9179 54.9069C14.0579 53.5019 15.2049 52.0759 16.0119 50.4459C16.1879 50.0809 16.3679 49.7169 16.5669 49.3629ZM18.2819 56.8089C18.0469 57.9919 18.7979 59.2609 19.9419 59.6359C20.7429 59.9219 21.6839 59.7619 22.3479 59.2299C23.0219 58.7079 23.4149 57.8169 23.2799 56.9679C23.4409 56.1629 23.0269 55.2849 22.2889 54.9189C21.8689 54.6849 21.3749 54.6819 20.9139 54.7599L21.0149 54.7209C19.7399 54.5619 18.4669 55.5419 18.2819 56.8089Z" fill="#2B2B2B"/>
<path d="M44.8828 51.8142C45.0378 50.4912 46.3748 49.4582 47.6968 49.6562C47.0318 49.7862 46.4398 50.2752 46.2278 50.9232C46.0238 51.5112 46.1318 52.1972 46.5158 52.6892C47.0168 53.3752 48.0108 53.6332 48.7838 53.2812C49.3758 53.0442 49.7718 52.4752 49.9128 51.8672C50.0298 52.8002 49.5858 53.7762 48.7928 54.2852C48.0998 54.7572 47.1698 54.8292 46.4008 54.5072C45.3708 54.0772 44.7028 52.9242 44.8828 51.8142Z" fill="#D9D9D9"/>
<path d="M18.2818 56.8091C18.4668 55.5421 19.7398 54.5621 21.0148 54.7211L20.9138 54.7599C20.5058 54.8959 20.1288 55.1339 19.8768 55.4879C19.3538 56.1639 19.3998 57.2039 19.9658 57.8409C20.4648 58.4449 21.3628 58.678 22.0908 58.381C22.6968 58.155 23.1588 57.6039 23.2798 56.9679C23.4148 57.8169 23.0218 58.7079 22.3478 59.2299C21.6838 59.7619 20.7428 59.922 19.9418 59.636C18.7978 59.261 18.0468 57.9921 18.2818 56.8091Z" fill="#D9D9D9"/>
<path d="M47.6973 49.6559C48.5503 49.5029 49.4613 50.0019 49.7873 50.8049C49.9233 51.1389 49.9463 51.5099 49.9133 51.8669C49.7723 52.4749 49.3763 53.0439 48.7843 53.2809C48.0113 53.6329 47.0173 53.3749 46.5163 52.6889C46.1323 52.1969 46.0243 51.5109 46.2283 50.9229C46.4403 50.2749 47.0323 49.7859 47.6973 49.6559Z" fill="#0D0D0D"/>
<path d="M20.9142 54.7601C21.3752 54.6821 21.8692 54.6851 22.2892 54.9191C23.0272 55.2851 23.4412 56.1631 23.2802 56.9681C23.1592 57.6041 22.6972 58.1551 22.0912 58.3811C21.3632 58.6781 20.4652 58.4451 19.9662 57.8411C19.4002 57.2041 19.3542 56.1641 19.8772 55.4881C20.1292 55.1341 20.5062 54.8961 20.9142 54.7601Z" fill="#0D0D0D"/>
<path d="M75.7211 51.7871C76.1231 52.1561 76.2721 52.6981 76.5301 53.1631C77.5141 55.1811 78.4011 57.2621 79.6741 59.1241C80.5401 60.4001 81.6381 61.5651 83.0251 62.2741C83.9751 62.7781 85.0491 62.9881 86.1141 63.0501C84.3521 65.0491 83.3911 67.5851 82.6141 70.0961C82.0891 71.7591 81.6221 73.4431 80.9671 75.0621C80.2561 73.6631 79.4691 72.2681 78.3301 71.1671C77.2231 70.0681 75.7181 69.2831 74.1311 69.3041C74.1181 69.2581 74.0921 69.1661 74.0791 69.1201C74.6821 67.5781 75.1971 66.0021 75.6171 64.4011C76.5311 60.9091 76.8881 57.2051 76.1311 53.6481C76.0041 53.0251 75.8001 52.4191 75.7211 51.7871Z" fill="#E8C379"/>
<path d="M105.147 53.0661C107.305 52.7601 109.538 52.4271 111.691 52.9441C112.962 53.2451 114.127 54.0011 114.858 55.0921C114.882 55.0781 114.932 55.0511 114.957 55.0371C114.716 55.6351 114.465 56.2291 114.228 56.8291C114.114 57.1301 113.938 57.4271 113.951 57.7591C114.164 59.5841 114.444 61.4091 114.498 63.2481C113.526 61.2911 112.483 59.3061 110.852 57.8091C109.882 56.8451 108.55 56.3221 107.202 56.2011C104.915 55.9891 102.652 56.4981 100.388 56.7301C98.8871 56.8821 97.3391 56.9611 95.8711 56.5501C96.2231 55.6081 96.5581 54.6601 96.9001 53.7151C99.6641 54.0751 102.42 53.4551 105.147 53.0661Z" fill="#5D4416"/>
<path d="M41.5821 53.2241C42.3361 53.7601 42.9731 54.4501 43.4611 55.2351C44.3841 56.7101 44.8721 58.3981 45.3671 60.0501C45.6321 61.4641 46.5141 62.7091 47.6981 63.5081C49.0661 64.4641 50.7831 64.8341 52.4331 64.6871C52.9491 64.8531 53.4271 65.1151 53.9451 65.2741C53.1621 66.8601 52.2711 68.3981 51.2371 69.8351C50.2171 71.2321 48.9881 72.5081 47.4831 73.3831C47.1191 73.6071 46.7301 73.7901 46.3241 73.9231C45.6251 71.8951 46.0891 69.6901 45.5591 67.6301C45.4151 67.0971 45.1231 66.5031 44.5411 66.3551C43.8111 66.1901 43.1231 66.5831 42.4971 66.9041C42.6691 66.4491 42.8151 65.9801 42.8631 65.4941C43.0301 63.9571 42.5611 62.4321 42.7181 60.8951C42.7821 60.0391 43.1451 59.2301 43.6981 58.5791C43.3491 58.0091 42.9511 57.4711 42.6131 56.8951C41.9381 55.8041 41.4271 54.5301 41.5821 53.2241Z" fill="#9D9A96"/>
<path d="M8.81805 57.2202C10.1391 56.3802 11.3781 55.3232 12.9181 54.9072C12.2171 55.6692 11.5211 56.6552 11.7391 57.7492C12.0071 58.8652 12.9801 59.6022 13.8781 60.2202C15.3051 61.2222 16.9491 61.9312 18.2061 63.1622C18.3071 64.0302 18.5391 64.8772 18.7791 65.7152C19.0101 66.5402 19.3131 67.3452 19.7051 68.1072C19.5841 69.0912 19.2821 70.0762 18.6751 70.8732C17.9301 71.8672 16.7441 72.4802 15.5211 72.6282C13.7781 72.8392 12.0021 72.2372 10.6271 71.1752C10.2931 70.9152 9.86105 70.7312 9.43405 70.8472C8.83605 71.0112 8.44205 71.5292 7.96005 71.8842C7.96305 71.5712 7.97005 71.2582 7.97905 70.9462C7.50005 70.8412 7.01105 70.7822 6.54005 70.6492C6.18805 70.3622 5.95205 69.9662 5.66505 69.6202C7.16805 69.1432 8.16705 67.7972 9.61105 67.2082C9.97705 67.0522 10.3961 67.0452 10.7391 66.8352C11.9851 65.9882 13.5601 65.8412 14.8271 65.0312C15.2681 64.7412 15.6901 64.3402 15.8031 63.8032C15.9021 63.4302 15.8291 63.0452 15.7431 62.6782C13.8721 61.9162 12.0121 61.0762 10.0231 60.6682C8.69905 60.4112 7.17605 60.2812 6.02205 61.1152C5.84005 61.1052 5.65905 61.0942 5.47705 61.0822C5.59705 60.5912 6.02605 60.2872 6.32905 59.9112C6.19305 59.4172 6.05805 58.9232 5.91705 58.4312C6.97405 58.2922 7.93905 57.8002 8.81805 57.2202Z" fill="#979187"/>
<path d="M74.4569 55.8862C74.8149 59.5692 74.0129 63.2542 72.8269 66.7242C72.4829 67.7222 72.1109 68.7102 71.7129 69.6872C71.5989 69.9762 71.4279 70.2592 71.4409 70.5812C70.5509 70.6182 69.6879 70.8752 68.7989 70.9192C68.2219 70.9412 67.5389 70.8292 67.2029 70.3042C66.7879 69.6132 66.8089 68.7702 66.8319 67.9932C66.8389 67.4702 66.9939 66.9562 66.9639 66.4332C66.7349 66.1132 66.3619 65.9412 66.0139 65.7832C65.1369 65.4242 64.2099 65.2132 63.2859 65.0182C61.4609 64.5992 59.5889 64.3422 57.8309 63.6752C57.1269 63.3752 56.3599 63.0342 55.9619 62.3412C55.6609 61.8312 55.8479 61.1992 56.1179 60.7192C56.3239 60.3882 56.5779 60.0882 56.7469 59.7352C56.9949 60.0612 57.3299 60.3052 57.6619 60.5392C59.1149 61.5582 60.8389 62.1602 62.5939 62.3782C64.3059 62.6042 66.0819 62.4262 67.6979 61.8062C69.4119 61.1542 70.9079 59.8692 71.6829 58.1932C71.7819 58.0032 71.8519 57.7682 72.0619 57.6722C72.8019 57.2832 73.5619 56.9222 74.2639 56.4682C74.4739 56.3532 74.4319 56.0852 74.4569 55.8862Z" fill="#665D50"/>
<path d="M100.388 56.7299C102.652 56.4979 104.915 55.9889 107.202 56.2009C108.55 56.3219 109.882 56.8449 110.852 57.8089C107.966 59.0099 104.908 59.7069 101.888 60.4739C100.064 59.9149 98.0728 59.9379 96.2398 60.4509C93.7208 61.1569 91.5518 62.7949 89.8628 64.7569C87.7418 67.2199 86.2368 70.1739 85.2688 73.2669C84.5908 75.4489 84.1678 77.7239 84.1618 80.0139C83.0118 78.4199 81.9068 76.7889 80.9668 75.0619C81.6218 73.4429 82.0888 71.7589 82.6138 70.0959C83.3908 67.5849 84.3518 65.0489 86.1138 63.0499C86.7088 61.6189 87.6798 60.3429 88.9498 59.4449C91.0048 57.9639 93.4958 57.3219 95.8708 56.5499C97.3388 56.9609 98.8868 56.8819 100.388 56.7299Z" fill="#856A31"/>
<path d="M25.2779 59.2449C25.4089 58.3619 25.7979 57.4829 26.5149 56.9219C26.9479 59.8659 26.6399 62.8829 27.2639 65.8059C27.4859 66.8239 27.8299 67.8639 28.5459 68.6479C29.2079 69.3699 30.2339 69.7719 31.2089 69.6199C30.3539 69.8679 29.4079 70.2319 28.9599 71.0589C28.6079 71.7509 28.8889 72.5319 29.2089 73.1769C29.6289 74.8389 30.0629 76.5059 30.2719 78.2109C28.3619 77.9709 26.3789 78.1919 24.5289 77.5689C23.6849 77.2929 22.9279 76.7689 22.3629 76.0859C21.3739 74.8349 20.9609 73.2469 20.7729 71.6909C20.6159 70.4359 20.5449 69.1729 20.3789 67.9199C21.5499 67.3749 22.6119 66.6219 23.6369 65.8419C24.2609 65.4419 24.7319 64.8169 24.9199 64.0979C25.3579 62.5139 25.0139 60.8519 25.2779 59.2449Z" fill="#9D9994"/>
<path d="M110.852 57.8091C112.483 59.3061 113.526 61.2911 114.498 63.2481C114.681 64.2941 114.679 65.3631 114.775 66.4201C114.876 67.4491 114.813 68.5051 115.097 69.5091C115.176 69.8321 115.267 70.1691 115.188 70.5021C114.889 72.0261 114.421 73.5281 113.684 74.9001C113.12 74.2021 112.552 73.5061 111.988 72.8081C112.01 71.7521 111.893 70.6991 111.907 69.6441C112.398 67.7011 112.326 65.5451 111.331 63.7681C110.574 62.3531 109.142 61.2411 107.507 61.1381C105.829 61.0041 104.261 61.8431 103.015 62.8921C99.6772 64.5351 96.7022 66.7881 93.5602 68.7591C93.2732 68.9451 92.9722 69.1071 92.6772 69.2781C93.3752 67.2611 94.7202 65.5151 96.3282 64.1321C98.0092 62.6711 99.9382 61.5341 101.888 60.4741C104.908 59.7071 107.966 59.0101 110.852 57.8091Z" fill="#9E8B58"/>
<path d="M54.7131 60.1072C55.3091 59.5072 55.5281 58.6501 55.5631 57.8271C56.0211 58.4231 56.3361 59.1091 56.7471 59.7351C56.5781 60.0881 56.3241 60.3882 56.1181 60.7192C55.8481 61.1992 55.6611 61.8311 55.9621 62.3411C56.3601 63.0341 57.1271 63.3751 57.8311 63.6751C59.5891 64.3421 61.4611 64.5991 63.2861 65.0181C64.2101 65.2131 65.1371 65.4241 66.0141 65.7831C66.3621 65.9411 66.7351 66.1131 66.9641 66.4331C66.9941 66.9561 66.8391 67.4702 66.8321 67.9932C66.8091 68.7702 66.7881 69.6131 67.2031 70.3041C67.5391 70.8291 68.2221 70.9411 68.7991 70.9191C69.6881 70.8751 70.5511 70.6182 71.4411 70.5812C70.9411 71.5002 70.0131 72.0762 69.2011 72.7002C68.8501 72.9322 68.5391 73.2491 68.1321 73.3791C67.4551 73.5091 66.8391 73.8271 66.2261 74.1291C63.8721 75.3511 61.8351 77.1231 59.3931 78.1841C59.0831 78.3581 58.7451 78.1842 58.4741 78.0222C58.0601 77.7772 57.6801 77.3932 57.6081 76.8982C57.5361 76.3332 57.7391 75.7781 57.9791 75.2761C58.7241 73.8091 59.8481 72.5342 60.3391 70.9422C60.5621 70.2682 60.4921 69.4481 59.9801 68.9211C59.5661 68.4991 59.1761 67.9921 58.5851 67.8181C57.7501 67.5471 56.8561 67.7721 56.0561 68.0601C55.2251 68.3681 54.4191 68.7432 53.5761 69.0212C53.8411 68.0612 54.5671 67.3142 54.8671 66.3692C54.9481 66.1022 54.9791 65.7592 54.7541 65.5532C54.5291 65.3612 54.2181 65.3482 53.9451 65.2742C53.4271 65.1152 52.9491 64.8532 52.4331 64.6872C51.6851 63.1172 49.9811 62.4541 48.5781 61.6131C49.3831 61.6381 50.1911 61.6411 50.9941 61.5631C52.3221 61.4211 53.7541 61.1092 54.7131 60.1072Z" fill="#50493F"/>
<path d="M45.3672 60.0498C46.4642 60.5138 47.5222 61.0638 48.5782 61.6128C49.9812 62.4538 51.6852 63.1168 52.4332 64.6868C50.7832 64.8338 49.0662 64.4638 47.6982 63.5078C46.5142 62.7088 45.6322 61.4638 45.3672 60.0498Z" fill="#7D7973"/>
<path d="M96.2401 60.451C98.0731 59.938 100.064 59.915 101.888 60.474C99.9381 61.534 98.0091 62.6711 96.3281 64.1321C94.7201 65.5151 93.3751 67.2611 92.6771 69.2781C92.6651 69.2901 92.6411 69.313 92.6301 69.325C91.2001 70.643 90.0611 72.258 89.2161 74.006C88.5311 75.452 88.0341 77.004 87.9011 78.604C87.7581 80.228 88.0771 81.9691 89.1371 83.2531C90.0251 84.3541 91.3541 84.9791 92.6991 85.3201C92.7111 85.3761 92.7371 85.4891 92.7501 85.5461C91.3771 85.1891 90.0081 84.819 88.6371 84.456C88.1171 84.295 87.5961 84.5041 87.0891 84.6051C86.1351 83.0611 85.1751 81.5201 84.1621 80.0141C84.1681 77.7241 84.5911 75.449 85.2691 73.267C86.2371 70.174 87.7421 67.2201 89.8631 64.7571C91.5521 62.7951 93.7211 61.157 96.2401 60.451Z" fill="#583F10"/>
<path d="M6.02204 61.1152C7.17604 60.2812 8.69904 60.4112 10.023 60.6682C12.012 61.0762 13.872 61.9162 15.743 62.6782C15.829 63.0452 15.902 63.4302 15.803 63.8032C15.69 64.3402 15.268 64.7412 14.827 65.0312C13.56 65.8412 11.985 65.9882 10.739 66.8352C10.396 67.0452 9.97704 67.0522 9.61104 67.2082C8.16704 67.7972 7.16804 69.1432 5.66504 69.6202C5.67104 68.6632 5.99004 67.7452 6.24704 66.8332C6.35504 66.4262 6.55404 66.0322 6.54004 65.6022C6.51904 64.1192 6.51904 62.6352 6.48304 61.1532C6.32904 61.1402 6.17604 61.1272 6.02204 61.1152Z" fill="#C2BFB9"/>
<path d="M103.015 62.8921C104.261 61.8431 105.829 61.0041 107.507 61.1381C109.142 61.2411 110.574 62.3531 111.331 63.7681C112.326 65.5451 112.398 67.7011 111.907 69.6441C111.454 69.6041 111.002 69.5611 110.552 69.5091C109.734 68.3841 108.961 67.2261 108.134 66.1071C106.75 64.5771 104.689 64.0111 103.015 62.8921Z" fill="#4D340D"/>
<path d="M93.5602 68.7591C96.7022 66.7881 99.6772 64.5351 103.015 62.8921C104.689 64.0111 106.75 64.5771 108.134 66.1071C106.133 65.7821 104.039 65.9641 102.166 66.7631C99.0422 68.0701 96.6432 70.8011 95.4242 73.9261C94.6862 75.7641 94.4032 77.7611 94.4942 79.7341C93.5222 78.6031 92.6542 77.3881 91.6872 76.2541C91.6702 76.3201 91.6342 76.4501 91.6162 76.5151C91.7742 74.0961 92.3352 71.7271 92.6302 69.3251C92.6412 69.3131 92.6652 69.2901 92.6772 69.2781C92.9722 69.1071 93.2732 68.9451 93.5602 68.7591Z" fill="#6D541B"/>
<path d="M18.2061 63.1621C19.1951 64.1861 20.3281 65.1441 21.7101 65.5721C22.3301 65.7801 22.9881 65.8191 23.6371 65.8421C22.6121 66.6221 21.5501 67.3751 20.3791 67.9201C20.1571 67.9921 19.9301 68.0471 19.7051 68.1071C19.3131 67.3451 19.0101 66.5401 18.7791 65.7151C18.5391 64.8771 18.3071 64.0301 18.2061 63.1621Z" fill="#6D6A66"/>
<path d="M53.9452 65.2739C54.2182 65.3479 54.5292 65.3609 54.7542 65.5529C54.9792 65.7589 54.9482 66.1019 54.8672 66.3689C54.5672 67.3139 53.8412 68.0609 53.5762 69.0209C50.9582 71.0499 49.3682 74.1349 46.6152 76.0139C46.3382 76.1999 46.0542 76.3739 45.7662 76.5429C45.0402 76.3469 44.4632 75.6599 44.4232 74.9039C44.3332 73.5619 45.1052 72.2649 44.7672 70.9229C44.6802 70.4739 44.3882 70.1169 44.1082 69.7729C43.8572 69.1789 43.5782 68.5659 43.0512 68.1639C42.5002 67.6819 41.7602 67.5439 41.0562 67.4589C41.5302 67.2569 42.0242 67.1079 42.4972 66.9039C43.1232 66.5829 43.8112 66.1899 44.5412 66.3549C45.1232 66.5029 45.4152 67.0969 45.5592 67.6299C46.0892 69.6899 45.6252 71.8949 46.3242 73.9229C46.7302 73.7899 47.1192 73.6069 47.4832 73.3829C48.9882 72.5079 50.2172 71.2319 51.2372 69.8349C52.2712 68.3979 53.1622 66.8599 53.9452 65.2739Z" fill="#787570"/>
<path d="M102.166 66.7629C104.039 65.9639 106.133 65.7819 108.134 66.1069C108.961 67.2259 109.734 68.3839 110.552 69.5089C110.098 71.2769 109.569 73.0279 108.931 74.7389C108.493 72.8699 107.979 71.0099 107.259 69.2279C106.446 68.5869 105.325 68.5899 104.375 68.8759C102.8 69.3439 101.428 70.3369 100.296 71.5069C99.112 72.7729 98.136 74.3429 97.961 76.1009C97.882 76.8639 98.014 77.6389 98.301 78.3489C98.504 78.9279 98.87 79.5299 99.496 79.7099C100.342 79.9499 101.212 79.6219 101.98 79.2799C103.494 78.5629 104.843 77.5559 106.202 76.5869C107.091 75.9529 107.958 75.2759 108.926 74.7629C108.689 76.1099 108.068 77.3479 107.285 78.4559C107 78.7699 106.706 79.0769 106.392 79.3619C105.783 79.8039 105.175 80.2559 104.492 80.5799C102.543 81.5239 100.354 81.8539 98.205 81.8879C97.571 81.9079 96.937 81.8359 96.304 81.8819C95.683 81.1809 95.096 80.4509 94.494 79.7339C94.403 77.7609 94.686 75.7639 95.424 73.9259C96.643 70.8009 99.042 68.0699 102.166 66.7629Z" fill="#CAAE71"/>
<path d="M40.2279 67.731C40.5029 67.637 40.7779 67.545 41.0559 67.459C41.7599 67.544 42.4999 67.682 43.0509 68.164C43.5779 68.566 43.8569 69.179 44.1079 69.773C42.5099 71.89 40.5029 73.68 38.2869 75.127C37.6919 75.482 37.0889 75.827 36.4669 76.133C34.0469 75.15 31.6549 74.096 29.2089 73.177C28.8889 72.532 28.6079 71.751 28.9599 71.059C29.4079 70.232 30.3539 69.868 31.2089 69.62C31.9349 69.418 32.6819 69.307 33.4299 69.218C35.7549 69.179 38.1679 68.887 40.2279 67.731Z" fill="#2B2726"/>
<path d="M33.9892 68.993C36.0092 68.335 38.0922 67.779 40.2282 67.731C38.1682 68.887 35.7552 69.179 33.4302 69.218C33.6162 69.141 33.7992 69.059 33.9892 68.993Z" fill="#909091"/>
<path d="M56.0561 68.0598C56.8561 67.7718 57.7501 67.5468 58.5851 67.8178C59.1761 67.9918 59.5661 68.4988 59.9801 68.9208C60.4921 69.4478 60.5621 70.2678 60.3391 70.9418C59.8481 72.5338 58.7241 73.8088 57.9791 75.2758C57.7391 75.7778 57.5361 76.3328 57.6081 76.8978C57.6801 77.3928 58.0601 77.7768 58.4741 78.0218C58.7451 78.1838 59.0831 78.3578 59.3931 78.1838C61.8351 77.1228 63.8721 75.3508 66.2261 74.1288C66.8391 73.8268 67.4551 73.5088 68.1321 73.3788C67.9741 73.5758 67.7691 73.7238 67.5551 73.8528C62.2281 77.3588 56.3201 79.8218 50.7101 82.8158C47.7491 84.3968 44.8561 86.1298 42.2121 88.2058C41.0881 89.0768 40.0301 90.0278 38.9971 91.0048C37.6101 90.2908 36.2981 89.4398 34.9451 88.6648C32.9621 87.5128 30.9421 86.3948 28.7691 85.6438C28.7761 85.1068 28.5751 84.6018 28.3791 84.1138C27.7961 82.7158 26.8191 81.4868 26.4551 79.9988C27.2491 79.5978 28.1341 79.4368 29.0091 79.3318C30.2261 79.1708 31.4571 79.1508 32.6711 78.9698C33.5921 78.8508 34.5381 78.6488 35.3101 78.1058C35.9471 77.6458 36.4081 76.9268 36.4671 76.1328C37.0891 75.8268 37.6921 75.4818 38.2871 75.1268C38.2051 75.8508 38.3411 76.6768 38.9441 77.1548C39.7711 77.8068 40.8961 77.7938 41.8941 77.7238C43.2431 77.5848 44.5731 77.1908 45.7661 76.5428C46.0541 76.3738 46.3381 76.1998 46.6151 76.0138C49.3681 74.1348 50.9581 71.0498 53.5761 69.0208C54.4191 68.7428 55.2251 68.3678 56.0561 68.0598ZM40.3051 79.2608C38.9371 79.4068 37.5511 79.2998 36.1891 79.5228C35.0351 79.6858 33.8161 80.1628 33.1591 81.1788C34.8721 81.5948 36.6341 81.8408 38.3971 81.8748C39.2781 81.8658 40.2331 81.8698 41.0051 81.3838C41.3381 81.1868 41.4701 80.7658 41.3701 80.4008C41.2571 79.9758 41.0221 79.5868 40.7361 79.2578C40.5931 79.2268 40.4471 79.2498 40.3051 79.2608Z" fill="#413B32"/>
<path d="M19.7051 68.1069C19.9301 68.0469 20.1571 67.9919 20.3791 67.9199C20.5451 69.1729 20.6161 70.4359 20.7731 71.6909C20.9611 73.2469 21.3741 74.8349 22.3631 76.0859C21.6501 76.2919 20.9161 76.4089 20.1991 76.6009C18.4561 77.0459 16.7471 77.6709 15.2051 78.6069C14.9371 78.3949 14.7321 78.0779 14.3981 77.9679C12.8231 77.6499 11.3541 76.8969 10.0881 75.9179C9.26106 75.2409 8.44706 74.4549 8.08106 73.4249C7.89506 72.9319 7.94906 72.3979 7.96006 71.8839C8.44206 71.5289 8.83606 71.0109 9.43406 70.8469C9.86106 70.7309 10.2931 70.9149 10.6271 71.1749C12.0021 72.2369 13.7781 72.8389 15.5211 72.6279C16.7441 72.4799 17.9301 71.8669 18.6751 70.8729C19.2821 70.0759 19.5841 69.0909 19.7051 68.1069Z" fill="#796F5F"/>
<path d="M104.375 68.8762C105.325 68.5902 106.446 68.5872 107.259 69.2282C106.737 70.0892 105.995 70.7842 105.356 71.5552C104.102 72.9302 102.835 74.3002 101.441 75.5372C100.431 76.5142 99.391 77.4622 98.301 78.3492C98.014 77.6392 97.882 76.8642 97.961 76.1012C98.136 74.3432 99.112 72.7732 100.296 71.5072C101.428 70.3372 102.8 69.3442 104.375 68.8762Z" fill="#5B410C"/>
<path d="M107.259 69.228C107.979 71.01 108.493 72.87 108.931 74.739L108.926 74.763C107.958 75.276 107.091 75.953 106.202 76.587C104.843 77.556 103.494 78.563 101.98 79.28C101.212 79.622 100.342 79.95 99.4958 79.71C98.8698 79.53 98.5038 78.928 98.3008 78.349C99.3908 77.462 100.431 76.514 101.441 75.537C102.835 74.3 104.102 72.93 105.356 71.555C105.995 70.784 106.737 70.089 107.259 69.228Z" fill="#70541F"/>
<path d="M74.1309 69.3041C75.7179 69.2831 77.2229 70.0681 78.3299 71.1671C79.4689 72.2681 80.2559 73.6631 80.9669 75.0621C81.9069 76.7891 83.0119 78.4201 84.1619 80.0141C85.1749 81.5201 86.1349 83.0611 87.0889 84.6051C86.7569 84.4201 86.4819 84.1561 86.1879 83.9211C84.7849 82.7841 83.3889 81.6391 81.9479 80.5511C81.5929 80.3071 81.5069 79.8581 81.3039 79.5041C79.4699 75.7421 76.6709 72.5901 74.1309 69.3041Z" fill="#C3A968"/>
<path d="M89.2159 74.0062C90.0609 72.2582 91.1999 70.6432 92.6299 69.3252C92.3349 71.7272 91.7739 74.0962 91.6159 76.5152C91.4789 78.9742 91.6989 81.4622 92.3719 83.8342C92.4929 84.3262 92.5959 84.8232 92.6989 85.3202C91.3539 84.9792 90.0249 84.3542 89.1369 83.2532C88.0769 81.9692 87.7579 80.2282 87.9009 78.6042C88.0339 77.0042 88.5309 75.4522 89.2159 74.0062Z" fill="#9B8354"/>
<path d="M110.552 69.5088C111.002 69.5608 111.454 69.6038 111.907 69.6438C111.893 70.6988 112.01 71.7518 111.988 72.8078C111.912 72.7238 111.831 72.6478 111.755 72.5678C111.325 73.3998 110.897 74.2328 110.462 75.0618C110.167 75.6658 109.734 76.1878 109.257 76.6568C108.62 77.2768 107.998 77.9218 107.285 78.4558C108.068 77.3478 108.689 76.1098 108.926 74.7628L108.931 74.7388C109.569 73.0278 110.098 71.2768 110.552 69.5088Z" fill="#83723B"/>
<path d="M104.492 80.5798C105.175 80.2558 105.783 79.8038 106.392 79.3618C105.58 80.3018 104.772 81.2928 104.378 82.4908C104.046 83.4138 104.022 84.4188 104.184 85.3798C103.378 85.6568 102.58 85.9558 101.791 86.2758C101.015 86.6118 100.173 86.7348 99.3611 86.9558C98.9831 87.0318 98.5941 87.2168 98.2061 87.0908C96.3891 86.5688 94.5651 86.0738 92.7501 85.5458C92.7371 85.4888 92.7111 85.3758 92.6991 85.3198C92.5961 84.8228 92.4931 84.3258 92.3721 83.8338C93.7201 84.0518 95.0451 84.4208 96.4101 84.5308C96.8041 84.5508 97.2331 84.5808 97.5931 84.3878C97.8561 84.2488 97.8271 83.9058 97.7181 83.6758C97.3971 82.9738 96.8181 82.4408 96.3041 81.8818C96.9371 81.8358 97.5711 81.9078 98.2051 81.8878C100.354 81.8538 102.543 81.5238 104.492 80.5798Z" fill="#83723B"/>
<path d="M38.2873 75.127C40.5033 73.68 42.5103 71.8899 44.1083 69.7729C44.3883 70.1169 44.6803 70.4739 44.7673 70.9229C45.1053 72.2649 44.3333 73.5619 44.4233 74.9039C44.4633 75.6599 45.0403 76.347 45.7663 76.543C44.5733 77.1909 43.2433 77.5849 41.8943 77.7239C40.8963 77.7939 39.7713 77.8069 38.9443 77.1549C38.3413 76.6769 38.2053 75.851 38.2873 75.127Z" fill="#595650"/>
<path d="M29.2091 73.1772C31.6551 74.0962 34.0471 75.1502 36.4671 76.1332C36.4081 76.9272 35.9471 77.6462 35.3101 78.1062C34.5381 78.6492 33.5921 78.8512 32.6711 78.9702C31.4571 79.1512 30.2261 79.1712 29.0091 79.3322C28.1341 79.4372 27.2491 79.5982 26.4551 79.9992C26.8191 81.4872 27.7961 82.7162 28.3791 84.1142C28.5751 84.6022 28.7761 85.1072 28.7691 85.6442C27.1141 85.0532 25.3631 84.7252 23.6051 84.7252C23.0751 84.1182 22.5871 83.4132 21.8131 83.0882C21.4041 82.8402 20.8701 82.9182 20.4981 82.6062C18.7271 81.2822 16.8591 80.0802 15.2051 78.6072C16.7471 77.6712 18.4561 77.0462 20.1991 76.6012C20.9161 76.4092 21.6501 76.2922 22.3631 76.0862C22.9281 76.7692 23.6851 77.2932 24.5291 77.5692C26.3791 78.1922 28.3621 77.9712 30.2721 78.2112C30.0631 76.5062 29.6291 74.8392 29.2091 73.1772Z" fill="#5B5346"/>
<path d="M91.6869 76.2539C92.6539 77.3879 93.5219 78.6029 94.4939 79.7339C95.0959 80.4509 95.6829 81.1809 96.3039 81.8819C96.8179 82.4409 97.3969 82.9739 97.7179 83.6759C97.8269 83.9059 97.8559 84.2489 97.5929 84.3879C97.2329 84.5809 96.8039 84.5509 96.4099 84.5309C95.0449 84.4209 93.7199 84.0519 92.3719 83.8339C91.6989 81.4619 91.4789 78.9739 91.6159 76.5149C91.6339 76.4499 91.6699 76.3199 91.6869 76.2539Z" fill="#3E2503"/>
<path d="M40.3047 79.2612C40.4467 79.2502 40.5927 79.2273 40.7357 79.2583C41.0217 79.5873 41.2567 79.9763 41.3697 80.4013C41.4697 80.7663 41.3377 81.1873 41.0047 81.3843C40.2327 81.8703 39.2777 81.8663 38.3967 81.8753C36.6337 81.8413 34.8717 81.5952 33.1587 81.1792C33.8157 80.1632 35.0347 79.6862 36.1887 79.5232C37.5507 79.3002 38.9367 79.4072 40.3047 79.2612Z" fill="#686054"/>
</svg>
