<svg width="149" height="85" viewBox="0 0 149 85" fill="none" xmlns="http://www.w3.org/2000/svg">
<path d="M109.971 11.5762C112.088 9.35594 114.263 5.79895 117.751 7.47992C118.927 8.26016 120.281 8.82239 121.256 9.87228C119.145 13.108 120.2 17.0379 121.973 20.199C123.08 22.8782 125.146 24.9321 128.118 25.3165C128.244 27.9154 127.705 31.6043 131.296 30.5889C133.539 30.847 136.138 30.0381 136.677 27.5712C138.439 28.994 135.277 33.4918 133.7 35.5285C132.168 36.1997 135.524 39.4871 133.476 38.2077C131.755 35.6949 128.135 34.7196 125.656 36.7276C125.49 36.5956 125.163 36.326 124.997 36.194C126.138 34.9318 127.131 33.4058 126.804 31.6158C124.658 32.0805 123.281 34.0139 121.503 35.1499C122.317 32.4247 125.45 31.6617 127.303 29.8029C129.208 25.8902 124.985 26.1254 123.052 24.5592C122.025 23.0618 121.302 21.3178 119.914 20.0958C119.948 21.4899 120.183 22.861 120.436 24.2322C119.701 23.2167 119.093 22.1095 118.778 20.8932C118.99 19.4647 119.254 18.0247 118.892 16.6076C118.68 14.9439 118.41 13.2916 118.032 11.6565C115.353 11.2779 110.281 15.3053 109.971 11.5762ZM134.446 31.3634C132.288 31.6388 130.12 31.7765 127.94 31.7765C126.127 35.2761 129.357 34.186 130.797 35.1671C132.805 36.848 136.063 32.31 134.446 31.3634Z" fill="#60CAEE"/>
<path d="M121.255 9.87256C123.258 12.4715 125.667 14.6745 128.157 16.7915C127.222 19.2986 123.94 18.9027 121.973 20.1993C120.2 17.0382 119.144 13.1083 121.255 9.87256Z" fill="#479ECD"/>
<path d="M105.364 17.8984C106.81 15.7298 108.33 13.6014 109.971 11.5762C110.281 15.3053 115.353 11.2778 118.032 11.6565C118.41 13.2916 118.68 14.9438 118.892 16.6076C116.225 17.0666 114.016 18.6902 111.543 19.6368C111.543 15.4716 105.892 20.8014 105.364 17.8984Z" fill="#50BADF"/>
<path d="M111.543 19.6371C114.015 18.6905 116.224 17.0669 118.892 16.6079C119.253 18.025 118.989 19.465 118.777 20.8935C114.824 23.0793 110.648 24.8578 106.345 26.2118C105.175 26.6994 103.264 27.0551 103.855 28.7648C104.503 32.7234 109.552 30.1991 112.105 32.0751C110.263 32.1898 108.433 32.2472 106.597 32.3734C110.493 34.3297 113.539 38.4891 118.175 38.7301C110.969 39.1718 104.394 32.4996 98.4507 28.4607C100.573 24.8234 102.874 21.2951 105.364 17.8988C105.892 20.8017 111.543 15.472 111.543 19.6371Z" fill="#46A7D6"/>
<path d="M128.157 16.7915C128.507 17.1128 128.851 17.4341 129.19 17.7611C130.355 19.8551 131.972 21.7942 132.546 24.1522C131.278 25.0931 129.603 24.9726 128.117 25.3168C125.145 24.9324 123.08 22.8785 121.973 20.1993C123.94 18.9028 127.222 19.2986 128.157 16.7915Z" fill="#3579C1"/>
<path d="M129.191 17.7607C130.51 18.5123 132.019 19.1663 132.679 20.6408C132.656 23.974 135.432 28.8046 131.296 30.5889C127.705 31.6043 128.244 27.9154 128.118 25.3165C129.604 24.9722 131.279 25.0927 132.547 24.1518C131.973 21.7939 130.355 19.8548 129.191 17.7607Z" fill="#27589D"/>
<path d="M119.913 20.0957C121.301 21.3177 122.024 23.0618 123.051 24.5592C124.985 26.1254 129.207 25.8902 127.302 29.8028C125.449 31.6617 122.317 32.4247 121.502 35.1498C123.281 34.0139 124.658 32.0805 126.803 31.6158C127.13 33.4057 126.138 34.9318 124.996 36.1939C123.39 36.8767 117.991 40.5541 119.982 36.9398C120.756 34.9318 118.318 37.8692 118.175 38.7297C113.539 38.4888 110.493 34.3294 106.597 32.3731C108.433 32.2468 110.263 32.1895 112.105 32.0747C109.552 30.1987 104.503 32.723 103.855 28.7644C103.264 27.0548 105.174 26.6991 106.345 26.2114C110.648 24.8575 114.824 23.079 118.777 20.8932C119.093 22.1094 119.701 23.2167 120.435 24.2321C120.888 25.6721 121.514 27.1007 121.565 28.6325C120.567 29.2463 118.961 29.189 118.582 30.4913C120.039 30.1012 121.525 29.6479 122.747 28.7357C122.472 27.049 121.898 25.2591 120.435 24.2321C120.183 22.861 119.947 21.4898 119.913 20.0957Z" fill="#3C94CD"/>
<path d="M132.678 20.6406C135.002 23.1076 137.629 25.3049 139.591 28.0874C138.748 27.8349 137.262 26.5211 136.677 27.571C136.138 30.038 133.539 30.8469 131.295 30.5887C135.432 28.8045 132.655 23.9739 132.678 20.6406Z" fill="#103055"/>
<path d="M120.435 24.2319C121.898 25.2589 122.472 27.0488 122.747 28.7355C121.525 29.6477 120.039 30.101 118.582 30.4911C118.961 29.1888 120.567 29.2461 121.565 28.6323C121.514 27.1005 120.888 25.6719 120.435 24.2319Z" fill="#5DBAF2"/>
<path d="M136.677 27.5711C137.262 26.5212 138.748 27.835 139.592 28.0874C140.005 28.6267 140.378 29.1947 140.733 29.7741C141.112 33.6639 137.532 35.1211 136.035 38.0699C135.868 36.7619 134.882 35.9358 133.7 35.5284C135.277 33.4918 138.439 28.9939 136.677 27.5711Z" fill="#204F94"/>
<path d="M98.4508 28.4605C104.394 32.4994 110.969 39.1716 118.175 38.7298C118.318 37.8693 120.757 34.9319 119.982 36.9399C117.991 40.5542 123.39 36.8767 124.996 36.194C125.163 36.326 125.49 36.5956 125.656 36.7276C117.859 39.6764 118.536 48.2821 117.091 55.0633C120.728 57.4843 124.692 54.1052 128.49 54.0478C134.273 52.625 136.413 46.0446 134.881 40.7493C136.579 41.9483 135.748 44.444 136.425 46.211C137.188 50.8465 131.468 52.9348 129.299 56.3541C127.176 53.7266 122.937 56.1591 120.384 57.5188C119.661 57.2721 118.932 57.0541 118.192 56.8705C115.06 55.31 112.604 58.2646 109.913 59.3833C110.091 57.5819 112.684 57.0368 113.098 55.1379C114.01 53.6864 114.933 52.2349 115.92 50.8293C117.458 48.1558 119.156 42.5278 115.289 40.887C113.826 40.0895 112.231 39.5846 110.619 39.1831C110.332 39.0224 109.764 38.7011 109.477 38.5405C107.544 37.1521 105.593 35.7982 103.683 34.3869C102.989 33.8418 102.295 33.3025 101.623 32.7403C100.774 31.7994 99.7359 31.0823 98.6401 30.4684C98.4909 30.3307 98.1926 30.0496 98.0435 29.9119C98.0721 29.4472 98.4221 28.9252 98.4508 28.4605ZM115.576 52.5906C114.893 53.6692 114.233 54.765 113.608 55.8837C115.587 56.4287 117.332 52.1374 115.576 52.5906Z" fill="#6DD9F6"/>
<path d="M140.733 29.7744C143.063 33.1249 144.87 36.7851 146.924 40.302C147.079 47.4217 140.642 52.2752 136.557 57.4501C133.195 60.7546 129.471 63.8641 125.111 65.7746C123.998 63.7379 122.581 60.5883 119.724 61.2997C121.933 57.9722 126.362 58.5057 129.299 56.3543C131.468 52.935 137.188 50.8467 136.425 46.2111C136.689 43.4746 136.362 40.7724 136.035 38.0702C137.532 35.1214 141.112 33.6642 140.733 29.7744Z" fill="#0F3065"/>
<path d="M134.445 31.3638C136.063 32.3104 132.805 36.8484 130.797 35.1675C129.357 34.1864 126.127 35.2765 127.94 31.7768C130.12 31.7768 132.288 31.6391 134.445 31.3638Z" fill="#3D9BD2"/>
<path d="M107.94 47.8866C107.223 43.1707 103.901 38.9195 103.683 34.3872C105.594 35.7985 107.544 37.1525 109.478 38.5409C108.399 40.3595 109.615 41.8511 110.717 43.251C110.487 45.0754 108.812 46.349 107.94 47.8866Z" fill="#164382"/>
<path d="M125.656 36.7274C128.134 34.7194 131.754 35.6947 133.475 38.2075C135.524 39.4869 132.167 36.1996 133.699 35.5283C134.881 35.9357 135.868 36.7618 136.034 38.0698C136.361 40.772 136.688 43.4742 136.424 46.2108C135.747 44.4437 136.579 41.9481 134.881 40.7491C136.413 46.0444 134.273 52.6248 128.49 54.0476C124.692 54.105 120.728 57.4841 117.09 55.0631C118.536 48.2818 117.859 39.6762 125.656 36.7274Z" fill="#3C97CD"/>
<path d="M109.477 38.5405C109.764 38.7012 110.332 39.0224 110.619 39.1831C111.709 40.8124 113.648 41.2255 115.226 42.1836C115.455 45.0521 114.83 48.0756 115.92 50.8294C114.933 52.2349 114.01 53.6864 113.097 55.1379C111.462 55.0404 109.15 53.8012 108.536 55.878C108.513 54.088 108.628 52.2579 107.946 50.5712C107.905 49.6762 107.917 48.7812 107.94 47.8862C108.812 46.3487 110.487 45.0751 110.717 43.2507C109.615 41.8508 108.399 40.3592 109.477 38.5405Z" fill="#2866A2"/>
<path d="M110.619 39.1831C112.231 39.5847 113.826 40.0896 115.289 40.887C119.156 42.5278 117.458 48.1559 115.92 50.8294C114.83 48.0756 115.455 45.0521 115.226 42.1836C113.648 41.2255 111.709 40.8124 110.619 39.1831Z" fill="#3992C7"/>
<path d="M146.924 40.3018C147.492 40.9042 148.094 41.4779 148.714 42.0286C147.319 48.3853 142.632 53.7495 137.905 58.1154C137.572 57.949 136.895 57.6163 136.557 57.4499C140.641 52.275 147.078 47.4215 146.924 40.3018Z" fill="#3C66A5"/>
<path d="M115.576 52.5907C117.332 52.1375 115.588 56.4288 113.608 55.8838C114.234 54.7651 114.894 53.6693 115.576 52.5907Z" fill="#2E96C1"/>
<path d="M108.537 55.8781C109.151 53.8012 111.463 55.0404 113.098 55.138C112.685 57.037 110.092 57.582 109.914 59.3834L109.908 59.7907C108.973 60.3014 108.095 60.9095 107.24 61.5463C107.303 61.3053 107.441 60.8292 107.504 60.5882C108.072 59.0736 108.439 57.4959 108.537 55.8781Z" fill="#3F8BCB"/>
<path d="M120.384 57.5187C122.937 56.159 127.176 53.7265 129.299 56.3541C126.362 55.6886 121.606 60.3356 120.384 57.5187Z" fill="#2579AA"/>
<path d="M109.913 59.3834C112.604 58.2647 115.06 55.3101 118.192 56.8706C118.749 57.7426 119.454 58.6376 119.322 59.7449C116.477 56.9452 113.057 61.8848 109.908 59.7908L109.913 59.3834Z" fill="#134183"/>
<path d="M120.383 57.5188C121.605 60.3357 126.361 55.6887 129.299 56.3542C126.361 58.5056 121.932 57.972 119.723 61.2995C119.219 61.7814 118.697 62.2519 118.18 62.7223L118.306 62.183C118.645 61.3684 119.018 60.5709 119.322 59.7448C119.454 58.6375 118.748 57.7425 118.192 56.8705C118.932 57.0541 119.66 57.2721 120.383 57.5188Z" fill="#5EAFDF"/>
<path d="M136.557 57.4497C136.895 57.6161 137.572 57.9488 137.905 58.1152C134.933 63.0089 129.133 64.9538 124.44 67.8051C119.718 69.9164 114.607 70.9491 109.552 71.9301C111.296 70.5589 109.667 67.8912 111.314 66.1815C109.621 65.3726 107.975 63.9269 105.984 64.1334C106.133 63.881 106.437 63.3876 106.586 63.1352C108.227 62.3549 109.931 61.6034 111.727 61.2649C113.735 62.5328 116.575 65.3956 118.307 62.1828L118.181 62.7221C117.98 63.313 117.774 63.8982 117.556 64.4891C116.655 65.7742 113.511 66.1242 114.503 68.0461C115.427 71.0867 118.617 67.9256 120.59 67.5412C122.111 66.9847 123.62 66.4053 125.111 65.7742C129.471 63.8638 133.195 60.7543 136.557 57.4497Z" fill="#3F71C2"/>
<path d="M109.908 59.7906C113.057 61.8846 116.477 56.945 119.322 59.7447C119.018 60.5708 118.645 61.3683 118.307 62.183C116.574 65.3957 113.734 62.5329 111.726 61.265C109.931 61.6035 108.227 62.3551 106.586 63.1353C106.804 62.6075 107.022 62.074 107.24 61.5462C108.095 60.9093 108.973 60.3012 109.908 59.7906Z" fill="#295EA8"/>
<path d="M119.724 61.2994C122.581 60.588 123.998 63.7376 125.111 65.7743C123.619 66.4054 122.11 66.9848 120.59 67.5413C119.5 66.6004 118.479 65.585 117.555 64.4892C117.773 63.8983 117.98 63.3131 118.181 62.7222C118.697 62.2517 119.219 61.7813 119.724 61.2994Z" fill="#133C82"/>
<path d="M105.984 64.1332C107.974 63.9267 109.621 65.3725 111.313 66.1814C109.667 67.891 111.296 70.5588 109.552 71.9299C108.651 72.1479 107.762 72.4061 106.867 72.6241C104.108 72.5036 101.337 72.5266 98.5942 72.1709C101.262 69.6867 103.867 67.105 105.984 64.1332Z" fill="#5182E3"/>
<path d="M114.503 68.0462C113.511 66.1243 116.654 65.7744 117.555 64.4893C118.479 65.585 119.5 66.6005 120.59 67.5414C118.617 67.9258 115.427 71.0869 114.503 68.0462Z" fill="#2456AB"/>
<path opacity="0.84" fill-rule="evenodd" clip-rule="evenodd" d="M129.19 17.7609C128.852 17.4339 128.507 17.1126 128.157 16.7913C125.667 14.6743 123.258 12.4712 121.256 9.87228C120.585 9.15025 119.735 8.65886 118.887 8.16858C118.502 7.94596 118.117 7.72357 117.75 7.47992C114.815 6.06563 112.811 8.35916 110.988 10.4448C110.644 10.8381 110.307 11.224 109.971 11.5762C108.33 13.6014 106.81 15.7299 105.364 17.8985C102.874 21.2949 100.573 24.8232 98.4506 28.4605C98.4363 28.6928 98.3417 28.9395 98.247 29.1862C98.1524 29.4329 98.0578 29.6796 98.0435 29.912C98.118 29.9808 98.2299 30.0855 98.3418 30.1902C98.4537 30.2949 98.5655 30.3996 98.6401 30.4684C99.7359 31.0823 100.774 31.7994 101.623 32.7403C102.212 33.2334 102.818 33.7089 103.427 34.1861C103.512 34.2529 103.598 34.3199 103.683 34.3869C103.8 36.8111 104.804 39.1548 105.823 41.5323C106.709 43.5998 107.606 45.6927 107.94 47.8862C107.917 48.7812 107.905 49.6761 107.945 50.5711C108.528 52.0094 108.53 53.552 108.532 55.0851C108.533 55.3499 108.533 55.6143 108.536 55.8779C108.439 57.4958 108.072 59.0735 107.504 60.5881C107.472 60.7086 107.422 60.8878 107.372 61.0671C107.322 61.2464 107.271 61.4257 107.24 61.5462C107.131 61.8101 107.022 62.0754 106.913 62.3408C106.804 62.6061 106.695 62.8715 106.586 63.1354C106.511 63.2616 106.398 63.448 106.285 63.6345C106.171 63.8209 106.058 64.0074 105.983 64.1336C104.376 66.3909 102.486 68.4231 100.502 70.3584C99.8733 70.971 99.2355 71.5739 98.5941 72.1712C99.4774 72.2858 100.364 72.3611 101.252 72.4145C102.363 72.4814 103.477 72.5141 104.591 72.5468C105.35 72.5691 106.109 72.5913 106.867 72.6244C107.306 72.5174 107.744 72.4007 108.183 72.2838C108.638 72.1627 109.093 72.0413 109.552 71.9303C114.606 70.9493 119.718 69.9166 124.44 67.8053C125.619 67.0888 126.868 66.4295 128.125 65.7663C131.869 63.7903 135.68 61.7793 137.905 58.1153C142.632 53.7494 147.319 48.3853 148.713 42.0286C148.094 41.4778 147.491 40.9043 146.923 40.3019C146.266 39.1768 145.634 38.0371 145.003 36.8975C143.66 34.4748 142.317 32.0528 140.733 29.7742C140.377 29.1947 140.004 28.6267 139.591 28.0875C138.246 26.18 136.588 24.5475 134.93 22.9147C134.17 22.1656 133.409 21.4165 132.678 20.6407C132.108 19.366 130.903 18.7046 129.734 18.0632C129.551 17.9627 129.369 17.8627 129.19 17.7609ZM146.481 42.6923C146.138 42.3636 145.799 42.0244 145.468 41.6739L145.311 41.5077L145.196 41.3105C144.489 40.0998 143.833 38.9157 143.19 37.7554C141.876 35.3839 140.618 33.1119 139.091 30.9158L139.058 30.869L139.029 30.8205C138.693 30.2732 138.359 29.7683 138.004 29.3036L137.98 29.2723L137.957 29.24C137.071 27.9836 136.014 26.8307 134.848 25.6523C134.446 25.2454 134.015 24.8207 133.573 24.3855C132.79 23.6138 131.973 22.8092 131.222 22.012L130.991 21.766L130.853 21.4576C130.72 21.1616 130.481 20.8839 130.027 20.5627C129.669 20.3098 129.315 20.1152 128.868 19.8703C128.667 19.76 128.447 19.6394 128.2 19.4988L127.981 19.3742L127.8 19.1993C127.487 18.8964 127.165 18.5956 126.832 18.2901C124.352 16.1802 121.848 13.8993 119.735 11.176C119.442 10.8752 119.059 10.6 118.539 10.2839C118.389 10.1929 118.198 10.0816 117.986 9.95873C117.605 9.73774 117.16 9.47922 116.778 9.23377C116.308 9.0271 115.975 9.01985 115.717 9.06655C115.406 9.12299 115.032 9.29185 114.565 9.65062C114.093 10.0135 113.613 10.5021 113.077 11.0991C112.913 11.2822 112.731 11.4897 112.542 11.7065C112.195 12.1024 111.822 12.5294 111.476 12.8954C109.904 14.841 108.436 16.8956 107.028 19.0079L107.003 19.045L106.977 19.081C104.601 22.3224 102.398 25.6887 100.359 29.1597C101.278 29.7296 102.197 30.4177 103.008 31.2905C103.538 31.7318 104.085 32.1605 104.66 32.6114C104.745 32.6783 104.831 32.7457 104.918 32.8138L105.637 33.3781L105.681 34.2908C105.77 36.1479 106.502 38.0298 107.464 40.2824C107.534 40.4472 107.606 40.6141 107.678 40.7832C108.546 42.8053 109.543 45.1266 109.917 47.5855L109.944 47.7605L109.939 47.9374C109.919 48.7096 109.909 49.4477 109.932 50.1712C110.541 51.9043 110.537 53.7397 110.534 55.1546C110.534 55.4008 110.533 55.6343 110.536 55.8523L110.537 55.9253L110.533 55.9983C110.424 57.8056 110.021 59.5476 109.411 61.1963C109.378 61.3182 109.338 61.4622 109.302 61.5924L109.298 61.6064C109.246 61.793 109.201 61.9527 109.175 62.0529L109.14 62.1842L109.088 62.3097C108.98 62.5715 108.872 62.8351 108.763 63.1007L108.762 63.1019C108.654 63.3666 108.544 63.6333 108.434 63.8989L108.38 64.0304L108.308 64.1528C108.227 64.2897 108.109 64.4842 108 64.6633L107.994 64.6731C107.878 64.8643 107.772 65.0381 107.705 65.1511L107.662 65.2245L107.612 65.294C106.275 67.1722 104.762 68.8899 103.189 70.5017C103.639 70.5173 104.094 70.5306 104.554 70.5442C105.242 70.5643 105.943 70.5849 106.664 70.6141C106.994 70.5309 107.328 70.4419 107.678 70.3487L107.692 70.3448C108.136 70.2265 108.605 70.1017 109.081 69.9864L109.126 69.9757L109.171 69.967C114.208 68.9893 119.061 67.9999 123.512 66.0291C124.709 65.3074 125.963 64.646 127.164 64.012L127.172 64.0078C128.432 63.343 129.637 62.7064 130.784 62.0142C133.074 60.6308 134.952 59.1243 136.195 57.0772L136.341 56.8369L136.548 56.6461C140.925 52.6029 144.955 47.9583 146.481 42.6923ZM100.024 30.1516C100.023 30.1544 100.023 30.1558 100.023 30.1559C100.023 30.1559 100.023 30.1545 100.024 30.1516Z" fill="#0C3674"/>
<path d="M27.5435 16.2333C31.5566 15.0033 35.5837 13.7804 39.8077 14.8066C40.1732 15.0455 40.8901 15.5164 41.2555 15.7483C38.5637 17.66 35.7735 19.4171 33.1379 21.399C32.2875 21.6591 31.4512 21.9543 30.6148 22.2565C30.91 20.9633 32.2243 19.6209 31.4512 18.2926C30.9943 16.6339 28.935 16.5777 27.5435 16.2333Z" fill="#F1B9E9"/>
<path d="M41.2558 15.748C41.797 16.0573 42.3522 16.3595 42.9074 16.6477C44.2006 17.5051 45.5992 18.1798 46.8924 19.0443C46.0631 19.7893 45.2267 20.5343 44.4396 21.3285L43.8914 21.4128C40.8552 21.0825 38.3391 23.1347 35.4224 23.4931C35.4224 22.1437 34.094 21.9188 33.1382 21.3987C35.7738 19.4168 38.564 17.6597 41.2558 15.748Z" fill="#EC97E4"/>
<path d="M24.2329 16.5281L24.7389 16.3313C25.6737 16.3102 26.6084 16.2751 27.5432 16.2329C28.9348 16.5773 30.994 16.6335 31.4509 18.2922C32.224 19.6205 30.9097 20.9629 30.6145 22.2561C29.9468 22.5653 29.251 22.6848 28.5201 22.6075C25.252 21.0262 21.3091 21.0332 18.7017 18.1868C20.789 18.4327 22.3353 17.3363 24.2329 16.5281Z" fill="#F5C4F0"/>
<path d="M14.1196 19.6835C15.5253 18.8683 17.1066 18.4536 18.702 18.1865C21.3095 21.033 25.2523 21.0259 28.5205 22.6073C25.8708 22.7057 22.5113 21.0751 21.2884 24.3081L20.8386 23.9778C20.1428 23.4366 19.4259 22.9376 18.6528 22.5089C17.1277 21.5882 15.6377 20.6113 14.1196 19.6835Z" fill="#F1B4EE"/>
<path d="M46.8923 19.0444C47.56 19.3958 48.2277 19.7473 48.8953 20.0987C47.4756 20.7172 45.9997 21.2443 44.4395 21.3286C45.2266 20.5344 46.063 19.7894 46.8923 19.0444Z" fill="#D174C0"/>
<path d="M12.208 20.6469C12.8405 20.3166 13.4731 19.9933 14.1197 19.6841C15.6378 20.6118 17.1278 21.5887 18.6529 22.5094C16.1508 23.5637 12.8476 25.3348 10.3877 23.395C10.971 22.4602 11.5965 21.5606 12.208 20.6469Z" fill="#D792D2"/>
<path d="M48.895 20.0986C51.7906 21.3778 54.5878 22.8818 57.2726 24.5616C56.7876 25.0324 56.3097 25.5104 55.8529 26.0094C54.8689 26.656 54.1731 28.0897 52.9502 28.1741C48.2273 27.0214 43.5676 25.5174 38.7603 24.7302C40.4259 23.5635 42.176 22.5093 43.8909 21.4129L44.4391 21.3286C45.9993 21.2442 47.4753 20.7171 48.895 20.0986Z" fill="#A84CA9"/>
<path d="M30.615 22.2564C31.4514 21.9542 32.2877 21.659 33.1382 21.3989C34.094 21.919 35.4223 22.1439 35.4223 23.4933L34.6352 23.669C33.6582 23.8799 32.597 24.3016 32.4424 25.4261L31.9012 25.5948C32.7305 21.912 28.2254 24.4281 26.2435 24.2383C25.9764 25.9251 28.0778 25.7072 29.111 26.3468C28.3519 27.6048 27.7756 28.9683 27.4031 30.388C26.7425 32.0959 26.2013 33.8389 25.5898 35.5608C25.3931 35.364 25.0135 34.9564 24.8167 34.7596C24.9573 32.7073 25.2595 30.6692 25.3298 28.6169C24.5286 27.2956 23.4462 26.1992 22.0828 25.4683C21.886 25.1801 21.4854 24.5968 21.2886 24.3086C22.5115 21.0756 25.871 22.7062 28.5206 22.6078C29.2515 22.6851 29.9473 22.5656 30.615 22.2564Z" fill="#EEA1ED"/>
<path d="M35.4224 23.4932C38.3391 23.1347 40.8552 21.0825 43.8914 21.4128C42.1765 22.5092 40.4265 23.5634 38.7608 24.7301C37.2919 24.8566 35.5349 25.1448 34.6353 23.6689L35.4224 23.4932Z" fill="#D779D7"/>
<path d="M10.3879 23.3948C12.8478 25.3346 16.151 23.5635 18.6531 22.5093C19.4262 22.938 20.1431 23.437 20.8389 23.9782C20.2485 25.1941 19.7846 26.4802 19.0959 27.6469C16.1299 27.3096 13.1781 26.9441 10.1981 27.6258C9.74129 26.93 9.34771 26.1991 9.02441 25.426C9.45314 24.7302 9.90997 24.0555 10.3879 23.3948Z" fill="#CD80CD"/>
<path d="M26.243 24.238C28.2249 24.4278 32.73 21.9117 31.9007 25.5945C30.9941 25.9108 30.0523 26.1567 29.1105 26.3465C28.0773 25.7069 25.9759 25.9248 26.243 24.238Z" fill="#F8B6F8"/>
<path d="M32.4419 25.426C32.5965 24.3015 33.6578 23.8798 34.6347 23.6689C35.5343 25.1449 37.2914 24.8567 38.7603 24.7302C43.5676 25.5174 48.2273 27.0214 52.9503 28.174C54.1732 28.0897 54.869 26.6559 55.8529 26.0093C55.874 26.4802 55.8951 26.9511 55.9021 27.422C54.7354 28.3427 53.7655 29.4672 52.9643 30.7112C52.7253 29.9803 52.7464 28.9893 51.7695 28.8698C45.8728 27.408 39.9269 25.7493 33.8124 25.5103C33.468 25.4893 32.7863 25.4471 32.4419 25.426Z" fill="#EA8CEE"/>
<path d="M20.8389 23.9785L21.2887 24.3088C21.4855 24.597 21.8861 25.1803 22.0829 25.4685C22.2234 26.6141 22.4624 27.7456 22.5678 28.8983C20.7545 29.6714 18.9202 30.4164 17.0436 31.0348C13.8388 30.8662 10.5988 30.5921 7.50635 29.6784C7.57663 28.9475 7.65394 28.2236 7.75233 27.4926C8.14591 26.7898 8.57464 26.101 9.02444 25.4263C9.34774 26.1994 9.74132 26.9304 10.1982 27.6262C13.1781 26.9444 16.13 27.3099 19.0959 27.6472C19.7847 26.4806 20.2485 25.1944 20.8389 23.9785Z" fill="#C471C5"/>
<path opacity="0.96" d="M55.853 26.0093C56.3099 25.5103 56.7878 25.0324 57.2727 24.5615C57.589 24.6459 58.2075 24.8286 58.5238 24.92C59.2477 28.5676 60.0208 32.2153 60.1684 35.9472C60.077 36.5587 59.8872 37.7676 59.7959 38.379C59.093 34.8579 58.6784 31.2875 57.7717 27.8086C57.4414 27.9491 56.7878 28.2162 56.4575 28.3497C56.3169 28.1178 56.0358 27.6539 55.9022 27.422C55.8952 26.9511 55.8741 26.4802 55.853 26.0093Z" fill="#C96F9A"/>
<path d="M22.0823 25.4683C23.4458 26.1992 24.5282 27.2956 25.3294 28.6169C25.2591 30.6691 24.9569 32.7073 24.8163 34.7596L24.3876 34.5628C23.1014 33.3961 23.2912 36.3831 22.1105 35.9684C21.1968 35.111 21.4287 33.7686 21.1335 32.6581C16.2138 34.612 10.8442 33.628 6.10017 31.6039C5.96663 31.3017 5.70659 30.7113 5.58008 30.4161C6.29696 29.4392 7.01384 28.4623 7.7518 27.4924C7.6534 28.2233 7.57609 28.9472 7.50581 29.6782C10.5982 30.5918 13.8382 30.8659 17.0431 31.0346C18.9196 30.4161 20.754 29.6711 22.5673 28.898C22.4619 27.7454 22.2229 26.6139 22.0823 25.4683Z" fill="#BD65C0"/>
<path d="M29.1107 26.3465C30.0525 26.1567 30.9943 25.9107 31.9009 25.5945L32.4421 25.4258C32.7864 25.4469 33.4682 25.489 33.8126 25.5101C33.3136 26.8736 35.1268 27.724 34.1148 29.0453C31.8447 29.3546 29.7081 30.3174 27.4028 30.3877C27.7753 28.968 28.3516 27.6045 29.1107 26.3465Z" fill="#A73BC1"/>
<path d="M33.8129 25.5103C39.9274 25.7492 45.8733 27.4079 51.77 28.8697C52.7469 28.9892 52.7258 29.9802 52.9648 30.7111C52.4307 31.4983 51.9738 32.426 50.9618 32.665C50.4698 32.7142 49.4788 32.8055 48.9868 32.8547C46.7167 35.7223 42.9496 37.4582 41.7899 41.0918C41.3542 42.2374 40.8692 43.3619 40.3632 44.4794C38.9927 45.2174 37.7417 46.1451 36.4766 47.0518C34.8531 47.7686 30.2144 45.0839 31.1492 48.6753C28.3168 47.4313 25.6602 45.8148 22.9824 44.2686C22.8559 43.7907 22.6099 42.8278 22.4834 42.3428C22.6872 41.6119 22.9402 40.9021 23.2354 40.1992C23.3268 40.7193 23.4955 41.7525 23.5868 42.2655C27.0658 42.8981 30.5448 43.9875 34.1292 43.7204C39.2106 43.2143 40.7006 37.8799 43.6383 34.5345C44.7699 33.4732 45.3321 30.6971 43.1112 30.4652C40.4616 28.5324 37.1724 29.1509 34.1151 29.0455C35.1272 27.7241 33.3139 26.8737 33.8129 25.5103Z" fill="#9D2BB7"/>
<path d="M52.9645 30.7111C53.7657 29.4671 54.7356 28.3426 55.9023 27.4219C56.0358 27.6538 56.317 28.1177 56.4575 28.3496C56.4646 29.7131 56.4716 31.0766 56.4927 32.4471C53.4143 31.9902 54.7145 36.0666 52.3952 36.9662C50.0267 39.2223 46.3861 40.5225 45.4092 43.9382C45.36 46.7706 42.0708 47.2907 40.145 48.6541C42.2605 45.3228 41.6069 40.5717 45.0929 38.0977C47.4122 36.657 48.7686 34.2182 50.9615 32.6649C51.9735 32.426 52.4304 31.4982 52.9645 30.7111Z" fill="#943198"/>
<path d="M56.458 28.3498C56.7883 28.2162 57.442 27.9492 57.7723 27.8086C58.6789 31.2876 59.0936 34.8579 59.7964 38.379C60.3516 42.097 61.5886 45.7446 61.3637 49.5399C60.7171 48.2045 60.7031 46.3209 58.7492 46.4896C58.5946 46.1804 58.2924 45.5549 58.1378 45.2456C57.9128 40.9373 57.9831 36.5658 56.4932 32.4472C56.4721 31.0767 56.465 29.7132 56.458 28.3498Z" fill="#CE5DC9"/>
<path d="M27.4026 30.3878C29.7078 30.3175 31.8444 29.3547 34.1145 29.0454C33.0252 31.7302 29.6446 32.0746 28.3092 34.5977C30.488 36.6007 33.489 35.8628 36.1105 35.4762C36.722 38.4421 33.9388 40.143 32.0763 41.8579C32.1818 42.2022 32.3786 42.898 32.477 43.2424C30.1155 42.2936 26.4678 41.3167 26.0813 38.4351C25.3574 38.7233 24.6827 39.2363 23.8604 39.0817C24.5351 37.9642 25.2098 36.8257 25.5893 35.5606C26.2007 33.8387 26.7419 32.0957 27.4026 30.3878Z" fill="#832A83"/>
<path d="M34.1149 29.0452C37.1722 29.1506 40.4614 28.5321 43.111 30.4649C45.3319 30.6968 44.7697 33.473 43.6381 34.5342C40.7003 37.8797 39.2103 43.2141 34.1289 43.7201C33.7143 43.6006 32.892 43.3617 32.4773 43.2422C32.3789 42.8978 32.1821 42.202 32.0767 41.8576C33.9392 40.1428 36.7224 38.4419 36.1109 35.476C33.4894 35.8626 30.4883 36.6005 28.3096 34.5975C29.6449 32.0744 33.0255 31.73 34.1149 29.0452Z" fill="#7D257E"/>
<path d="M4.58944 31.7443C4.90571 31.2945 5.23603 30.8447 5.58041 30.416C5.70692 30.7112 5.96697 31.3016 6.1005 31.6038C10.8446 33.6279 16.2141 34.6119 21.1339 32.658C21.4291 33.7685 21.1971 35.1109 22.1108 35.9683C23.2915 36.383 23.1018 33.396 24.3879 34.5627C23.1861 38.2806 22.0686 42.8911 17.6619 43.7134C18.2593 43.8048 19.4471 43.9875 20.0375 44.0789C16.446 44.9363 12.8125 45.6673 9.24212 46.6301C8.52524 46.8129 7.80836 47.0167 7.09148 47.2275C6.36055 47.3611 5.65773 47.586 4.98302 47.9093C4.6316 48.1061 3.91472 48.4996 3.55629 48.7034C3.06431 48.2396 2.56531 47.7898 2.05225 47.354C3.56331 44.7606 7.81539 46.4122 9.9098 44.367C12.953 41.8439 19.2995 41.0497 18.5194 36.0597C16.5304 36.4743 14.7241 37.4302 12.8265 38.1119C10.458 37.887 8.32142 36.6009 6.1005 35.8207C5.3766 34.5486 5.06033 33.1149 4.58944 31.7443Z" fill="#B857BD"/>
<path d="M4.58943 31.7441C5.06032 33.1146 5.37659 34.5484 6.1005 35.8205C8.32142 36.6006 10.458 37.8868 12.8265 38.1117C14.7241 37.43 16.5304 36.4741 18.5194 36.0595C19.2995 41.0495 12.953 41.8437 9.90979 44.3668C7.81538 46.412 3.56331 44.7604 2.05224 47.3538C1.10343 45.5757 0.449806 43.657 0 41.6961C0.245988 40.5154 0.47089 39.3276 0.681737 38.1328C1.56027 35.7713 3.1135 33.7612 4.58943 31.7441Z" fill="#AF4CB1"/>
<path d="M48.9868 32.8548C49.4788 32.8056 50.4697 32.7142 50.9617 32.665C48.7689 34.2183 47.4125 36.6571 45.0932 38.0979C41.6072 40.5718 42.2608 45.3229 40.1453 48.6542C39.4706 49.7436 39.6322 51.0649 39.4846 52.2808C39.3019 52.4073 38.9294 52.6463 38.7467 52.7728C38.3812 52.9836 37.6503 53.4124 37.2918 53.6232L36.8842 53.3842C36.4063 52.0981 35.4575 51.0228 34.0518 50.7557C29.3429 49.0408 24.6902 46.9745 20.5928 44.0508C21.2394 43.5026 21.8649 42.9262 22.4834 42.3429C22.6099 42.8279 22.8559 43.7907 22.9824 44.2686C25.6601 45.8148 28.3168 47.4313 31.1492 48.6753C34.354 50.7135 37.3621 47.9233 40.1242 46.4896C40.1875 45.9905 40.2999 44.9855 40.3632 44.4795C40.8692 43.362 41.3541 42.2375 41.7899 41.0919C42.9496 37.4583 46.7167 35.7223 48.9868 32.8548Z" fill="#B94EC0"/>
<path d="M52.3952 36.9664C54.7145 36.0667 53.4143 31.9904 56.4927 32.4472C57.9827 36.5657 57.9124 40.9373 58.1373 45.2456C54.3842 46.848 50.4625 48.2607 47.2365 50.8471C45.1421 52.7377 42.1621 53.2929 39.4844 52.2809C39.632 51.065 39.4703 49.7437 40.145 48.6543C42.0708 47.2908 45.36 46.7707 45.4092 43.9384C46.3861 40.5226 50.0267 39.2224 52.3952 36.9664Z" fill="#9E39A3"/>
<path d="M24.3876 34.5625L24.8164 34.7593C25.0131 34.9561 25.3927 35.3637 25.5895 35.5605C25.2099 36.8256 24.5352 37.9642 23.8605 39.0816C23.7059 39.3628 23.3896 39.925 23.235 40.1991C22.9398 40.902 22.6868 41.6118 22.483 42.3427C21.8645 42.9261 21.239 43.5024 20.5924 44.0506L20.0372 44.0787C19.4468 43.9873 18.259 43.8046 17.6616 43.7132C22.0683 42.8909 23.1858 38.2804 24.3876 34.5625Z" fill="#DD7FE0"/>
<path opacity="0.92" d="M60.1684 35.9468C61.2226 41.0914 62.9375 46.3696 62.4666 51.6619C62.0871 50.9591 61.7216 50.2492 61.3632 49.5394C61.5881 45.7441 60.3511 42.0965 59.7959 38.3785C59.8873 37.7671 60.077 36.5582 60.1684 35.9468Z" fill="#C17B7B"/>
<path d="M23.8609 39.0817C24.6832 39.2363 25.3579 38.7232 26.0818 38.4351C26.4683 41.3166 30.116 42.2936 32.4775 43.2424C32.8921 43.3618 33.7144 43.6008 34.1291 43.7203C30.5447 43.9874 27.0657 42.898 23.5868 42.2654C23.4954 41.7524 23.3267 40.7192 23.2354 40.1991C23.39 39.925 23.7062 39.3628 23.8609 39.0817Z" fill="#8A2895"/>
<path d="M20.0375 44.0789L20.5928 44.0508C24.6902 46.9745 29.3429 49.0408 34.0518 50.7557C35.4575 51.0228 36.4063 52.0981 36.8842 53.3843C35.7597 54.0449 35.9213 55.4857 35.9635 56.5962C35.6261 56.4064 34.9514 56.0409 34.6141 55.8582C30.4534 56.5048 26.3559 57.6715 22.1179 57.805C18.6178 56.1464 14.9561 54.7899 11.6107 52.8361C10.5494 51.5358 11.5685 50.1724 11.9762 48.8511C11.1468 48.0217 10.184 47.333 9.24219 46.6301C12.8125 45.6673 16.4461 44.9363 20.0375 44.0789Z" fill="#5E1A5E"/>
<path d="M36.4765 47.0518C37.7416 46.1452 38.9926 45.2175 40.3631 44.4795C40.2998 44.9855 40.1874 45.9906 40.1241 46.4896C37.362 47.9233 34.354 50.7135 31.1491 48.6753C30.2143 45.0839 34.853 47.7687 36.4765 47.0518Z" fill="#AD39C1"/>
<path d="M58.1371 45.2456C58.2917 45.5548 58.5939 46.1804 58.7486 46.4896C58.5237 46.8621 58.0738 47.6071 57.856 47.9796C54.5176 49.4977 50.9613 50.9385 47.2363 50.8471C50.4623 48.2607 54.384 46.848 58.1371 45.2456Z" fill="#AC43B1"/>
<path d="M7.0918 47.2273C7.80868 47.0164 8.52556 46.8126 9.24243 46.6299C10.1842 47.3327 11.1471 48.0215 11.9764 48.8508C11.5688 50.1721 10.5497 51.5356 11.6109 52.8358C14.9564 54.7897 18.6181 56.1461 22.1181 57.8048C26.3562 57.6712 30.4536 56.5045 34.6143 55.8579C34.9517 56.0407 35.6264 56.4061 35.9637 56.5959L36.1605 57.0668C35.9427 57.4112 35.4999 58.0929 35.275 58.4303C31.5219 58.5216 30.0249 62.8229 26.7146 64.0388C21.5629 65.1422 16.1371 62.591 13.1712 58.374C11.0065 54.7334 7.48538 51.6761 7.0918 47.2273Z" fill="#6B1E70"/>
<path d="M58.7487 46.4896C60.7026 46.3209 60.7166 48.2045 61.3632 49.5398C61.7217 50.2497 62.0871 50.9595 62.4667 51.6624L62.4245 52.1403C62.2488 52.3371 61.9114 52.7377 61.7428 52.9415C61.1173 52.1684 60.3442 53.1523 59.7116 53.3562C56.1272 55.2116 52.2828 57.292 48.1291 55.8793C48.0869 56.3853 48.0026 57.3833 47.9534 57.8894C47.602 57.6715 46.8921 57.2498 46.5337 57.039C46.7516 55.9636 46.2596 54.2628 47.8058 54.1363C51.2496 52.3863 56.4716 52.1122 57.8562 47.9796C58.074 47.6071 58.5238 46.8621 58.7487 46.4896Z" fill="#DE63DB"/>
<path opacity="0.97" d="M2.05225 47.354C2.56531 47.7898 3.06431 48.2396 3.55629 48.7034C4.99707 52.5971 5.75612 56.7015 7.35153 60.553C7.8435 63.0691 8.52524 65.6204 10.0433 67.7359L10.1558 68.3473C9.76924 68.3825 8.99613 68.4527 8.60255 68.4879C8.34954 67.8342 8.10355 67.1666 7.86459 66.4989C6.39569 59.9837 3.486 53.8762 2.05225 47.354Z" fill="#B85CA3"/>
<path d="M4.98291 47.9088C5.65762 47.5855 6.36044 47.3606 7.09138 47.2271C7.48496 51.6759 11.0061 54.7332 13.1708 58.3738C16.1367 62.5907 21.5625 65.142 26.7142 64.0386C30.0245 62.8227 31.5215 58.5214 35.2746 58.43C35.1129 58.8025 34.7896 59.5546 34.628 59.927C33.1169 63.0616 29.7996 64.5938 27.8809 67.3067C22.8979 68.0236 18.2452 64.5868 13.2762 63.8418C9.02414 59.2875 7.88557 53.2292 4.98291 47.9088Z" fill="#792184"/>
<path d="M3.55615 48.7034C3.91459 48.4995 4.63147 48.106 4.98288 47.9092C7.88554 53.2295 9.02411 59.2879 13.2762 63.8422C18.2451 64.5872 22.8978 68.024 27.8808 67.3071C29.7995 64.5942 33.1169 63.062 34.6279 59.9274C34.4944 61.1714 34.3117 62.4084 34.15 63.6454L33.8408 64.1022C31.2825 67.3984 28.5837 70.9407 24.0013 70.786C20.7683 69.8794 17.4088 69.2258 14.4077 67.6655C11.4629 65.8311 9.53014 63.1464 7.35139 60.553C5.75599 56.7015 4.99694 52.597 3.55615 48.7034Z" fill="#852197"/>
<path d="M47.2366 50.847C50.9616 50.9384 54.5179 49.4976 57.8563 47.9795C56.4717 52.1121 51.2498 52.3862 47.8059 54.1362C46.2597 54.2627 46.7517 55.9636 46.5338 57.0389C45.4304 57.2708 43.9966 56.9826 43.3219 58.1142C41.6633 60.1453 39.5126 61.6986 37.3409 63.1394C36.9543 62.05 36.617 60.9325 36.2304 59.8431C36.1812 58.9154 36.1602 57.9947 36.1602 57.067C36.6521 56.4134 37.0176 55.6824 37.4252 54.9726C38.6903 57.1935 40.4685 53.9675 38.7465 52.7727C38.9293 52.6462 39.3018 52.4073 39.4845 52.2808C42.1623 53.2928 45.1422 52.7376 47.2366 50.847ZM40.5177 55.3029C39.3931 56.336 38.1632 57.2286 36.863 58.0299C36.863 59.4355 39.2666 59.8572 39.0347 58.0931C39.864 58.2758 40.6863 58.7256 41.5578 58.5218C43.0197 57.5168 42.9354 53.7918 40.5177 55.3029Z" fill="#CC58CE"/>
<path d="M59.7116 53.356C60.3442 53.1522 61.1173 52.1683 61.7428 52.9414C60.7096 56.2095 59.571 59.4425 58.2989 62.6263C56.2186 64.1092 53.843 65.1002 51.6362 66.3864C49.591 67.0611 47.6231 67.9396 45.7606 69.0219C40.5456 70.7649 35.3518 75.8042 29.5254 73.3865C30.5023 72.8593 31.7323 72.7399 32.5475 71.9597C33.0887 71.3202 33.6369 70.6736 34.0727 69.9497C34.41 69.2328 34.7122 68.5018 34.9652 67.7498C35.7594 68.6916 35.7735 70.8914 37.4392 70.4697C39.4352 69.6826 41.3258 68.6705 43.3358 67.9044L43.9754 67.6303C46.7094 66.4004 49.2958 64.7417 51.4605 62.6684C52.1211 60.4897 49.7456 59.1965 48.108 58.4374L47.9534 57.8892C48.0026 57.3832 48.0869 56.3852 48.1291 55.8792C52.2828 57.2918 56.1272 55.2115 59.7116 53.356Z" fill="#ED77E7"/>
<path d="M37.2915 53.6234C37.6499 53.4125 38.3809 52.9838 38.7463 52.7729C40.4683 53.9677 38.6901 57.1937 37.425 54.9728C37.3899 54.6354 37.3196 53.9607 37.2915 53.6234Z" fill="#80207F"/>
<path d="M35.9638 56.5962C35.9217 55.4857 35.76 54.0449 36.8845 53.3843L37.2922 53.6232C37.3203 53.9606 37.3906 54.6353 37.4257 54.9727C37.0181 55.6825 36.6526 56.4134 36.1606 57.0671L35.9638 56.5962Z" fill="#9A3E9B"/>
<path d="M40.5175 55.3028C42.9352 53.7918 43.0195 57.5167 41.5576 58.5218C40.6861 58.7256 39.8638 58.2758 39.0345 58.093C39.2664 59.8571 36.8628 59.4354 36.8628 58.0298C38.163 57.2286 39.393 56.336 40.5175 55.3028Z" fill="#B847BB"/>
<path d="M35.2744 58.4304C35.4993 58.093 35.9421 57.4113 36.16 57.0669C36.16 57.9946 36.1811 58.9153 36.2303 59.843C35.6399 61.1643 35.1268 62.5489 34.1499 63.6453C34.3116 62.4083 34.4943 61.1714 34.6278 59.9274C34.7895 59.5549 35.1128 58.8029 35.2744 58.4304Z" fill="#9E32AC"/>
<path d="M43.3218 58.1144C43.9965 56.9828 45.4303 57.271 46.5337 57.0391C46.8922 57.2499 47.602 57.6716 47.9534 57.8895L48.1081 58.4377C47.7356 60.3704 47.5107 62.3243 47.1944 64.2641C44.6713 63.6456 42.2465 60.9889 39.6531 62.9568C39.0206 65.7962 43.2937 65.3183 43.9755 67.6306L43.3359 67.9047C41.6632 67.6095 40.0115 67.223 38.374 66.8013C37.7133 65.6908 37.5095 64.4046 37.3408 63.1396C39.5125 61.6988 41.6632 60.1455 43.3218 58.1144Z" fill="#B243B5"/>
<path d="M48.1085 58.4375C49.746 59.1965 52.1216 60.4897 51.4609 62.6685C49.2962 64.7418 46.7098 66.4005 43.9759 67.6304C43.2941 65.3181 39.021 65.796 39.6535 62.9566C42.2469 60.9887 44.6717 63.6454 47.1948 64.2639C47.5111 62.3241 47.736 60.3703 48.1085 58.4375Z" fill="#C652C9"/>
<path d="M36.2304 59.8433C36.617 60.9326 36.9543 62.0501 37.3409 63.1395C37.5096 64.4046 37.7134 65.6907 38.374 66.8012C40.0116 67.2229 41.6632 67.6094 43.336 67.9046C41.3259 68.6707 39.4353 69.6828 37.4393 70.4699C35.7736 70.8916 35.7595 68.6918 34.9653 67.75C34.7123 68.502 34.4101 69.233 34.0728 69.9498C34.0025 67.996 33.9252 66.0492 33.8408 64.1024L34.1501 63.6455C35.127 62.5491 35.64 61.1646 36.2304 59.8433Z" fill="#D65DD7"/>
<path d="M7.35156 60.5527C9.53031 63.1461 11.4631 65.8309 14.4079 67.6653C12.9531 67.6864 11.4982 67.7215 10.0434 67.7356C8.52528 65.6201 7.84354 63.0688 7.35156 60.5527Z" fill="#9D28B3"/>
<path d="M24.0015 70.7859C28.5839 70.9405 31.2827 67.3983 33.841 64.1021C33.9253 66.0489 34.0026 67.9957 34.0729 69.9495C33.6372 70.6734 33.089 71.32 32.5478 71.9596C29.6311 72.0791 26.7706 71.6644 24.0015 70.7859Z" fill="#9F2BB8"/>
<path opacity="0.97" d="M10.043 67.7358C11.4978 67.7218 12.9527 67.6866 14.4075 67.6655C17.4085 69.2258 20.768 69.8794 24.001 70.7861C26.7701 71.6646 29.6306 72.0793 32.5473 71.9598C31.7321 72.7399 30.5021 72.8594 29.5252 73.3865C27.5151 73.021 25.5261 72.508 23.6004 71.8333C21.6958 71.0953 19.6997 70.4557 17.6334 70.7087C15.019 70.3714 12.4677 69.6334 10.1554 68.3473L10.043 67.7358Z" fill="#C15CB6"/>
<path opacity="0.97" fill-rule="evenodd" clip-rule="evenodd" d="M27.8872 18.2198L27.6338 18.2313C26.8061 18.2686 25.9736 18.3007 25.138 18.3225L24.9887 18.3806C24.6213 18.538 24.2672 18.7077 23.8765 18.8949C23.8266 18.9188 23.7762 18.9429 23.7251 18.9674C23.2812 19.1797 22.7841 19.4146 22.2643 19.6169C21.2732 20.0027 20.1234 20.3022 18.7802 20.2033C17.3911 20.4517 16.1657 20.8094 15.1231 21.4141L15.0543 21.454L14.9826 21.4883C14.5151 21.7119 14.0517 21.945 13.5828 22.1868C13.5086 22.2967 13.4351 22.4055 13.3623 22.5133C12.9161 23.1733 12.4932 23.7988 12.0844 24.454L12.0482 24.512L12.0081 24.5674C11.5544 25.1946 11.1259 25.828 10.727 26.4754L10.7083 26.5058L10.6884 26.5356C10.2613 27.1762 9.86087 27.8204 9.49726 28.4697L9.42878 28.592L9.34391 28.7035C8.61836 29.6571 7.91186 30.6198 7.19347 31.5988L7.19253 31.6001L7.16664 31.6353L7.13978 31.6687C6.83079 32.0534 6.52693 32.4664 6.2256 32.895L6.21475 32.9104L6.20361 32.9256C6.09231 33.0777 5.982 33.228 5.87282 33.3768C4.51383 35.2287 3.33091 36.8406 2.61812 38.6682C2.44009 39.6694 2.25153 40.6688 2.04837 41.6657C2.46181 43.3436 3.03347 44.9446 3.81687 46.4127L3.94657 46.6558L4.00572 46.9249C4.69365 50.0543 5.73999 53.1039 6.83577 56.2764L6.88967 56.4325C7.9436 59.4835 9.03841 62.6529 9.7883 65.9384C9.83875 66.0789 9.88944 66.2191 9.94037 66.3589C9.95204 66.3578 9.96342 66.3568 9.97449 66.3558L9.99249 66.3542L10.6063 66.3095L11.1281 66.5998C13.1126 67.7036 15.3299 68.3707 17.6606 68.6947C20.1444 68.4632 22.4387 69.2396 24.2921 69.9565C26.1021 70.5888 27.9789 71.0726 29.8835 71.4189L30.0944 71.4573L30.2923 71.5394C32.4568 72.4376 34.5789 72.026 37.069 70.9333C38.0818 70.4888 39.0751 69.9692 40.1317 69.4165C40.3912 69.2807 40.6546 69.143 40.923 69.0038C42.1812 68.3516 43.5353 67.678 44.9303 67.1924C46.8031 66.1195 48.7721 65.2402 50.8113 64.5535C51.6244 64.0869 52.4669 63.6503 53.2629 63.2379C53.5438 63.0923 53.8188 62.9498 54.0848 62.81C55.01 62.3237 55.8689 61.8489 56.6649 61.3227C57.8273 58.3712 58.8768 55.3732 59.8361 52.3388L59.9537 51.967L60.2023 51.6665C60.2735 51.5805 60.377 51.4566 60.4882 51.3249C60.6741 48.9943 60.4003 46.6106 59.9252 44.1251C59.6825 42.8553 59.392 41.5817 59.0904 40.2808C59.0583 40.1425 59.0261 40.0039 58.9938 39.865C58.7249 38.7073 58.4504 37.5252 58.2093 36.3488L58.1766 36.1892L58.1702 36.0264C58.0453 32.8691 57.4486 29.7639 56.8004 26.5058C56.7855 26.5018 56.7712 26.4979 56.7576 26.4943L56.467 26.4168L56.2121 26.2573C53.6015 24.6239 50.8885 23.1658 48.0872 21.9283L48.0245 21.9006L45.868 20.7656L45.7808 20.7073C45.2023 20.3206 44.5901 19.9696 43.9088 19.5808L43.8577 19.5517C43.2378 19.1981 42.5582 18.8104 41.8929 18.3747C41.3453 18.089 40.7982 17.7904 40.2634 17.4848L40.2232 17.4618L40.1841 17.437C39.8919 17.2516 39.3904 16.9237 39.0129 16.6766C35.5195 15.9347 32.1074 16.9264 28.1297 18.1455L27.8872 18.2198ZM39.8079 14.8066C35.5839 13.7804 31.5568 15.0033 27.5436 16.2333C26.6089 16.2755 25.6741 16.3106 24.7393 16.3317L24.2333 16.5285C23.8123 16.7077 23.4087 16.9012 23.0126 17.0911C21.6231 17.7571 20.3264 18.3785 18.7021 18.1871C17.1066 18.4542 15.5253 18.8688 14.1197 19.6841C13.4731 19.9933 12.8405 20.3168 12.208 20.6471C12.047 20.8877 11.885 21.1272 11.7231 21.3667C11.2701 22.0369 10.8174 22.7065 10.3876 23.3951C9.90973 24.0558 9.45302 24.7304 9.0243 25.4262C8.57449 26.1009 8.14583 26.7897 7.75225 27.4925C7.01447 28.4621 6.29778 29.4388 5.58108 30.4155C5.23669 30.8442 4.90582 31.2948 4.58955 31.7446C4.46954 31.9086 4.34902 32.0726 4.2284 32.2367C2.86548 34.0909 1.48883 35.9638 0.681737 38.1333C0.47089 39.3281 0.245988 40.5158 0 41.6966C0.449806 43.6574 1.10355 45.5761 2.05236 47.3543C2.77765 50.6536 3.88064 53.8469 4.98374 57.0405C6.06125 60.16 7.13887 63.2798 7.8647 66.4991C8.10366 67.1668 8.34965 67.8345 8.60266 68.4881C8.99614 68.453 9.76893 68.3827 10.1556 68.3476C12.4679 69.6338 15.0193 70.3716 17.6338 70.709C19.7 70.456 21.6961 71.0955 23.6007 71.8335C25.5264 72.5082 27.5157 73.0212 29.5257 73.3867C33.6154 75.0837 37.3934 73.1068 41.0858 71.1746C42.6539 70.3541 44.2065 69.5417 45.7609 69.0221C47.6234 67.9398 49.5913 67.0613 51.6365 66.3866C52.4582 65.9077 53.3033 65.4697 54.1479 65.032C55.5715 64.2942 56.9935 63.5572 58.2993 62.6265C59.5714 59.4427 60.7099 56.2098 61.7431 52.9417C61.9118 52.7378 62.2491 52.3372 62.4248 52.1404L62.4668 51.6625C62.8325 47.5524 61.8799 43.4508 60.9422 39.4136C60.6725 38.2524 60.4041 37.0965 60.1686 35.9473C60.0315 32.4808 59.3547 29.0871 58.679 25.6986C58.6272 25.439 58.5755 25.1795 58.524 24.9201C58.4493 24.8985 58.3577 24.8718 58.2572 24.8425C57.9324 24.7479 57.5145 24.6262 57.2729 24.5618C54.5881 22.8821 51.791 21.378 48.8953 20.0989L46.8923 19.0446C46.2365 18.6062 45.5536 18.2166 44.871 17.8272C44.2077 17.4488 43.5447 17.0706 42.9073 16.648C42.3521 16.3598 41.7969 16.0576 41.2557 15.7483C40.9535 15.5565 40.4109 15.2013 40.0255 14.949C39.9449 14.8962 39.8711 14.8479 39.8079 14.8066Z" fill="#720D72"/>
<path d="M58.1375 2.62944C60.0773 1.37842 62.1858 0.324186 64.5051 0.0219727C64.5543 1.11135 64.6176 2.20072 64.6316 3.29712C64.6035 5.44776 64.1607 7.67571 62.7481 9.36248C60.4709 11.485 60.4569 14.8656 58.8966 17.4379C63.6898 14.9359 68.9821 11.6256 74.5836 13.6427C77.6409 14.8023 76.6569 18.717 76.0103 21.1348C75.5324 21.9922 75.0615 22.8496 74.5976 23.7211C74.2814 24.3045 73.9792 24.8878 73.677 25.4782C72.4681 25.0214 71.2663 24.5645 70.0574 24.1077C70.7743 20.6006 72.9952 17.7472 74.5414 14.5985C72.1237 14.4087 69.8325 15.1467 67.7803 16.3696C62.2209 19.462 55.6917 19.5956 49.788 21.697C47.7077 22.2733 46.794 24.3607 45.7749 26.0475C45.8522 24.5926 45.5289 22.9902 46.1966 21.6478C48.2769 19.5253 51.2288 18.6608 53.7309 17.1779C56.1204 15.9479 58.004 13.9871 59.6767 11.9208C56.4367 13.734 53.6676 16.8475 49.8091 17.213C46.4707 17.4379 44.2568 14.6055 42.3662 12.2862C47.6233 9.0673 52.9367 5.93974 58.1375 2.62944Z" fill="#CBA1A6"/>
<path d="M64.5049 0.0218565C69.2981 -0.055454 74.1054 0.064025 78.8846 0.513831C78.6878 1.65943 78.8987 3.22673 77.5985 3.78898C75.0121 5.1876 72.0391 5.64443 69.1716 6.08018C67.4427 5.55307 66.0581 4.35124 64.6314 3.29701C64.6173 2.20061 64.5541 1.11123 64.5049 0.0218565Z" fill="#C77176"/>
<path d="M78.8844 0.513672C79.8754 0.605039 80.8664 0.703435 81.8644 0.780745C85.9407 1.24461 90.0522 1.343 94.1427 1.65224C90.2069 4.25972 86.257 8.35717 81.1194 7.67543C77.1554 7.03586 73.1986 6.25573 69.1714 6.08002C72.0389 5.64427 75.0118 5.18744 77.5982 3.78883C78.8985 3.22657 78.6876 1.65927 78.8844 0.513672Z" fill="#A66A70"/>
<path d="M81.8643 0.780877C86.1866 1.06903 90.6003 0.260789 94.8735 1.18149C97.6075 2.47468 99.0904 5.34219 100.981 7.57717C97.987 10.768 93.5803 11.4849 89.4337 11.9347C88.5692 11.0351 87.6555 10.1776 86.7348 9.3272C89.6796 7.27495 92.1747 4.65343 94.1426 1.65238C90.0521 1.34313 85.9406 1.24474 81.8643 0.780877Z" fill="#823B40"/>
<path d="M81.1196 7.67553C86.2572 8.35727 90.2071 4.25981 94.1429 1.65234C92.175 4.65339 89.68 7.27492 86.7352 9.32716C87.6559 10.1776 88.5695 11.035 89.434 11.9346C91.0294 13.6144 92.4351 15.4558 93.8899 17.255C95.2745 18.9277 96.6801 20.5793 98.0717 22.2521C98.901 24.2832 99.7795 26.3074 100.419 28.4158C101.136 30.5243 99.9131 32.6046 99.133 34.5093C96.6239 39.668 94.1148 44.8548 90.9521 49.6481C88.9631 50.0276 86.9741 50.4282 84.9922 50.878C78.9901 51.2646 73.2621 53.113 67.4216 54.3851C63.3734 55.3831 59.6765 52.9021 56.4997 50.7374C52.7045 47.8629 49.2326 44.5878 45.7114 41.3829C46.098 40.4973 46.4775 39.6118 46.857 38.7262C47.2295 38.7403 47.9886 38.7754 48.3681 38.7895C49.83 36.2945 50.4906 32.7171 53.4003 31.5153C57.4275 30.2783 59.9576 34.3476 63.1555 35.8728C66.0722 35.6971 68.1104 32.7944 68.771 30.1658C69.2208 26.7782 69.0451 23.3204 69.6566 19.9398C66.7961 20.6145 64.4838 22.4489 61.9326 23.7631C59.7679 24.0232 57.5259 23.6437 55.4385 24.4589C52.339 25.5764 49.0639 26.0543 45.7747 26.0473C46.7938 24.3605 47.7074 22.2731 49.7878 21.6968C55.6915 19.5954 62.2207 19.4619 67.78 16.3694C69.8323 15.1465 72.1235 14.4086 74.5412 14.5983C72.995 17.747 70.7741 20.6004 70.0572 24.1075C71.266 24.5643 72.4679 25.0212 73.6767 25.478C71.6807 30.215 69.2911 34.8045 65.6997 38.5505C67.9487 42.395 70.7178 46.5838 75.1456 48.0386C79.6156 48.3057 84.1628 48.2073 88.6187 47.8137C91.4652 46.2394 92.8708 43.0486 94.5084 40.3849C96.1952 37.0184 98.4934 33.8065 99.133 30.0393C98.5426 25.9981 95.5204 22.8705 93.3276 19.5813C91.3597 17.1004 89.2513 14.5562 86.3908 13.0802C84.3245 12.019 82.4761 14.1485 81.0282 15.3714C80.5925 13.6917 80.1849 11.9979 79.6156 10.3603C76.6567 7.85124 72.756 7.20464 69.1716 6.08012C73.1988 6.25583 77.1557 7.03596 81.1196 7.67553ZM55.4736 34.5936C52.4866 35.5003 50.4625 39.1409 51.6714 42.1138C52.5639 44.4753 54.1453 46.7314 56.4084 47.9543C57.568 48.2776 59.311 48.643 60.0139 47.3569C61.7006 45.0938 60.4356 42.156 59.8311 39.7313C59.1986 37.5806 58.1233 34.685 55.4736 34.5936Z" fill="#D498A0"/>
<path d="M62.748 9.36272C64.1607 7.67595 64.6035 5.448 64.6316 3.29736C66.0583 4.3516 67.4429 5.55342 69.1718 6.08054C72.7562 7.20505 76.6569 7.85165 79.6158 10.3607C74.1619 8.62476 68.3636 8.09764 62.748 9.36272Z" fill="#F3EDED"/>
<path d="M89.4336 11.9346C93.5802 11.4848 97.9869 10.768 100.981 7.57715C102.267 9.25689 103.574 10.9226 104.889 12.5742C104.221 13.6074 103.877 15.0552 102.633 15.5542C99.8494 16.6576 96.8203 16.8193 93.8895 17.255C92.4346 15.4558 91.029 13.6144 89.4336 11.9346Z" fill="#762327"/>
<path d="M62.748 9.36245C68.3635 8.09737 74.1618 8.62449 79.6157 10.3605C80.185 11.998 80.5926 13.6918 81.0284 15.3716C79.3205 17.2551 77.6126 19.1528 76.0102 21.1347C76.6568 18.717 77.6408 14.8023 74.5835 13.6426C68.982 11.6255 63.6897 14.9358 58.8965 17.4379C60.4567 14.8655 60.4708 11.485 62.748 9.36245Z" fill="#DCB2BA"/>
<path d="M49.809 17.2127C53.6675 16.8472 56.4366 13.7337 59.6766 11.9204C58.0039 13.9867 56.1203 15.9476 53.7307 17.1775C51.2287 18.6605 48.2768 19.5249 46.1965 21.6475C45.5288 22.9899 45.8521 24.5923 45.7748 26.0471C45.838 28.4648 45.7748 30.8755 45.6904 33.2862C44.7416 34.7621 43.8561 36.4138 42.345 37.3907C38.7747 38.227 35.0567 38.0092 31.4302 38.473C33.0959 30.8755 35.7947 23.5521 37.7767 16.0319C39.1472 14.6052 40.7074 13.3682 42.3661 12.2859C44.2567 14.6052 46.4706 17.4376 49.809 17.2127Z" fill="#E8D1D5"/>
<path d="M81.0285 15.3716C82.4763 14.1487 84.3247 12.0192 86.391 13.0804C89.2515 14.5564 91.36 17.1006 93.3279 19.5815C89.2937 22.2101 84.4653 22.9832 79.9391 24.3678C78.1329 25.0354 76.2844 24.3818 74.5977 23.7212C75.0615 22.8497 75.5324 21.9922 76.0103 21.1348C77.6128 19.1528 79.3206 17.2552 81.0285 15.3716Z" fill="#AD6C75"/>
<path d="M104.889 12.5742C107.904 16.3765 111.018 20.0944 114.033 23.8967C111.215 24.9228 108.375 26.2652 105.325 26.3144C102.647 25.5413 100.455 23.6366 98.0719 22.2521C96.6803 20.5794 95.2747 18.9277 93.8901 17.255C96.8209 16.8193 99.8501 16.6576 102.633 15.5542C103.877 15.0552 104.222 13.6074 104.889 12.5742Z" fill="#660A0F"/>
<path d="M79.9389 24.3678C84.4651 22.9832 89.2935 22.2101 93.3277 19.5815C95.5205 22.8708 98.5426 25.9983 99.133 30.0395C98.4934 33.8067 96.1952 37.0186 94.5084 40.3851C92.8708 43.0488 91.4652 46.2396 88.6187 47.8139C84.1628 48.2075 79.6156 48.3059 75.1456 48.0388C70.7179 46.584 67.9487 42.3952 65.6997 38.5507C69.2911 34.8047 71.6807 30.2152 73.6767 25.4782C73.979 24.8879 74.2812 24.3045 74.5974 23.7212C76.2842 24.3818 78.1326 25.0354 79.9389 24.3678Z" fill="#A75E67"/>
<path d="M61.9327 23.7633C64.4839 22.449 66.7962 20.6147 69.6567 19.9399C69.0452 23.3205 69.2209 26.7784 68.7711 30.166C68.1105 32.7946 66.0723 35.6972 63.1556 35.8729C59.9577 34.3478 57.4276 30.2785 53.4004 31.5154C50.4907 32.7173 49.8301 36.2946 48.3682 38.7896C47.9887 38.7756 47.2296 38.7404 46.8571 38.7264C46.4284 36.9201 45.9786 35.1209 45.6904 33.2865C45.7748 30.8759 45.838 28.4652 45.7748 26.0475C49.064 26.0545 52.3391 25.5766 55.4386 24.4591C57.526 23.6438 59.768 24.0233 61.9327 23.7633Z" fill="#C78C93"/>
<path d="M98.0715 22.252C100.454 23.6365 102.647 25.5412 105.325 26.3143C108.375 26.2651 111.214 24.9227 114.033 23.8966C114.658 24.6415 115.298 25.3725 115.93 26.1104C112.929 29.8916 113.646 34.9028 112.423 39.2884C111.531 36.5333 110.968 33.462 108.958 31.2481C106.716 30.2149 104.299 31.5784 102.556 32.97C99.2101 35.5915 97.5936 39.6819 96.1669 43.5475C95.3164 45.9582 94.3536 48.6359 95.3656 51.159C96.5183 54.2444 97.945 57.3228 100.117 59.8319C101.579 61.5538 104.031 60.5277 105.943 60.4925C105.205 61.7506 104.341 62.9313 103.469 64.105C102.028 63.1351 100.595 62.1652 99.1609 61.1883C98.3948 64.0629 98.1067 67.6051 95.2532 69.2567C90.6567 72.1453 85.238 73.6283 79.8473 74.0078C78.0551 71.4917 76.4527 68.8491 75.0049 66.1291C76.7198 66.7055 78.5822 67.0569 80.2971 66.2767C85.2731 64.4424 90.4951 63.3811 95.4781 61.603C97.706 57.4563 93.9389 53.6541 91.4298 50.7233C91.3104 50.4562 91.0714 49.9221 90.9519 49.648C94.1146 44.8547 96.6237 39.6679 99.1328 34.5092C99.9129 32.6045 101.136 30.5242 100.419 28.4157C99.7794 26.3072 98.9008 24.2831 98.0715 22.252Z" fill="#A10C18"/>
<path d="M115.931 26.1104L116.317 26.5883C116.408 26.8694 116.598 27.4387 116.697 27.7268C114.152 37.988 113.197 48.5655 111.046 58.9181C109.542 61.7505 107.932 64.7094 105.248 66.614C101.663 69.1934 97.6291 71.0769 94.0517 73.6703C90.9382 75.7155 87.5436 78.1895 83.6359 77.8732C82.0756 76.9244 80.9511 75.4344 79.8477 74.0077C85.2383 73.6282 90.6571 72.1452 95.2535 69.2566C98.107 67.605 98.3951 64.0628 99.1612 61.1882C100.595 62.1651 102.029 63.135 103.47 64.1049C104.341 62.9312 105.205 61.7505 105.943 60.4924C108.059 53.415 109.816 46.2181 112.423 39.2883C113.646 34.9027 112.93 29.8915 115.931 26.1104Z" fill="#B90D1D"/>
<path d="M102.556 32.9703C104.299 31.5787 106.717 30.2152 108.959 31.2484C110.969 33.4623 111.531 36.5336 112.424 39.2886C109.816 46.2185 108.059 53.4154 105.944 60.4928C104.032 60.5279 101.579 61.5541 100.117 59.8321C97.9456 57.3231 96.5189 54.2447 95.3662 51.1593C94.3542 48.6362 95.317 45.9584 96.1675 43.5478C97.5942 39.6822 99.2107 35.5918 102.556 32.9703Z" fill="#65070D"/>
<path d="M42.345 37.3906C43.8561 36.4137 44.7416 34.7621 45.6904 33.2861C45.9786 35.1205 46.4284 36.9197 46.8571 38.726C46.4776 39.6115 46.0981 40.4971 45.7115 41.3826C49.2327 44.5875 52.7046 47.8627 56.4998 50.7372C59.6766 52.9019 63.3734 55.3829 67.4217 54.3849C73.2622 53.1128 78.9902 51.2643 84.9923 50.8778C79.3275 53.4009 73.1638 54.3778 67.2671 56.2052C65.763 56.6198 64.259 57.0696 62.7761 57.5476C58.6364 54.5395 55.2137 50.695 51.0811 47.6729C48.1995 45.6418 45.824 42.3033 42.0569 42.0082C38.7184 41.6919 35.3519 41.8957 32.0135 41.5794C31.7675 40.5533 31.5707 39.5131 31.4302 38.473C35.0567 38.0091 38.7747 38.227 42.345 37.3906Z" fill="#F9F7FA"/>
<path d="M55.4737 34.5938C58.1234 34.6851 59.1987 37.5807 59.8312 39.7314C60.4356 42.1561 61.7007 45.0939 60.0139 47.357C59.3111 48.6432 57.5681 48.2777 56.4085 47.9544C54.1454 46.7315 52.564 44.4754 51.6714 42.114C50.4626 39.141 52.4867 35.5004 55.4737 34.5938Z" fill="#C3818A"/>
<path d="M32.0132 41.5796C35.3516 41.8959 38.7181 41.692 42.0565 42.0083C45.8236 42.3035 48.1992 45.6419 51.0808 47.6731C55.2133 50.6952 58.6361 54.5396 62.7757 57.5477C64.7506 59.8038 66.6202 62.3269 67.3862 65.2717C67.4284 67.6332 65.1583 69.1021 63.9002 70.8521C60.7867 70.2196 57.4343 70.2337 54.5527 68.7718C50.4763 66.0308 50.139 60.7666 49.6189 56.3318C47.7213 59.0939 46.414 62.1793 45.2473 65.2998C40.6509 59.9022 39.5123 52.389 34.3747 47.406C33.5032 45.5013 32.6528 43.5756 32.0132 41.5796Z" fill="#6A070D"/>
<path d="M34.375 47.4058C39.5126 52.3888 40.6512 59.9019 45.2477 65.2996C46.4143 62.1791 47.7216 59.0937 49.6192 56.3316C50.1393 60.7664 50.4767 66.0306 54.553 68.7716C57.4346 70.2334 60.7871 70.2194 63.9006 70.8519C62.8604 72.4262 62.0592 74.1341 61.2439 75.8279C60.0491 75.5257 58.8262 75.2938 57.7017 74.7737C56.8864 74.0146 56.5701 72.8901 56.0852 71.9202C54.7287 72.7355 53.3793 74.3941 51.6293 73.7475C48.3963 72.6652 45.5288 70.7254 42.345 69.5166C41.2767 66.5085 39.9273 63.6199 38.5287 60.7524C37.1863 56.2894 35.5557 51.9179 34.375 47.4058Z" fill="#990A15"/>
<path d="M84.9918 50.8779C86.9737 50.4281 88.9627 50.0275 90.9517 49.6479C91.0712 49.922 91.3102 50.4562 91.4296 50.7233C88.4567 52.5998 85.7719 54.8699 82.8903 56.8589C79.3903 58.7636 75.2296 58.4262 71.4062 59.0798C70.0709 58.0537 68.6582 57.14 67.2666 56.2053C73.1633 54.3779 79.327 53.401 84.9918 50.8779Z" fill="#60050A"/>
<path d="M91.4301 50.7231C93.9392 53.6539 97.7064 57.4562 95.4784 61.6028C90.4954 63.381 85.2734 64.4422 80.2974 66.2766C78.5826 67.0567 76.7201 66.7053 75.0052 66.129C73.8174 63.7675 72.7983 61.3217 71.4067 59.0797C75.2301 58.4261 79.3908 58.7634 82.8909 56.8588C85.7724 54.8698 88.4572 52.5997 91.4301 50.7231Z" fill="#870A12"/>
<path d="M62.7758 57.548C64.2587 57.07 65.7628 56.6202 67.2668 56.2056C68.6584 57.1403 70.0711 58.054 71.4064 59.0801C72.798 61.3221 73.8171 63.7679 75.0049 66.1294C76.4527 68.8493 78.0551 71.492 79.8473 74.0081C80.9508 75.4348 82.0753 76.9248 83.6355 77.8736C87.5432 78.1898 90.9379 75.7159 94.0514 73.6707C97.6287 71.0773 101.663 69.1937 105.247 66.6144C107.932 64.7097 109.542 61.7508 111.046 58.9185C110.821 61.6384 110.596 64.4778 108.909 66.7549C103.315 70.4588 98.2402 74.8655 92.6809 78.6186C90.1437 80.2983 87.8033 82.2451 85.484 84.213C83.755 84.6066 81.9839 84.8175 80.2198 85.0002C77.9638 84.192 75.7147 83.3626 73.3743 82.8144C63.8862 79.7079 54.4684 76.3414 44.8468 73.6356C43.4692 72.6657 42.9562 70.9929 42.3447 69.517C45.5285 70.7259 48.396 72.6657 51.629 73.748C53.379 74.3946 54.7285 72.7359 56.0849 71.9207C56.5699 72.8906 56.8861 74.0151 57.7014 74.7741C58.8259 75.2942 60.0488 75.5262 61.2436 75.8284C62.0589 74.1346 62.8601 72.4267 63.9003 70.8524C65.1583 69.1024 67.4285 67.6335 67.3863 65.272C66.6202 62.3271 64.7507 59.804 62.7758 57.548ZM65.8541 58.9606C66.3953 61.533 69.0168 62.9667 70.8793 64.5832C71.2378 63.4938 72.5169 62.1444 71.4064 61.0902C70.1905 59.551 67.6182 56.4797 65.8541 58.9606ZM65.6995 70.6837C64.6031 72.0683 64.7226 73.9589 64.4274 75.6175C65.9244 76.8264 67.4214 78.4007 69.4948 78.4218C70.6896 78.3796 72.4536 78.6537 73.0089 77.2832C74.541 73.8816 74.8011 69.6857 72.8472 66.3895C70.0992 67.0571 67.555 68.5401 65.6995 70.6837ZM75.7428 73.6566C74.4496 75.4278 73.796 77.8455 75.3212 79.715C76.1505 81.3807 78.0762 80.3545 79.3835 80.0102C79.2429 77.8174 78.7931 75.6527 77.7951 73.6848C77.282 73.6777 76.2559 73.6637 75.7428 73.6566Z" fill="#E31626"/>
<path d="M65.854 58.9606C67.6181 56.4797 70.1904 59.551 71.4063 61.0902C72.5168 62.1444 71.2376 63.4938 70.8792 64.5832C69.0167 62.9667 66.3952 61.5329 65.854 58.9606Z" fill="#94040F"/>
<path d="M65.6994 70.6839C67.5548 68.5403 70.099 67.0573 72.8471 66.3896C74.8009 69.6859 74.5409 73.8817 73.0087 77.2834C72.4535 78.6539 70.6894 78.3798 69.4946 78.422C67.4213 78.4009 65.9243 76.8266 64.4272 75.6177C64.7224 73.959 64.603 72.0685 65.6994 70.6839Z" fill="#A70B19"/>
<path d="M75.7429 73.6562C76.256 73.6633 77.2821 73.6773 77.7952 73.6844C78.7932 75.6523 79.243 77.817 79.3835 80.0098C78.0763 80.3542 76.1506 81.3803 75.3212 79.7146C73.7961 77.8451 74.4497 75.4274 75.7429 73.6562Z" fill="#AF0B18"/>
<path fill-rule="evenodd" clip-rule="evenodd" d="M59.2115 4.31656C55.7255 6.53537 52.1726 8.68261 48.6431 10.8157C46.8979 11.8705 45.1584 12.9217 43.4356 13.9765C42.0329 14.8937 40.7284 15.9142 39.5735 17.0578C38.7822 20.0095 37.8874 22.9343 37.0046 25.8194C36.8014 26.4835 36.5989 27.1455 36.3984 27.8052C35.3051 31.4028 34.2658 34.9553 33.4612 38.5519C33.5842 39.3829 33.7453 40.2153 33.941 41.0405C34.5387 42.8886 35.3355 44.6981 36.1938 46.5739L36.266 46.7318L36.31 46.8997C37.0201 49.6135 37.8657 52.1826 38.7327 54.8169C39.2887 56.5063 39.8535 58.2226 40.3972 60.0211C41.7702 62.8402 43.1262 65.7494 44.2126 68.7992C44.3116 69.0392 44.3993 69.2592 44.4814 69.4654C44.6861 69.9795 44.8564 70.4072 45.0829 70.8422C45.3104 71.2792 45.5346 71.5923 45.7778 71.8198C52.6231 73.7585 59.3879 76.03 66.096 78.2824C68.711 79.1605 71.3173 80.0356 73.9164 80.8871C76.1793 81.4238 78.352 82.2041 80.4034 82.9408C80.4241 82.9483 80.4448 82.9557 80.4656 82.9631C81.8874 82.811 83.2523 82.6376 84.5721 82.3644C86.7726 80.5023 89.0706 78.6109 91.57 76.9555C94.1977 75.1811 96.7212 73.2535 99.299 71.2843L99.5683 71.0786C102.128 69.1238 104.743 67.1341 107.489 65.2975C108.606 63.6101 108.827 61.4793 109.048 58.8073L109.063 58.6314L109.088 58.5115C109.999 54.1238 110.693 49.6967 111.396 45.2142C111.513 44.4697 111.63 43.7236 111.748 42.9759C112.545 37.9407 113.397 32.8508 114.616 27.8148C114.587 27.7292 114.559 27.6433 114.532 27.5613L114.394 27.3907C114.199 27.1634 113.999 26.9319 113.797 26.6976C113.368 26.2001 112.928 25.6902 112.501 25.1826L112.483 25.1612L112.466 25.1392C110.968 23.2503 109.444 21.3806 107.911 19.4988L107.908 19.4953C106.378 17.6184 104.839 15.7295 103.323 13.8176C102.013 12.1721 100.708 10.5095 99.4225 8.83072C98.9153 8.22812 98.4435 7.59562 98.0079 7.00843L97.9291 6.90222C97.5028 6.32742 97.1092 5.79663 96.6971 5.29374C95.8828 4.30002 95.1066 3.5572 94.2148 3.08733C92.3929 2.72559 90.4934 2.6952 88.4346 2.74336C87.9832 2.75392 87.5194 2.76861 87.0466 2.78359C85.3408 2.83762 83.5172 2.89539 81.7317 2.77636L81.721 2.77564L81.7103 2.77481C80.9367 2.71489 80.1623 2.64216 79.408 2.57133C79.1702 2.549 78.9345 2.52686 78.7013 2.50537L78.6975 2.50502C74.0481 2.06742 69.3566 1.94716 64.6566 2.01972C62.8041 2.28461 61.0237 3.1479 59.2216 4.3101L59.2115 4.31656ZM64.5052 0.0218583C69.2985 -0.0554521 74.1058 0.0640059 78.8849 0.513812C79.1255 0.535994 79.3661 0.558584 79.6068 0.581183C80.3574 0.651671 81.109 0.722246 81.8648 0.780787C83.542 0.892604 85.233 0.839335 86.9242 0.78606C89.5914 0.702043 92.259 0.61801 94.874 1.18144C96.8806 2.13057 98.2133 3.92774 99.5279 5.70047C100.004 6.34309 100.479 6.98249 100.982 7.57712C102.268 9.25687 103.575 10.9225 104.889 12.5741C106.397 14.4752 107.929 16.3553 109.461 18.2353C110.993 20.1154 112.525 21.9954 114.033 23.8966C114.451 24.3942 114.875 24.8856 115.299 25.3771C115.51 25.6213 115.721 25.8656 115.931 26.1106L116.317 26.5885C116.409 26.8696 116.598 27.4389 116.697 27.727C115.244 33.5873 114.309 39.5508 113.373 45.5166C112.671 49.9967 111.968 54.4782 111.046 58.9183L111.042 58.972C110.818 61.6756 110.585 64.4926 108.91 66.7547C106.012 68.6729 103.254 70.7797 100.496 72.8865C97.9289 74.8477 95.3615 76.809 92.6813 78.6183C90.1441 80.2981 87.8037 82.2449 85.4844 84.2128C83.7555 84.6064 81.9844 84.8172 80.2203 85C80.0625 84.9434 79.9047 84.8868 79.7469 84.8302C77.6491 84.0771 75.5515 83.3241 73.3748 82.8142C70.7174 81.9441 68.0655 81.0537 65.4131 80.1631C58.5953 77.8738 51.7741 75.5834 44.8472 73.6353C43.654 72.7952 43.1093 71.4277 42.5875 70.1175C42.507 69.9152 42.4269 69.7142 42.3451 69.5168C41.2768 66.5087 39.9274 63.6201 38.5288 60.7526C38.0042 59.0085 37.4356 57.2783 36.867 55.5483C35.9807 52.8514 35.0944 50.1548 34.3751 47.4061C33.5036 45.5014 32.6531 43.5756 32.0135 41.5796C31.7675 40.5535 31.5707 39.5134 31.4302 38.4732C32.4125 33.9927 33.7541 29.6076 35.0961 25.2211C36.0297 22.1696 36.9635 19.1174 37.7767 16.0321C39.1472 14.6054 40.7076 13.3685 42.3663 12.2861C44.1187 11.2131 45.8773 10.1503 47.636 9.08745C51.1532 6.96181 54.6704 4.83618 58.1376 2.62933C60.0774 1.3783 62.1859 0.324072 64.5052 0.0218583Z" fill="#220607"/>
</svg>
