<svg width="162" height="95" viewBox="0 0 162 95" fill="none" xmlns="http://www.w3.org/2000/svg">
<path d="M68.7504 65.9149L68.9121 65.5333L68.7566 65.1492C66.3645 59.2422 63.8009 54.4351 58.683 45.2182L58.4316 44.7654L57.9167 44.7095C54.2946 44.3161 52.0002 42.8636 47.455 39.4867L47.3305 39.3943L47.184 39.3438C43.5964 38.1093 40.9924 38.014 38.1289 37.9092C37.2503 37.8771 36.3474 37.844 35.3841 37.7769L35.173 37.7622L34.9741 37.8342C26.6372 40.8531 21.9398 41.7976 13.4354 42.536L13.3248 42.5456L13.219 42.5793C8.80464 43.9826 6.432 45.0675 2.63609 47.598L2.04415 47.9926L2.22284 48.6812C3.80443 54.7762 4.90162 57.157 7.25187 62.257C7.34604 62.4613 7.44222 62.67 7.54053 62.8835L7.60913 63.0325L7.72172 63.1518C8.02405 63.472 8.31843 63.7918 8.60937 64.1078C10.3602 66.0096 11.9862 67.7757 14.4673 68.6918L20.8203 78.4987L20.9898 78.7604L21.278 78.8794L30.6167 82.7345L30.7919 82.8068L30.9814 82.81L38.1641 82.9308L38.4411 82.9355L38.6809 82.797L41.0213 81.4458C43.157 81.8396 44.9417 81.5466 47.2124 80.5333C48.2217 80.0828 49.3314 79.4887 50.6111 78.754C51.8535 78.7595 52.7913 78.6419 53.7727 78.4804C54.0335 78.4374 54.2942 78.392 54.5629 78.3453C55.3756 78.2038 56.2623 78.0494 57.4522 77.9107L57.8744 77.8614L58.132 77.5232C58.5341 76.9951 58.8706 76.7108 59.2197 76.4159C59.2913 76.3554 59.3634 76.2944 59.4368 76.2308C59.7872 75.9269 60.1248 75.5875 60.3794 75.0643C61.9202 74.7906 62.9821 74.146 64.1674 73.4266C64.5898 73.1702 65.0278 72.9042 65.5089 72.6422L65.7594 72.5057L65.9003 72.2575C66.9867 70.3424 67.5444 68.9295 68.1069 67.5044C68.3121 66.9845 68.518 66.463 68.7504 65.9149Z" fill="#1B4A5D" stroke="#1A2225" stroke-width="2"/>
<path d="M15.6385 55.4689C14.0235 54.8642 12.896 54.2956 11.3497 53.3216C10.4752 55.8097 11.098 58.147 13.0356 63.0177C12.7798 59.1871 13.1383 57.3895 15.6385 55.4689Z" fill="#2785A6"/>
<path d="M26.6944 67.5794C29.2031 69.819 29.7371 72.5772 30.4839 77.8391L30.5309 77.6326C31.1798 74.7845 31.5616 73.1086 32.6028 67.3412C30.9983 67.7079 29.3427 67.8022 26.6944 67.5794Z" fill="#2785A6"/>
<path d="M46.8049 79.6199C47.8284 79.1631 48.9774 78.5437 50.3491 77.7507C50.5628 69.768 51.94 66.1996 55.3325 60.5104C53.0059 63.6043 50.6585 65.8426 46.2212 68.7531C47.7227 74.703 47.7007 76.8821 46.8049 79.6199Z" fill="#2785A6"/>
<path d="M65.0305 71.7639C66.4756 69.2166 66.9236 67.6615 67.8297 65.5244C65.4633 59.6808 62.9278 54.9224 57.8087 45.7035C58.1998 47.7915 58.3534 48.9771 58.1388 51.2032C58.6619 53.7012 58.5176 54.9915 57.6688 57.165C60.5995 59.3252 62.2131 62.1087 65.0305 71.7639Z" fill="#2785A6"/>
<path d="M57.1435 51.1078L57.1289 51.2595L57.1601 51.4087C57.4113 52.6081 57.4874 53.4496 57.4219 54.2219C57.3587 54.9685 57.1584 55.7091 56.7758 56.7026C55.9798 57.8992 55.2554 58.9497 54.5333 59.9099C52.3331 62.8358 50.123 64.9696 45.9445 67.7384C42.5856 67.5619 40.425 67.2263 35.6522 65.5656L35.32 65.45L34.9886 65.5678C34.0066 65.9169 33.1938 66.1809 32.3801 66.3669C30.9696 66.6893 29.4921 66.7923 27.0981 66.6092C25.4839 65.2448 24.2015 64.5103 21.6526 63.641C20.1749 61.1969 19.3668 59.3716 18.1155 55.6871L17.9563 55.2184L17.4872 55.0608C16.9298 54.8735 16.4382 54.7011 15.9892 54.533C14.4988 53.9749 13.4538 53.4556 12.0413 52.5754C11.3877 51.6815 11.0205 50.9913 10.5896 49.6859C11.6303 48.58 12.4866 47.8549 14.3909 46.6817C19.4717 46.2014 23.2137 45.5534 26.4925 44.4674C29.734 43.3939 32.4791 41.9069 35.5927 39.7956C36.5349 39.8555 37.3928 39.8874 38.2052 39.9176C40.954 40.0197 43.1816 40.1025 46.388 41.1859C50.5843 44.2995 53.1951 46.027 56.9556 46.6012C57.2362 48.2069 57.3209 49.2674 57.1435 51.1078Z" fill="#57B7DD" stroke="#61C0E8" stroke-width="2"/>
<path d="M11.3498 53.322C10.0175 53.1819 9.16914 52.6236 7.58967 51.3294C9.19946 53.0346 9.68594 53.625 9.91473 54.1505C9.90349 57.4843 10.666 58.9671 12.4159 61.4241C10.9739 57.6042 10.5765 55.522 11.3498 53.322Z" fill="#0A3648"/>
<path d="M18.1691 58.7988L17.0868 67.7789L18.2307 68.5543L18.5771 59.8187C18.4415 59.4929 18.3061 59.1545 18.1691 58.7988Z" fill="#0A3648"/>
<path d="M27.0037 77.7196C26.9831 74.8683 26.6674 73.0629 25.9886 69.7655C27.308 73.0828 28.0521 74.9071 29.4808 77.3339C28.4232 77.0662 27.8667 77.0886 27.0037 77.7196Z" fill="#0A3648"/>
<path d="M39.9991 78.9202C39.3655 76.0869 39.2675 74.5139 39.2056 71.7192C39.754 73.6441 40.0214 74.0518 41.0254 77.2832C40.7788 77.1398 39.9109 78.2702 39.9991 78.9202Z" fill="#0A3648"/>
<path d="M57.6688 57.1657C56.8447 58.4066 56.0897 59.5041 55.3325 60.5111L58.4615 72.0907L59.0173 65.6339L62.6389 73.1662C63.3349 72.7737 64.0604 72.2931 65.0305 71.7646C62.2131 62.1094 60.5995 59.3258 57.6688 57.1657Z" fill="#1D6583"/>
<path d="M13.522 43.5328C9.18676 44.911 6.90059 45.9575 3.19082 48.4306L9.46049 49.4341C10.7994 47.9655 11.702 47.1487 14.0664 45.7079C24.4017 44.7487 28.9461 43.1391 35.3146 38.775C26.8896 41.8258 22.1062 42.7875 13.522 43.5328Z" fill="#1D6583"/>
<path d="M35.3235 66.5098C40.3375 68.2545 42.5753 68.5758 46.2213 68.7535C50.164 66.1673 52.4567 64.1119 54.5509 61.5154C54.3144 60.5788 54.2805 59.8439 54.6744 57.5662C52.7263 61.7054 51.1947 63.2634 47.3994 64.2035C47.2142 63.3582 47.2235 62.6509 47.3482 61.0998C46.3327 62.4632 45.8751 63.2959 45.4209 64.9976C39.0252 63.2786 35.0792 61.2757 27.6197 56.4757L31.6153 60.0871C30.0705 60.4196 29.0384 60.2631 27.1487 59.8808C30.0263 61.4789 31.8948 62.2357 35.9887 63.1324C35.0836 64.0377 34.4598 64.5223 33.0062 65.2024C30.9799 65.3257 25.9114 63.3644 25.5525 62.5431C24.9525 59.7359 19.3159 55.435 17.1686 56.0085C18.4888 59.8959 19.3401 61.7888 20.9884 64.4726C23.8008 65.4041 24.9951 66.1082 26.6944 67.5797C29.3428 67.8026 30.9983 67.7083 32.6029 67.3415C33.4745 67.1423 34.331 66.8627 35.3235 66.5098Z" fill="#9BE3FF"/>
<path fill-rule="evenodd" clip-rule="evenodd" d="M46.8587 40.2896C45.9327 39.971 45.0799 39.7317 44.2728 39.5501C46.577 42.2677 49.4592 43.9119 52.0665 45.3993C54.6721 46.8856 57.0033 48.2154 58.2089 50.3036C58.3045 48.6186 58.1437 47.4922 57.8088 45.7039C53.891 45.2783 51.4031 43.6659 46.8587 40.2896Z" fill="#9BE3FF"/>
<path d="M65.0306 71.7643C66.4757 69.2169 66.9237 67.6618 67.8298 65.5247C65.4633 59.6811 62.9278 54.9228 57.8088 45.7039C58.1437 47.4922 58.3045 48.6186 58.2089 50.3036C61.1727 53.7044 63.0329 55.4512 63.6458 60.7419C62.6112 61.3886 61.772 60.769 60.3293 59.8716L60.3828 59.9114C62.4157 61.4216 63.574 62.2822 64.6755 63.9769C65.8855 67.3015 65.4448 68.8696 65.0306 71.7643Z" fill="#9BE3FF"/>
<path d="M31.2939 50.1763C27.7918 50.3415 20.7053 50.6498 20.3759 50.5615L32.3679 47.8156L44.2524 54.5314L33.1029 53.3096L31.2939 50.1763Z" fill="#36ACDB"/>
<path d="M48.4301 52.1194L39.1378 48.0846L50.5081 48.4827L52.0156 51.0938L48.4301 52.1194Z" fill="#36ACDB"/>
<path d="M160.75 68.9149L160.912 68.5333L160.757 68.1492C158.364 62.2422 155.801 57.4351 150.683 48.2182L150.432 47.7654L149.917 47.7095C146.295 47.3161 144 45.8636 139.455 42.4867L139.331 42.3943L139.184 42.3438C135.596 41.1093 132.992 41.014 130.129 40.9092C129.25 40.8771 128.347 40.844 127.384 40.7769L127.173 40.7622L126.974 40.8342C118.637 43.8531 113.94 44.7976 105.435 45.536L105.325 45.5456L105.219 45.5793C100.805 46.9826 98.432 48.0675 94.6361 50.598L94.0441 50.9926L94.2228 51.6812C95.8044 57.7762 96.9016 60.157 99.2519 65.257C99.346 65.4613 99.4422 65.67 99.5405 65.8835L99.6091 66.0325L99.7217 66.1518C100.024 66.472 100.318 66.7918 100.609 67.1078C102.36 69.0096 103.986 70.7757 106.467 71.6918L112.82 81.4987L112.99 81.7604L113.278 81.8794L122.617 85.7345L122.792 85.8068L122.981 85.81L130.164 85.9308L130.441 85.9355L130.681 85.797L133.021 84.4458C135.157 84.8396 136.942 84.5466 139.212 83.5333C140.222 83.0828 141.331 82.4887 142.611 81.754C143.854 81.7595 144.791 81.6419 145.773 81.4804C146.034 81.4374 146.294 81.392 146.563 81.3453C147.376 81.2038 148.262 81.0494 149.452 80.9107L149.874 80.8614L150.132 80.5232C150.534 79.9951 150.871 79.7108 151.22 79.4159C151.291 79.3554 151.363 79.2944 151.437 79.2308C151.787 78.9269 152.125 78.5875 152.379 78.0643C153.92 77.7906 154.982 77.146 156.167 76.4266C156.59 76.1702 157.028 75.9042 157.509 75.6422L157.759 75.5057L157.9 75.2575C158.987 73.3424 159.544 71.9295 160.107 70.5044C160.312 69.9845 160.518 69.463 160.75 68.9149Z" fill="#1B4A5D" stroke="#1A2225" stroke-width="2"/>
<path d="M107.638 58.4689C106.023 57.8642 104.896 57.2956 103.35 56.3216C102.475 58.8097 103.098 61.147 105.036 66.0177C104.78 62.1871 105.138 60.3895 107.638 58.4689Z" fill="#2785A6"/>
<path d="M118.694 70.5794C121.203 72.819 121.737 75.5772 122.484 80.8391L122.531 80.6326C123.18 77.7845 123.562 76.1086 124.603 70.3412C122.998 70.7079 121.343 70.8022 118.694 70.5794Z" fill="#2785A6"/>
<path d="M138.805 82.6199C139.828 82.1631 140.977 81.5437 142.349 80.7507C142.563 72.768 143.94 69.1996 147.332 63.5104C145.006 66.6043 142.658 68.8426 138.221 71.7531C139.723 77.703 139.701 79.8821 138.805 82.6199Z" fill="#2785A6"/>
<path d="M157.03 74.7639C158.476 72.2166 158.924 70.6615 159.83 68.5244C157.463 62.6808 154.928 57.9224 149.809 48.7035C150.2 50.7915 150.353 51.9771 150.139 54.2032C150.662 56.7012 150.518 57.9915 149.669 60.165C152.599 62.3252 154.213 65.1087 157.03 74.7639Z" fill="#2785A6"/>
<path d="M149.144 54.1078L149.129 54.2595L149.16 54.4087C149.411 55.6081 149.487 56.4496 149.422 57.2219C149.359 57.9685 149.158 58.7091 148.776 59.7026C147.98 60.8992 147.255 61.9497 146.533 62.9099C144.333 65.8358 142.123 67.9696 137.945 70.7384C134.586 70.5619 132.425 70.2263 127.652 68.5656L127.32 68.45L126.989 68.5678C126.007 68.9169 125.194 69.1809 124.38 69.3669C122.97 69.6893 121.492 69.7923 119.098 69.6092C117.484 68.2448 116.202 67.5103 113.653 66.641C112.175 64.1969 111.367 62.3716 110.116 58.6871L109.956 58.2184L109.487 58.0608C108.93 57.8735 108.438 57.7011 107.989 57.533C106.499 56.9749 105.454 56.4556 104.041 55.5754C103.388 54.6815 103.021 53.9913 102.59 52.6859C103.63 51.58 104.487 50.8549 106.391 49.6817C111.472 49.2014 115.214 48.5534 118.493 47.4674C121.734 46.3939 124.479 44.9069 127.593 42.7956C128.535 42.8555 129.393 42.8874 130.205 42.9176C132.954 43.0197 135.182 43.1025 138.388 44.1859C142.584 47.2995 145.195 49.027 148.956 49.6012C149.236 51.2069 149.321 52.2674 149.144 54.1078Z" fill="#57B7DD" stroke="#61C0E8" stroke-width="2"/>
<path d="M103.35 56.322C102.018 56.1819 101.169 55.6236 99.5897 54.3294C101.199 56.0346 101.686 56.625 101.915 57.1505C101.903 60.4843 102.666 61.9671 104.416 64.4241C102.974 60.6042 102.576 58.522 103.35 56.322Z" fill="#0A3648"/>
<path d="M110.169 61.7988L109.087 70.7789L110.231 71.5543L110.577 62.8187C110.441 62.4929 110.306 62.1545 110.169 61.7988Z" fill="#0A3648"/>
<path d="M119.004 80.7196C118.983 77.8683 118.667 76.0629 117.989 72.7655C119.308 76.0828 120.052 77.9071 121.481 80.3339C120.423 80.0662 119.867 80.0886 119.004 80.7196Z" fill="#0A3648"/>
<path d="M131.999 81.9202C131.365 79.0869 131.268 77.5139 131.206 74.7192C131.754 76.6441 132.021 77.0518 133.025 80.2832C132.779 80.1398 131.911 81.2702 131.999 81.9202Z" fill="#0A3648"/>
<path d="M149.669 60.1657C148.845 61.4066 148.09 62.5041 147.332 63.5111L150.462 75.0907L151.017 68.6339L154.639 76.1662C155.335 75.7737 156.06 75.2931 157.031 74.7646C154.213 65.1094 152.6 62.3258 149.669 60.1657Z" fill="#1D6583"/>
<path d="M105.522 46.5328C101.187 47.911 98.9006 48.9575 95.1908 51.4306L101.46 52.4341C102.799 50.9655 103.702 50.1487 106.066 48.7079C116.402 47.7487 120.946 46.1391 127.315 41.775C118.89 44.8258 114.106 45.7875 105.522 46.5328Z" fill="#1D6583"/>
<path d="M127.323 69.5098C132.338 71.2545 134.575 71.5758 138.221 71.7535C142.164 69.1673 144.457 67.1119 146.551 64.5154C146.314 63.5788 146.28 62.8439 146.674 60.5662C144.726 64.7054 143.195 66.2634 139.399 67.2035C139.214 66.3582 139.223 65.6509 139.348 64.0998C138.333 65.4632 137.875 66.2959 137.421 67.9976C131.025 66.2786 127.079 64.2757 119.62 59.4757L123.615 63.0871C122.07 63.4196 121.038 63.2631 119.149 62.8808C122.026 64.4789 123.895 65.2357 127.989 66.1324C127.084 67.0377 126.46 67.5223 125.006 68.2024C122.98 68.3257 117.911 66.3644 117.553 65.5431C116.952 62.7359 111.316 58.435 109.169 59.0085C110.489 62.8959 111.34 64.7888 112.988 67.4726C115.801 68.4041 116.995 69.1082 118.694 70.5797C121.343 70.8026 122.998 70.7083 124.603 70.3415C125.474 70.1423 126.331 69.8627 127.323 69.5098Z" fill="#9BE3FF"/>
<path fill-rule="evenodd" clip-rule="evenodd" d="M138.859 43.2896C137.933 42.971 137.08 42.7317 136.273 42.5501C138.577 45.2677 141.459 46.9119 144.067 48.3993C146.672 49.8856 149.003 51.2154 150.209 53.3036C150.304 51.6186 150.144 50.4922 149.809 48.7039C145.891 48.2783 143.403 46.6659 138.859 43.2896Z" fill="#9BE3FF"/>
<path d="M157.031 74.7643C158.476 72.2169 158.924 70.6618 159.83 68.5247C157.463 62.6811 154.928 57.9228 149.809 48.7039C150.144 50.4922 150.304 51.6186 150.209 53.3036C153.173 56.7044 155.033 58.4512 155.646 63.7419C154.611 64.3886 153.772 63.769 152.329 62.8716L152.383 62.9114C154.416 64.4216 155.574 65.2822 156.676 66.9769C157.886 70.3015 157.445 71.8696 157.031 74.7643Z" fill="#9BE3FF"/>
<path d="M123.294 53.1763C119.792 53.3415 112.705 53.6498 112.376 53.5615L124.368 50.8156L136.252 57.5314L125.103 56.3096L123.294 53.1763Z" fill="#36ACDB"/>
<path d="M140.43 55.1194L131.138 51.0846L142.508 51.4827L144.016 54.0938L140.43 55.1194Z" fill="#36ACDB"/>
<path d="M82.4562 57.9149L82.2944 57.5333L82.45 57.1492C84.8421 51.2422 87.4056 46.4351 92.5236 37.2182L92.775 36.7654L93.2898 36.7095C96.9119 36.3161 99.2063 34.8636 103.752 31.4867L103.876 31.3943L104.023 31.3438C107.61 30.1093 110.214 30.014 113.078 29.9092C113.956 29.8771 114.859 29.844 115.822 29.7769L116.034 29.7622L116.232 29.8342C124.569 32.8531 129.267 33.7976 137.771 34.536L137.882 34.5456L137.988 34.5793C142.402 35.9826 144.775 37.0675 148.57 39.598L149.162 39.9926L148.984 40.6812C147.402 46.7762 146.305 49.157 143.955 54.257C143.861 54.4613 143.764 54.67 143.666 54.8835L143.597 55.0325L143.485 55.1518C143.182 55.472 142.888 55.7918 142.597 56.1078C140.846 58.0096 139.22 59.7757 136.739 60.6918L130.386 70.4987L130.217 70.7604L129.929 70.8794L120.59 74.7345L120.415 74.8068L120.225 74.81L113.042 74.9308L112.765 74.9355L112.526 74.797L110.185 73.4458C108.05 73.8396 106.265 73.5466 103.994 72.5333C102.985 72.0828 101.875 71.4887 100.595 70.754C99.353 70.7595 98.4152 70.6419 97.4339 70.4804C97.173 70.4374 96.9124 70.392 96.6436 70.3453C95.8309 70.2038 94.9443 70.0494 93.7544 69.9107L93.3321 69.8614L93.0746 69.5232C92.6724 68.9951 92.336 68.7108 91.9869 68.4159C91.9153 68.3554 91.8431 68.2944 91.7698 68.2308C91.4193 67.9269 91.0818 67.5875 90.8271 67.0643C89.2863 66.7906 88.2245 66.146 87.0392 65.4266C86.6168 65.1702 86.1787 64.9042 85.6977 64.6422L85.4471 64.5057L85.3063 64.2575C84.2198 62.3424 83.6621 60.9295 83.0996 59.5044C82.8944 58.9845 82.6886 58.463 82.4562 57.9149Z" fill="#1B4A5D" stroke="#1A2225" stroke-width="2"/>
<path d="M135.568 47.4689C137.183 46.8642 138.311 46.2956 139.857 45.3216C140.731 47.8097 140.109 50.147 138.171 55.0177C138.427 51.1871 138.068 49.3895 135.568 47.4689Z" fill="#2785A6"/>
<path d="M124.512 59.5794C122.003 61.819 121.469 64.5772 120.723 69.8391L120.676 69.6326C120.027 66.7845 119.645 65.1086 118.604 59.3412C120.208 59.7079 121.864 59.8022 124.512 59.5794Z" fill="#2785A6"/>
<path d="M104.402 71.6199C103.378 71.1631 102.229 70.5437 100.857 69.7507C100.644 61.768 99.2665 58.1996 95.8741 52.5104C98.2007 55.6043 100.548 57.8426 104.985 60.7531C103.484 66.703 103.506 68.8821 104.402 71.6199Z" fill="#2785A6"/>
<path d="M86.176 63.7639C84.7309 61.2166 84.2829 59.6615 83.3768 57.5244C85.7433 51.6808 88.2788 46.9224 93.3978 37.7035C93.0068 39.7915 92.8531 40.9771 93.0678 43.2032C92.5446 45.7012 92.6889 46.9915 93.5378 49.165C90.607 51.3252 88.9935 54.1087 86.176 63.7639Z" fill="#2785A6"/>
<path d="M94.063 43.1078L94.0777 43.2595L94.0464 43.4087C93.7952 44.6081 93.7192 45.4496 93.7846 46.2219C93.8478 46.9685 94.0481 47.7091 94.4307 48.7026C95.2267 49.8992 95.9512 50.9497 96.6732 51.9099C98.8735 54.8358 101.084 56.9696 105.262 59.7384C108.621 59.5619 110.782 59.2263 115.554 57.5656L115.887 57.45L116.218 57.5678C117.2 57.9169 118.013 58.1809 118.826 58.3669C120.237 58.6893 121.714 58.7923 124.108 58.6092C125.723 57.2448 127.005 56.5103 129.554 55.641C131.032 53.1969 131.84 51.3716 133.091 47.6871L133.25 47.2184L133.719 47.0608C134.277 46.8735 134.768 46.7011 135.217 46.533C136.708 45.9749 137.753 45.4556 139.165 44.5754C139.819 43.6815 140.186 42.9913 140.617 41.6859C139.576 40.58 138.72 39.8549 136.816 38.6817C131.735 38.2014 127.993 37.5534 124.714 36.4674C121.473 35.3939 118.727 33.9069 115.614 31.7956C114.672 31.8555 113.814 31.8874 113.001 31.9176C110.253 32.0197 108.025 32.1025 104.818 33.1859C100.622 36.2995 98.0114 38.027 94.2509 38.6012C93.9703 40.2069 93.8856 41.2674 94.063 43.1078Z" fill="#57B7DD" stroke="#61C0E8" stroke-width="2"/>
<path d="M139.857 45.322C141.189 45.1819 142.037 44.6236 143.617 43.3294C142.007 45.0346 141.521 45.625 141.292 46.1505C141.303 49.4843 140.541 50.9671 138.791 53.4241C140.233 49.6042 140.63 47.522 139.857 45.322Z" fill="#0A3648"/>
<path d="M133.037 50.7988L134.12 59.7789L132.976 60.5543L132.629 51.8187C132.765 51.4929 132.9 51.1545 133.037 50.7988Z" fill="#0A3648"/>
<path d="M124.203 69.7196C124.223 66.8683 124.539 65.0629 125.218 61.7655C123.899 65.0828 123.154 66.9071 121.726 69.3339C122.783 69.0662 123.34 69.0886 124.203 69.7196Z" fill="#0A3648"/>
<path d="M111.207 70.9202C111.841 68.0869 111.939 66.5139 112.001 63.7192C111.453 65.6441 111.185 66.0518 110.181 69.2832C110.428 69.1398 111.296 70.2702 111.207 70.9202Z" fill="#0A3648"/>
<path d="M93.5378 49.1657C94.3619 50.4066 95.1169 51.5041 95.8741 52.5111L92.745 64.0907L92.1892 57.6339L88.5676 65.1662C87.8717 64.7737 87.1461 64.2931 86.176 63.7646C88.9935 54.1094 90.607 51.3258 93.5378 49.1657Z" fill="#1D6583"/>
<path d="M137.685 35.5328C142.02 36.911 144.306 37.9575 148.016 40.4306L141.746 41.4341C140.407 39.9655 139.505 39.1487 137.14 37.7079C126.805 36.7487 122.26 35.1391 115.892 30.775C124.317 33.8258 129.1 34.7875 137.685 35.5328Z" fill="#1D6583"/>
<path d="M115.883 58.5098C110.869 60.2545 108.631 60.5758 104.985 60.7535C101.043 58.1673 98.7498 56.1119 96.6556 53.5154C96.8921 52.5788 96.9261 51.8439 96.5321 49.5662C98.4803 53.7054 100.012 55.2634 103.807 56.2035C103.992 55.3582 103.983 54.6509 103.858 53.0998C104.874 54.4632 105.331 55.2959 105.786 56.9976C112.181 55.2786 116.127 53.2757 123.587 48.4757L119.591 52.0871C121.136 52.4196 122.168 52.2631 124.058 51.8808C121.18 53.4789 119.312 54.2357 115.218 55.1324C116.123 56.0377 116.747 56.5223 118.2 57.2024C120.227 57.3257 125.295 55.3644 125.654 54.5431C126.254 51.7359 131.891 47.435 134.038 48.0085C132.718 51.8959 131.866 53.7888 130.218 56.4726C127.406 57.4041 126.211 58.1082 124.512 59.5797C121.864 59.8026 120.208 59.7083 118.604 59.3415C117.732 59.1423 116.876 58.8627 115.883 58.5098Z" fill="#9BE3FF"/>
<path fill-rule="evenodd" clip-rule="evenodd" d="M104.348 32.2896C105.274 31.971 106.127 31.7317 106.934 31.5501C104.63 34.2677 101.747 35.9119 99.14 37.3993C96.5344 38.8856 94.2032 40.2154 92.9977 42.3036C92.9021 40.6186 93.0629 39.4922 93.3978 37.7039C97.3155 37.2783 99.8034 35.6659 104.348 32.2896Z" fill="#9BE3FF"/>
<path d="M86.176 63.7643C84.7309 61.2169 84.2829 59.6618 83.3768 57.5247C85.7432 51.6811 88.2787 46.9228 93.3978 37.7039C93.0629 39.4922 92.9021 40.6186 92.9977 42.3036C90.0339 45.7044 88.1736 47.4512 87.5607 52.7419C88.5953 53.3886 89.4345 52.769 90.8773 51.8716L90.8238 51.9114C88.7909 53.4216 87.6325 54.2822 86.531 55.9769C85.321 59.3015 85.7618 60.8696 86.176 63.7643Z" fill="#9BE3FF"/>
<path d="M119.913 42.1763C123.415 42.3415 130.501 42.6498 130.831 42.5615L118.839 39.8156L106.954 46.5314L118.104 45.3096L119.913 42.1763Z" fill="#36ACDB"/>
<path d="M102.776 44.1194L112.069 40.0846L100.698 40.4827L99.191 43.0938L102.776 44.1194Z" fill="#36ACDB"/>
<path d="M117.349 81.1368L117.68 80.8873L117.737 80.4768C119.193 70.0542 119.498 61.0615 119.79 43.5788L119.798 43.061L119.38 42.7552C114.347 39.071 112.198 34.9275 108.47 26.3093L108.409 26.1671L108.307 26.0501C104.248 21.3821 100.686 19.1477 96.6791 16.6337C95.4345 15.8529 94.147 15.0451 92.7882 14.1291L92.6128 14.0109L92.4045 13.9738C77.8668 11.3858 70.2826 8.82862 57.4084 2.81506L57.3078 2.76807L57.1993 2.74429C49.7492 1.11104 45.5039 0.708414 38.0219 1.19082L37.312 1.23659L37.1224 1.92229C34.3556 11.9308 33.9614 16.2142 33.1093 25.4744C33.0751 25.8461 33.0401 26.2259 33.0042 26.6144L32.9892 26.7777L33.027 26.9372C33.1992 27.6626 33.3593 28.3747 33.5164 29.0737C34.4746 33.3362 35.3224 37.1075 38.1269 40.3844L39.1307 59.9584L39.1467 60.2697L39.3368 60.5169L49.5524 73.7972L49.668 73.9475L49.8305 74.045L60.0462 80.1744L60.2837 80.3169H60.5607H65.2872C67.969 82.663 70.6748 83.7179 74.7589 84.1435C76.5932 84.3346 78.7104 84.4 81.2269 84.4031C83.0354 85.4717 84.4813 86.0835 86.0471 86.6736C86.4494 86.8253 86.8565 86.9744 87.2782 87.1289C88.5659 87.6007 89.9903 88.1226 91.8328 88.9181L92.2231 89.0866L92.6153 88.9225C93.7014 88.4679 94.4912 88.3262 95.2437 88.1912C95.3933 88.1644 95.5415 88.1378 95.6903 88.1091C96.4797 87.9567 97.2357 87.7439 98.0367 87.1209C100.485 88.0845 102.464 88.0421 104.832 87.9912C105.669 87.9732 106.555 87.9542 107.528 87.9783L107.813 87.9854L108.059 87.8408C111.165 86.0164 113.089 84.4879 115.069 82.9156C115.8 82.3344 116.54 81.7472 117.349 81.1368Z" fill="#1B4A5D" stroke="#1A2225" stroke-width="2"/>
<path d="M50.127 22.6197C48.309 20.412 47.1613 18.6605 45.748 15.9795C42.4289 18.8277 41.3854 22.701 40.1294 31.303C42.9382 25.5893 44.9437 23.305 50.127 22.6197Z" fill="#2785A6"/>
<path d="M55.9637 49.1803C57.7097 54.4772 56.1895 58.8814 52.899 67.0577L53.1377 66.8002C56.4313 63.2477 58.3693 61.1573 64.647 53.7375C62.0384 52.9338 59.5825 51.6965 55.9637 49.1803Z" fill="#2785A6"/>
<path d="M74.8626 83.1487C76.7114 83.3413 78.8752 83.4044 81.5028 83.403C88.429 72.1153 93.3659 68.1323 102.956 62.7744C97.0487 65.2887 91.8214 66.5569 83.0351 67.0577C80.2579 76.848 78.4194 79.9594 74.8626 83.1487Z" fill="#2785A6"/>
<path d="M107.553 86.9784C111.74 84.5182 113.673 82.6563 116.747 80.3383C118.194 69.9834 118.498 61.0469 118.79 43.5619C117.62 46.885 116.858 48.7152 114.704 51.7343C113.384 55.7558 112.106 57.4892 109.085 59.907C111.503 65.4396 111.512 70.7753 107.553 86.9784Z" fill="#2785A6"/>
<path d="M113.89 51.1541L113.801 51.2782L113.754 51.4231C113.109 53.3857 112.497 54.7237 111.712 55.8514C110.942 56.9569 109.972 57.91 108.544 59.06C106.377 60.1348 104.433 61.0596 102.564 61.8549C96.8507 64.2869 91.7947 65.5334 83.3031 66.0411C78.4625 62.9077 75.5893 60.6172 70.0008 54.146L69.7709 53.8798L69.425 53.8162C67.718 53.502 66.3017 53.2016 64.9414 52.7825C62.5246 52.0379 60.2188 50.8981 56.8 48.5437C55.6006 45.1578 54.402 43.078 51.3355 39.5973C51.2218 34.6714 51.5724 31.3274 52.8582 24.8584L52.9547 24.373L52.6272 24.0018C51.9788 23.267 51.4106 22.6059 50.8989 21.9846C49.1653 19.8795 48.0643 18.2119 46.7198 15.6787C46.4863 13.6036 46.5454 12.193 47.1083 9.61071C49.8012 8.7787 51.6957 8.4102 55.757 8.30238C63.501 11.8542 69.3986 14.0228 74.9717 15.1744C80.5065 16.3181 85.6751 16.4494 91.9594 15.9821C93.3047 16.8816 94.5537 17.6658 95.7411 18.4112C99.6507 20.8658 102.891 22.9005 106.697 27.2469C110.251 35.4551 112.541 40.0108 117.602 43.9203C116.582 46.762 115.818 48.4506 113.89 51.1541Z" fill="#57B7DD" stroke="#61C0E8" stroke-width="2"/>
<path d="M45.7479 15.9797C43.9508 14.6737 43.1952 13.1685 41.9999 10C42.898 13.7838 43.1071 15.0352 42.9999 15.9797C40.2195 20.7583 40.0851 23.5203 40.5609 28.5C41.6574 21.8181 42.8131 18.4982 45.7479 15.9797Z" fill="#0A3648"/>
<path d="M51.0006 29.5L41.9999 41.5L42.9999 43.5621L50.741 31.3032C50.8162 30.7228 50.9025 30.1245 51.0006 29.5Z" fill="#0A3648"/>
<path d="M47.9999 64C50.3346 59.8879 51.3783 57.0331 53.1376 51.7344C52.2817 57.5928 51.8378 60.8299 51.8773 65.5C50.5805 64.2386 49.7625 63.8093 47.9999 64Z" fill="#0A3648"/>
<path d="M65.6685 76.5C67.1078 71.9054 68.2715 69.565 70.4999 65.5C69.6914 68.7191 69.7375 69.5265 68.4999 75C68.2647 74.5895 66.0809 75.4933 65.6685 76.5Z" fill="#0A3648"/>
<path d="M109.085 59.9072C106.873 61.0059 104.878 61.9562 102.956 62.7746L97.8478 82L104 73.1875L102.956 87.0086C104.281 87.0219 105.721 86.9332 107.553 86.9786C111.512 70.7755 111.503 65.4398 109.085 59.9072Z" fill="#1D6583"/>
<path d="M56.9853 3.72109C49.6162 2.10563 45.465 1.713 38.0863 2.18874L46.2588 8.82872C49.3995 7.82977 51.3731 7.4051 55.9637 7.29637C71.6026 14.4887 79.464 15.9452 92.2292 14.9583C77.5994 12.3538 69.9321 9.76857 56.9853 3.72109Z" fill="#1D6583"/>
<path d="M69.244 54.7991C74.9985 61.4625 77.946 63.7795 83.0352 67.0579C90.8421 66.6129 95.8393 65.5621 101 63.5695C101.437 62.0281 101.998 60.9445 104.452 58C98.222 62.3293 94.7304 63.2969 88.5001 61.5C88.9349 60.1325 89.5348 59.1243 91.0001 57C88.4111 58.1162 87.0634 58.9325 85.0001 61C77.2397 53.2278 73.2333 47.0792 66.5001 34L69.244 42.5C66.7496 41.6965 65.3971 40.6159 63.0001 38.5C65.8078 43.1813 67.8637 45.8175 73.0001 50.5C70.9494 51.0497 69.6517 51.2285 67.0001 51C63.9877 49.4968 58.3345 42.4771 58.5001 41C59.966 36.4707 55.437 25.6198 51.8774 24.663C50.5501 31.3409 50.2032 34.7653 50.3451 39.9866C53.6118 43.6564 54.7434 45.658 55.9637 49.1805C59.5826 51.6967 62.0385 52.934 64.647 53.7377C66.064 54.1743 67.5261 54.4829 69.244 54.7991Z" fill="#9BE3FF"/>
<path fill-rule="evenodd" clip-rule="evenodd" d="M107.553 26.7063C106.487 25.4808 105.461 24.43 104.452 23.5C105.508 29.3137 108.284 34.065 110.795 38.3632C113.305 42.6585 115.551 46.5013 115.551 50.5C117.085 48.1593 117.788 46.4082 118.79 43.5621C113.516 39.7023 111.28 35.3236 107.553 26.7063Z" fill="#9BE3FF"/>
<path d="M107.553 86.9786C111.74 84.5184 113.673 82.6564 116.747 80.3384C118.194 69.9836 118.498 61.0471 118.79 43.5621C117.788 46.4082 117.085 48.1593 115.551 50.5C116.987 57.8418 118.21 61.8932 114.704 70C112.682 70.0708 111.99 68.4852 110.662 66L110.706 66.1015C112.373 69.9561 113.323 72.1526 113.5 75.5C112.481 81.278 110.548 83.1648 107.553 86.9786Z" fill="#9BE3FF"/>
<path d="M77 28C71.8333 25.3333 61.4 19.9 61 19.5L80.5 25.5L92 45L77 34V28Z" fill="#36ACDB"/>
<path d="M100 45L90 31.5L106 41.5V46.5L100 45Z" fill="#36ACDB"/>
</svg>
