<svg width="149" height="85" viewBox="0 0 149 85" fill="none" xmlns="http://www.w3.org/2000/svg">
<path d="M49.0244 35.8452C52.0493 28.8843 59.9576 25.3583 67.2374 26.0963C72.212 26.5883 77.2777 27.2261 81.9608 29.103C84.7488 30.2419 86.1245 33.1301 87.4274 35.6538C87.6917 36.7745 87.7919 37.9043 87.719 39.0431L86.9537 39.69C86.489 38.132 86.0517 36.5649 85.6417 34.9887C85.2135 35.5445 84.3661 36.6652 83.9379 37.2209C83.6281 36.7836 83.3184 36.3554 83.0086 35.9272C80.995 33.2758 78.7628 30.1599 75.2186 29.6223C69.8796 28.693 64.1032 27.8274 59.001 30.2145C56.1766 31.2076 54.3817 33.7314 52.5413 35.9272C53.1608 36.1914 54.3999 36.7198 55.0195 36.984C55.3657 35.3714 55.5206 33.5674 57.0057 32.547C57.5068 34.4694 57.0512 37.1298 59.2379 38.1229C61.0327 39.8449 63.9938 38.9247 64.8229 36.6652C63.2285 36.574 61.625 36.5194 60.0305 36.3918L59.4474 36.1094C60.3039 35.8087 61.1603 35.4989 62.0076 35.1892C62.7912 35.0981 64.3492 34.8976 65.1236 34.7974C65.8069 34.2689 66.4994 33.7496 67.2009 33.2303C67.3923 33.4307 67.7749 33.8316 67.9754 34.0321L68.2396 34.2689C67.3011 35.2621 66.4083 36.2916 65.5063 37.3211C67.9116 40.3551 71.7564 40.4462 74.8997 38.4965C77.3688 37.3849 78.3984 34.9067 79.2002 32.5014C80.9677 34.5332 81.3048 37.1936 79.9928 39.5716C78.362 39.2982 76.7402 39.0249 75.1184 38.7607C74.7813 39.4258 74.098 40.756 73.7518 41.4211H73.7153C69.9434 40.9565 66.1623 40.6193 62.3903 40.1456C62.5907 40.6558 63.0007 41.6671 63.2012 42.1773C63.3925 42.4416 63.7752 42.9882 63.9665 43.2524C64.5405 43.5075 65.6885 44.0269 66.2625 44.2911C65.9072 44.5826 65.1965 45.1658 64.8412 45.4573C65.1327 46.1042 65.4243 46.7511 65.7158 47.398C65.2785 47.5711 64.3947 47.8991 63.9574 48.0722C63.757 47.1702 63.3652 45.3844 63.1738 44.4915C62.4541 45.0473 61.7434 45.6122 61.0419 46.1771C60.7503 45.7671 60.4496 45.3571 60.1399 44.9562C58.1354 42.396 55.9306 39.3802 52.4957 38.8062C46.9106 37.7949 40.8062 37.0114 35.54 39.6627C32.8705 40.7651 31.3125 43.3162 29.6725 45.5393C29.1532 45.0838 28.6339 44.6373 28.1145 44.1909C27.6225 45.3753 27.1123 46.5597 26.675 47.7715C24.1057 46.3684 20.5888 45.2933 19.9966 41.9769C19.2951 40.346 20.1606 38.952 21.4908 38.05C21.8826 40.2367 21.6548 43.1249 24.1239 44.1635C26.101 45.7944 27.2672 43.0247 28.4152 41.8129C26.9666 41.8767 25.5179 41.9404 24.0692 42.0224C23.7139 40.018 23.7321 37.3667 26.0008 36.5103C30.4014 34.8065 35.2667 36.0183 39.8496 35.5172C32.169 32.8112 21.7368 33.5401 17.2451 41.2753C16.5344 41.3573 15.8146 41.4302 15.104 41.5031C14.7669 43.1158 14.4206 44.7284 14.0289 46.332C13.7555 45.6669 13.2089 44.3367 12.9355 43.6715C13.3729 42.4871 13.8193 41.3118 14.284 40.1365C16.908 34.2507 23.6592 31.6814 29.709 31.4263C36.2871 31.9639 43.1295 32.6198 49.0244 35.8452ZM26.6841 40.1456C29.6816 40.2458 31.4674 37.3758 34.2918 36.82C31.6405 37.5307 28.4881 37.804 26.6841 40.1456Z" fill="#D4D4DE"/>
<path d="M59.0012 30.2147C64.1034 27.8276 69.8798 28.6932 75.2189 29.6225C78.7631 30.16 80.9953 33.276 83.0088 35.9273C82.1797 38.114 81.788 40.8108 79.6742 42.1866C77.6789 42.1319 75.72 41.7037 73.752 41.4213C74.0982 40.7562 74.7816 39.426 75.1187 38.7609C76.7404 39.0251 78.3622 39.2984 79.9931 39.5717C81.3051 37.1938 80.968 34.5333 79.2004 32.5016C78.3986 34.9069 77.3691 37.3851 74.9 38.4966C73.9616 36.7109 73.2691 34.67 71.6474 33.358C70.3263 32.7476 68.4676 32.3467 67.2012 33.2305C66.4996 33.7498 65.8072 34.2691 65.1239 34.7976C64.3494 34.8978 62.7914 35.0982 62.0079 35.1893C64.4132 30.0507 73.7338 29.7683 75.3009 35.818C75.9751 34.9524 76.6493 34.0869 77.3235 33.2213C72.5949 29.9414 66.2901 28.8389 60.9966 31.4082C59.3566 32.3831 59.2655 34.424 59.4477 36.1095L60.0308 36.392C61.6252 36.5195 63.2288 36.5742 64.8232 36.6653C63.9941 38.9249 61.033 39.8451 59.2381 38.1231C57.0515 37.13 57.507 34.4696 57.0059 32.5471C55.5208 33.5676 55.3659 35.3716 55.0197 36.9842C54.4002 36.72 53.1611 36.1915 52.5415 35.9273C54.3819 33.7316 56.1768 31.2078 59.0012 30.2147Z" fill="#8F8F9F"/>
<path d="M60.9967 31.4082C66.2903 28.8389 72.5951 29.9413 77.3237 33.2213C76.6495 34.0869 75.9753 34.9524 75.3011 35.818C73.734 29.7682 64.4134 30.0507 62.0081 35.1893C61.1607 35.4991 60.3043 35.8088 59.4479 36.1095C59.2656 34.424 59.3567 32.3831 60.9967 31.4082Z" fill="#E0E0E7"/>
<path d="M67.2012 33.2312C68.4676 32.3474 70.3263 32.7483 71.6474 33.3587C70.5176 33.9236 69.242 34.2972 67.9756 34.0329C67.7752 33.8325 67.3925 33.4316 67.2012 33.2312Z" fill="#F1EFF4"/>
<path d="M71.6472 33.3584C73.269 34.6704 73.9614 36.7113 74.8998 38.497C71.7565 40.4468 67.9117 40.3557 65.5063 37.3217C67.9026 36.4562 70.3443 35.709 72.8225 35.0986C71.2919 34.8435 69.7612 34.5702 68.2397 34.2695L67.9754 34.0326C69.2419 34.2968 70.5174 33.9233 71.6472 33.3584Z" fill="#9194A6"/>
<path d="M17.2453 41.2749C21.737 33.5396 32.1692 32.8107 39.8498 35.5167C35.2669 36.0178 30.4016 34.806 26.001 36.5098C23.7323 37.3662 23.7141 40.0176 24.0694 42.022C25.5181 41.94 26.9668 41.8762 28.4154 41.8124C27.2674 43.0242 26.1012 45.794 24.1241 44.1631C21.655 43.1244 21.8828 40.2362 21.491 38.0496C20.1608 38.9516 19.2953 40.3456 19.9968 41.9764C20.589 45.2928 24.1059 46.3679 26.6752 47.771C26.5841 48.7368 26.5203 49.6935 26.5021 50.6593C26.8574 52.6455 27.805 54.4221 28.9074 56.0803C29.5179 56.2352 30.7387 56.5359 31.3492 56.6908C31.2581 57.5563 31.0758 59.2874 30.9756 60.153C28.0965 59.3147 25.3359 58.0848 22.4112 57.3923C19.2861 57.1099 16.2066 57.939 13.1544 58.5039C12.708 58.2761 11.8151 57.8388 11.3687 57.6201C16.6257 55.1237 22.4295 56.381 27.969 56.6908C26.9759 55.2694 25.6183 54.1852 23.8872 53.8208L23.3679 53.6294C24.8621 53.0828 25.2357 51.6888 25.4634 50.2766C24.5979 50.1764 22.8668 49.9668 22.0012 49.8575C21.0628 46.6868 19.113 43.9626 17.2453 41.2749Z" fill="#8E8D9D"/>
<path d="M65.5063 37.3217C66.4083 36.2922 67.3012 35.2626 68.2397 34.2695C69.7612 34.5702 71.2919 34.8435 72.8225 35.0986C70.3443 35.7091 67.9026 36.4562 65.5063 37.3217Z" fill="#5C6072"/>
<path d="M42.8652 46.2687C43.6579 45.4487 44.0314 44.0365 45.2432 43.7358C46.8376 43.8178 48.4412 43.9727 50.0356 44.1185C47.6394 44.8292 45.2523 45.5489 42.8652 46.2687Z" fill="#5C6072"/>
<path d="M83.0091 35.9267C83.3188 36.3549 83.6286 36.7832 83.9384 37.2205C84.3666 36.6647 85.2139 35.5441 85.6422 34.9883C86.0522 36.5645 86.4895 38.1316 86.9541 39.6896C85.6057 40.7829 84.2391 41.858 82.8906 42.9513C82.7175 42.5504 82.3531 41.7487 82.18 41.3478C79.5287 43.4524 76.5038 44.9922 73.2603 45.958C73.5336 45.056 73.7978 44.1449 74.0529 43.2429C73.9618 42.7873 73.7978 41.8762 73.7158 41.4207H73.7523C75.7202 41.7031 77.6791 42.1313 79.6744 42.186C81.7882 40.8102 82.18 38.1134 83.0091 35.9267Z" fill="#AEAEB9"/>
<path d="M26.6846 40.1454C28.4886 37.8038 31.641 37.5305 34.2923 36.8198C31.4679 37.3756 29.6821 40.2456 26.6846 40.1454Z" fill="#3A3B44"/>
<path d="M87.7008 42.9428C87.3546 45.7034 83.6829 49.6667 83.6829 49.6667L80.0385 51.6347C80.0385 51.6347 76.8587 52.8283 75.2916 53.4751C72.7405 52.2087 69.9525 51.5345 67.1828 50.9878C66.0621 50.7327 64.9415 50.4776 63.8208 50.2134C64.0121 49.8581 64.3948 49.1383 64.5861 48.7738C72.0936 50.514 80.1113 48.0176 85.7146 42.8334L87.7008 39.0688V42.9428Z" fill="#3A3B44"/>
<path d="M14.7217 61.8212C17.4277 59.2793 21.6279 58.1404 25.0992 59.6802C26.6298 60.2359 26.7756 62.0946 27.5318 63.3063C28.5522 62.6048 29.5818 61.8941 30.6113 61.2017C30.3927 62.1766 30.1831 63.1606 29.9645 64.1446C29.0351 64.3359 28.1058 64.5272 27.1765 64.7277C26.8394 63.0877 26.1378 61.5479 24.9078 60.3908C22.785 59.6346 20.5254 59.7622 18.3114 59.8259C18.3661 60.3088 18.4754 61.2837 18.5301 61.7666C17.2637 61.7939 15.9881 61.8121 14.7217 61.8212Z" fill="#3A3B44"/>
<path d="M49.7075 64.563C54.2266 64.4719 58.7639 64.2168 63.2283 65.2099C64.185 65.5561 65.1416 65.9388 66.0892 66.3306C61.7614 66.8317 57.4792 64.9821 53.1971 66.0299C51.7393 66.3032 49.8806 66.5675 49.7075 64.563Z" fill="#3A3B44"/>
<path d="M35.5404 39.6632C40.8065 37.0119 46.9109 37.7954 52.496 38.8067C55.9309 39.3807 58.1357 42.3965 60.1402 44.9567C59.3384 47.1889 58.8646 49.7855 56.8967 51.3435C54.8649 51.1978 52.8696 50.7331 50.8469 50.4415C51.2296 49.8038 51.9858 48.51 52.3685 47.8722C53.9811 48.1273 55.5938 48.3733 57.2155 48.6193C58.7735 46.2322 58.0355 43.59 56.3682 41.4945C55.6849 44 54.6098 46.4873 52.1225 47.6809C51.2569 45.9316 50.3914 44.1914 49.5258 42.442C47.8403 42.196 46.1456 41.9683 44.4601 41.7405C43.4123 43.4625 39.0846 45.0751 41.6903 47.2527C39.9319 47.7082 37.8181 48.9655 36.2237 47.4349C34.1555 46.2596 34.7568 43.59 34.3377 41.6403C31.0942 43.6174 33.0986 48.6467 36.1052 49.7764C38.4377 49.8675 40.7428 49.3664 43.0661 49.3027C45.2618 49.6762 47.4667 49.986 49.6716 50.2775C50.2911 50.4598 51.5302 50.8242 52.1498 51.0064L51.5302 52.2364C47.2572 52.5097 42.9476 51.0429 38.7566 52.3093C37.0437 53.02 35.4401 51.9813 33.8822 51.3982C33.3264 48.9382 31.5133 47.1342 29.6729 45.5398C31.3128 43.3167 32.8708 40.7656 35.5404 39.6632ZM38.8568 40.1187C36.743 40.9205 35.7773 43.7449 37.1348 45.6218C39.203 46.2505 39.8408 43.8634 40.2417 42.3783C44.0683 39.8636 51.1749 39.2623 52.3138 45.0022C53.2158 44.2187 53.972 43.2985 54.546 42.2507C49.9631 39.0618 44.123 38.0779 38.8568 40.1187Z" fill="#838697"/>
<path d="M38.8569 40.1184C44.1231 38.0775 49.9633 39.0615 54.5461 42.2503C53.9721 43.2981 53.2159 44.2183 52.3139 45.0019C51.175 39.2619 44.0684 39.8632 40.2418 42.3779C39.8409 43.863 39.2031 46.2501 37.1349 45.6214C35.7774 43.7445 36.7431 40.9201 38.8569 40.1184Z" fill="#E0DFE7"/>
<path d="M86.9537 39.6903L87.719 39.0435C87.1085 40.3372 86.3888 41.5763 85.7146 42.8337C80.1113 48.0178 72.0935 50.5143 64.586 48.7741C64.3947 49.1385 64.0121 49.8583 63.8207 50.2136C63.4927 50.8331 63.1556 51.4436 62.8003 52.054C57.7437 56.9193 50.3455 59.3884 43.3847 58.3133C40.8882 58.0309 38.3918 57.6846 35.9318 57.1562C35.1118 55.2884 34.4558 53.3569 33.8818 51.398C35.4398 51.9811 37.0434 53.0198 38.7562 52.3091C42.9473 51.0427 47.2568 52.5096 51.5299 52.2362C51.0926 53.1656 50.6644 54.0949 50.2544 55.0424C53.6528 54.2498 56.7414 52.5825 59.4474 50.414C59.5932 50.9151 59.8756 51.9082 60.0123 52.4094C61.4245 51.0518 62.7456 49.6123 63.9574 48.0725C64.3947 47.8994 65.2785 47.5714 65.7158 47.3983C65.4243 46.7514 65.1327 46.1045 64.8412 45.4576C65.1965 45.1661 65.9072 44.583 66.2625 44.2914C65.6885 44.0272 64.5405 43.5079 63.9665 43.2528C63.7752 42.9885 63.3925 42.4419 63.2012 42.1777C66.8091 42.6423 70.4171 43.025 74.0524 43.2436C73.7973 44.1456 73.5331 45.0567 73.2598 45.9587C76.5033 44.993 79.5282 43.4532 82.1795 41.3486C82.3526 41.7494 82.717 42.5512 82.8901 42.9521C84.2386 41.8588 85.6052 40.7837 86.9537 39.6903ZM67.5107 44.0181C66.6543 45.2572 68.8682 46.3596 69.7338 45.4394C70.654 44.173 68.3762 43.0159 67.5107 44.0181ZM70.9091 43.8541C70.9911 46.8881 73.6606 42.533 70.9091 43.8541V43.8541ZM44.5144 53.1565C43.5122 54.5596 46.0633 55.6073 46.9653 54.5869C48.0222 53.1747 45.4073 52.0267 44.5144 53.1565Z" fill="#BFBFC8"/>
<path opacity="0.8" d="M14.8125 53.6206C11.5963 50.1037 11.2228 43.7898 14.2841 40.1362C13.8194 41.3116 13.373 42.4869 12.9357 43.6713C13.209 44.3364 13.7557 45.6666 14.029 46.3317C14.2112 46.8328 14.3843 47.3431 14.5574 47.8442C14.9583 50.295 16.899 51.9168 18.8487 53.2288C17.4912 53.2835 16.1428 53.4019 14.8125 53.6206Z" fill="#5C5B60"/>
<path d="M62.3901 40.1455C66.1621 40.6193 69.9432 40.9564 73.7152 41.4211C73.7972 41.8766 73.9612 42.7877 74.0523 43.2433C70.417 43.0246 66.809 42.6419 63.201 42.1773C63.0006 41.6671 62.5906 40.6557 62.3901 40.1455Z" fill="#6D707F"/>
<path d="M15.1044 41.5032C15.8151 41.4303 16.5348 41.3574 17.2455 41.2754C19.1133 43.9631 21.063 46.6873 22.0015 49.858C22.4206 51.1244 22.8852 52.3818 23.3681 53.63C20.0973 52.2815 16.9722 50.4775 14.5577 47.8445C14.3846 47.3433 14.2115 46.8331 14.0293 46.332C14.4211 44.7285 14.7673 43.1158 15.1044 41.5032Z" fill="#ADA9B6"/>
<path d="M36.1055 49.7758C33.0989 48.646 31.0945 43.6167 34.338 41.6396C34.7571 43.5894 34.1558 46.2589 36.224 47.4343C37.8184 48.9649 39.9322 47.7076 41.6906 47.2521C39.0848 45.0745 43.4126 43.4619 44.4604 41.7399C46.1459 41.9676 47.8406 42.1954 49.5261 42.4414C48.0957 42.8696 46.6561 43.2614 45.2439 43.7352C44.0321 44.0359 43.6586 45.4481 42.8659 46.2681C43.7406 47.2247 44.6152 48.1814 45.4899 49.1471C44.8886 49.1927 43.6768 49.2656 43.0664 49.302C40.7431 49.3658 38.438 49.8669 36.1055 49.7758Z" fill="#E3E3EA"/>
<path d="M63.4106 54.7056C65.2875 54.7329 67.8751 54.7876 68.7679 56.7738C69.2326 58.2589 67.6837 58.7873 66.8 59.5891C66.1986 57.6302 64.8229 56.1269 63.4106 54.7056Z" fill="#E3E3EA"/>
<path d="M13.1538 58.5045C16.206 57.9396 19.2856 57.1105 22.4106 57.393C25.3353 58.0854 28.0959 59.3154 30.975 60.1536L31.6584 60.4087C32.1412 60.6365 33.107 61.0921 33.5899 61.3198L33.4806 61.9576C33.353 63.7434 33.0706 65.52 32.5512 67.242C32.1139 66.9596 31.2392 66.4038 30.8019 66.1214C30.0639 66.1942 28.5788 66.3218 27.8408 66.3856C27.2577 67.078 26.6746 67.7613 26.0915 68.4538C23.0758 68.3353 20.0964 67.7158 17.0807 67.6065C14.6298 67.5153 11.523 69.1189 9.68252 66.7591C8.04253 64.9369 6.96743 61.2378 9.79185 59.935C10.1745 61.8847 9.60052 64.4723 11.6505 65.6385C13.3452 67.2785 15.796 66.0849 17.4451 65.028C16.5158 62.8596 13.9738 63.88 12.1789 63.7252C11.8874 61.8938 12.3612 60.1354 13.1538 58.5045ZM14.7209 61.8209C15.9874 61.8118 17.2629 61.7936 18.5293 61.7663C18.4747 61.2834 18.3653 60.3085 18.3107 59.8256C20.5247 59.7619 22.7842 59.6343 24.9071 60.3905C23.6589 61.3381 22.1191 61.575 20.6249 61.8665C19.2764 62.0669 19.0487 63.6705 18.3653 64.6089C19.1398 65.4836 19.9233 66.3674 20.6887 67.2602C22.9846 67.1874 26.8659 67.98 27.1757 64.7274C28.105 64.5269 29.0344 64.3356 29.9637 64.1443C30.1824 63.1603 30.3919 62.1763 30.6106 61.2014C29.581 61.8938 28.5515 62.6045 27.5311 63.306C26.7748 62.0943 26.6291 60.2356 25.0984 59.6799C21.6271 58.1401 17.4269 59.279 14.7209 61.8209Z" fill="#E3E3EA"/>
<path d="M49.5254 42.4419C50.391 44.1912 51.2565 45.9314 52.1221 47.6807C50.063 48.7103 47.767 49.0747 45.4892 49.1476C44.6146 48.1819 43.7399 47.2252 42.8652 46.2685C45.2523 45.5488 47.6394 44.829 50.0356 44.1183C48.4412 43.9725 46.8376 43.8177 45.2432 43.7357C46.6554 43.2619 48.095 42.8701 49.5254 42.4419Z" fill="#8F91A3"/>
<path d="M56.3676 41.4946C58.0349 43.5902 58.7729 46.2324 57.2149 48.6195C55.5931 48.3735 53.9805 48.1275 52.3678 47.8724C51.9851 48.5101 51.2289 49.8039 50.8463 50.4417C50.5547 50.4052 49.9625 50.3232 49.6709 50.2777C47.4661 49.9861 45.2612 49.6763 43.0654 49.3028C43.6759 49.2663 44.8876 49.1935 45.489 49.1479C47.7667 49.075 50.0627 48.7106 52.1218 47.681C54.6091 46.4875 55.6842 44.0002 56.3676 41.4946Z" fill="#DFDCE6"/>
<path d="M28.1146 44.1914C28.6339 44.6378 29.1533 45.0843 29.6726 45.5398C31.513 47.1343 33.3261 48.9383 33.8819 51.3982C34.4559 53.3571 35.1119 55.2887 35.9319 57.1564C32.2419 55.8991 29.1533 53.4573 26.502 50.6602C26.5202 49.6945 26.584 48.7378 26.6751 47.772C27.1124 46.5603 27.6226 45.3758 28.1146 44.1914Z" fill="#ACA8B2"/>
<path d="M67.5108 44.0182C68.3764 43.016 70.6541 44.1731 69.7339 45.4395C68.8684 46.3597 66.6544 45.2573 67.5108 44.0182Z" fill="#86899A"/>
<path d="M70.9092 43.8537C70.9912 46.8876 73.6607 42.5326 70.9092 43.8537V43.8537Z" fill="#F1F2F6"/>
<path d="M60.1395 44.9564C60.4493 45.3572 60.7499 45.7672 61.0415 46.1772C61.743 45.6124 62.4537 45.0475 63.1735 44.4917C63.3648 45.3846 63.7566 47.1703 63.957 48.0723C62.7452 49.6121 61.4241 51.0517 60.0119 52.4092C59.8753 51.9081 59.5928 50.915 59.447 50.4139C56.7411 52.5823 53.6524 54.2496 50.254 55.0423C50.664 54.0947 51.0922 53.1654 51.5296 52.2361L52.1491 51.0061C51.5296 50.8239 50.2904 50.4594 49.6709 50.2772C49.9625 50.3228 50.5547 50.4048 50.8462 50.4412C52.8689 50.7328 54.8642 51.1974 56.896 51.3432C58.8639 49.7852 59.3377 47.1886 60.1395 44.9564Z" fill="#ACACB7"/>
<path d="M18.8489 53.2294C16.8992 51.9174 14.9585 50.2956 14.5576 47.8447C16.972 50.4778 20.0971 52.2818 23.368 53.6302L23.8873 53.8216C22.2109 53.6211 20.5254 53.4389 18.8489 53.2294Z" fill="#201F27"/>
<path d="M26.502 50.6606C29.1533 53.4577 32.2419 55.8995 35.9319 57.1568C38.3919 57.6853 40.8883 58.0315 43.3847 58.3139C50.3456 59.389 57.7437 56.9199 62.8003 52.0546L64.4586 51.426C63.0463 55.7355 58.673 57.3208 54.9922 59.1339C54.81 60.1635 54.6277 61.1839 54.4455 62.2043C53.58 62.4686 51.8489 62.997 50.9833 63.2612C50.9833 62.7874 50.9742 61.8308 50.9742 61.3479C50.7282 61.9583 50.2453 63.1792 49.9993 63.7897C49.0609 62.6143 48.1225 61.439 47.184 60.2728C46.4187 60.8012 45.6625 61.3297 44.9063 61.8581C44.2594 61.1201 43.6216 60.3912 42.9747 59.6624C42.3096 60.4459 41.6536 61.2295 40.9885 62.013C40.8518 61.3935 40.5694 60.1361 40.4327 59.5166C39.2574 59.7079 38.0912 59.9084 36.9159 60.1088C35.0846 58.9335 33.2623 57.7217 31.349 56.6922C30.7386 56.5373 29.5177 56.2366 28.9073 56.0817C27.8048 54.4235 26.8573 52.6469 26.502 50.6606Z" fill="#201F27"/>
<path d="M30.5835 75.2152C33.5901 73.9761 36.3417 72.1812 38.6194 69.8579C38.1912 73.3292 33.9455 76.181 30.5835 75.2152Z" fill="#201F27"/>
<path d="M10.1387 74.8779C16.5893 76.6546 23.6321 77.7844 30.0827 75.3426C30.1101 76.8459 30.1465 78.3492 30.1921 79.8526C29.9643 79.9437 29.5179 80.1259 29.2901 80.2261C28.2696 79.3515 27.2583 78.4586 26.2379 77.5839C25.8734 78.9232 25.5272 80.2626 25.1719 81.611C24.2243 80.5906 23.295 79.5428 22.2655 78.6043C21.2815 79.397 20.6346 80.5086 19.8875 81.5108C19.523 80.381 19.1586 79.2603 18.7942 78.1397C18.1382 78.3948 17.4731 78.6408 16.8171 78.8959C15.004 78.4859 13.1635 78.2126 11.3687 77.7479C10.904 76.8186 10.494 75.8619 10.1387 74.8779Z" fill="#201F27"/>
<path d="M23.3681 53.6294C22.8852 52.3812 22.4206 51.1239 22.0015 49.8574C22.867 49.9668 24.5981 50.1763 25.4637 50.2765C25.2359 51.6887 24.8623 53.0827 23.3681 53.6294Z" fill="#C4C2CB"/>
<path d="M62.8006 52.0538C63.156 51.4434 63.4931 50.8329 63.8211 50.2134C64.9417 50.4776 66.0624 50.7327 67.183 50.9878C66.6455 50.8876 65.5886 50.6872 65.0511 50.5778C64.5773 53.7758 68.0486 53.5389 69.9801 54.7325C71.857 55.9989 73.2145 57.8758 74.645 59.5978C73.7794 61.7388 72.8865 63.8799 72.103 66.0666C70.0348 65.2739 67.8573 64.7455 65.6342 64.6908C65.9986 64.2353 66.7366 63.3333 67.101 62.8777C67.8299 62.7957 69.2786 62.6408 69.9983 62.568C70.4175 62.8686 71.2374 63.4791 71.6474 63.7888C72.1668 62.158 73.5517 60.4724 72.5859 58.7413C72.021 57.7209 71.4014 56.7369 70.7363 55.7802C70.2899 58.3769 69.2057 60.8369 66.7639 62.1124C66.3813 61.4655 65.6342 60.1809 65.2606 59.534C63.7846 59.4429 62.3177 59.3426 60.8509 59.2424C59.3931 58.3404 57.5618 58.4953 56.3318 59.7253C56.4958 59.9257 56.8329 60.3175 57.006 60.518L57.5344 61.0555C56.514 61.4564 55.4845 61.8482 54.4458 62.2035C54.628 61.1831 54.8102 60.1626 54.9925 59.1331C58.6733 57.32 63.0466 55.7347 64.4588 51.4251L62.8006 52.0538ZM63.4111 54.7051C64.8233 56.1264 66.199 57.6298 66.8004 59.5886C67.6841 58.7869 69.233 58.2584 68.7684 56.7733C67.8755 54.7871 65.2879 54.7325 63.4111 54.7051ZM62.1993 58.2584C62.9282 59.1422 65.1422 58.3495 64.1308 57.156C63.4293 56.1902 61.3702 57.1469 62.1993 58.2584Z" fill="#6E6F80"/>
<path d="M65.0513 50.5786C65.5888 50.6879 66.6457 50.8884 67.1832 50.9886C69.953 51.5353 72.741 52.2095 75.2921 53.4759C76.0483 54.3506 76.7863 55.2435 77.4605 56.191C78.1347 57.2206 78.7269 58.2866 79.2554 59.3981C79.5469 60.5188 79.6198 61.6303 79.4832 62.7601L78.6525 63.2422C78.4065 61.7116 78.1438 60.4459 77.9069 58.9152C77.1143 59.5165 76.3307 60.1179 75.5381 60.7101C75.2374 60.3365 74.9459 59.963 74.6452 59.5985C73.2148 57.8766 71.8572 55.9997 69.9803 54.7332C68.0488 53.5397 64.5775 53.7766 65.0513 50.5786Z" fill="#D1D0DC"/>
<path d="M14.8129 53.6213C16.1431 53.4026 17.4916 53.2842 18.8491 53.2295C20.5255 53.439 22.2111 53.6213 23.8875 53.8217C25.6186 54.1861 26.9762 55.2704 27.9693 56.6917C22.4298 56.3819 16.626 55.1246 11.3689 57.621C8.89985 58.8328 7.10498 60.9648 5.45588 63.0967C4.79077 63.2243 4.12567 63.3519 3.45145 63.4794C2.80457 64.8916 2.13946 66.2947 1.49258 67.716C0.581473 65.7298 1.39236 63.7345 2.34902 61.9579C4.71789 57.211 9.6834 54.3775 14.8129 53.6213Z" fill="#D3D3DD"/>
<path d="M44.5141 53.1558C45.407 52.026 48.0219 53.174 46.965 54.5862C46.063 55.6067 43.5119 54.5589 44.5141 53.1558Z" fill="#8B8F9E"/>
<path d="M31.3491 56.6914C33.2625 57.721 35.0847 58.9327 36.916 60.108C38.0913 59.9076 39.2575 59.7072 40.4328 59.5158C40.5695 60.1354 40.852 61.3927 40.9886 62.0123C41.6537 61.2287 42.3097 60.4452 42.9748 59.6616C43.6217 60.3905 44.2595 61.1194 44.9064 61.8574C45.6626 61.3289 46.4188 60.8005 47.1841 60.272C48.1226 61.4383 49.061 62.6136 49.9994 63.7889L49.6623 64.5633C49.2432 64.4905 48.3959 64.3629 47.9677 64.2991C45.5441 63.8345 43.1206 63.3425 40.6971 62.8687C40.852 63.3607 41.1708 64.3538 41.3348 64.8549L40.9886 64.4085C40.0593 63.5338 39.0935 62.6956 38.1095 61.8847C38.0275 63.7251 38.2371 65.52 38.7291 67.2875C37.6813 68.2078 36.7611 69.374 35.4764 69.9662C35.8682 67.3787 38.7473 64.2445 36.1415 61.9303C35.3853 61.4383 34.5289 61.2378 33.5905 61.3198C33.1076 61.092 32.1418 60.6365 31.6589 60.4087L30.9756 60.1536C31.0758 59.2881 31.258 57.557 31.3491 56.6914Z" fill="#343636"/>
<path d="M62.199 58.2586C61.3699 57.147 63.429 56.1903 64.1305 57.1561C65.1418 58.3497 62.9279 59.1423 62.199 58.2586Z" fill="#B3B3BF"/>
<path d="M70.7359 55.7803C71.4011 56.7369 72.0206 57.7209 72.5855 58.7414C73.5513 60.4725 72.1664 62.158 71.6471 63.7889C71.2371 63.4791 70.4171 62.8687 69.998 62.568C69.2782 62.6409 67.8295 62.7958 67.1006 62.8778C66.7362 63.3333 65.9982 64.2353 65.6338 64.6909C65.0324 64.8184 63.8298 65.0826 63.2285 65.2102C58.764 64.2171 54.2267 64.4722 49.7077 64.5633H49.6621L49.9992 63.7889C50.2452 63.1784 50.7281 61.9576 50.9741 61.3471C50.9741 61.83 50.9832 62.7867 50.9832 63.2604C51.8488 62.9962 53.5799 62.4678 54.4454 62.2036C55.4841 61.8482 56.5136 61.4565 57.534 61.0556C58.5545 62.0304 59.5931 62.9689 60.6227 63.9164C62.7365 63.5793 64.8775 63.1876 66.7635 62.1124C69.2053 60.8369 70.2895 58.3769 70.7359 55.7803Z" fill="#E0DDE7"/>
<path d="M5.45557 63.0963C7.10467 60.9644 8.89954 58.8324 11.3686 57.6206C11.8151 57.8393 12.708 58.2766 13.1544 58.5044C12.3617 60.1353 11.888 61.8937 12.1795 63.725C13.9744 63.8799 16.5164 62.8595 17.4457 65.0279C15.7966 66.0848 13.3457 67.2783 11.6511 65.6383C9.60109 64.4721 10.1751 61.8846 9.79242 59.9348C6.968 61.2377 8.0431 64.9368 9.68309 66.759C11.5235 69.1187 14.6304 67.5152 17.0813 67.6063C20.097 67.7156 23.0763 68.3352 26.0921 68.4536C26.6752 67.7612 27.2583 67.0779 27.8414 66.3854C28.5794 66.3217 30.0645 66.1941 30.8025 66.1212C31.2398 66.4036 32.1145 66.9594 32.5518 67.2419C33.0711 65.5199 33.3536 63.7432 33.4811 61.9575L33.5905 61.3197C34.5289 61.2377 35.3853 61.4381 36.1416 61.9301C35.8773 62.2217 35.3307 62.8048 35.0665 63.0963C35.0482 65.5381 34.1371 67.8159 32.7614 69.793C31.5405 69.4559 30.3105 69.1187 29.0896 68.7816C28.3061 69.3374 27.5225 69.9023 26.739 70.4672C22.8759 71.0685 19.0492 69.547 15.2044 70.1938C13.6282 70.3123 11.7513 71.0594 10.4393 69.7656C8.38021 67.8796 7.04089 65.365 5.45557 63.0963Z" fill="#828796"/>
<path d="M56.332 59.7248C57.562 58.4949 59.3933 58.34 60.8511 59.242C59.6302 59.816 58.4002 60.5266 57.0062 60.5175C56.8331 60.3171 56.496 59.9253 56.332 59.7248Z" fill="#393943"/>
<path d="M57.0054 60.5182C58.3994 60.5273 59.6294 59.8167 60.8502 59.2427C62.3171 59.3429 63.784 59.4431 65.26 59.5342C65.6335 60.1811 66.3806 61.4658 66.7633 62.1127C64.8773 63.1878 62.7362 63.5795 60.6225 63.9166C59.5929 62.9691 58.5543 62.0307 57.5338 61.0558L57.0054 60.5182Z" fill="#9395A7"/>
<path d="M74.645 59.5979C74.9457 59.9623 75.2372 60.3359 75.5379 60.7094C76.3306 60.1172 77.1141 59.5159 77.9068 58.9146C78.1437 60.4452 78.4064 61.7111 78.6524 63.2417C77.3222 64.3442 75.9479 65.6841 74.6086 66.7774C74.4263 66.3309 74.0528 65.4289 73.8706 64.9734C73.2784 65.3287 72.6861 65.6932 72.103 66.0667C72.8866 63.8801 73.7795 61.739 74.645 59.5979Z" fill="#B4B0C1"/>
<path d="M24.9075 60.3906C26.1374 61.5477 26.839 63.0875 27.1761 64.7275C26.8663 67.9801 22.985 67.1875 20.689 67.2603C19.9237 66.3675 19.1402 65.4837 18.3657 64.609C20.6799 63.6888 23.0761 62.9873 25.4906 62.3859C23.8688 62.1946 22.2561 61.9759 20.6253 61.8666C22.1195 61.5751 23.6592 61.3382 24.9075 60.3906Z" fill="#9094A5"/>
<path d="M18.3657 64.6081C19.0491 63.6697 19.2768 62.0662 20.6253 61.8657C22.2561 61.9751 23.8688 62.1937 25.4906 62.3851C23.0761 62.9864 20.6799 63.6879 18.3657 64.6081Z" fill="#5C6073"/>
<path d="M35.0671 63.0965C35.3313 62.805 35.8779 62.2219 36.1422 61.9303C38.7479 64.2445 35.8688 67.3787 35.4771 69.9663C36.7617 69.374 37.6819 68.2078 38.7297 67.2876C38.2377 65.5201 38.0281 63.7252 38.1101 61.8848C39.0941 62.6956 40.0599 63.5339 40.9892 64.4085C40.7706 64.9187 40.3241 65.9392 40.1055 66.4494C39.6135 67.5792 39.1397 68.7272 38.6204 69.8569C36.3426 72.1802 33.5911 73.9751 30.5844 75.2142C30.466 75.2507 30.2109 75.3144 30.0833 75.3418C23.6327 77.7835 16.5899 76.6538 10.1392 74.8771C9.66547 74.6129 8.73615 74.0753 8.27148 73.8111C10.7406 71.6882 13.9386 72.4627 16.8632 72.8271C16.3074 71.9434 15.7516 71.0687 15.205 70.194C19.0498 69.5472 22.8765 71.0687 26.7396 70.4674C26.3569 71.3876 25.9925 72.3351 25.6645 73.2827C28.1882 72.5265 30.9215 71.834 32.762 69.7932C34.1377 67.8161 35.0488 65.5383 35.0671 63.0965ZM20.0794 71.4969C19.1683 72.7907 21.61 73.6471 22.4209 72.7816C23.3867 71.4422 20.8994 70.5949 20.0794 71.4969ZM23.496 71.1325C23.5598 74.1756 26.2567 69.8478 23.496 71.1325V71.1325Z" fill="#C5C2CC"/>
<path d="M3.45057 63.4789C4.12479 63.3513 4.7899 63.2237 5.455 63.0962C7.04032 65.3648 8.37965 67.8795 10.4387 69.7655C11.7507 71.0592 13.6276 70.3121 15.2038 70.1937C15.7505 71.0684 16.3063 71.943 16.862 72.8268C13.9374 72.4623 10.7394 71.6879 8.27032 73.8108C6.45722 72.7175 4.79901 71.4055 3.07702 70.1937C2.5668 69.3555 2.01103 68.5446 1.4917 67.7155C2.13858 66.2942 2.80369 64.8911 3.45057 63.4789Z" fill="#AFABB8"/>
<path d="M79.7193 66.2304C79.2273 68.8999 77.8333 71.3326 75.6194 72.9179C73.4327 73.6377 71.3007 74.5488 69.5241 76.043L69.0776 76.2799C69.2052 74.7583 69.2963 73.2368 69.3783 71.7061L71.477 70.4164L75.2353 68.3664L78.3102 64.6081L79.3352 60.1665L80.0186 62.5582V64.6081L79.7193 66.2304Z" fill="#484A57"/>
<path d="M40.6968 62.8687C43.1203 63.3424 45.5439 63.8344 47.9674 64.2991C48.4503 65.6657 48.9605 67.0324 49.5709 68.3535C49.9627 69.1553 50.3545 69.957 50.7645 70.7588C50.6278 71.0048 50.3636 71.4877 50.2269 71.7337C47.2294 70.2395 44.2956 68.4993 41.9905 66.0211C41.8265 65.7295 41.4985 65.1464 41.3346 64.8549C41.1706 64.3538 40.8517 63.3606 40.6968 62.8687Z" fill="#B1ADBA"/>
<path d="M78.652 63.2412V64.2662C77.2033 68.5302 74.2344 69.7746 70.2347 71.442C70.0251 71.5148 69.5878 71.6424 69.3782 71.7062C66.2531 72.5717 63.0278 73.6013 59.7388 73.0911C59.5839 72.6902 59.2741 71.8884 59.1101 71.4875C60.8503 71.2962 62.5814 71.114 64.3216 70.9226C63.4561 70.4215 62.5905 69.9204 61.7158 69.4284C62.381 66.9411 58.8459 66.4491 58.8276 69.0184C58.4723 69.392 57.7525 70.1209 57.3881 70.4853C54.9008 69.4011 52.2586 68.7451 49.5708 68.3533C48.9604 67.0322 48.4502 65.6656 47.9673 64.2989C48.3955 64.3627 49.2428 64.4902 49.6619 64.5631H49.7075C49.8806 66.5675 51.7393 66.3033 53.197 66.03C57.4792 64.9822 61.7614 66.8318 66.0891 66.3307C65.7247 67.3784 65.3603 68.4262 65.0049 69.474C67.5834 68.8362 70.0251 67.7338 72.1024 66.0664C72.6855 65.6929 73.2778 65.3284 73.87 64.9731C74.0522 65.4287 74.4258 66.3307 74.608 66.7771C75.9473 65.6838 77.3218 64.3436 78.652 63.2412ZM56.4679 67.6973C56.5408 70.7131 59.2376 66.3671 56.4679 67.6973V67.6973ZM62.7545 67.6335C62.7545 70.6584 65.5425 66.358 62.7545 67.6335V67.6335Z" fill="#BFBEC8"/>
<path opacity="0.97" d="M40.9883 64.4087L41.3345 64.8551C41.4985 65.1467 41.8265 65.7298 41.9905 66.0213C41.6716 68.9733 44.7967 70.0029 46.5278 71.7157C46.5551 72.636 46.5369 73.5562 46.4822 74.4855C44.3411 73.0368 42.4005 71.2784 40.8334 69.2193C40.5965 68.29 40.3505 67.3698 40.1045 66.4496C40.3232 65.9393 40.7696 64.9189 40.9883 64.4087Z" fill="#616169"/>
<path d="M63.228 65.2102C63.8294 65.0827 65.032 64.8185 65.6333 64.6909C67.8564 64.7456 70.034 65.274 72.1022 66.0667C70.0249 67.734 67.5831 68.8364 65.0047 69.4742C65.36 68.4264 65.7245 67.3787 66.0889 66.3309C65.1413 65.9391 64.1847 65.5565 63.228 65.2102Z" fill="#9094A2"/>
<path opacity="0.98" d="M40.1047 66.4497C40.3507 67.3699 40.5967 68.2901 40.8335 69.2195C40.3142 72.2443 38.6013 74.841 36.2962 76.8272C34.7656 76.6176 32.6974 77.0641 32.5698 78.9409C31.9685 79.1687 30.7841 79.6243 30.1919 79.8521C30.1463 78.3487 30.1099 76.8454 30.0825 75.3421C30.2101 75.3148 30.4652 75.251 30.5836 75.2145C33.9456 76.1803 38.1913 73.3285 38.6196 69.8572C39.1389 68.7275 39.6127 67.5795 40.1047 66.4497Z" fill="#484A57"/>
<path d="M46.5282 71.7154C44.7971 70.0025 41.672 68.973 41.9909 66.021C44.296 68.4992 47.2298 70.2394 50.2273 71.7336L50.0724 72.0343C49.9266 72.2894 49.6351 72.7996 49.4893 73.0547C51.6304 73.7836 53.7897 74.476 55.9399 75.1867C56.5868 74.9134 57.2428 74.64 57.8897 74.3758C58.4819 75.5056 59.0741 76.6445 59.6663 77.7742C59.8577 77.0089 60.2312 75.4783 60.4226 74.7129C61.9805 75.2596 63.1468 76.4076 64.1672 77.6649C64.5863 76.3347 65.0236 75.0136 65.461 73.6834C66.4905 74.6492 67.5383 75.6058 68.6043 76.5442C65.8801 77.9109 62.8188 78.7218 59.7666 78.2116C55.2201 77.5374 50.4095 77.0727 46.4827 74.4852C46.5373 73.5558 46.5555 72.6356 46.5282 71.7154Z" fill="#383A3C"/>
<path d="M56.4683 67.6977C56.5412 70.7135 59.238 66.3675 56.4683 67.6977V67.6977Z" fill="#F0EFF5"/>
<path d="M58.8276 69.0187C58.8459 66.4494 62.3809 66.9414 61.7158 69.4287C60.9961 69.3285 59.5474 69.1189 58.8276 69.0187Z" fill="#8C8F9F"/>
<path d="M62.7549 67.6336C62.7549 70.6585 65.5429 66.3581 62.7549 67.6336V67.6336Z" fill="#F3F3F7"/>
<path d="M29.0898 68.7817C30.3107 69.1188 31.5407 69.456 32.7616 69.7931C30.9211 71.8339 28.1878 72.5264 25.6641 73.2826C25.9921 72.335 26.3565 71.3875 26.7392 70.4673C27.5227 69.9024 28.3063 69.3375 29.0898 68.7817Z" fill="#9598A7"/>
<path d="M49.5708 68.3535C52.2586 68.7453 54.9008 69.4013 57.3881 70.4855C57.7525 70.1211 58.4723 69.3922 58.8276 69.0186C59.5474 69.1188 60.996 69.3284 61.7158 69.4286C62.5905 69.9206 63.456 70.4217 64.3216 70.9228C62.5814 71.1142 60.8503 71.2964 59.1101 71.4877C59.2741 71.8886 59.5838 72.6904 59.7387 73.0913C56.5225 72.7177 53.3154 72.1255 50.0719 72.0344L50.2268 71.7337C50.3635 71.4877 50.6277 71.0048 50.7643 70.7588C50.3544 69.9571 49.9626 69.1553 49.5708 68.3535Z" fill="#CBC7D1"/>
<path d="M1.39213 71.4973C1.81123 71.1693 0.675317 65.62 1.09442 65.292C2.81641 66.5038 6.45787 72.7182 8.27097 73.8115C8.73563 74.0757 9.66495 74.6133 10.1387 74.8775C10.4941 75.8615 10.9041 76.8181 11.3687 77.7475C13.1636 78.2121 15.004 78.4855 16.8171 78.8954C17.4731 78.6403 18.1382 78.3943 18.7942 78.1392C19.1587 79.2599 19.5231 80.3806 19.8875 81.5103C20.6346 80.5081 21.2815 79.3966 22.2655 78.6039C23.2951 79.5423 24.2244 80.5901 25.1719 81.6105C25.5273 80.2621 25.8735 78.9228 26.2379 77.5835C27.2584 78.4581 28.2697 79.351 29.2901 80.2257C24.024 83.1959 17.9013 81.4648 12.3892 80.2803C7.8063 78.9866 3.13234 76.1621 1.39213 71.4973Z" fill="#44444A"/>
<path d="M20.0785 71.4966C20.8985 70.5946 23.3858 71.442 22.4201 72.7813C21.6092 73.6468 19.1674 72.7904 20.0785 71.4966Z" fill="#878B99"/>
<path d="M23.4956 71.1326C23.5594 74.1757 26.2563 69.8479 23.4956 71.1326V71.1326Z" fill="#F2F1F7"/>
<path d="M50.0729 72.0341C53.3164 72.1252 56.5235 72.7174 59.7397 73.0909C63.0288 73.6012 66.2541 72.5716 69.3792 71.7061C69.2972 73.2367 69.206 74.7583 69.0785 76.2798C68.96 76.3436 68.7232 76.4802 68.6047 76.544C67.5387 75.6056 66.4909 74.6489 65.4614 73.6831C65.0241 75.0134 64.5867 76.3345 64.1676 77.6647C63.1472 76.4074 61.981 75.2594 60.423 74.7127C60.2317 75.478 59.8581 77.0087 59.6668 77.774C59.0746 76.6442 58.4823 75.5054 57.8901 74.3756C57.2432 74.6398 56.5872 74.9131 55.9404 75.1865C53.7902 74.4758 51.6308 73.7834 49.4897 73.0545C49.6355 72.7994 49.9271 72.2892 50.0729 72.0341Z" fill="#1A1A1F"/>
<path opacity="0.87" d="M69.5244 76.0435C71.3011 74.5493 73.433 73.6382 75.6197 72.9185C73.9159 74.522 71.7384 75.4058 69.5244 76.0435Z" fill="#27252A"/>
<path opacity="0.83" d="M32.5698 78.941C32.6974 77.0641 34.7656 76.6177 36.2962 76.8272C35.4307 78.0754 34.1096 78.9045 32.5698 78.941Z" fill="#252426"/>
<path opacity="0.83" fill-rule="evenodd" clip-rule="evenodd" d="M67.1352 27.0912C60.1864 26.3868 52.754 29.7687 49.9402 36.2437L49.5038 37.2481L48.5431 36.7224C42.8801 33.624 36.2728 32.9668 29.6886 32.4281C23.8184 32.691 17.5849 35.1852 15.196 40.5437L15.139 40.6715L15.0492 40.7787C13.7117 42.3749 13.088 44.6047 13.1919 46.8843C13.2958 49.1637 14.1233 51.3866 15.5492 52.9458L16.82 54.3354L14.9571 54.61C10.0612 55.3318 5.42883 58.0222 3.24218 62.4039L3.23524 62.4178L3.22788 62.4315C2.96781 62.9145 2.75562 63.2392 2.58549 63.4861C2.53036 63.5661 2.48641 63.6289 2.45049 63.6803C2.36307 63.8053 2.32331 63.8621 2.2861 63.9321C2.23465 64.029 2.16267 64.1799 2.13473 65.2802L2.12276 65.7516L2.03759 65.8183C2.038 65.9321 2.04348 66.0783 2.05507 66.258C2.09021 66.8029 2.17115 67.5145 2.25649 68.2623L2.2587 68.2817C2.34141 69.0065 2.42799 69.7652 2.46666 70.3648C2.48594 70.6638 2.49597 70.9595 2.4812 71.2073C2.47655 71.2852 2.46865 71.3744 2.45357 71.4673C4.12213 75.5059 8.30738 78.0822 12.6294 79.3088C13.0929 79.4085 13.5566 79.511 14.0203 79.6134C16.3528 80.1288 18.6861 80.6444 21.0031 80.8132C23.7646 81.0143 26.3942 80.7097 28.7973 79.3543L28.8405 79.33L28.8859 79.31C29.1305 79.2024 29.5906 79.0148 29.8192 78.9233L29.8315 78.9184L29.9641 78.8675C30.5854 78.6285 31.652 78.2182 32.2143 78.0052L32.374 77.9447L32.5448 77.9407C33.7163 77.913 34.7599 77.2853 35.4731 76.2568L35.5457 76.1522L35.6421 76.0691C37.8105 74.2007 39.3747 71.7995 39.8468 69.0496L40.2359 66.7838L41.6282 68.6132C43.1197 70.573 44.9752 72.2579 47.0367 73.6534C50.3748 75.8508 54.3971 76.4283 58.5644 77.0266C59.012 77.0909 59.4613 77.1554 59.9117 77.2221L59.9208 77.2235L59.9299 77.225C62.6978 77.6877 65.5339 76.9623 68.1406 75.657C68.1895 75.6304 68.2629 75.5891 68.3484 75.5408C68.4334 75.4929 68.5326 75.437 68.6025 75.3993L68.6079 75.3964L69.1463 75.1108L69.2462 75.082C71.4072 74.4594 73.4023 73.6303 74.933 72.1896L74.9817 72.1437L75.0361 72.1047C77.0128 70.6893 78.2834 68.4984 78.7349 66.049L79.0175 64.5166V62.6772L78.3063 59.7338C77.8101 58.6998 77.2575 57.7097 76.6328 56.7542C75.9883 55.8499 75.2774 54.9895 74.5336 54.1292L73.6265 53.0801L74.9085 52.5509C75.7055 52.2219 76.9032 51.7576 77.8937 51.3785C78.3907 51.1883 78.8384 51.0184 79.1619 50.896C79.3237 50.8348 79.4544 50.7855 79.5448 50.7515L79.6215 50.7226L83.0553 48.8684C83.0668 48.8555 83.0791 48.8417 83.0923 48.8269C83.1883 48.7188 83.3273 48.5598 83.496 48.3598C83.834 47.9589 84.287 47.3979 84.7488 46.756C85.2122 46.1119 85.6742 45.4008 86.0372 44.6987C86.3928 44.0113 86.6244 43.3875 86.6993 42.8756V39.0689H88.1205L86.7197 38.9793C86.7836 37.9818 86.7019 36.9899 86.4798 36.0006C86.4382 35.9198 86.3967 35.8391 86.3552 35.7585C85.7545 34.5907 85.1672 33.4491 84.4401 32.446C83.6511 31.3576 82.7463 30.5055 81.5846 30.0301C77.0474 28.2122 72.1104 27.5833 67.1376 27.0915L67.1352 27.0912ZM88.6993 39.106V43.0053L88.6916 43.0673C88.584 43.9253 88.2307 44.8112 87.8137 45.6175C87.391 46.435 86.87 47.2323 86.3722 47.9241C85.8729 48.6182 85.3863 49.2205 85.025 49.649C84.844 49.8637 84.6935 50.0358 84.5874 50.1553C84.5343 50.215 84.4922 50.2617 84.4629 50.2939L84.4287 50.3314L84.4192 50.3418L84.4164 50.3448L84.4155 50.3458C84.4154 50.3459 84.4149 50.3464 83.6814 49.6668L84.4155 50.3458L84.3023 50.468L80.4522 52.547L80.3884 52.571L80.2497 52.6231C80.1601 52.6569 80.0302 52.7059 79.8694 52.7667C79.5477 52.8884 79.1025 53.0573 78.6087 53.2463C78.078 53.4495 77.4944 53.6745 76.9485 53.8886C77.4039 54.4431 77.8499 55.0149 78.2736 55.6104L78.2848 55.6262L78.2954 55.6424C78.9962 56.7124 79.6103 57.8183 80.1568 58.9679L80.2014 59.0616L81.0175 62.4389V64.6995L80.7017 66.4115C80.7017 66.4116 80.7017 66.4115 80.7017 66.4115C80.1731 69.2798 78.6742 71.936 76.2548 73.6917C74.4139 75.4027 72.1169 76.3285 69.9005 76.9746L69.5507 77.1602C69.55 77.1606 69.5493 77.161 69.5486 77.1614C69.5212 77.1761 69.4847 77.1964 69.4417 77.2206C69.4082 77.2393 69.3709 77.2604 69.3309 77.2829L69.3234 77.2871C69.2402 77.3341 69.1447 77.3879 69.0768 77.4245L69.064 77.4313L69.0511 77.4378C66.2158 78.8602 62.9379 79.7529 59.6095 79.1992C59.164 79.1332 58.7122 79.0689 58.2555 79.004C54.1549 78.4207 49.6682 77.7826 45.9311 75.32L45.9208 75.3133C44.2468 74.1806 42.6835 72.8602 41.3118 71.3537C40.4766 73.7653 38.939 75.8439 37.0412 77.503C36.0536 78.8685 34.5543 79.8322 32.7716 79.9329C32.1904 80.154 31.2531 80.5145 30.6821 80.7341L30.556 80.7826C30.3422 80.8682 29.9547 81.0265 29.7344 81.1219C26.8844 82.7145 23.8363 83.0248 20.8578 82.8079C18.3821 82.6275 15.8798 82.0738 13.5469 81.5575C13.0833 81.4549 12.6264 81.3538 12.1778 81.2574L12.1467 81.2507L12.1162 81.2421C7.3963 79.9096 2.35538 76.9434 0.453891 71.8462L0.198031 71.1603L0.488289 70.9332C0.487876 70.8194 0.482391 70.6732 0.470804 70.4935C0.435663 69.9486 0.354727 69.2369 0.269386 68.4891L0.267178 68.4698C0.184463 67.745 0.0978823 66.9863 0.0592167 66.3867C0.0399351 66.0877 0.0299079 65.792 0.044677 65.5442C0.0519003 65.423 0.0670031 65.2746 0.104727 65.1273C0.111599 65.1004 0.122958 65.0571 0.141845 65.0035C0.171764 64.082 0.240255 63.5201 0.519961 62.9937C0.620032 62.8053 0.753421 62.6155 0.863781 62.4584C0.890348 62.4206 0.91558 62.3847 0.938691 62.3511C1.0755 62.1526 1.24495 61.8943 1.45984 61.4965C3.75375 56.9127 8.25807 54.0484 13.0341 52.9404C11.9066 51.1827 11.2895 49.0721 11.1939 46.9754C11.0744 44.3523 11.7673 41.6482 13.4263 39.6032C16.3155 33.3001 23.4951 30.6874 29.6655 30.4272L29.7274 30.4246L29.7891 30.4296C36.008 30.9378 42.6795 31.5588 48.5658 34.4793C52.083 27.6839 60.0626 24.3644 67.3358 25.1013C72.3108 25.5934 77.5038 26.2399 82.3315 28.1748L82.3377 28.1772C83.9624 28.8409 85.1385 30.0018 86.0594 31.2722C86.8816 32.4065 87.5392 33.6862 88.1281 34.8325C88.1911 34.955 88.2532 35.076 88.3147 35.1951L88.3712 35.3045L88.3995 35.4243C88.6855 36.6375 88.7951 37.8661 88.7157 39.107L88.6993 39.106Z" fill="#343636"/>
<path opacity="0.96" d="M98.6943 28.3398C105.469 22.7849 115.172 23.2745 123.095 25.8561C125.864 26.96 129.549 27.8591 130.217 31.2775C131.418 35.7197 137.338 36.8235 137.24 41.9868C137.187 42.6811 137.08 44.0788 137.027 44.7731C136.884 42.1114 135.62 40.8473 132.994 41.239C132.727 40.8918 132.193 40.1974 131.917 39.8503C131.668 38.5862 132.665 34.1707 130.715 36.7434C130.555 34.7493 129.709 31.411 128.036 34.5713C127.012 33.3962 125.988 32.2122 124.777 31.2241C124.555 30.9659 124.101 30.4585 123.878 30.2004C122.125 27.1558 118.359 27.0223 115.261 26.5772C113.036 26.2478 110.694 25.4911 108.585 26.5505C107.436 26.9689 106.306 27.4407 105.166 27.8769C103.813 28.3932 102.451 29.0075 101.481 30.1113C100.332 31.2775 99.5489 32.7286 98.7121 34.1173C98.3026 33.4674 97.8753 32.8354 97.4302 32.2122C96.807 33.7434 96.2373 35.3013 95.6497 36.8502C94.7773 33.6633 96.8604 30.7345 98.6943 28.3398Z" fill="#EDBD13"/>
<path d="M108.584 26.5504C110.694 25.4911 113.036 26.2477 115.261 26.5771L115.065 27.5029C114.656 27.4673 113.846 27.3961 113.436 27.3605C111.825 27.0222 110.205 26.7641 108.584 26.5504Z" fill="#E69E14"/>
<path d="M105.166 27.8772C106.305 27.441 107.436 26.9692 108.584 26.5508C110.205 26.7644 111.825 27.0226 113.436 27.3609C111.13 27.6279 108.896 28.1443 106.724 28.9009L106.03 28.8475C105.816 28.6072 105.38 28.1265 105.166 27.8772Z" fill="#C3650B"/>
<path d="M115.261 26.5771C118.359 27.0223 122.124 27.1558 123.878 30.2003C123.041 31.9006 122.124 33.5564 120.967 35.052C118.065 34.5623 116.08 37.3665 113.08 37.046C111.647 35.9778 110.525 33.5119 112.519 32.3902C113.685 31.0193 115.848 31.6959 117.041 30.4229C112.937 27.957 111.406 33.2448 107.748 32.2033C108.736 30.3516 110.659 29.4881 112.501 28.7226C113.142 28.6424 114.433 28.4911 115.074 28.411C117.041 29.4881 118.84 30.868 119.863 32.9155C124.092 30.4051 117.041 28.5712 115.065 27.503L115.261 26.5771ZM113.409 33.227C110.472 35.052 115.759 37.1707 116.641 34.687C117.789 32.2656 114.798 33.138 113.409 33.227Z" fill="#CA790B"/>
<path d="M101.48 30.1114C102.451 29.0075 103.813 28.3933 105.166 27.877C105.38 28.1262 105.816 28.6069 106.029 28.8473C105.709 30.1915 105.282 31.5357 105.246 32.9334C106.483 34.1886 108.478 32.604 109.564 34.1351C110.044 37.0461 105.495 36.9571 104.098 35.0788C102.024 33.8147 104.534 30.0669 101.48 30.1114Z" fill="#CE8208"/>
<path d="M106.724 28.9004C108.896 28.1437 111.131 27.6274 113.436 27.3604C113.846 27.396 114.656 27.4672 115.065 27.5028L115.074 28.4108C114.433 28.4909 113.143 28.6423 112.502 28.7224C110.57 28.7936 108.647 29.1853 106.724 28.9004Z" fill="#F6DF5C"/>
<path d="M115.065 27.5029C117.042 28.5712 124.092 30.405 119.864 32.9154C118.84 30.8679 117.042 29.4881 115.074 28.4109L115.065 27.5029Z" fill="#F8D917"/>
<path d="M106.029 28.8473L106.724 28.9007C108.647 29.1856 110.57 28.7939 112.501 28.7227C110.659 29.4882 108.736 30.3517 107.748 32.2034C111.406 33.2449 112.937 27.9571 117.041 30.423C115.848 31.696 113.685 31.0194 112.519 32.3903C110.525 33.512 111.647 35.9779 113.08 37.0461L112.955 37.8829C109.51 36.8948 105.059 38.6841 102.157 36.0847C101.828 34.1084 101.623 32.1055 101.48 30.1114C104.534 30.0669 102.024 33.8147 104.098 35.0788C105.495 36.9571 110.044 37.0461 109.564 34.1351C108.478 32.604 106.483 34.1886 105.246 32.9334C105.282 31.5357 105.709 30.1915 106.029 28.8473Z" fill="#F7D51E"/>
<path d="M98.7119 34.1173C99.5487 32.7286 100.332 31.2775 101.48 30.1113C101.623 32.1054 101.828 34.1084 102.157 36.0846L101.418 35.8532C100.394 35.4437 99.0769 35.3636 98.7119 34.1173Z" fill="#CE7F07"/>
<path d="M120.967 35.0518C122.125 33.5563 123.041 31.9005 123.878 30.2002C124.101 30.4584 124.555 30.9658 124.777 31.2239C124.92 32.4168 125.089 33.6097 125.276 34.8026L124.831 35.6928C123.522 35.6661 122.196 35.5415 120.967 35.0518Z" fill="#FBDC29"/>
<path d="M124.777 31.2241C125.988 32.2123 127.012 33.3962 128.036 34.5713C129.709 31.4111 130.555 34.7494 130.715 36.7434C130.608 36.966 130.404 37.4111 130.297 37.6336C128.561 38.7909 127.056 40.2598 125.222 41.2657C125.863 39.4408 124.314 39.0491 122.89 38.6218C125.142 38.4348 126.246 36.8859 125.276 34.8028C125.089 33.6099 124.92 32.417 124.777 31.2241Z" fill="#DA9109"/>
<path d="M97.4304 32.2124C97.8755 32.8356 98.3028 33.4676 98.7123 34.1175C99.0773 35.3638 100.395 35.4439 101.419 35.8534C102.567 38.1679 104.205 41.4617 107.81 38.9513C112.03 38.3549 116.187 40.7762 120.344 39.2006C123.015 42.4409 115.582 43.3133 114.131 42.7436C110.214 42.8593 106.057 41.3282 102.318 43.1086C101.962 43.0374 101.232 42.8949 100.875 42.8237C98.7479 41.3727 96.8873 39.5745 95.4541 37.4468L95.6499 36.8504C96.2375 35.3014 96.8072 33.7436 97.4304 32.2124Z" fill="#DE9D11"/>
<path d="M113.409 33.2272C114.798 33.1382 117.789 32.2658 116.641 34.6872C115.76 37.1709 110.472 35.0522 113.409 33.2272Z" fill="#F9DB19"/>
<path d="M113.08 37.0463C116.08 37.3667 118.065 34.5626 120.967 35.0522C122.195 35.5418 123.522 35.6664 124.831 35.6931C124.314 38.0255 122.133 36.6991 120.522 36.7703C118.483 38.5685 115.457 38.7822 112.955 37.8831L113.08 37.0463Z" fill="#E39F10"/>
<path d="M125.276 34.8027C126.246 36.8858 125.143 38.4348 122.89 38.6217C122.036 38.7998 121.181 38.9867 120.344 39.2004C116.187 40.7761 112.03 38.3547 107.81 38.9511C104.205 41.4615 102.567 38.1677 101.418 35.8532L102.157 36.0846C105.059 38.6841 109.51 36.8947 112.956 37.8829C115.457 38.782 118.484 38.5683 120.522 36.7701C122.134 36.6989 124.315 38.0253 124.831 35.6929L125.276 34.8027Z" fill="#BF680A"/>
<path d="M130.715 36.7434C132.665 34.1707 131.668 38.5862 131.917 39.8503C131.739 40.0728 131.383 40.5357 131.205 40.7672C130.101 42.1025 129.727 43.8562 129.077 45.4319C128.659 45.6723 127.84 46.1441 127.43 46.3844C127.163 46.5447 126.62 46.8651 126.353 47.0254C124.697 47.7554 123.015 48.423 121.395 49.242C121.644 47.6752 121.902 46.1085 122.035 44.5239C124.964 42.4942 129.228 41.4705 130.297 37.6337C130.403 37.4111 130.608 36.966 130.715 36.7434Z" fill="#995509"/>
<path d="M95.4541 37.4468C96.8873 39.5744 98.7479 41.3726 100.875 42.8237C100.849 43.3044 100.795 44.2569 100.769 44.7376C99.5847 44.5418 98.4096 44.3103 97.2434 44.0432C97.012 43.7139 96.558 43.064 96.3265 42.7435C96.1663 41.8444 95.9971 40.9542 95.8013 40.064L95.641 39.2183C95.5965 38.7732 95.4986 37.883 95.4541 37.4468Z" fill="#9F5D0F"/>
<path d="M125.223 41.2654C127.056 40.2594 128.561 38.7906 130.297 37.6333C129.228 41.4701 124.964 42.4939 122.036 44.5235C115.599 45.663 108.05 46.8915 102.317 43.1081C106.056 41.3277 110.214 42.8588 114.13 42.7431C115.582 43.3129 123.015 42.4404 120.344 39.2001C121.181 38.9864 122.036 38.7995 122.89 38.6214C124.315 39.0487 125.863 39.4404 125.223 41.2654Z" fill="#EDB315"/>
<path opacity="0.95" d="M83.0264 50.0521C83.5872 43.5447 89.9611 40.3933 95.6407 39.2183L95.8009 40.064C94.9997 43.1085 91.0116 43.1886 89.0086 45.2183C87.8691 46.3934 87.0857 47.8355 86.2667 49.2331C84.8157 45.3963 83.9611 50.3014 83.1065 51.9305C83.0798 51.4587 83.0442 50.524 83.0264 50.0521Z" fill="#EDBE13"/>
<path d="M95.8011 40.064C95.9969 40.9542 96.1661 41.8444 96.3263 42.7435C94.2254 43.607 92.2314 45.5566 92.8367 48.0314C93.9139 49.705 97.0118 47.0254 96.353 50.0165C95.4005 50.4438 94.4302 50.8444 93.4598 51.2361C90.9138 50.5774 90.3352 48.0759 90.6379 45.7702C90.2373 45.6278 89.4183 45.3607 89.0088 45.2183C91.0118 43.1886 94.9999 43.1085 95.8011 40.064Z" fill="#CC7E09"/>
<path d="M131.205 40.7675C131.383 40.536 131.739 40.0731 131.917 39.8506C132.193 40.1978 132.727 40.8921 132.994 41.2393C132.602 43.5094 131.908 46.5094 129.095 46.7141C128.685 46.634 127.849 46.4738 127.43 46.3847C127.84 46.1444 128.659 45.6726 129.077 45.4322C130.902 44.818 132.433 42.5746 131.205 40.7675Z" fill="#C26D07"/>
<path d="M129.077 45.4318C129.727 43.8561 130.101 42.1024 131.205 40.7671C132.433 42.5742 130.902 44.8176 129.077 45.4318Z" fill="#DC9D10"/>
<path d="M132.994 41.2389C135.62 40.8472 136.884 42.1113 137.027 44.773L137.062 45.4318L136.555 45.7611C134.739 46.7849 133.252 48.2715 131.445 49.2864C132.13 47.4258 130.564 47.0787 129.095 46.7137C131.908 46.5089 132.602 43.5089 132.994 41.2389Z" fill="#DC9508"/>
<path d="M92.8366 48.031C92.2313 45.5562 94.2253 43.6067 96.3262 42.7432C96.5577 43.0636 97.0117 43.7135 97.2431 44.0429C96.7268 45.209 96.0948 46.3218 95.525 47.4613C97.1986 46.7936 99.1126 44.755 100.154 47.3189C97.6615 47.3901 97.4746 50.1675 96.531 51.9123C96.4865 51.4405 96.3974 50.488 96.3529 50.0162C97.0117 47.0251 93.9138 49.7046 92.8366 48.031Z" fill="#F7D520"/>
<path d="M100.875 42.8237C101.231 42.8949 101.961 43.0374 102.318 43.1086C108.05 46.892 115.599 45.6635 122.036 44.524C121.902 46.1086 121.644 47.6754 121.395 49.2422C120.318 49.9899 118.982 49.9454 117.727 50.0255C117.896 47.8356 117.896 45.5745 115.039 46.3935C115.591 47.6398 116.214 48.8505 116.819 50.079L116.846 50.8534C116.196 50.7822 114.887 50.6487 114.237 50.5775C111.78 50.2659 109.315 49.9721 106.84 50.0255C108.193 51.0048 109.448 52.4469 111.22 52.5537C116.828 53.5597 122.748 54.4054 128.249 52.4914C128.125 53.7911 127.938 55.073 127.751 56.3639C129.166 56.0078 130.626 53.7911 131.97 55.2867C130.288 56.533 128.873 58.1443 126.985 59.0879C127.813 57.0048 125.73 56.5953 124.19 56.0879C125.748 59.3639 121.706 58.2244 119.267 58.3045C115.751 58.2333 112.306 57.6101 108.878 56.9158C108.229 56.1591 107.588 55.3935 106.964 54.619C107.525 50.7377 102.825 49.7674 100.769 47.2481C100.769 46.616 100.769 45.3697 100.769 44.7377C100.795 44.257 100.849 43.3044 100.875 42.8237Z" fill="#804008"/>
<path d="M97.243 44.043C98.4092 44.31 99.5843 44.5415 100.768 44.7373C100.768 45.3694 100.768 46.6157 100.768 47.2477L100.154 47.3189C99.1125 44.7551 97.1985 46.7937 95.5249 47.4614C96.0946 46.3219 96.7267 45.2091 97.243 44.043Z" fill="#C3770D"/>
<path d="M86.2671 49.2331C87.0861 47.8355 87.8695 46.3933 89.0089 45.2183C89.0713 47.7999 89.2404 50.5773 91.1187 52.5536C92.6677 52.7138 94.2345 52.6515 95.7835 52.6248C94.457 53.2302 93.0861 53.7376 91.7775 54.3696C89.3027 56.4972 89.7745 52.5892 89.0089 51.0937C88.0475 50.5061 86.6143 50.5328 86.2671 49.2331Z" fill="#CC7C08"/>
<path d="M89.0088 45.2183C89.4183 45.3607 90.2373 45.6278 90.6379 45.7702C90.3352 48.0758 90.9138 50.5773 93.4598 51.2361C94.2432 51.6812 95.0177 52.1441 95.7833 52.6248C94.2343 52.6515 92.6676 52.7138 91.1186 52.5536C89.2402 50.5773 89.0711 47.7999 89.0088 45.2183Z" fill="#F5D424"/>
<path d="M131.445 49.2865C133.252 48.2716 134.739 46.785 136.555 45.7612C135.291 49.4645 131.232 50.5595 128.249 52.4912C122.748 54.4052 116.828 53.5595 111.22 52.5535C112.11 51.7256 113.062 50.9601 114.238 50.5773C114.887 50.6485 116.196 50.782 116.846 50.8532C119.979 50.8443 123.549 51.6366 126.318 49.7227C128.089 49.3221 126.825 48.0313 126.353 47.0253C126.62 46.8651 127.163 46.5446 127.43 46.3844C127.849 46.4734 128.686 46.6336 129.095 46.7138C130.564 47.0787 132.131 47.4259 131.445 49.2865Z" fill="#EDB215"/>
<path d="M136.555 45.7615L137.063 45.4321C137.428 46.6161 136.867 48.4232 138.113 49.1354C138.362 49.3224 138.861 49.6873 139.11 49.8743C137.757 49.9633 136.03 49.812 136.386 51.7259C135.122 53.1592 133.742 54.5123 131.971 55.2868C130.626 53.7912 129.166 56.0078 127.751 56.3639C127.938 55.0731 128.125 53.7912 128.249 52.4915C131.232 50.5597 135.291 49.4648 136.555 45.7615Z" fill="#99560A"/>
<path d="M115.039 46.3933C117.896 45.5743 117.896 47.8354 117.727 50.0254L116.819 50.0788C116.214 48.8503 115.591 47.6396 115.039 46.3933Z" fill="#632906"/>
<path d="M83.1067 51.9306C83.9613 50.3016 84.8159 45.3965 86.2669 49.2333C86.6141 50.533 88.0473 50.5063 89.0088 51.0938C89.7744 52.5894 89.3025 56.4974 91.7773 54.3698C92.2402 54.3787 93.1572 54.3965 93.6201 54.4143C93.6201 55.0464 93.629 56.3194 93.6379 56.9603C90.2818 56.6755 94.1097 58.1087 92.9435 59.8446C91.3411 59.4885 89.9524 58.5983 88.4836 57.8951C86.3114 56.5776 84.4509 54.7882 83.0889 52.6339L83.1067 51.9306Z" fill="#DF9F11"/>
<path d="M96.5312 51.9128C97.4748 50.1679 97.6618 47.3905 100.154 47.3193L100.769 47.248C101.935 50.2303 102.852 54.895 106.964 54.619C107.588 55.3935 108.229 56.1591 108.878 56.9157C106.929 57.1116 105.051 57.6279 103.199 58.2333C102.816 58.1709 102.059 58.0374 101.677 57.9751C99.4333 56.4973 97.9733 54.1294 95.7834 52.6249C95.0178 52.1442 94.2433 51.6813 93.46 51.2362C94.4303 50.8445 95.4006 50.4439 96.3531 50.0166C96.3977 50.4884 96.4867 51.4409 96.5312 51.9128Z" fill="#DE9D10"/>
<path d="M100.769 47.248C102.825 49.7673 107.525 50.7377 106.964 54.619C102.852 54.895 101.935 50.2303 100.769 47.248Z" fill="#B56A0C"/>
<path d="M121.395 49.242C123.015 48.423 124.698 47.7554 126.354 47.0254C126.825 48.0313 128.089 49.3221 126.318 49.7227C123.549 51.6367 119.98 50.8444 116.846 50.8533L116.819 50.0788L117.727 50.0254C118.983 49.9453 120.318 49.9898 121.395 49.242Z" fill="#D99C14"/>
<path d="M106.84 50.0254C109.315 49.972 111.781 50.2657 114.238 50.5773C113.062 50.9601 112.11 51.7257 111.22 52.5536C109.448 52.4467 108.193 51.0046 106.84 50.0254Z" fill="#DDA011"/>
<path opacity="0.97" d="M136.386 51.7257C136.03 49.8117 137.757 49.963 139.11 49.874C142.662 50.2479 147.478 52.2242 147.959 56.0699L147.932 56.8889C147.184 57.4497 146.437 58.0373 145.716 58.6337C144.3 57.2183 143.214 55.518 141.772 54.1203C140.552 52.2242 138.603 51.4764 136.386 51.7257Z" fill="#F1BD15"/>
<path d="M136.386 51.7256C138.602 51.4764 140.552 52.2242 141.772 54.1203C140.89 55.874 140.098 57.6812 138.914 59.2479C138.344 59.6574 137.792 60.0669 137.24 60.4942C134.775 61.0284 131.32 62.8177 129.807 59.7554C130.021 59.4883 130.439 58.9631 130.653 58.696C131.392 60.1649 133.76 60.2895 134.463 58.7227C134.214 57.2539 132.015 58.0996 131.009 58.1352C131.632 56.8177 133.493 57.3429 134.65 56.8889C133.76 56.3458 132.852 55.8384 131.97 55.2865C133.742 54.512 135.122 53.1589 136.386 51.7256ZM135.496 53.4705C136.519 54.601 137.169 58.4111 138.941 56.0877C139.742 53.9067 136.831 54.0669 135.496 53.4705Z" fill="#D1890C"/>
<path opacity="0.97" d="M83.089 52.6338C84.451 54.7881 86.3116 56.5774 88.4837 57.8949C88.4837 59.3193 88.7508 60.7792 88.2612 62.1502C86.0534 60.9573 84.3798 59.0522 83 56.9958C83 55.5448 83.0356 54.0848 83.089 52.6338Z" fill="#9C5B0E"/>
<path d="M95.7833 52.625C97.9732 54.1295 99.4332 56.4974 101.676 57.9752C101.863 59.2037 102.095 60.4233 102.309 61.6428C101.49 61.3758 100.671 61.0909 99.8605 60.7882C99.5222 60.0316 99.0593 59.3728 98.4806 58.7942C98.2314 58.5449 97.7418 58.0464 97.4925 57.7971C97.3234 55.6161 96.0237 53.7823 93.6201 54.4143C93.1572 54.3965 92.2403 54.3787 91.7773 54.3698C93.086 53.7378 94.4569 53.2303 95.7833 52.625Z" fill="#A45C0D"/>
<path d="M135.496 53.4707C136.831 54.0671 139.742 53.9069 138.941 56.0879C137.169 58.4114 136.519 54.6013 135.496 53.4707Z" fill="#FADD1A"/>
<path d="M93.6201 54.414C96.0237 53.7819 97.3234 55.6158 97.4925 57.7968C96.2195 57.4763 94.9287 57.1914 93.6379 56.96C93.629 56.319 93.6201 55.046 93.6201 54.414Z" fill="#CE850B"/>
<path d="M138.914 59.2477C140.098 57.681 140.89 55.8738 141.772 54.1201C142.163 56.0341 142.644 57.9124 143 59.8353C141.62 59.7106 140.258 59.5415 138.914 59.2477Z" fill="#F9D929"/>
<path d="M141.771 54.1201C143.214 55.5177 144.3 57.2181 145.715 58.6335C146.436 58.037 147.184 57.4495 147.932 56.8887C148.573 60.316 146.774 63.3071 143.837 65.0608C143.552 64.589 142.973 63.6454 142.688 63.1825C142.84 62.0697 143.338 60.9569 143 59.8353C142.644 57.9124 142.163 56.0341 141.771 54.1201Z" fill="#DA910C"/>
<path d="M126.985 59.0878C128.872 58.1442 130.288 56.5329 131.97 55.2866C132.852 55.8386 133.76 56.346 134.65 56.889C133.493 57.343 131.632 56.8178 131.009 58.1353L130.653 58.6961C130.439 58.9632 130.021 59.4884 129.807 59.7555C129.282 60.2985 128.757 60.8504 128.232 61.3935C127.635 61.9899 127.039 62.5953 126.442 63.2006C125.062 63.6546 123.647 64.0552 122.214 64.2778C122.534 62.8089 122.944 61.349 123.033 59.8356C122.819 58.2777 120.415 58.9187 119.267 58.3044C121.706 58.2243 125.748 59.3638 124.19 56.0878C125.73 56.5952 127.813 57.0047 126.985 59.0878Z" fill="#A05A0A"/>
<path d="M147.958 56.0698L148.786 56.2746C148.804 56.7108 148.84 57.5743 148.849 58.0105C148.831 59.4526 148.813 60.9037 148.795 62.3547C145.813 65.5684 142.217 68.061 138.006 69.334C131.872 70.9364 125.24 70.0016 119.427 67.607C118.768 66.9393 118.128 66.2627 117.584 65.4972L118.279 64.9808C118.964 65.061 120.335 65.2301 121.021 65.3102C126.291 66.7168 132.184 67.9542 137.534 66.3785C139.404 66.334 138.318 64.5981 138.3 63.4675C139.76 63.3161 141.22 63.2627 142.688 63.1826C142.973 63.6455 143.552 64.5891 143.837 65.061C146.775 63.3072 148.573 60.3161 147.932 56.8888L147.958 56.0698Z" fill="#E8AC13"/>
<path d="M92.9437 59.8444C94.1099 58.1085 90.282 56.6752 93.6381 56.9601C94.9289 57.1916 96.2197 57.4764 97.4927 57.7969C97.742 58.0462 98.2316 58.5447 98.4809 58.7939C97.1633 59.3192 95.8102 59.7643 94.4927 60.2717C94.1099 60.1649 93.3354 59.9512 92.9437 59.8444Z" fill="#F2B714"/>
<path d="M103.199 58.233C105.05 57.6277 106.929 57.1114 108.878 56.9155C112.306 57.6099 115.751 58.233 119.267 58.3043C120.415 58.9185 122.819 58.2776 123.033 59.8354C116.49 60.4408 108.967 62.1945 103.199 58.233Z" fill="#EAAC12"/>
<path d="M88.4838 57.8945C89.9526 58.5978 91.3414 59.488 92.9437 59.8441C93.3354 59.9509 94.1099 60.1646 94.4927 60.2714C95.8369 60.4049 98.5254 60.6631 99.8607 60.7877C100.671 61.0904 101.49 61.3753 102.309 61.6423C102.095 60.4227 101.864 59.2031 101.677 57.9747C102.06 58.037 102.816 58.1705 103.199 58.2328C108.968 62.1943 116.49 60.4405 123.033 59.8352C122.944 61.3486 122.534 62.8085 122.214 64.2774L121.439 64.4465C120.549 61.9183 117.861 61.9717 118.279 64.9806L117.585 65.4969C116.356 67.1705 114.531 65.6661 112.991 65.399C104.801 64.0637 95.5788 67.2507 88.2612 62.1497C88.7508 60.7788 88.4838 59.3189 88.4838 57.8945Z" fill="#7A3B08"/>
<path d="M131.009 58.1352C132.015 58.0996 134.214 57.2539 134.463 58.7227C133.76 60.2895 131.392 60.1649 130.653 58.696L131.009 58.1352Z" fill="#FCE41A"/>
<path d="M98.4803 58.7939C99.059 59.3726 99.5219 60.0313 99.8602 60.788C98.5248 60.6634 95.8364 60.4052 94.4922 60.2717C95.8097 59.7643 97.1628 59.3192 98.4803 58.7939Z" fill="#CB8B10"/>
<path d="M137.24 60.4943C137.792 60.067 138.344 59.6575 138.914 59.248C140.258 59.5418 141.62 59.711 143 59.8356C141.691 62.0967 139.234 60.5923 137.24 60.4943Z" fill="#E7A611"/>
<path d="M128.231 61.3934C128.757 60.8503 129.282 60.2984 129.807 59.7554C131.32 62.8177 134.775 61.0284 137.24 60.4942C136.048 64.3667 131.045 62.248 128.231 61.3934Z" fill="#ECB112"/>
<path d="M143 59.8354C143.339 60.9571 142.84 62.0699 142.689 63.1826C141.22 63.2628 139.76 63.3162 138.3 63.4675C138.318 64.5981 139.404 66.334 137.534 66.3785C135.024 63.0491 130.074 64.331 126.442 63.2005C127.039 62.5951 127.635 61.9898 128.232 61.3933C131.045 62.2479 136.048 64.3666 137.241 60.4942C139.235 60.5921 141.692 62.0966 143 59.8354Z" fill="#C57209"/>
<path d="M118.279 64.9812C117.86 61.9723 120.549 61.9188 121.439 64.447L121.021 65.3105C120.335 65.2304 118.964 65.0613 118.279 64.9812Z" fill="#964B07"/>
<path opacity="0.98" d="M138.006 69.3342C142.217 68.0612 145.813 65.5686 148.795 62.355C148.84 63.0939 148.947 64.5805 149 65.3194C148.412 66.7437 147.736 68.1146 147.015 69.4678C144.38 70.6696 141.878 72.1384 139.252 73.3669C139.306 71.7467 140.863 68.9336 138.006 69.3342Z" fill="#93530D"/>
<path d="M122.213 64.2778C123.647 64.0553 125.062 63.6547 126.442 63.2007C130.074 64.3313 135.024 63.0493 137.534 66.3787C132.184 67.9544 126.291 66.717 121.021 65.3105L121.439 64.447L122.213 64.2778Z" fill="#DB9B14"/>
<path opacity="0.98" d="M112.991 65.3994C114.531 65.6665 116.356 67.1709 117.585 65.4973C118.128 66.2629 118.769 66.9395 119.427 67.6071C118.813 68.6487 118.261 69.7258 117.647 70.7585C115.858 69.1917 114.229 67.4291 112.991 65.3994Z" fill="#A25F10"/>
<path d="M117.647 70.7583C118.261 69.7256 118.813 68.6485 119.427 67.6069C125.24 70.0016 131.873 70.9363 138.006 69.3339C140.864 68.9334 139.306 71.7464 139.252 73.3666C138.416 73.8028 137.534 74.1144 136.6 74.2835C133.484 74.1856 130.377 74.0254 127.27 74.2746C123.789 74.1233 120.318 73.0639 117.647 70.7583Z" fill="#7F400A"/>
<path fill-rule="evenodd" clip-rule="evenodd" d="M130.217 31.2775C129.636 28.305 126.774 27.2374 124.216 26.2837C123.833 26.1406 123.456 26.0001 123.095 25.8561C115.172 23.2745 105.469 22.7849 98.6944 28.3398C96.8605 30.7345 94.7774 33.6633 95.6498 36.8502L95.4541 37.4468C95.4743 37.6453 95.5056 37.9378 95.5379 38.2395C95.5766 38.6009 95.6167 38.9757 95.641 39.2183C89.9614 40.3933 83.5872 43.5447 83.0264 50.0521C83.0442 50.5239 83.0798 51.4587 83.1065 51.9305L83.089 52.6338C83.0356 54.0848 83 55.5447 83 56.9957C84.3798 59.0521 86.0534 60.9572 88.2612 62.1501C92.9953 65.4502 98.5269 65.2813 104.06 65.1123C107.08 65.0201 110.1 64.9278 112.991 65.3993C114.229 67.4289 115.858 69.1917 117.647 70.7585C120.318 73.0641 123.789 74.1235 127.27 74.2748C129.965 74.0586 132.66 74.1505 135.36 74.2426C135.773 74.2566 136.186 74.2707 136.599 74.2837C137.534 74.1146 138.415 73.803 139.252 73.3668C140.501 72.7825 141.722 72.1439 142.942 71.5055C144.288 70.8015 145.633 70.0979 147.015 69.4676C147.736 68.1145 148.412 66.7436 149 65.3192C148.947 64.5804 148.84 63.0936 148.795 62.3547L148.849 58.0104C148.84 57.5902 148.807 56.7733 148.789 56.324L148.787 56.2745L147.959 56.0699C147.478 52.2242 142.662 50.248 139.11 49.8741C138.985 49.7806 138.798 49.6426 138.611 49.5046C138.424 49.3666 138.237 49.2286 138.113 49.1352C137.289 48.6647 137.255 47.7161 137.221 46.7851C137.203 46.307 137.186 45.8336 137.062 45.4319L137.027 44.7731C137.053 44.4274 137.093 43.9073 137.133 43.3866C137.173 42.8614 137.214 42.3354 137.241 41.9868C137.295 39.1191 135.493 37.5036 133.674 35.8729C132.218 34.5676 130.751 33.2525 130.217 31.2775ZM135.242 41.8961C135.254 40.287 134.424 39.259 132.868 37.839C132.709 37.6937 132.537 37.5415 132.357 37.3818C130.939 36.1234 128.987 34.3917 128.286 31.7998L128.268 31.7309L128.254 31.6609C128.069 30.7126 127.494 30.0451 126.434 29.4253C125.595 28.9347 124.692 28.5976 123.665 28.2148C123.268 28.0667 122.853 27.9117 122.416 27.7383C114.82 25.2766 106.102 24.9985 100.138 29.7444C99.2745 30.8795 98.4892 31.9852 97.9823 33.116C97.462 34.2768 97.3033 35.3153 97.5789 36.3222L97.7377 36.9024L97.4878 37.6637C97.4991 37.7693 97.5113 37.8833 97.5237 37.9997C97.5644 38.3803 97.6079 38.7879 97.6311 39.0193L97.8103 40.8118L96.0462 41.1768C93.3762 41.7292 90.6642 42.7258 88.6002 44.2459C86.6072 45.7138 85.2802 47.6114 85.0299 50.107C85.0489 50.6077 85.0801 51.4069 85.1033 51.8174L85.1079 51.8988L85.0881 52.6955L85.0876 52.7074C85.0425 53.9343 85.0105 55.1603 85.0021 56.377C86.2118 58.0865 87.5674 59.5019 89.2119 60.3905L89.3117 60.4444L89.4049 60.5093C92.5506 62.7022 96.1745 63.1792 100.303 63.1868C101.541 63.189 102.72 63.1525 103.935 63.1149C104.817 63.0876 105.717 63.0598 106.672 63.0458C108.842 63.0139 111.092 63.0632 113.313 63.4253L114.22 63.5732L114.699 64.3582C115.799 66.1625 117.273 67.7724 118.959 69.2489C121.177 71.1611 124.129 72.1155 127.238 72.2711C130.014 72.0581 132.789 72.1531 135.44 72.244C135.775 72.2554 136.108 72.2668 136.438 72.2775C137.092 72.1401 137.718 71.911 138.328 71.5933L138.366 71.5734L138.405 71.5552C139.612 70.9903 140.797 70.3706 142.028 69.7268L142.203 69.6349C143.287 69.0679 144.407 68.4848 145.56 67.9388C146.069 66.9588 146.544 65.9804 146.971 64.9853C146.914 64.1981 146.836 63.0887 146.799 62.4749L146.795 62.4026L146.849 58.0196C146.847 57.9697 146.846 57.9143 146.844 57.8546L146.145 57.6817L145.974 56.318C145.839 55.2401 145.082 54.2371 143.66 53.3865C142.247 52.5416 140.446 52.0258 138.9 51.8631L138.351 51.8053L137.91 51.4741C137.793 51.3863 137.613 51.2538 137.424 51.1138L137.417 51.109C137.271 51.0008 137.118 50.8882 136.996 50.7973C135.579 49.9139 135.336 48.4399 135.265 47.6376C135.241 47.3677 135.228 47.0213 135.218 46.767C135.214 46.6641 135.211 46.5763 135.208 46.5148C135.191 46.1992 135.166 46.0697 135.151 46.0211L135.078 45.7854L135.023 44.7499L135.033 44.6197C135.057 44.2992 135.098 43.7654 135.139 43.2309C135.178 42.7273 135.216 42.2232 135.242 41.8961Z" fill="#572D0A"/>
<path d="M35.4232 31.4504C31.5318 21.0135 36.6804 10.3371 38.2968 0L41.0507 1.37695C42.1483 2.05545 44.3634 3.4324 45.4609 4.1109C47.5563 6.84484 51.6273 6.58542 53.4632 3.69183C66.0553 10.8959 81.0222 10.9957 94.1531 16.6831C97.7651 19.3372 101.277 22.1709 104.151 25.6432C104.311 25.8228 104.61 26.1621 104.75 26.3417C105.308 27.4792 106.406 29.7741 106.965 30.9116C107.623 32.0091 108.96 34.2043 109.619 35.3018L109.599 36.4393C108.881 39.2531 107.783 41.9671 105.987 44.2819C100.299 39.6722 94.0733 35.6211 86.9091 33.7054C86.2506 35.5014 85.5721 37.2974 84.9136 39.0934C78.5277 35.5014 75.255 28.9559 71.3037 23.1487C66.5742 19.1775 57.7936 17.2817 59.8291 9.33932C55.2592 7.66303 50.4499 6.92467 45.5807 6.88476C45.2414 11.8937 45.1616 17.3216 49.4122 20.8139L49.512 22.7496C48.5142 22.1909 46.5186 21.0534 45.5208 20.4946C44.2835 21.9314 43.0662 23.3483 41.8489 24.7652C41.829 23.9071 41.809 22.1909 41.7891 21.3328C42.9665 15.4458 46.4388 9.17968 43.0662 3.33262C41.35 4.76944 39.6538 6.24617 37.9775 7.76281C38.0773 11.9136 37.7181 16.0844 36.7602 20.1354C35.1238 25.7829 37.6782 31.3506 38.7757 36.8185C40.5119 43.1844 40.6117 49.8696 42.4476 56.1956C44.1638 60.1668 46.1993 64.0182 47.3966 68.189C44.1239 63.4595 39.2148 59.0093 39.2547 52.843C38.9553 45.5591 38.0174 38.2952 35.4232 31.4504Z" fill="#45ACD2"/>
<path d="M45.4604 4.11125C48.1146 2.81413 50.7687 2.67444 53.4627 3.69218C51.6268 6.58578 47.5558 6.8452 45.4604 4.11125Z" fill="#1B5470"/>
<path d="M37.9776 7.7632C39.6538 6.24656 41.3501 4.76983 43.0663 3.33301C46.4388 9.18006 42.9665 15.4462 41.7891 21.3331C40.5319 21.0338 38.0175 20.4351 36.7603 20.1358C37.7181 16.0848 38.0773 11.914 37.9776 7.7632Z" fill="#17495A"/>
<path d="M45.5804 6.88477C50.4496 6.92468 55.259 7.66304 59.8289 9.33933C57.7934 17.2817 66.5739 19.1775 71.3034 23.1488C75.2547 28.9559 78.5275 35.5014 84.9133 39.0934C85.5719 37.2974 86.2504 35.5014 86.9089 33.7054C94.073 35.6211 100.299 39.6722 105.987 44.282C107.783 41.9671 108.88 39.2531 109.599 36.4393L110.736 36.6788L110.636 38.4948C111.415 39.0934 112.951 40.2908 113.73 40.8895C116.703 51.6856 114.208 62.9406 114.208 73.9563C113.769 75.3332 113.37 76.7301 112.991 78.127C110.237 79.6836 107.543 81.32 104.869 82.9763C109.14 78.0472 108.78 71.2023 111.554 65.5549C113.47 60.067 114.488 53.5215 111.814 48.1135C109.479 51.506 108.641 56.6745 104.29 58.1512C96.5476 57.3331 88.4455 60.8453 81.002 57.1734C74.0773 51.8851 71.1039 43.3241 66.2546 36.3795C65.5562 37.497 64.1593 39.752 63.4608 40.8895C65.5761 43.0647 67.6914 45.2598 69.8068 47.4549L68.2502 48.2731C63.5207 46.078 60.7468 41.4881 57.055 38.0358C56.4563 31.5302 54.8998 25.0246 49.4119 20.8139C45.1613 17.3217 45.2412 11.8937 45.5804 6.88477Z" fill="#7EC5E0"/>
<path d="M38.7758 36.8188C37.6783 31.3509 35.1239 25.7832 36.7603 20.1357C38.0175 20.4351 40.5319 21.0338 41.7892 21.3331C41.8091 22.1912 41.8291 23.9074 41.849 24.7655C43.0663 23.3486 44.2836 21.9318 45.5209 20.4949C46.5187 21.0537 48.5143 22.1912 49.5121 22.75V24.1868C46.9178 28.6569 41.8091 32.5682 42.5076 38.2357C42.787 43.2645 43.5054 48.2535 44.0641 53.2624C44.8224 53.4619 46.3391 53.8611 47.0775 54.0606C47.9755 59.5285 48.7338 65.9742 54.5409 68.4488C57.1751 63.6594 59.3303 56.1959 66.4346 58.3711C65.4967 63.4399 61.3459 66.7525 58.0532 70.3446C61.3658 72.4798 64.6386 74.6949 67.9313 76.91L64.7783 77.1096C58.113 76.6107 51.7072 73.2382 47.3967 68.1893C46.1994 64.0186 44.1639 60.1671 42.4477 56.1959C40.6118 49.8699 40.512 43.1847 38.7758 36.8188Z" fill="#1F667F"/>
<path d="M49.4116 20.814C54.8995 25.0246 56.456 31.5302 57.0547 38.0358C58.9904 42.8053 61.9439 47.0758 64.3984 51.5858C59.4494 51.3464 55.1389 48.9317 53.4427 44.1423C53.2631 43.8629 52.9238 43.2842 52.7642 43.0048C52.0258 41.7077 50.5691 39.1134 49.8307 37.8163C49.5912 33.2863 49.4915 28.7364 49.5114 24.1865V22.7497L49.4116 20.814Z" fill="#A4D7E9"/>
<path d="M42.5068 38.2354C41.8084 32.568 46.9171 28.6566 49.5113 24.1865C49.4914 28.7364 49.5912 33.2864 49.8306 37.8163C48.6931 40.6102 47.4559 43.4239 47.4758 46.4971C50.11 47.0359 52.7442 47.5947 55.3783 48.1734C54.62 54.1003 52.1854 59.6281 51.2874 65.535C55.4981 60.7855 59.3296 55.6968 64.3784 51.7655C66.813 53.4817 69.3075 55.118 71.6423 56.954C72.7 58.8498 72.5603 60.9252 72.241 62.9607C72.5004 66.892 76.751 68.6082 79.0858 64.8166C79.2455 65.2157 79.5648 65.994 79.7244 66.3731C78.8264 70.7035 77.0703 74.7546 75.0947 78.6859C72.7 78.0672 70.3252 77.4686 67.9305 76.9098C64.6378 74.6947 61.3651 72.4796 58.0524 70.3443C61.3451 66.7523 65.4959 63.4396 66.4339 58.3708C59.3296 56.1957 57.1744 63.6591 54.5402 68.4485C48.7331 65.974 47.9747 59.5283 47.0767 54.0604C46.3384 53.8608 44.8217 53.4617 44.0634 53.2621C43.5046 48.2532 42.7862 43.2643 42.5068 38.2354Z" fill="#164556"/>
<path d="M66.2548 36.3794C71.104 43.324 74.0774 51.8851 81.0021 57.1734C88.4456 60.8452 96.5477 57.333 104.291 58.1512C102.175 59.149 100.04 60.1069 97.9047 61.0049C91.8581 62.9007 85.6917 64.2776 79.7249 66.373C79.5653 65.9938 79.246 65.2155 79.0863 64.8164C76.8712 61.9827 74.4167 59.2887 71.6428 56.9538C69.308 55.1179 66.8135 53.4815 64.3789 51.7653C65.3368 50.9072 67.2725 49.1511 68.2503 48.2731L69.8069 47.4549C67.6916 45.2597 65.5763 43.0646 63.4609 40.8894C64.1594 39.7519 65.5563 37.4969 66.2548 36.3794Z" fill="#ADDAEB"/>
<path d="M49.8311 37.8164C50.5695 39.1135 52.0262 41.7078 52.7646 43.0049C52.9242 43.2843 53.2635 43.863 53.4431 44.1424C55.1393 48.9318 59.4498 51.3464 64.3988 51.5859C61.9443 47.0759 58.9908 42.8054 57.0551 38.0359C60.7469 41.4883 63.5208 46.0781 68.2503 48.2732C67.2725 49.1513 65.3368 50.9074 64.3789 51.7655C59.3301 55.6968 55.4985 60.7855 51.2879 65.535C52.1859 59.6281 54.6205 54.1003 55.3788 48.1735C52.7446 47.5948 50.1105 47.036 47.4763 46.4972C47.4564 43.424 48.6936 40.6102 49.8311 37.8164Z" fill="#3291B5"/>
<path d="M111.814 48.1138C114.488 53.5218 113.47 60.0673 111.554 65.5551C108.78 71.2026 109.139 78.0475 104.869 82.9766L103.931 84.3735C96.6271 81.7992 88.6448 86.5088 81.9796 81.5996C81.2213 81.2803 79.7046 80.6218 78.9463 80.3025C84.5738 73.1583 93.0551 68.8079 97.9043 61.0052C100.04 60.1072 102.175 59.1493 104.29 58.1515C108.641 56.6748 109.479 51.5063 111.814 48.1138Z" fill="#216B87"/>
<path d="M71.6426 56.9546C74.4164 59.2894 76.871 61.9835 79.0861 64.8172C76.7513 68.6088 72.5007 66.8926 72.2413 62.9613C72.5605 60.9258 72.7002 58.8504 71.6426 56.9546Z" fill="#4396B3"/>
<path d="M79.7247 66.3735C85.6915 64.2781 91.8579 62.9012 97.9045 61.0054C93.0552 68.8081 84.574 73.1585 78.9465 80.3026C74.0373 80.2029 69.2479 79.2051 64.7778 77.1097L67.9309 76.9102C70.3256 77.4689 72.7003 78.0676 75.095 78.6862C77.0706 74.7549 78.8267 70.7039 79.7247 66.3735Z" fill="#2E91B6"/>
<path fill-rule="evenodd" clip-rule="evenodd" d="M45.4609 4.1109C44.9121 3.77163 44.0839 3.25774 43.2557 2.74386C42.4276 2.23002 41.5995 1.71619 41.0507 1.37695L38.2968 0C38.1899 0.683385 38.0676 1.36825 37.9335 2.05444C37.5049 4.24766 36.9557 6.45432 36.4044 8.66897C34.5195 16.2422 32.6113 23.9088 35.4232 31.4504C38.0174 38.2952 38.9553 45.5591 39.2547 52.843C39.2238 57.6052 42.1447 61.3437 44.984 64.9779C45.8213 66.0495 46.6514 67.112 47.3966 68.189C51.7071 73.2378 58.113 76.6108 64.7782 77.1097C69.2483 79.205 74.0375 80.2029 78.9466 80.3027C79.3258 80.4623 79.8945 80.7067 80.4632 80.9512C81.0319 81.1956 81.6007 81.4401 81.9799 81.5998C85.7675 84.3894 89.9803 84.073 94.2523 83.7522C97.498 83.5085 100.778 83.2622 103.931 84.3736L104.869 82.9764C107.543 81.3201 110.237 79.6837 112.991 78.1272C113.37 76.7303 113.769 75.3334 114.209 73.9564C114.209 70.5074 114.453 67.035 114.698 63.5605C115.235 55.9379 115.772 48.3055 113.73 40.8896C113.34 40.5903 112.762 40.1413 112.183 39.6923C111.604 39.2433 111.026 38.7943 110.636 38.4949L110.736 36.6789L109.599 36.4393L109.619 35.3018C109.29 34.7532 108.791 33.9303 108.292 33.1074C107.793 32.284 107.294 31.4605 106.965 30.9116C106.685 30.3428 106.271 29.4847 105.857 28.6266C105.443 27.7685 105.029 26.9104 104.75 26.3417C104.61 26.1621 104.311 25.8228 104.151 25.6432C101.277 22.1709 97.7651 19.3372 94.1531 16.6831C88.3762 14.1809 82.2439 12.7602 76.1148 11.3403C68.3125 9.53279 60.5154 7.72646 53.4632 3.69183C50.7692 2.67408 48.1151 2.81377 45.4609 4.1109ZM52.6161 5.51103C50.5036 4.75051 48.4657 4.86849 46.3391 5.90778L45.3478 6.39226L44.4093 5.81209C43.8595 5.4722 43.0311 4.9582 42.2046 4.44542L42.2013 4.44336C41.4103 3.95255 40.6214 3.46306 40.0756 3.12547L39.7878 2.9816C39.4242 4.76671 38.9929 6.54252 38.5598 8.28883C38.4883 8.57708 38.4168 8.86441 38.3455 9.15092C37.7632 11.491 37.1945 13.7762 36.7592 16.0619C35.7848 21.1789 35.5381 26.0301 37.2953 30.7468C39.9953 37.873 40.9494 45.3748 41.253 52.7609L41.2549 52.8084L41.2546 52.8559C41.2383 55.3747 42.2232 57.6333 43.7532 59.954C44.5198 61.1168 45.3935 62.252 46.3148 63.4326C46.3975 63.5385 46.4806 63.6449 46.5641 63.7517C47.3738 64.7879 48.2169 65.867 48.9814 66.9647C52.9593 71.5835 58.8482 74.6602 64.9275 75.1153L65.2942 75.1427L65.6271 75.2988C69.8157 77.2622 74.3248 78.2083 78.9873 78.3031L79.37 78.3108L79.7227 78.4594C80.1079 78.6216 80.6799 78.8674 81.242 79.109L81.2531 79.1138C81.8249 79.3596 82.3854 79.6005 82.756 79.7565L82.9748 79.8486L83.166 79.9894C85.882 81.9898 88.8984 82.105 92.5871 81.8664C93.059 81.8359 93.5463 81.7984 94.0464 81.76C96.8146 81.5471 99.9752 81.304 103.086 82.0444L103.449 81.5034L103.816 81.2762C106.265 79.7591 108.746 78.2494 111.282 76.7985C111.573 75.7489 111.88 74.6942 112.209 73.6454C112.224 70.2401 112.47 66.7301 112.71 63.2984C112.855 61.241 112.997 59.2117 113.086 57.2498C113.324 52.0096 113.215 46.9552 111.97 42.0578C111.66 41.8181 111.309 41.5458 110.96 41.2749L110.957 41.2724C110.377 40.8223 109.802 40.3764 109.417 40.0802L108.582 39.4375L108.645 38.2823L107.57 38.0558L107.609 35.8411C107.312 35.349 106.948 34.7478 106.581 34.1433L106.58 34.1406C106.082 33.32 105.582 32.4935 105.25 31.9405L105.207 31.8686L105.17 31.7934C104.887 31.219 104.472 30.3577 104.061 29.5056L104.056 29.4958C103.689 28.7344 103.325 27.9812 103.055 27.4292C102.94 27.2931 102.78 27.111 102.656 26.9719L102.633 26.9456L102.61 26.9184C99.9436 23.6962 96.6604 21.0163 93.1519 18.4295C87.6141 16.0597 81.7412 14.6981 75.6692 13.2904C74.8325 13.0964 73.9921 12.9015 73.1482 12.7031C66.236 11.0772 59.1472 9.21512 52.6161 5.51103Z" fill="#0B3A4B"/>
</svg>
